M48
; DRILL file KiCad 10.0.6 date 2026-09-05T14:14:17
; FORMAT={-:-/ absolute / metric / decimal}
; #@! TF.CreationDate,2026-09-05T14:14:17-04:00
; #@! TF.GenerationSoftware,Kicad,Pcbnew,10.0.6
; #@! TF.FileFunction,NonPlated,1,2,NPTH
FMAT,2
METRIC
; #@! TA.AperFunction,NonPlated,NPTH,ComponentDrill
T1C1.750
; #@! TA.AperFunction,NonPlated,NPTH,ComponentDrill
T2C3.048
; #@! TA.AperFunction,NonPlated,NPTH,ComponentDrill
T3C3.988
%
G90
G05
T1
X40.784Y-47.712
X40.784Y-66.762
X43.165Y-142.962
X45.547Y-85.812
X47.928Y-104.862
X50.944Y-47.712
X50.944Y-66.762
X52.69Y-123.912
X53.325Y-142.962
X55.707Y-85.812
X58.088Y-104.862
X59.834Y-47.712
X59.834Y-66.762
X62.85Y-123.912
X66.978Y-142.962
X69.359Y-85.812
X69.994Y-47.712
X69.994Y-66.762
X74.122Y-104.862
X77.138Y-142.962
X78.884Y-47.712
X78.884Y-66.762
X79.519Y-85.812
X83.647Y-123.912
X84.282Y-104.862
X88.409Y-85.812
X89.044Y-47.712
X89.044Y-66.762
X90.79Y-142.962
X93.172Y-104.862
X93.807Y-123.912
X97.934Y-47.712
X97.934Y-66.762
X98.569Y-85.812
X100.95Y-142.962
X102.697Y-123.912
X103.332Y-104.862
X107.459Y-85.812
X108.094Y-47.712
X108.094Y-66.762
X112.222Y-104.862
X112.857Y-123.912
X116.984Y-47.712
X116.984Y-66.762
X117.619Y-85.812
X121.747Y-123.912
X122.382Y-104.862
X126.509Y-85.812
X127.144Y-47.712
X127.144Y-66.762
X131.272Y-104.862
X131.907Y-123.912
X136.034Y-47.712
X136.034Y-66.762
X136.669Y-85.812
X140.797Y-123.912
X141.432Y-104.862
X145.559Y-85.812
X146.194Y-47.712
X146.194Y-66.762
X150.322Y-104.862
X150.957Y-123.912
X155.084Y-47.712
X155.084Y-66.762
X155.084Y-142.962
X155.719Y-85.812
X159.847Y-123.912
X160.482Y-104.862
X164.609Y-85.812
X165.244Y-47.712
X165.244Y-66.762
X165.244Y-142.962
X169.372Y-104.862
X170.007Y-123.912
X174.134Y-47.712
X174.134Y-66.762
X174.769Y-85.812
X178.897Y-123.912
X179.532Y-104.862
X183.659Y-85.812
X184.294Y-47.712
X184.294Y-66.762
X188.422Y-104.862
X189.057Y-123.912
X193.184Y-47.712
X193.184Y-66.762
X193.819Y-85.812
X197.947Y-123.912
X198.582Y-104.862
X202.709Y-85.812
X203.344Y-47.712
X203.344Y-66.762
X207.472Y-104.862
X208.107Y-123.912
X212.234Y-47.712
X212.234Y-66.762
X212.869Y-85.812
X216.997Y-123.912
X216.997Y-142.962
X217.632Y-104.862
X221.759Y-85.812
X222.394Y-47.712
X222.394Y-66.762
X226.522Y-104.862
X227.157Y-123.912
X227.157Y-142.962
X231.284Y-47.712
X231.284Y-66.762
X231.919Y-85.812
X236.047Y-123.912
X236.047Y-142.962
X236.682Y-104.862
X240.809Y-85.812
X241.444Y-47.712
X241.444Y-66.762
X245.572Y-104.862
X246.207Y-123.912
X246.207Y-142.962
X250.334Y-47.712
X250.334Y-66.762
X250.969Y-85.812
X255.097Y-123.912
X255.097Y-142.962
X255.732Y-104.862
X259.859Y-85.812
X260.494Y-47.712
X260.494Y-66.762
X264.622Y-104.862
X265.257Y-123.912
X265.257Y-142.962
X269.384Y-47.712
X269.384Y-66.762
X270.019Y-85.812
X274.782Y-104.862
X278.909Y-85.812
X279.544Y-47.712
X279.544Y-66.762
X288.434Y-47.712
X288.434Y-123.912
X288.434Y-142.962
X289.069Y-85.812
X295.578Y-104.862
X297.959Y-66.762
X298.594Y-47.712
X298.594Y-123.912
X298.594Y-142.962
X302.722Y-85.812
X305.738Y-104.862
X307.484Y-47.712
X307.484Y-123.912
X307.484Y-142.962
X308.119Y-66.762
X312.882Y-85.812
X317.644Y-47.712
X317.644Y-123.912
X317.644Y-142.962
X326.534Y-47.712
X326.534Y-66.762
X326.534Y-85.812
X326.534Y-104.862
X326.534Y-123.912
X326.534Y-142.962
X336.694Y-47.712
X336.694Y-66.762
X336.694Y-85.812
X336.694Y-104.862
X336.694Y-123.912
X336.694Y-142.962
T2
X45.864Y-116.927
X69.677Y-116.927
X122.064Y-135.977
X198.264Y-135.977
X288.752Y-97.877
X291.133Y-59.777
X312.564Y-97.877
X314.945Y-59.777
T3
X45.864Y-47.712
X45.864Y-66.762
X45.864Y-132.167
X48.245Y-142.962
X50.627Y-85.812
X53.008Y-104.862
X57.77Y-123.912
X64.914Y-47.712
X64.914Y-66.762
X69.677Y-132.167
X72.058Y-142.962
X74.439Y-85.812
X79.202Y-104.862
X83.964Y-47.712
X83.964Y-66.762
X88.727Y-123.912
X93.489Y-85.812
X95.87Y-142.962
X98.252Y-104.862
X103.014Y-47.712
X103.014Y-66.762
X107.777Y-123.912
X112.539Y-85.812
X117.302Y-104.862
X122.064Y-47.712
X122.064Y-66.762
X122.064Y-151.217
X126.827Y-123.912
X131.589Y-85.812
X136.352Y-104.862
X141.114Y-47.712
X141.114Y-66.762
X145.877Y-123.912
X150.639Y-85.812
X155.402Y-104.862
X160.164Y-47.712
X160.164Y-66.762
X160.164Y-142.962
X164.927Y-123.912
X169.689Y-85.812
X174.452Y-104.862
X179.214Y-47.712
X179.214Y-66.762
X183.977Y-123.912
X188.739Y-85.812
X193.502Y-104.862
X198.264Y-47.712
X198.264Y-66.762
X198.264Y-151.217
X203.027Y-123.912
X207.789Y-85.812
X212.552Y-104.862
X217.314Y-47.712
X217.314Y-66.762
X222.077Y-123.912
X222.077Y-142.962
X226.839Y-85.812
X231.602Y-104.862
X236.364Y-47.712
X236.364Y-66.762
X241.127Y-123.912
X241.127Y-142.962
X245.889Y-85.812
X250.652Y-104.862
X255.414Y-47.712
X255.414Y-66.762
X260.177Y-123.912
X260.177Y-142.962
X264.939Y-85.812
X269.702Y-104.862
X274.464Y-47.712
X274.464Y-66.762
X283.989Y-85.812
X288.752Y-113.117
X291.133Y-75.017
X293.514Y-47.712
X293.514Y-123.912
X293.514Y-142.962
X300.658Y-104.862
X303.039Y-66.762
X307.802Y-85.812
X312.564Y-47.712
X312.564Y-113.117
X312.564Y-123.912
X312.564Y-142.962
X314.945Y-75.017
X331.614Y-47.712
X331.614Y-66.762
X331.614Y-85.812
X331.614Y-104.862
X331.614Y-123.912
X331.614Y-142.962
M30
