%TF.GenerationSoftware,KiCad,Pcbnew,10.0.6*%
%TF.CreationDate,2026-09-05T14:14:12-04:00*%
%TF.ProjectId,test,74657374-2e6b-4696-9361-645f70636258,rev?*%
%TF.SameCoordinates,Original*%
%TF.FileFunction,Legend,Bot*%
%TF.FilePolarity,Positive*%
%FSLAX46Y46*%
G04 Gerber Fmt 4.6, Leading zero omitted, Abs format (unit mm)*
G04 Created by KiCad (PCBNEW 10.0.6) date 2026-09-05 14:14:12*
%MOMM*%
%LPD*%
G01*
G04 APERTURE LIST*
%ADD10C,0.150000*%
%ADD11C,0.120000*%
G04 APERTURE END LIST*
D10*
X282118933Y-65737914D02*
X281118933Y-65737914D01*
X281118933Y-65737914D02*
X281118933Y-65976009D01*
X281118933Y-65976009D02*
X281166552Y-66118866D01*
X281166552Y-66118866D02*
X281261790Y-66214104D01*
X281261790Y-66214104D02*
X281357028Y-66261723D01*
X281357028Y-66261723D02*
X281547504Y-66309342D01*
X281547504Y-66309342D02*
X281690361Y-66309342D01*
X281690361Y-66309342D02*
X281880837Y-66261723D01*
X281880837Y-66261723D02*
X281976075Y-66214104D01*
X281976075Y-66214104D02*
X282071314Y-66118866D01*
X282071314Y-66118866D02*
X282118933Y-65976009D01*
X282118933Y-65976009D02*
X282118933Y-65737914D01*
X281214171Y-66690295D02*
X281166552Y-66737914D01*
X281166552Y-66737914D02*
X281118933Y-66833152D01*
X281118933Y-66833152D02*
X281118933Y-67071247D01*
X281118933Y-67071247D02*
X281166552Y-67166485D01*
X281166552Y-67166485D02*
X281214171Y-67214104D01*
X281214171Y-67214104D02*
X281309409Y-67261723D01*
X281309409Y-67261723D02*
X281404647Y-67261723D01*
X281404647Y-67261723D02*
X281547504Y-67214104D01*
X281547504Y-67214104D02*
X282118933Y-66642676D01*
X282118933Y-66642676D02*
X282118933Y-67261723D01*
X282118933Y-67737914D02*
X282118933Y-67928390D01*
X282118933Y-67928390D02*
X282071314Y-68023628D01*
X282071314Y-68023628D02*
X282023694Y-68071247D01*
X282023694Y-68071247D02*
X281880837Y-68166485D01*
X281880837Y-68166485D02*
X281690361Y-68214104D01*
X281690361Y-68214104D02*
X281309409Y-68214104D01*
X281309409Y-68214104D02*
X281214171Y-68166485D01*
X281214171Y-68166485D02*
X281166552Y-68118866D01*
X281166552Y-68118866D02*
X281118933Y-68023628D01*
X281118933Y-68023628D02*
X281118933Y-67833152D01*
X281118933Y-67833152D02*
X281166552Y-67737914D01*
X281166552Y-67737914D02*
X281214171Y-67690295D01*
X281214171Y-67690295D02*
X281309409Y-67642676D01*
X281309409Y-67642676D02*
X281547504Y-67642676D01*
X281547504Y-67642676D02*
X281642742Y-67690295D01*
X281642742Y-67690295D02*
X281690361Y-67737914D01*
X281690361Y-67737914D02*
X281737980Y-67833152D01*
X281737980Y-67833152D02*
X281737980Y-68023628D01*
X281737980Y-68023628D02*
X281690361Y-68118866D01*
X281690361Y-68118866D02*
X281642742Y-68166485D01*
X281642742Y-68166485D02*
X281547504Y-68214104D01*
X281798933Y-70500295D02*
X280798933Y-70500295D01*
X281798933Y-71071723D02*
X281227504Y-70643152D01*
X280798933Y-71071723D02*
X281370361Y-70500295D01*
X263068933Y-65737914D02*
X262068933Y-65737914D01*
X262068933Y-65737914D02*
X262068933Y-65976009D01*
X262068933Y-65976009D02*
X262116552Y-66118866D01*
X262116552Y-66118866D02*
X262211790Y-66214104D01*
X262211790Y-66214104D02*
X262307028Y-66261723D01*
X262307028Y-66261723D02*
X262497504Y-66309342D01*
X262497504Y-66309342D02*
X262640361Y-66309342D01*
X262640361Y-66309342D02*
X262830837Y-66261723D01*
X262830837Y-66261723D02*
X262926075Y-66214104D01*
X262926075Y-66214104D02*
X263021314Y-66118866D01*
X263021314Y-66118866D02*
X263068933Y-65976009D01*
X263068933Y-65976009D02*
X263068933Y-65737914D01*
X262164171Y-66690295D02*
X262116552Y-66737914D01*
X262116552Y-66737914D02*
X262068933Y-66833152D01*
X262068933Y-66833152D02*
X262068933Y-67071247D01*
X262068933Y-67071247D02*
X262116552Y-67166485D01*
X262116552Y-67166485D02*
X262164171Y-67214104D01*
X262164171Y-67214104D02*
X262259409Y-67261723D01*
X262259409Y-67261723D02*
X262354647Y-67261723D01*
X262354647Y-67261723D02*
X262497504Y-67214104D01*
X262497504Y-67214104D02*
X263068933Y-66642676D01*
X263068933Y-66642676D02*
X263068933Y-67261723D01*
X262497504Y-67833152D02*
X262449885Y-67737914D01*
X262449885Y-67737914D02*
X262402266Y-67690295D01*
X262402266Y-67690295D02*
X262307028Y-67642676D01*
X262307028Y-67642676D02*
X262259409Y-67642676D01*
X262259409Y-67642676D02*
X262164171Y-67690295D01*
X262164171Y-67690295D02*
X262116552Y-67737914D01*
X262116552Y-67737914D02*
X262068933Y-67833152D01*
X262068933Y-67833152D02*
X262068933Y-68023628D01*
X262068933Y-68023628D02*
X262116552Y-68118866D01*
X262116552Y-68118866D02*
X262164171Y-68166485D01*
X262164171Y-68166485D02*
X262259409Y-68214104D01*
X262259409Y-68214104D02*
X262307028Y-68214104D01*
X262307028Y-68214104D02*
X262402266Y-68166485D01*
X262402266Y-68166485D02*
X262449885Y-68118866D01*
X262449885Y-68118866D02*
X262497504Y-68023628D01*
X262497504Y-68023628D02*
X262497504Y-67833152D01*
X262497504Y-67833152D02*
X262545123Y-67737914D01*
X262545123Y-67737914D02*
X262592742Y-67690295D01*
X262592742Y-67690295D02*
X262687980Y-67642676D01*
X262687980Y-67642676D02*
X262878456Y-67642676D01*
X262878456Y-67642676D02*
X262973694Y-67690295D01*
X262973694Y-67690295D02*
X263021314Y-67737914D01*
X263021314Y-67737914D02*
X263068933Y-67833152D01*
X263068933Y-67833152D02*
X263068933Y-68023628D01*
X263068933Y-68023628D02*
X263021314Y-68118866D01*
X263021314Y-68118866D02*
X262973694Y-68166485D01*
X262973694Y-68166485D02*
X262878456Y-68214104D01*
X262878456Y-68214104D02*
X262687980Y-68214104D01*
X262687980Y-68214104D02*
X262592742Y-68166485D01*
X262592742Y-68166485D02*
X262545123Y-68118866D01*
X262545123Y-68118866D02*
X262497504Y-68023628D01*
X262748933Y-70500295D02*
X261748933Y-70500295D01*
X262748933Y-71071723D02*
X262177504Y-70643152D01*
X261748933Y-71071723D02*
X262320361Y-70500295D01*
X244018933Y-65737914D02*
X243018933Y-65737914D01*
X243018933Y-65737914D02*
X243018933Y-65976009D01*
X243018933Y-65976009D02*
X243066552Y-66118866D01*
X243066552Y-66118866D02*
X243161790Y-66214104D01*
X243161790Y-66214104D02*
X243257028Y-66261723D01*
X243257028Y-66261723D02*
X243447504Y-66309342D01*
X243447504Y-66309342D02*
X243590361Y-66309342D01*
X243590361Y-66309342D02*
X243780837Y-66261723D01*
X243780837Y-66261723D02*
X243876075Y-66214104D01*
X243876075Y-66214104D02*
X243971314Y-66118866D01*
X243971314Y-66118866D02*
X244018933Y-65976009D01*
X244018933Y-65976009D02*
X244018933Y-65737914D01*
X243114171Y-66690295D02*
X243066552Y-66737914D01*
X243066552Y-66737914D02*
X243018933Y-66833152D01*
X243018933Y-66833152D02*
X243018933Y-67071247D01*
X243018933Y-67071247D02*
X243066552Y-67166485D01*
X243066552Y-67166485D02*
X243114171Y-67214104D01*
X243114171Y-67214104D02*
X243209409Y-67261723D01*
X243209409Y-67261723D02*
X243304647Y-67261723D01*
X243304647Y-67261723D02*
X243447504Y-67214104D01*
X243447504Y-67214104D02*
X244018933Y-66642676D01*
X244018933Y-66642676D02*
X244018933Y-67261723D01*
X243018933Y-67595057D02*
X243018933Y-68261723D01*
X243018933Y-68261723D02*
X244018933Y-67833152D01*
X243698933Y-70500295D02*
X242698933Y-70500295D01*
X243698933Y-71071723D02*
X243127504Y-70643152D01*
X242698933Y-71071723D02*
X243270361Y-70500295D01*
X224968933Y-65737914D02*
X223968933Y-65737914D01*
X223968933Y-65737914D02*
X223968933Y-65976009D01*
X223968933Y-65976009D02*
X224016552Y-66118866D01*
X224016552Y-66118866D02*
X224111790Y-66214104D01*
X224111790Y-66214104D02*
X224207028Y-66261723D01*
X224207028Y-66261723D02*
X224397504Y-66309342D01*
X224397504Y-66309342D02*
X224540361Y-66309342D01*
X224540361Y-66309342D02*
X224730837Y-66261723D01*
X224730837Y-66261723D02*
X224826075Y-66214104D01*
X224826075Y-66214104D02*
X224921314Y-66118866D01*
X224921314Y-66118866D02*
X224968933Y-65976009D01*
X224968933Y-65976009D02*
X224968933Y-65737914D01*
X224064171Y-66690295D02*
X224016552Y-66737914D01*
X224016552Y-66737914D02*
X223968933Y-66833152D01*
X223968933Y-66833152D02*
X223968933Y-67071247D01*
X223968933Y-67071247D02*
X224016552Y-67166485D01*
X224016552Y-67166485D02*
X224064171Y-67214104D01*
X224064171Y-67214104D02*
X224159409Y-67261723D01*
X224159409Y-67261723D02*
X224254647Y-67261723D01*
X224254647Y-67261723D02*
X224397504Y-67214104D01*
X224397504Y-67214104D02*
X224968933Y-66642676D01*
X224968933Y-66642676D02*
X224968933Y-67261723D01*
X223968933Y-68118866D02*
X223968933Y-67928390D01*
X223968933Y-67928390D02*
X224016552Y-67833152D01*
X224016552Y-67833152D02*
X224064171Y-67785533D01*
X224064171Y-67785533D02*
X224207028Y-67690295D01*
X224207028Y-67690295D02*
X224397504Y-67642676D01*
X224397504Y-67642676D02*
X224778456Y-67642676D01*
X224778456Y-67642676D02*
X224873694Y-67690295D01*
X224873694Y-67690295D02*
X224921314Y-67737914D01*
X224921314Y-67737914D02*
X224968933Y-67833152D01*
X224968933Y-67833152D02*
X224968933Y-68023628D01*
X224968933Y-68023628D02*
X224921314Y-68118866D01*
X224921314Y-68118866D02*
X224873694Y-68166485D01*
X224873694Y-68166485D02*
X224778456Y-68214104D01*
X224778456Y-68214104D02*
X224540361Y-68214104D01*
X224540361Y-68214104D02*
X224445123Y-68166485D01*
X224445123Y-68166485D02*
X224397504Y-68118866D01*
X224397504Y-68118866D02*
X224349885Y-68023628D01*
X224349885Y-68023628D02*
X224349885Y-67833152D01*
X224349885Y-67833152D02*
X224397504Y-67737914D01*
X224397504Y-67737914D02*
X224445123Y-67690295D01*
X224445123Y-67690295D02*
X224540361Y-67642676D01*
X224648933Y-70500295D02*
X223648933Y-70500295D01*
X224648933Y-71071723D02*
X224077504Y-70643152D01*
X223648933Y-71071723D02*
X224220361Y-70500295D01*
X205918933Y-65737914D02*
X204918933Y-65737914D01*
X204918933Y-65737914D02*
X204918933Y-65976009D01*
X204918933Y-65976009D02*
X204966552Y-66118866D01*
X204966552Y-66118866D02*
X205061790Y-66214104D01*
X205061790Y-66214104D02*
X205157028Y-66261723D01*
X205157028Y-66261723D02*
X205347504Y-66309342D01*
X205347504Y-66309342D02*
X205490361Y-66309342D01*
X205490361Y-66309342D02*
X205680837Y-66261723D01*
X205680837Y-66261723D02*
X205776075Y-66214104D01*
X205776075Y-66214104D02*
X205871314Y-66118866D01*
X205871314Y-66118866D02*
X205918933Y-65976009D01*
X205918933Y-65976009D02*
X205918933Y-65737914D01*
X205014171Y-66690295D02*
X204966552Y-66737914D01*
X204966552Y-66737914D02*
X204918933Y-66833152D01*
X204918933Y-66833152D02*
X204918933Y-67071247D01*
X204918933Y-67071247D02*
X204966552Y-67166485D01*
X204966552Y-67166485D02*
X205014171Y-67214104D01*
X205014171Y-67214104D02*
X205109409Y-67261723D01*
X205109409Y-67261723D02*
X205204647Y-67261723D01*
X205204647Y-67261723D02*
X205347504Y-67214104D01*
X205347504Y-67214104D02*
X205918933Y-66642676D01*
X205918933Y-66642676D02*
X205918933Y-67261723D01*
X204918933Y-68166485D02*
X204918933Y-67690295D01*
X204918933Y-67690295D02*
X205395123Y-67642676D01*
X205395123Y-67642676D02*
X205347504Y-67690295D01*
X205347504Y-67690295D02*
X205299885Y-67785533D01*
X205299885Y-67785533D02*
X205299885Y-68023628D01*
X205299885Y-68023628D02*
X205347504Y-68118866D01*
X205347504Y-68118866D02*
X205395123Y-68166485D01*
X205395123Y-68166485D02*
X205490361Y-68214104D01*
X205490361Y-68214104D02*
X205728456Y-68214104D01*
X205728456Y-68214104D02*
X205823694Y-68166485D01*
X205823694Y-68166485D02*
X205871314Y-68118866D01*
X205871314Y-68118866D02*
X205918933Y-68023628D01*
X205918933Y-68023628D02*
X205918933Y-67785533D01*
X205918933Y-67785533D02*
X205871314Y-67690295D01*
X205871314Y-67690295D02*
X205823694Y-67642676D01*
X205598933Y-70500295D02*
X204598933Y-70500295D01*
X205598933Y-71071723D02*
X205027504Y-70643152D01*
X204598933Y-71071723D02*
X205170361Y-70500295D01*
X301168933Y-141937914D02*
X300168933Y-141937914D01*
X300168933Y-141937914D02*
X300168933Y-142176009D01*
X300168933Y-142176009D02*
X300216552Y-142318866D01*
X300216552Y-142318866D02*
X300311790Y-142414104D01*
X300311790Y-142414104D02*
X300407028Y-142461723D01*
X300407028Y-142461723D02*
X300597504Y-142509342D01*
X300597504Y-142509342D02*
X300740361Y-142509342D01*
X300740361Y-142509342D02*
X300930837Y-142461723D01*
X300930837Y-142461723D02*
X301026075Y-142414104D01*
X301026075Y-142414104D02*
X301121314Y-142318866D01*
X301121314Y-142318866D02*
X301168933Y-142176009D01*
X301168933Y-142176009D02*
X301168933Y-141937914D01*
X300597504Y-143080771D02*
X300549885Y-142985533D01*
X300549885Y-142985533D02*
X300502266Y-142937914D01*
X300502266Y-142937914D02*
X300407028Y-142890295D01*
X300407028Y-142890295D02*
X300359409Y-142890295D01*
X300359409Y-142890295D02*
X300264171Y-142937914D01*
X300264171Y-142937914D02*
X300216552Y-142985533D01*
X300216552Y-142985533D02*
X300168933Y-143080771D01*
X300168933Y-143080771D02*
X300168933Y-143271247D01*
X300168933Y-143271247D02*
X300216552Y-143366485D01*
X300216552Y-143366485D02*
X300264171Y-143414104D01*
X300264171Y-143414104D02*
X300359409Y-143461723D01*
X300359409Y-143461723D02*
X300407028Y-143461723D01*
X300407028Y-143461723D02*
X300502266Y-143414104D01*
X300502266Y-143414104D02*
X300549885Y-143366485D01*
X300549885Y-143366485D02*
X300597504Y-143271247D01*
X300597504Y-143271247D02*
X300597504Y-143080771D01*
X300597504Y-143080771D02*
X300645123Y-142985533D01*
X300645123Y-142985533D02*
X300692742Y-142937914D01*
X300692742Y-142937914D02*
X300787980Y-142890295D01*
X300787980Y-142890295D02*
X300978456Y-142890295D01*
X300978456Y-142890295D02*
X301073694Y-142937914D01*
X301073694Y-142937914D02*
X301121314Y-142985533D01*
X301121314Y-142985533D02*
X301168933Y-143080771D01*
X301168933Y-143080771D02*
X301168933Y-143271247D01*
X301168933Y-143271247D02*
X301121314Y-143366485D01*
X301121314Y-143366485D02*
X301073694Y-143414104D01*
X301073694Y-143414104D02*
X300978456Y-143461723D01*
X300978456Y-143461723D02*
X300787980Y-143461723D01*
X300787980Y-143461723D02*
X300692742Y-143414104D01*
X300692742Y-143414104D02*
X300645123Y-143366485D01*
X300645123Y-143366485D02*
X300597504Y-143271247D01*
X300264171Y-143842676D02*
X300216552Y-143890295D01*
X300216552Y-143890295D02*
X300168933Y-143985533D01*
X300168933Y-143985533D02*
X300168933Y-144223628D01*
X300168933Y-144223628D02*
X300216552Y-144318866D01*
X300216552Y-144318866D02*
X300264171Y-144366485D01*
X300264171Y-144366485D02*
X300359409Y-144414104D01*
X300359409Y-144414104D02*
X300454647Y-144414104D01*
X300454647Y-144414104D02*
X300597504Y-144366485D01*
X300597504Y-144366485D02*
X301168933Y-143795057D01*
X301168933Y-143795057D02*
X301168933Y-144414104D01*
X300848933Y-146700295D02*
X299848933Y-146700295D01*
X300848933Y-147271723D02*
X300277504Y-146843152D01*
X299848933Y-147271723D02*
X300420361Y-146700295D01*
X267831433Y-141937914D02*
X266831433Y-141937914D01*
X266831433Y-141937914D02*
X266831433Y-142176009D01*
X266831433Y-142176009D02*
X266879052Y-142318866D01*
X266879052Y-142318866D02*
X266974290Y-142414104D01*
X266974290Y-142414104D02*
X267069528Y-142461723D01*
X267069528Y-142461723D02*
X267260004Y-142509342D01*
X267260004Y-142509342D02*
X267402861Y-142509342D01*
X267402861Y-142509342D02*
X267593337Y-142461723D01*
X267593337Y-142461723D02*
X267688575Y-142414104D01*
X267688575Y-142414104D02*
X267783814Y-142318866D01*
X267783814Y-142318866D02*
X267831433Y-142176009D01*
X267831433Y-142176009D02*
X267831433Y-141937914D01*
X267260004Y-143080771D02*
X267212385Y-142985533D01*
X267212385Y-142985533D02*
X267164766Y-142937914D01*
X267164766Y-142937914D02*
X267069528Y-142890295D01*
X267069528Y-142890295D02*
X267021909Y-142890295D01*
X267021909Y-142890295D02*
X266926671Y-142937914D01*
X266926671Y-142937914D02*
X266879052Y-142985533D01*
X266879052Y-142985533D02*
X266831433Y-143080771D01*
X266831433Y-143080771D02*
X266831433Y-143271247D01*
X266831433Y-143271247D02*
X266879052Y-143366485D01*
X266879052Y-143366485D02*
X266926671Y-143414104D01*
X266926671Y-143414104D02*
X267021909Y-143461723D01*
X267021909Y-143461723D02*
X267069528Y-143461723D01*
X267069528Y-143461723D02*
X267164766Y-143414104D01*
X267164766Y-143414104D02*
X267212385Y-143366485D01*
X267212385Y-143366485D02*
X267260004Y-143271247D01*
X267260004Y-143271247D02*
X267260004Y-143080771D01*
X267260004Y-143080771D02*
X267307623Y-142985533D01*
X267307623Y-142985533D02*
X267355242Y-142937914D01*
X267355242Y-142937914D02*
X267450480Y-142890295D01*
X267450480Y-142890295D02*
X267640956Y-142890295D01*
X267640956Y-142890295D02*
X267736194Y-142937914D01*
X267736194Y-142937914D02*
X267783814Y-142985533D01*
X267783814Y-142985533D02*
X267831433Y-143080771D01*
X267831433Y-143080771D02*
X267831433Y-143271247D01*
X267831433Y-143271247D02*
X267783814Y-143366485D01*
X267783814Y-143366485D02*
X267736194Y-143414104D01*
X267736194Y-143414104D02*
X267640956Y-143461723D01*
X267640956Y-143461723D02*
X267450480Y-143461723D01*
X267450480Y-143461723D02*
X267355242Y-143414104D01*
X267355242Y-143414104D02*
X267307623Y-143366485D01*
X267307623Y-143366485D02*
X267260004Y-143271247D01*
X267831433Y-144414104D02*
X267831433Y-143842676D01*
X267831433Y-144128390D02*
X266831433Y-144128390D01*
X266831433Y-144128390D02*
X266974290Y-144033152D01*
X266974290Y-144033152D02*
X267069528Y-143937914D01*
X267069528Y-143937914D02*
X267117147Y-143842676D01*
X267511433Y-146700295D02*
X266511433Y-146700295D01*
X267511433Y-147271723D02*
X266940004Y-146843152D01*
X266511433Y-147271723D02*
X267082861Y-146700295D01*
X248781433Y-141937914D02*
X247781433Y-141937914D01*
X247781433Y-141937914D02*
X247781433Y-142176009D01*
X247781433Y-142176009D02*
X247829052Y-142318866D01*
X247829052Y-142318866D02*
X247924290Y-142414104D01*
X247924290Y-142414104D02*
X248019528Y-142461723D01*
X248019528Y-142461723D02*
X248210004Y-142509342D01*
X248210004Y-142509342D02*
X248352861Y-142509342D01*
X248352861Y-142509342D02*
X248543337Y-142461723D01*
X248543337Y-142461723D02*
X248638575Y-142414104D01*
X248638575Y-142414104D02*
X248733814Y-142318866D01*
X248733814Y-142318866D02*
X248781433Y-142176009D01*
X248781433Y-142176009D02*
X248781433Y-141937914D01*
X248210004Y-143080771D02*
X248162385Y-142985533D01*
X248162385Y-142985533D02*
X248114766Y-142937914D01*
X248114766Y-142937914D02*
X248019528Y-142890295D01*
X248019528Y-142890295D02*
X247971909Y-142890295D01*
X247971909Y-142890295D02*
X247876671Y-142937914D01*
X247876671Y-142937914D02*
X247829052Y-142985533D01*
X247829052Y-142985533D02*
X247781433Y-143080771D01*
X247781433Y-143080771D02*
X247781433Y-143271247D01*
X247781433Y-143271247D02*
X247829052Y-143366485D01*
X247829052Y-143366485D02*
X247876671Y-143414104D01*
X247876671Y-143414104D02*
X247971909Y-143461723D01*
X247971909Y-143461723D02*
X248019528Y-143461723D01*
X248019528Y-143461723D02*
X248114766Y-143414104D01*
X248114766Y-143414104D02*
X248162385Y-143366485D01*
X248162385Y-143366485D02*
X248210004Y-143271247D01*
X248210004Y-143271247D02*
X248210004Y-143080771D01*
X248210004Y-143080771D02*
X248257623Y-142985533D01*
X248257623Y-142985533D02*
X248305242Y-142937914D01*
X248305242Y-142937914D02*
X248400480Y-142890295D01*
X248400480Y-142890295D02*
X248590956Y-142890295D01*
X248590956Y-142890295D02*
X248686194Y-142937914D01*
X248686194Y-142937914D02*
X248733814Y-142985533D01*
X248733814Y-142985533D02*
X248781433Y-143080771D01*
X248781433Y-143080771D02*
X248781433Y-143271247D01*
X248781433Y-143271247D02*
X248733814Y-143366485D01*
X248733814Y-143366485D02*
X248686194Y-143414104D01*
X248686194Y-143414104D02*
X248590956Y-143461723D01*
X248590956Y-143461723D02*
X248400480Y-143461723D01*
X248400480Y-143461723D02*
X248305242Y-143414104D01*
X248305242Y-143414104D02*
X248257623Y-143366485D01*
X248257623Y-143366485D02*
X248210004Y-143271247D01*
X247781433Y-144080771D02*
X247781433Y-144176009D01*
X247781433Y-144176009D02*
X247829052Y-144271247D01*
X247829052Y-144271247D02*
X247876671Y-144318866D01*
X247876671Y-144318866D02*
X247971909Y-144366485D01*
X247971909Y-144366485D02*
X248162385Y-144414104D01*
X248162385Y-144414104D02*
X248400480Y-144414104D01*
X248400480Y-144414104D02*
X248590956Y-144366485D01*
X248590956Y-144366485D02*
X248686194Y-144318866D01*
X248686194Y-144318866D02*
X248733814Y-144271247D01*
X248733814Y-144271247D02*
X248781433Y-144176009D01*
X248781433Y-144176009D02*
X248781433Y-144080771D01*
X248781433Y-144080771D02*
X248733814Y-143985533D01*
X248733814Y-143985533D02*
X248686194Y-143937914D01*
X248686194Y-143937914D02*
X248590956Y-143890295D01*
X248590956Y-143890295D02*
X248400480Y-143842676D01*
X248400480Y-143842676D02*
X248162385Y-143842676D01*
X248162385Y-143842676D02*
X247971909Y-143890295D01*
X247971909Y-143890295D02*
X247876671Y-143937914D01*
X247876671Y-143937914D02*
X247829052Y-143985533D01*
X247829052Y-143985533D02*
X247781433Y-144080771D01*
X248461433Y-146700295D02*
X247461433Y-146700295D01*
X248461433Y-147271723D02*
X247890004Y-146843152D01*
X247461433Y-147271723D02*
X248032861Y-146700295D01*
X229731433Y-141937914D02*
X228731433Y-141937914D01*
X228731433Y-141937914D02*
X228731433Y-142176009D01*
X228731433Y-142176009D02*
X228779052Y-142318866D01*
X228779052Y-142318866D02*
X228874290Y-142414104D01*
X228874290Y-142414104D02*
X228969528Y-142461723D01*
X228969528Y-142461723D02*
X229160004Y-142509342D01*
X229160004Y-142509342D02*
X229302861Y-142509342D01*
X229302861Y-142509342D02*
X229493337Y-142461723D01*
X229493337Y-142461723D02*
X229588575Y-142414104D01*
X229588575Y-142414104D02*
X229683814Y-142318866D01*
X229683814Y-142318866D02*
X229731433Y-142176009D01*
X229731433Y-142176009D02*
X229731433Y-141937914D01*
X228731433Y-142842676D02*
X228731433Y-143509342D01*
X228731433Y-143509342D02*
X229731433Y-143080771D01*
X229731433Y-143937914D02*
X229731433Y-144128390D01*
X229731433Y-144128390D02*
X229683814Y-144223628D01*
X229683814Y-144223628D02*
X229636194Y-144271247D01*
X229636194Y-144271247D02*
X229493337Y-144366485D01*
X229493337Y-144366485D02*
X229302861Y-144414104D01*
X229302861Y-144414104D02*
X228921909Y-144414104D01*
X228921909Y-144414104D02*
X228826671Y-144366485D01*
X228826671Y-144366485D02*
X228779052Y-144318866D01*
X228779052Y-144318866D02*
X228731433Y-144223628D01*
X228731433Y-144223628D02*
X228731433Y-144033152D01*
X228731433Y-144033152D02*
X228779052Y-143937914D01*
X228779052Y-143937914D02*
X228826671Y-143890295D01*
X228826671Y-143890295D02*
X228921909Y-143842676D01*
X228921909Y-143842676D02*
X229160004Y-143842676D01*
X229160004Y-143842676D02*
X229255242Y-143890295D01*
X229255242Y-143890295D02*
X229302861Y-143937914D01*
X229302861Y-143937914D02*
X229350480Y-144033152D01*
X229350480Y-144033152D02*
X229350480Y-144223628D01*
X229350480Y-144223628D02*
X229302861Y-144318866D01*
X229302861Y-144318866D02*
X229255242Y-144366485D01*
X229255242Y-144366485D02*
X229160004Y-144414104D01*
X229411433Y-146700295D02*
X228411433Y-146700295D01*
X229411433Y-147271723D02*
X228840004Y-146843152D01*
X228411433Y-147271723D02*
X228982861Y-146700295D01*
X167818933Y-141937914D02*
X166818933Y-141937914D01*
X166818933Y-141937914D02*
X166818933Y-142176009D01*
X166818933Y-142176009D02*
X166866552Y-142318866D01*
X166866552Y-142318866D02*
X166961790Y-142414104D01*
X166961790Y-142414104D02*
X167057028Y-142461723D01*
X167057028Y-142461723D02*
X167247504Y-142509342D01*
X167247504Y-142509342D02*
X167390361Y-142509342D01*
X167390361Y-142509342D02*
X167580837Y-142461723D01*
X167580837Y-142461723D02*
X167676075Y-142414104D01*
X167676075Y-142414104D02*
X167771314Y-142318866D01*
X167771314Y-142318866D02*
X167818933Y-142176009D01*
X167818933Y-142176009D02*
X167818933Y-141937914D01*
X166818933Y-142842676D02*
X166818933Y-143509342D01*
X166818933Y-143509342D02*
X167818933Y-143080771D01*
X167247504Y-144033152D02*
X167199885Y-143937914D01*
X167199885Y-143937914D02*
X167152266Y-143890295D01*
X167152266Y-143890295D02*
X167057028Y-143842676D01*
X167057028Y-143842676D02*
X167009409Y-143842676D01*
X167009409Y-143842676D02*
X166914171Y-143890295D01*
X166914171Y-143890295D02*
X166866552Y-143937914D01*
X166866552Y-143937914D02*
X166818933Y-144033152D01*
X166818933Y-144033152D02*
X166818933Y-144223628D01*
X166818933Y-144223628D02*
X166866552Y-144318866D01*
X166866552Y-144318866D02*
X166914171Y-144366485D01*
X166914171Y-144366485D02*
X167009409Y-144414104D01*
X167009409Y-144414104D02*
X167057028Y-144414104D01*
X167057028Y-144414104D02*
X167152266Y-144366485D01*
X167152266Y-144366485D02*
X167199885Y-144318866D01*
X167199885Y-144318866D02*
X167247504Y-144223628D01*
X167247504Y-144223628D02*
X167247504Y-144033152D01*
X167247504Y-144033152D02*
X167295123Y-143937914D01*
X167295123Y-143937914D02*
X167342742Y-143890295D01*
X167342742Y-143890295D02*
X167437980Y-143842676D01*
X167437980Y-143842676D02*
X167628456Y-143842676D01*
X167628456Y-143842676D02*
X167723694Y-143890295D01*
X167723694Y-143890295D02*
X167771314Y-143937914D01*
X167771314Y-143937914D02*
X167818933Y-144033152D01*
X167818933Y-144033152D02*
X167818933Y-144223628D01*
X167818933Y-144223628D02*
X167771314Y-144318866D01*
X167771314Y-144318866D02*
X167723694Y-144366485D01*
X167723694Y-144366485D02*
X167628456Y-144414104D01*
X167628456Y-144414104D02*
X167437980Y-144414104D01*
X167437980Y-144414104D02*
X167342742Y-144366485D01*
X167342742Y-144366485D02*
X167295123Y-144318866D01*
X167295123Y-144318866D02*
X167247504Y-144223628D01*
X167498933Y-146700295D02*
X166498933Y-146700295D01*
X167498933Y-147271723D02*
X166927504Y-146843152D01*
X166498933Y-147271723D02*
X167070361Y-146700295D01*
X103525183Y-141937914D02*
X102525183Y-141937914D01*
X102525183Y-141937914D02*
X102525183Y-142176009D01*
X102525183Y-142176009D02*
X102572802Y-142318866D01*
X102572802Y-142318866D02*
X102668040Y-142414104D01*
X102668040Y-142414104D02*
X102763278Y-142461723D01*
X102763278Y-142461723D02*
X102953754Y-142509342D01*
X102953754Y-142509342D02*
X103096611Y-142509342D01*
X103096611Y-142509342D02*
X103287087Y-142461723D01*
X103287087Y-142461723D02*
X103382325Y-142414104D01*
X103382325Y-142414104D02*
X103477564Y-142318866D01*
X103477564Y-142318866D02*
X103525183Y-142176009D01*
X103525183Y-142176009D02*
X103525183Y-141937914D01*
X102525183Y-142842676D02*
X102525183Y-143509342D01*
X102525183Y-143509342D02*
X103525183Y-143080771D01*
X102525183Y-143795057D02*
X102525183Y-144461723D01*
X102525183Y-144461723D02*
X103525183Y-144033152D01*
X103205183Y-146700295D02*
X102205183Y-146700295D01*
X103205183Y-147271723D02*
X102633754Y-146843152D01*
X102205183Y-147271723D02*
X102776611Y-146700295D01*
X79712683Y-141937914D02*
X78712683Y-141937914D01*
X78712683Y-141937914D02*
X78712683Y-142176009D01*
X78712683Y-142176009D02*
X78760302Y-142318866D01*
X78760302Y-142318866D02*
X78855540Y-142414104D01*
X78855540Y-142414104D02*
X78950778Y-142461723D01*
X78950778Y-142461723D02*
X79141254Y-142509342D01*
X79141254Y-142509342D02*
X79284111Y-142509342D01*
X79284111Y-142509342D02*
X79474587Y-142461723D01*
X79474587Y-142461723D02*
X79569825Y-142414104D01*
X79569825Y-142414104D02*
X79665064Y-142318866D01*
X79665064Y-142318866D02*
X79712683Y-142176009D01*
X79712683Y-142176009D02*
X79712683Y-141937914D01*
X78712683Y-142842676D02*
X78712683Y-143509342D01*
X78712683Y-143509342D02*
X79712683Y-143080771D01*
X78712683Y-144318866D02*
X78712683Y-144128390D01*
X78712683Y-144128390D02*
X78760302Y-144033152D01*
X78760302Y-144033152D02*
X78807921Y-143985533D01*
X78807921Y-143985533D02*
X78950778Y-143890295D01*
X78950778Y-143890295D02*
X79141254Y-143842676D01*
X79141254Y-143842676D02*
X79522206Y-143842676D01*
X79522206Y-143842676D02*
X79617444Y-143890295D01*
X79617444Y-143890295D02*
X79665064Y-143937914D01*
X79665064Y-143937914D02*
X79712683Y-144033152D01*
X79712683Y-144033152D02*
X79712683Y-144223628D01*
X79712683Y-144223628D02*
X79665064Y-144318866D01*
X79665064Y-144318866D02*
X79617444Y-144366485D01*
X79617444Y-144366485D02*
X79522206Y-144414104D01*
X79522206Y-144414104D02*
X79284111Y-144414104D01*
X79284111Y-144414104D02*
X79188873Y-144366485D01*
X79188873Y-144366485D02*
X79141254Y-144318866D01*
X79141254Y-144318866D02*
X79093635Y-144223628D01*
X79093635Y-144223628D02*
X79093635Y-144033152D01*
X79093635Y-144033152D02*
X79141254Y-143937914D01*
X79141254Y-143937914D02*
X79188873Y-143890295D01*
X79188873Y-143890295D02*
X79284111Y-143842676D01*
X79392683Y-146700295D02*
X78392683Y-146700295D01*
X79392683Y-147271723D02*
X78821254Y-146843152D01*
X78392683Y-147271723D02*
X78964111Y-146700295D01*
X55900183Y-141937914D02*
X54900183Y-141937914D01*
X54900183Y-141937914D02*
X54900183Y-142176009D01*
X54900183Y-142176009D02*
X54947802Y-142318866D01*
X54947802Y-142318866D02*
X55043040Y-142414104D01*
X55043040Y-142414104D02*
X55138278Y-142461723D01*
X55138278Y-142461723D02*
X55328754Y-142509342D01*
X55328754Y-142509342D02*
X55471611Y-142509342D01*
X55471611Y-142509342D02*
X55662087Y-142461723D01*
X55662087Y-142461723D02*
X55757325Y-142414104D01*
X55757325Y-142414104D02*
X55852564Y-142318866D01*
X55852564Y-142318866D02*
X55900183Y-142176009D01*
X55900183Y-142176009D02*
X55900183Y-141937914D01*
X54900183Y-142842676D02*
X54900183Y-143509342D01*
X54900183Y-143509342D02*
X55900183Y-143080771D01*
X54900183Y-144366485D02*
X54900183Y-143890295D01*
X54900183Y-143890295D02*
X55376373Y-143842676D01*
X55376373Y-143842676D02*
X55328754Y-143890295D01*
X55328754Y-143890295D02*
X55281135Y-143985533D01*
X55281135Y-143985533D02*
X55281135Y-144223628D01*
X55281135Y-144223628D02*
X55328754Y-144318866D01*
X55328754Y-144318866D02*
X55376373Y-144366485D01*
X55376373Y-144366485D02*
X55471611Y-144414104D01*
X55471611Y-144414104D02*
X55709706Y-144414104D01*
X55709706Y-144414104D02*
X55804944Y-144366485D01*
X55804944Y-144366485D02*
X55852564Y-144318866D01*
X55852564Y-144318866D02*
X55900183Y-144223628D01*
X55900183Y-144223628D02*
X55900183Y-143985533D01*
X55900183Y-143985533D02*
X55852564Y-143890295D01*
X55852564Y-143890295D02*
X55804944Y-143842676D01*
X55580183Y-146700295D02*
X54580183Y-146700295D01*
X55580183Y-147271723D02*
X55008754Y-146843152D01*
X54580183Y-147271723D02*
X55151611Y-146700295D01*
X339268933Y-122887914D02*
X338268933Y-122887914D01*
X338268933Y-122887914D02*
X338268933Y-123126009D01*
X338268933Y-123126009D02*
X338316552Y-123268866D01*
X338316552Y-123268866D02*
X338411790Y-123364104D01*
X338411790Y-123364104D02*
X338507028Y-123411723D01*
X338507028Y-123411723D02*
X338697504Y-123459342D01*
X338697504Y-123459342D02*
X338840361Y-123459342D01*
X338840361Y-123459342D02*
X339030837Y-123411723D01*
X339030837Y-123411723D02*
X339126075Y-123364104D01*
X339126075Y-123364104D02*
X339221314Y-123268866D01*
X339221314Y-123268866D02*
X339268933Y-123126009D01*
X339268933Y-123126009D02*
X339268933Y-122887914D01*
X338268933Y-123792676D02*
X338268933Y-124459342D01*
X338268933Y-124459342D02*
X339268933Y-124030771D01*
X338602266Y-125268866D02*
X339268933Y-125268866D01*
X338221314Y-125030771D02*
X338935599Y-124792676D01*
X338935599Y-124792676D02*
X338935599Y-125411723D01*
X338948933Y-127650295D02*
X337948933Y-127650295D01*
X338948933Y-128221723D02*
X338377504Y-127793152D01*
X337948933Y-128221723D02*
X338520361Y-127650295D01*
X320218933Y-122887914D02*
X319218933Y-122887914D01*
X319218933Y-122887914D02*
X319218933Y-123126009D01*
X319218933Y-123126009D02*
X319266552Y-123268866D01*
X319266552Y-123268866D02*
X319361790Y-123364104D01*
X319361790Y-123364104D02*
X319457028Y-123411723D01*
X319457028Y-123411723D02*
X319647504Y-123459342D01*
X319647504Y-123459342D02*
X319790361Y-123459342D01*
X319790361Y-123459342D02*
X319980837Y-123411723D01*
X319980837Y-123411723D02*
X320076075Y-123364104D01*
X320076075Y-123364104D02*
X320171314Y-123268866D01*
X320171314Y-123268866D02*
X320218933Y-123126009D01*
X320218933Y-123126009D02*
X320218933Y-122887914D01*
X319218933Y-123792676D02*
X319218933Y-124459342D01*
X319218933Y-124459342D02*
X320218933Y-124030771D01*
X319218933Y-124745057D02*
X319218933Y-125364104D01*
X319218933Y-125364104D02*
X319599885Y-125030771D01*
X319599885Y-125030771D02*
X319599885Y-125173628D01*
X319599885Y-125173628D02*
X319647504Y-125268866D01*
X319647504Y-125268866D02*
X319695123Y-125316485D01*
X319695123Y-125316485D02*
X319790361Y-125364104D01*
X319790361Y-125364104D02*
X320028456Y-125364104D01*
X320028456Y-125364104D02*
X320123694Y-125316485D01*
X320123694Y-125316485D02*
X320171314Y-125268866D01*
X320171314Y-125268866D02*
X320218933Y-125173628D01*
X320218933Y-125173628D02*
X320218933Y-124887914D01*
X320218933Y-124887914D02*
X320171314Y-124792676D01*
X320171314Y-124792676D02*
X320123694Y-124745057D01*
X319898933Y-127650295D02*
X318898933Y-127650295D01*
X319898933Y-128221723D02*
X319327504Y-127793152D01*
X318898933Y-128221723D02*
X319470361Y-127650295D01*
X301168933Y-122887914D02*
X300168933Y-122887914D01*
X300168933Y-122887914D02*
X300168933Y-123126009D01*
X300168933Y-123126009D02*
X300216552Y-123268866D01*
X300216552Y-123268866D02*
X300311790Y-123364104D01*
X300311790Y-123364104D02*
X300407028Y-123411723D01*
X300407028Y-123411723D02*
X300597504Y-123459342D01*
X300597504Y-123459342D02*
X300740361Y-123459342D01*
X300740361Y-123459342D02*
X300930837Y-123411723D01*
X300930837Y-123411723D02*
X301026075Y-123364104D01*
X301026075Y-123364104D02*
X301121314Y-123268866D01*
X301121314Y-123268866D02*
X301168933Y-123126009D01*
X301168933Y-123126009D02*
X301168933Y-122887914D01*
X300168933Y-123792676D02*
X300168933Y-124459342D01*
X300168933Y-124459342D02*
X301168933Y-124030771D01*
X300264171Y-124792676D02*
X300216552Y-124840295D01*
X300216552Y-124840295D02*
X300168933Y-124935533D01*
X300168933Y-124935533D02*
X300168933Y-125173628D01*
X300168933Y-125173628D02*
X300216552Y-125268866D01*
X300216552Y-125268866D02*
X300264171Y-125316485D01*
X300264171Y-125316485D02*
X300359409Y-125364104D01*
X300359409Y-125364104D02*
X300454647Y-125364104D01*
X300454647Y-125364104D02*
X300597504Y-125316485D01*
X300597504Y-125316485D02*
X301168933Y-124745057D01*
X301168933Y-124745057D02*
X301168933Y-125364104D01*
X300848933Y-127650295D02*
X299848933Y-127650295D01*
X300848933Y-128221723D02*
X300277504Y-127793152D01*
X299848933Y-128221723D02*
X300420361Y-127650295D01*
X267831433Y-122887914D02*
X266831433Y-122887914D01*
X266831433Y-122887914D02*
X266831433Y-123126009D01*
X266831433Y-123126009D02*
X266879052Y-123268866D01*
X266879052Y-123268866D02*
X266974290Y-123364104D01*
X266974290Y-123364104D02*
X267069528Y-123411723D01*
X267069528Y-123411723D02*
X267260004Y-123459342D01*
X267260004Y-123459342D02*
X267402861Y-123459342D01*
X267402861Y-123459342D02*
X267593337Y-123411723D01*
X267593337Y-123411723D02*
X267688575Y-123364104D01*
X267688575Y-123364104D02*
X267783814Y-123268866D01*
X267783814Y-123268866D02*
X267831433Y-123126009D01*
X267831433Y-123126009D02*
X267831433Y-122887914D01*
X266831433Y-123792676D02*
X266831433Y-124459342D01*
X266831433Y-124459342D02*
X267831433Y-124030771D01*
X267831433Y-125364104D02*
X267831433Y-124792676D01*
X267831433Y-125078390D02*
X266831433Y-125078390D01*
X266831433Y-125078390D02*
X266974290Y-124983152D01*
X266974290Y-124983152D02*
X267069528Y-124887914D01*
X267069528Y-124887914D02*
X267117147Y-124792676D01*
X267511433Y-127650295D02*
X266511433Y-127650295D01*
X267511433Y-128221723D02*
X266940004Y-127793152D01*
X266511433Y-128221723D02*
X267082861Y-127650295D01*
X139243933Y-84787914D02*
X138243933Y-84787914D01*
X138243933Y-84787914D02*
X138243933Y-85026009D01*
X138243933Y-85026009D02*
X138291552Y-85168866D01*
X138291552Y-85168866D02*
X138386790Y-85264104D01*
X138386790Y-85264104D02*
X138482028Y-85311723D01*
X138482028Y-85311723D02*
X138672504Y-85359342D01*
X138672504Y-85359342D02*
X138815361Y-85359342D01*
X138815361Y-85359342D02*
X139005837Y-85311723D01*
X139005837Y-85311723D02*
X139101075Y-85264104D01*
X139101075Y-85264104D02*
X139196314Y-85168866D01*
X139196314Y-85168866D02*
X139243933Y-85026009D01*
X139243933Y-85026009D02*
X139243933Y-84787914D01*
X138243933Y-85692676D02*
X138243933Y-86311723D01*
X138243933Y-86311723D02*
X138624885Y-85978390D01*
X138624885Y-85978390D02*
X138624885Y-86121247D01*
X138624885Y-86121247D02*
X138672504Y-86216485D01*
X138672504Y-86216485D02*
X138720123Y-86264104D01*
X138720123Y-86264104D02*
X138815361Y-86311723D01*
X138815361Y-86311723D02*
X139053456Y-86311723D01*
X139053456Y-86311723D02*
X139148694Y-86264104D01*
X139148694Y-86264104D02*
X139196314Y-86216485D01*
X139196314Y-86216485D02*
X139243933Y-86121247D01*
X139243933Y-86121247D02*
X139243933Y-85835533D01*
X139243933Y-85835533D02*
X139196314Y-85740295D01*
X139196314Y-85740295D02*
X139148694Y-85692676D01*
X138243933Y-87168866D02*
X138243933Y-86978390D01*
X138243933Y-86978390D02*
X138291552Y-86883152D01*
X138291552Y-86883152D02*
X138339171Y-86835533D01*
X138339171Y-86835533D02*
X138482028Y-86740295D01*
X138482028Y-86740295D02*
X138672504Y-86692676D01*
X138672504Y-86692676D02*
X139053456Y-86692676D01*
X139053456Y-86692676D02*
X139148694Y-86740295D01*
X139148694Y-86740295D02*
X139196314Y-86787914D01*
X139196314Y-86787914D02*
X139243933Y-86883152D01*
X139243933Y-86883152D02*
X139243933Y-87073628D01*
X139243933Y-87073628D02*
X139196314Y-87168866D01*
X139196314Y-87168866D02*
X139148694Y-87216485D01*
X139148694Y-87216485D02*
X139053456Y-87264104D01*
X139053456Y-87264104D02*
X138815361Y-87264104D01*
X138815361Y-87264104D02*
X138720123Y-87216485D01*
X138720123Y-87216485D02*
X138672504Y-87168866D01*
X138672504Y-87168866D02*
X138624885Y-87073628D01*
X138624885Y-87073628D02*
X138624885Y-86883152D01*
X138624885Y-86883152D02*
X138672504Y-86787914D01*
X138672504Y-86787914D02*
X138720123Y-86740295D01*
X138720123Y-86740295D02*
X138815361Y-86692676D01*
X138923933Y-89550295D02*
X137923933Y-89550295D01*
X138923933Y-90121723D02*
X138352504Y-89693152D01*
X137923933Y-90121723D02*
X138495361Y-89550295D01*
X120193933Y-84787914D02*
X119193933Y-84787914D01*
X119193933Y-84787914D02*
X119193933Y-85026009D01*
X119193933Y-85026009D02*
X119241552Y-85168866D01*
X119241552Y-85168866D02*
X119336790Y-85264104D01*
X119336790Y-85264104D02*
X119432028Y-85311723D01*
X119432028Y-85311723D02*
X119622504Y-85359342D01*
X119622504Y-85359342D02*
X119765361Y-85359342D01*
X119765361Y-85359342D02*
X119955837Y-85311723D01*
X119955837Y-85311723D02*
X120051075Y-85264104D01*
X120051075Y-85264104D02*
X120146314Y-85168866D01*
X120146314Y-85168866D02*
X120193933Y-85026009D01*
X120193933Y-85026009D02*
X120193933Y-84787914D01*
X119193933Y-85692676D02*
X119193933Y-86311723D01*
X119193933Y-86311723D02*
X119574885Y-85978390D01*
X119574885Y-85978390D02*
X119574885Y-86121247D01*
X119574885Y-86121247D02*
X119622504Y-86216485D01*
X119622504Y-86216485D02*
X119670123Y-86264104D01*
X119670123Y-86264104D02*
X119765361Y-86311723D01*
X119765361Y-86311723D02*
X120003456Y-86311723D01*
X120003456Y-86311723D02*
X120098694Y-86264104D01*
X120098694Y-86264104D02*
X120146314Y-86216485D01*
X120146314Y-86216485D02*
X120193933Y-86121247D01*
X120193933Y-86121247D02*
X120193933Y-85835533D01*
X120193933Y-85835533D02*
X120146314Y-85740295D01*
X120146314Y-85740295D02*
X120098694Y-85692676D01*
X119193933Y-87216485D02*
X119193933Y-86740295D01*
X119193933Y-86740295D02*
X119670123Y-86692676D01*
X119670123Y-86692676D02*
X119622504Y-86740295D01*
X119622504Y-86740295D02*
X119574885Y-86835533D01*
X119574885Y-86835533D02*
X119574885Y-87073628D01*
X119574885Y-87073628D02*
X119622504Y-87168866D01*
X119622504Y-87168866D02*
X119670123Y-87216485D01*
X119670123Y-87216485D02*
X119765361Y-87264104D01*
X119765361Y-87264104D02*
X120003456Y-87264104D01*
X120003456Y-87264104D02*
X120098694Y-87216485D01*
X120098694Y-87216485D02*
X120146314Y-87168866D01*
X120146314Y-87168866D02*
X120193933Y-87073628D01*
X120193933Y-87073628D02*
X120193933Y-86835533D01*
X120193933Y-86835533D02*
X120146314Y-86740295D01*
X120146314Y-86740295D02*
X120098694Y-86692676D01*
X119873933Y-89550295D02*
X118873933Y-89550295D01*
X119873933Y-90121723D02*
X119302504Y-89693152D01*
X118873933Y-90121723D02*
X119445361Y-89550295D01*
X101143933Y-84787914D02*
X100143933Y-84787914D01*
X100143933Y-84787914D02*
X100143933Y-85026009D01*
X100143933Y-85026009D02*
X100191552Y-85168866D01*
X100191552Y-85168866D02*
X100286790Y-85264104D01*
X100286790Y-85264104D02*
X100382028Y-85311723D01*
X100382028Y-85311723D02*
X100572504Y-85359342D01*
X100572504Y-85359342D02*
X100715361Y-85359342D01*
X100715361Y-85359342D02*
X100905837Y-85311723D01*
X100905837Y-85311723D02*
X101001075Y-85264104D01*
X101001075Y-85264104D02*
X101096314Y-85168866D01*
X101096314Y-85168866D02*
X101143933Y-85026009D01*
X101143933Y-85026009D02*
X101143933Y-84787914D01*
X100143933Y-85692676D02*
X100143933Y-86311723D01*
X100143933Y-86311723D02*
X100524885Y-85978390D01*
X100524885Y-85978390D02*
X100524885Y-86121247D01*
X100524885Y-86121247D02*
X100572504Y-86216485D01*
X100572504Y-86216485D02*
X100620123Y-86264104D01*
X100620123Y-86264104D02*
X100715361Y-86311723D01*
X100715361Y-86311723D02*
X100953456Y-86311723D01*
X100953456Y-86311723D02*
X101048694Y-86264104D01*
X101048694Y-86264104D02*
X101096314Y-86216485D01*
X101096314Y-86216485D02*
X101143933Y-86121247D01*
X101143933Y-86121247D02*
X101143933Y-85835533D01*
X101143933Y-85835533D02*
X101096314Y-85740295D01*
X101096314Y-85740295D02*
X101048694Y-85692676D01*
X100477266Y-87168866D02*
X101143933Y-87168866D01*
X100096314Y-86930771D02*
X100810599Y-86692676D01*
X100810599Y-86692676D02*
X100810599Y-87311723D01*
X100823933Y-89550295D02*
X99823933Y-89550295D01*
X100823933Y-90121723D02*
X100252504Y-89693152D01*
X99823933Y-90121723D02*
X100395361Y-89550295D01*
X82093933Y-84787914D02*
X81093933Y-84787914D01*
X81093933Y-84787914D02*
X81093933Y-85026009D01*
X81093933Y-85026009D02*
X81141552Y-85168866D01*
X81141552Y-85168866D02*
X81236790Y-85264104D01*
X81236790Y-85264104D02*
X81332028Y-85311723D01*
X81332028Y-85311723D02*
X81522504Y-85359342D01*
X81522504Y-85359342D02*
X81665361Y-85359342D01*
X81665361Y-85359342D02*
X81855837Y-85311723D01*
X81855837Y-85311723D02*
X81951075Y-85264104D01*
X81951075Y-85264104D02*
X82046314Y-85168866D01*
X82046314Y-85168866D02*
X82093933Y-85026009D01*
X82093933Y-85026009D02*
X82093933Y-84787914D01*
X81093933Y-85692676D02*
X81093933Y-86311723D01*
X81093933Y-86311723D02*
X81474885Y-85978390D01*
X81474885Y-85978390D02*
X81474885Y-86121247D01*
X81474885Y-86121247D02*
X81522504Y-86216485D01*
X81522504Y-86216485D02*
X81570123Y-86264104D01*
X81570123Y-86264104D02*
X81665361Y-86311723D01*
X81665361Y-86311723D02*
X81903456Y-86311723D01*
X81903456Y-86311723D02*
X81998694Y-86264104D01*
X81998694Y-86264104D02*
X82046314Y-86216485D01*
X82046314Y-86216485D02*
X82093933Y-86121247D01*
X82093933Y-86121247D02*
X82093933Y-85835533D01*
X82093933Y-85835533D02*
X82046314Y-85740295D01*
X82046314Y-85740295D02*
X81998694Y-85692676D01*
X81093933Y-86645057D02*
X81093933Y-87264104D01*
X81093933Y-87264104D02*
X81474885Y-86930771D01*
X81474885Y-86930771D02*
X81474885Y-87073628D01*
X81474885Y-87073628D02*
X81522504Y-87168866D01*
X81522504Y-87168866D02*
X81570123Y-87216485D01*
X81570123Y-87216485D02*
X81665361Y-87264104D01*
X81665361Y-87264104D02*
X81903456Y-87264104D01*
X81903456Y-87264104D02*
X81998694Y-87216485D01*
X81998694Y-87216485D02*
X82046314Y-87168866D01*
X82046314Y-87168866D02*
X82093933Y-87073628D01*
X82093933Y-87073628D02*
X82093933Y-86787914D01*
X82093933Y-86787914D02*
X82046314Y-86692676D01*
X82046314Y-86692676D02*
X81998694Y-86645057D01*
X81773933Y-89550295D02*
X80773933Y-89550295D01*
X81773933Y-90121723D02*
X81202504Y-89693152D01*
X80773933Y-90121723D02*
X81345361Y-89550295D01*
X58281433Y-84787914D02*
X57281433Y-84787914D01*
X57281433Y-84787914D02*
X57281433Y-85026009D01*
X57281433Y-85026009D02*
X57329052Y-85168866D01*
X57329052Y-85168866D02*
X57424290Y-85264104D01*
X57424290Y-85264104D02*
X57519528Y-85311723D01*
X57519528Y-85311723D02*
X57710004Y-85359342D01*
X57710004Y-85359342D02*
X57852861Y-85359342D01*
X57852861Y-85359342D02*
X58043337Y-85311723D01*
X58043337Y-85311723D02*
X58138575Y-85264104D01*
X58138575Y-85264104D02*
X58233814Y-85168866D01*
X58233814Y-85168866D02*
X58281433Y-85026009D01*
X58281433Y-85026009D02*
X58281433Y-84787914D01*
X57281433Y-85692676D02*
X57281433Y-86311723D01*
X57281433Y-86311723D02*
X57662385Y-85978390D01*
X57662385Y-85978390D02*
X57662385Y-86121247D01*
X57662385Y-86121247D02*
X57710004Y-86216485D01*
X57710004Y-86216485D02*
X57757623Y-86264104D01*
X57757623Y-86264104D02*
X57852861Y-86311723D01*
X57852861Y-86311723D02*
X58090956Y-86311723D01*
X58090956Y-86311723D02*
X58186194Y-86264104D01*
X58186194Y-86264104D02*
X58233814Y-86216485D01*
X58233814Y-86216485D02*
X58281433Y-86121247D01*
X58281433Y-86121247D02*
X58281433Y-85835533D01*
X58281433Y-85835533D02*
X58233814Y-85740295D01*
X58233814Y-85740295D02*
X58186194Y-85692676D01*
X57376671Y-86692676D02*
X57329052Y-86740295D01*
X57329052Y-86740295D02*
X57281433Y-86835533D01*
X57281433Y-86835533D02*
X57281433Y-87073628D01*
X57281433Y-87073628D02*
X57329052Y-87168866D01*
X57329052Y-87168866D02*
X57376671Y-87216485D01*
X57376671Y-87216485D02*
X57471909Y-87264104D01*
X57471909Y-87264104D02*
X57567147Y-87264104D01*
X57567147Y-87264104D02*
X57710004Y-87216485D01*
X57710004Y-87216485D02*
X58281433Y-86645057D01*
X58281433Y-86645057D02*
X58281433Y-87264104D01*
X57961433Y-89550295D02*
X56961433Y-89550295D01*
X57961433Y-90121723D02*
X57390004Y-89693152D01*
X56961433Y-90121723D02*
X57532861Y-89550295D01*
X339268933Y-65737914D02*
X338268933Y-65737914D01*
X338268933Y-65737914D02*
X338268933Y-65976009D01*
X338268933Y-65976009D02*
X338316552Y-66118866D01*
X338316552Y-66118866D02*
X338411790Y-66214104D01*
X338411790Y-66214104D02*
X338507028Y-66261723D01*
X338507028Y-66261723D02*
X338697504Y-66309342D01*
X338697504Y-66309342D02*
X338840361Y-66309342D01*
X338840361Y-66309342D02*
X339030837Y-66261723D01*
X339030837Y-66261723D02*
X339126075Y-66214104D01*
X339126075Y-66214104D02*
X339221314Y-66118866D01*
X339221314Y-66118866D02*
X339268933Y-65976009D01*
X339268933Y-65976009D02*
X339268933Y-65737914D01*
X338268933Y-66642676D02*
X338268933Y-67261723D01*
X338268933Y-67261723D02*
X338649885Y-66928390D01*
X338649885Y-66928390D02*
X338649885Y-67071247D01*
X338649885Y-67071247D02*
X338697504Y-67166485D01*
X338697504Y-67166485D02*
X338745123Y-67214104D01*
X338745123Y-67214104D02*
X338840361Y-67261723D01*
X338840361Y-67261723D02*
X339078456Y-67261723D01*
X339078456Y-67261723D02*
X339173694Y-67214104D01*
X339173694Y-67214104D02*
X339221314Y-67166485D01*
X339221314Y-67166485D02*
X339268933Y-67071247D01*
X339268933Y-67071247D02*
X339268933Y-66785533D01*
X339268933Y-66785533D02*
X339221314Y-66690295D01*
X339221314Y-66690295D02*
X339173694Y-66642676D01*
X339268933Y-68214104D02*
X339268933Y-67642676D01*
X339268933Y-67928390D02*
X338268933Y-67928390D01*
X338268933Y-67928390D02*
X338411790Y-67833152D01*
X338411790Y-67833152D02*
X338507028Y-67737914D01*
X338507028Y-67737914D02*
X338554647Y-67642676D01*
X338948933Y-70500295D02*
X337948933Y-70500295D01*
X338948933Y-71071723D02*
X338377504Y-70643152D01*
X337948933Y-71071723D02*
X338520361Y-70500295D01*
X310693933Y-65737914D02*
X309693933Y-65737914D01*
X309693933Y-65737914D02*
X309693933Y-65976009D01*
X309693933Y-65976009D02*
X309741552Y-66118866D01*
X309741552Y-66118866D02*
X309836790Y-66214104D01*
X309836790Y-66214104D02*
X309932028Y-66261723D01*
X309932028Y-66261723D02*
X310122504Y-66309342D01*
X310122504Y-66309342D02*
X310265361Y-66309342D01*
X310265361Y-66309342D02*
X310455837Y-66261723D01*
X310455837Y-66261723D02*
X310551075Y-66214104D01*
X310551075Y-66214104D02*
X310646314Y-66118866D01*
X310646314Y-66118866D02*
X310693933Y-65976009D01*
X310693933Y-65976009D02*
X310693933Y-65737914D01*
X309693933Y-66642676D02*
X309693933Y-67261723D01*
X309693933Y-67261723D02*
X310074885Y-66928390D01*
X310074885Y-66928390D02*
X310074885Y-67071247D01*
X310074885Y-67071247D02*
X310122504Y-67166485D01*
X310122504Y-67166485D02*
X310170123Y-67214104D01*
X310170123Y-67214104D02*
X310265361Y-67261723D01*
X310265361Y-67261723D02*
X310503456Y-67261723D01*
X310503456Y-67261723D02*
X310598694Y-67214104D01*
X310598694Y-67214104D02*
X310646314Y-67166485D01*
X310646314Y-67166485D02*
X310693933Y-67071247D01*
X310693933Y-67071247D02*
X310693933Y-66785533D01*
X310693933Y-66785533D02*
X310646314Y-66690295D01*
X310646314Y-66690295D02*
X310598694Y-66642676D01*
X309693933Y-67880771D02*
X309693933Y-67976009D01*
X309693933Y-67976009D02*
X309741552Y-68071247D01*
X309741552Y-68071247D02*
X309789171Y-68118866D01*
X309789171Y-68118866D02*
X309884409Y-68166485D01*
X309884409Y-68166485D02*
X310074885Y-68214104D01*
X310074885Y-68214104D02*
X310312980Y-68214104D01*
X310312980Y-68214104D02*
X310503456Y-68166485D01*
X310503456Y-68166485D02*
X310598694Y-68118866D01*
X310598694Y-68118866D02*
X310646314Y-68071247D01*
X310646314Y-68071247D02*
X310693933Y-67976009D01*
X310693933Y-67976009D02*
X310693933Y-67880771D01*
X310693933Y-67880771D02*
X310646314Y-67785533D01*
X310646314Y-67785533D02*
X310598694Y-67737914D01*
X310598694Y-67737914D02*
X310503456Y-67690295D01*
X310503456Y-67690295D02*
X310312980Y-67642676D01*
X310312980Y-67642676D02*
X310074885Y-67642676D01*
X310074885Y-67642676D02*
X309884409Y-67690295D01*
X309884409Y-67690295D02*
X309789171Y-67737914D01*
X309789171Y-67737914D02*
X309741552Y-67785533D01*
X309741552Y-67785533D02*
X309693933Y-67880771D01*
X310373933Y-70500295D02*
X309373933Y-70500295D01*
X310373933Y-71071723D02*
X309802504Y-70643152D01*
X309373933Y-71071723D02*
X309945361Y-70500295D01*
X248781433Y-122887914D02*
X247781433Y-122887914D01*
X247781433Y-122887914D02*
X247781433Y-123126009D01*
X247781433Y-123126009D02*
X247829052Y-123268866D01*
X247829052Y-123268866D02*
X247924290Y-123364104D01*
X247924290Y-123364104D02*
X248019528Y-123411723D01*
X248019528Y-123411723D02*
X248210004Y-123459342D01*
X248210004Y-123459342D02*
X248352861Y-123459342D01*
X248352861Y-123459342D02*
X248543337Y-123411723D01*
X248543337Y-123411723D02*
X248638575Y-123364104D01*
X248638575Y-123364104D02*
X248733814Y-123268866D01*
X248733814Y-123268866D02*
X248781433Y-123126009D01*
X248781433Y-123126009D02*
X248781433Y-122887914D01*
X247781433Y-123792676D02*
X247781433Y-124459342D01*
X247781433Y-124459342D02*
X248781433Y-124030771D01*
X247781433Y-125030771D02*
X247781433Y-125126009D01*
X247781433Y-125126009D02*
X247829052Y-125221247D01*
X247829052Y-125221247D02*
X247876671Y-125268866D01*
X247876671Y-125268866D02*
X247971909Y-125316485D01*
X247971909Y-125316485D02*
X248162385Y-125364104D01*
X248162385Y-125364104D02*
X248400480Y-125364104D01*
X248400480Y-125364104D02*
X248590956Y-125316485D01*
X248590956Y-125316485D02*
X248686194Y-125268866D01*
X248686194Y-125268866D02*
X248733814Y-125221247D01*
X248733814Y-125221247D02*
X248781433Y-125126009D01*
X248781433Y-125126009D02*
X248781433Y-125030771D01*
X248781433Y-125030771D02*
X248733814Y-124935533D01*
X248733814Y-124935533D02*
X248686194Y-124887914D01*
X248686194Y-124887914D02*
X248590956Y-124840295D01*
X248590956Y-124840295D02*
X248400480Y-124792676D01*
X248400480Y-124792676D02*
X248162385Y-124792676D01*
X248162385Y-124792676D02*
X247971909Y-124840295D01*
X247971909Y-124840295D02*
X247876671Y-124887914D01*
X247876671Y-124887914D02*
X247829052Y-124935533D01*
X247829052Y-124935533D02*
X247781433Y-125030771D01*
X248461433Y-127650295D02*
X247461433Y-127650295D01*
X248461433Y-128221723D02*
X247890004Y-127793152D01*
X247461433Y-128221723D02*
X248032861Y-127650295D01*
X229731433Y-122887914D02*
X228731433Y-122887914D01*
X228731433Y-122887914D02*
X228731433Y-123126009D01*
X228731433Y-123126009D02*
X228779052Y-123268866D01*
X228779052Y-123268866D02*
X228874290Y-123364104D01*
X228874290Y-123364104D02*
X228969528Y-123411723D01*
X228969528Y-123411723D02*
X229160004Y-123459342D01*
X229160004Y-123459342D02*
X229302861Y-123459342D01*
X229302861Y-123459342D02*
X229493337Y-123411723D01*
X229493337Y-123411723D02*
X229588575Y-123364104D01*
X229588575Y-123364104D02*
X229683814Y-123268866D01*
X229683814Y-123268866D02*
X229731433Y-123126009D01*
X229731433Y-123126009D02*
X229731433Y-122887914D01*
X228731433Y-124316485D02*
X228731433Y-124126009D01*
X228731433Y-124126009D02*
X228779052Y-124030771D01*
X228779052Y-124030771D02*
X228826671Y-123983152D01*
X228826671Y-123983152D02*
X228969528Y-123887914D01*
X228969528Y-123887914D02*
X229160004Y-123840295D01*
X229160004Y-123840295D02*
X229540956Y-123840295D01*
X229540956Y-123840295D02*
X229636194Y-123887914D01*
X229636194Y-123887914D02*
X229683814Y-123935533D01*
X229683814Y-123935533D02*
X229731433Y-124030771D01*
X229731433Y-124030771D02*
X229731433Y-124221247D01*
X229731433Y-124221247D02*
X229683814Y-124316485D01*
X229683814Y-124316485D02*
X229636194Y-124364104D01*
X229636194Y-124364104D02*
X229540956Y-124411723D01*
X229540956Y-124411723D02*
X229302861Y-124411723D01*
X229302861Y-124411723D02*
X229207623Y-124364104D01*
X229207623Y-124364104D02*
X229160004Y-124316485D01*
X229160004Y-124316485D02*
X229112385Y-124221247D01*
X229112385Y-124221247D02*
X229112385Y-124030771D01*
X229112385Y-124030771D02*
X229160004Y-123935533D01*
X229160004Y-123935533D02*
X229207623Y-123887914D01*
X229207623Y-123887914D02*
X229302861Y-123840295D01*
X229731433Y-124887914D02*
X229731433Y-125078390D01*
X229731433Y-125078390D02*
X229683814Y-125173628D01*
X229683814Y-125173628D02*
X229636194Y-125221247D01*
X229636194Y-125221247D02*
X229493337Y-125316485D01*
X229493337Y-125316485D02*
X229302861Y-125364104D01*
X229302861Y-125364104D02*
X228921909Y-125364104D01*
X228921909Y-125364104D02*
X228826671Y-125316485D01*
X228826671Y-125316485D02*
X228779052Y-125268866D01*
X228779052Y-125268866D02*
X228731433Y-125173628D01*
X228731433Y-125173628D02*
X228731433Y-124983152D01*
X228731433Y-124983152D02*
X228779052Y-124887914D01*
X228779052Y-124887914D02*
X228826671Y-124840295D01*
X228826671Y-124840295D02*
X228921909Y-124792676D01*
X228921909Y-124792676D02*
X229160004Y-124792676D01*
X229160004Y-124792676D02*
X229255242Y-124840295D01*
X229255242Y-124840295D02*
X229302861Y-124887914D01*
X229302861Y-124887914D02*
X229350480Y-124983152D01*
X229350480Y-124983152D02*
X229350480Y-125173628D01*
X229350480Y-125173628D02*
X229302861Y-125268866D01*
X229302861Y-125268866D02*
X229255242Y-125316485D01*
X229255242Y-125316485D02*
X229160004Y-125364104D01*
X229411433Y-127650295D02*
X228411433Y-127650295D01*
X229411433Y-128221723D02*
X228840004Y-127793152D01*
X228411433Y-128221723D02*
X228982861Y-127650295D01*
X210681433Y-122887914D02*
X209681433Y-122887914D01*
X209681433Y-122887914D02*
X209681433Y-123126009D01*
X209681433Y-123126009D02*
X209729052Y-123268866D01*
X209729052Y-123268866D02*
X209824290Y-123364104D01*
X209824290Y-123364104D02*
X209919528Y-123411723D01*
X209919528Y-123411723D02*
X210110004Y-123459342D01*
X210110004Y-123459342D02*
X210252861Y-123459342D01*
X210252861Y-123459342D02*
X210443337Y-123411723D01*
X210443337Y-123411723D02*
X210538575Y-123364104D01*
X210538575Y-123364104D02*
X210633814Y-123268866D01*
X210633814Y-123268866D02*
X210681433Y-123126009D01*
X210681433Y-123126009D02*
X210681433Y-122887914D01*
X209681433Y-124316485D02*
X209681433Y-124126009D01*
X209681433Y-124126009D02*
X209729052Y-124030771D01*
X209729052Y-124030771D02*
X209776671Y-123983152D01*
X209776671Y-123983152D02*
X209919528Y-123887914D01*
X209919528Y-123887914D02*
X210110004Y-123840295D01*
X210110004Y-123840295D02*
X210490956Y-123840295D01*
X210490956Y-123840295D02*
X210586194Y-123887914D01*
X210586194Y-123887914D02*
X210633814Y-123935533D01*
X210633814Y-123935533D02*
X210681433Y-124030771D01*
X210681433Y-124030771D02*
X210681433Y-124221247D01*
X210681433Y-124221247D02*
X210633814Y-124316485D01*
X210633814Y-124316485D02*
X210586194Y-124364104D01*
X210586194Y-124364104D02*
X210490956Y-124411723D01*
X210490956Y-124411723D02*
X210252861Y-124411723D01*
X210252861Y-124411723D02*
X210157623Y-124364104D01*
X210157623Y-124364104D02*
X210110004Y-124316485D01*
X210110004Y-124316485D02*
X210062385Y-124221247D01*
X210062385Y-124221247D02*
X210062385Y-124030771D01*
X210062385Y-124030771D02*
X210110004Y-123935533D01*
X210110004Y-123935533D02*
X210157623Y-123887914D01*
X210157623Y-123887914D02*
X210252861Y-123840295D01*
X210110004Y-124983152D02*
X210062385Y-124887914D01*
X210062385Y-124887914D02*
X210014766Y-124840295D01*
X210014766Y-124840295D02*
X209919528Y-124792676D01*
X209919528Y-124792676D02*
X209871909Y-124792676D01*
X209871909Y-124792676D02*
X209776671Y-124840295D01*
X209776671Y-124840295D02*
X209729052Y-124887914D01*
X209729052Y-124887914D02*
X209681433Y-124983152D01*
X209681433Y-124983152D02*
X209681433Y-125173628D01*
X209681433Y-125173628D02*
X209729052Y-125268866D01*
X209729052Y-125268866D02*
X209776671Y-125316485D01*
X209776671Y-125316485D02*
X209871909Y-125364104D01*
X209871909Y-125364104D02*
X209919528Y-125364104D01*
X209919528Y-125364104D02*
X210014766Y-125316485D01*
X210014766Y-125316485D02*
X210062385Y-125268866D01*
X210062385Y-125268866D02*
X210110004Y-125173628D01*
X210110004Y-125173628D02*
X210110004Y-124983152D01*
X210110004Y-124983152D02*
X210157623Y-124887914D01*
X210157623Y-124887914D02*
X210205242Y-124840295D01*
X210205242Y-124840295D02*
X210300480Y-124792676D01*
X210300480Y-124792676D02*
X210490956Y-124792676D01*
X210490956Y-124792676D02*
X210586194Y-124840295D01*
X210586194Y-124840295D02*
X210633814Y-124887914D01*
X210633814Y-124887914D02*
X210681433Y-124983152D01*
X210681433Y-124983152D02*
X210681433Y-125173628D01*
X210681433Y-125173628D02*
X210633814Y-125268866D01*
X210633814Y-125268866D02*
X210586194Y-125316485D01*
X210586194Y-125316485D02*
X210490956Y-125364104D01*
X210490956Y-125364104D02*
X210300480Y-125364104D01*
X210300480Y-125364104D02*
X210205242Y-125316485D01*
X210205242Y-125316485D02*
X210157623Y-125268866D01*
X210157623Y-125268866D02*
X210110004Y-125173628D01*
X210361433Y-127650295D02*
X209361433Y-127650295D01*
X210361433Y-128221723D02*
X209790004Y-127793152D01*
X209361433Y-128221723D02*
X209932861Y-127650295D01*
X191631433Y-122887914D02*
X190631433Y-122887914D01*
X190631433Y-122887914D02*
X190631433Y-123126009D01*
X190631433Y-123126009D02*
X190679052Y-123268866D01*
X190679052Y-123268866D02*
X190774290Y-123364104D01*
X190774290Y-123364104D02*
X190869528Y-123411723D01*
X190869528Y-123411723D02*
X191060004Y-123459342D01*
X191060004Y-123459342D02*
X191202861Y-123459342D01*
X191202861Y-123459342D02*
X191393337Y-123411723D01*
X191393337Y-123411723D02*
X191488575Y-123364104D01*
X191488575Y-123364104D02*
X191583814Y-123268866D01*
X191583814Y-123268866D02*
X191631433Y-123126009D01*
X191631433Y-123126009D02*
X191631433Y-122887914D01*
X190631433Y-124316485D02*
X190631433Y-124126009D01*
X190631433Y-124126009D02*
X190679052Y-124030771D01*
X190679052Y-124030771D02*
X190726671Y-123983152D01*
X190726671Y-123983152D02*
X190869528Y-123887914D01*
X190869528Y-123887914D02*
X191060004Y-123840295D01*
X191060004Y-123840295D02*
X191440956Y-123840295D01*
X191440956Y-123840295D02*
X191536194Y-123887914D01*
X191536194Y-123887914D02*
X191583814Y-123935533D01*
X191583814Y-123935533D02*
X191631433Y-124030771D01*
X191631433Y-124030771D02*
X191631433Y-124221247D01*
X191631433Y-124221247D02*
X191583814Y-124316485D01*
X191583814Y-124316485D02*
X191536194Y-124364104D01*
X191536194Y-124364104D02*
X191440956Y-124411723D01*
X191440956Y-124411723D02*
X191202861Y-124411723D01*
X191202861Y-124411723D02*
X191107623Y-124364104D01*
X191107623Y-124364104D02*
X191060004Y-124316485D01*
X191060004Y-124316485D02*
X191012385Y-124221247D01*
X191012385Y-124221247D02*
X191012385Y-124030771D01*
X191012385Y-124030771D02*
X191060004Y-123935533D01*
X191060004Y-123935533D02*
X191107623Y-123887914D01*
X191107623Y-123887914D02*
X191202861Y-123840295D01*
X190631433Y-124745057D02*
X190631433Y-125411723D01*
X190631433Y-125411723D02*
X191631433Y-124983152D01*
X191311433Y-127650295D02*
X190311433Y-127650295D01*
X191311433Y-128221723D02*
X190740004Y-127793152D01*
X190311433Y-128221723D02*
X190882861Y-127650295D01*
X172581433Y-122887914D02*
X171581433Y-122887914D01*
X171581433Y-122887914D02*
X171581433Y-123126009D01*
X171581433Y-123126009D02*
X171629052Y-123268866D01*
X171629052Y-123268866D02*
X171724290Y-123364104D01*
X171724290Y-123364104D02*
X171819528Y-123411723D01*
X171819528Y-123411723D02*
X172010004Y-123459342D01*
X172010004Y-123459342D02*
X172152861Y-123459342D01*
X172152861Y-123459342D02*
X172343337Y-123411723D01*
X172343337Y-123411723D02*
X172438575Y-123364104D01*
X172438575Y-123364104D02*
X172533814Y-123268866D01*
X172533814Y-123268866D02*
X172581433Y-123126009D01*
X172581433Y-123126009D02*
X172581433Y-122887914D01*
X171581433Y-124316485D02*
X171581433Y-124126009D01*
X171581433Y-124126009D02*
X171629052Y-124030771D01*
X171629052Y-124030771D02*
X171676671Y-123983152D01*
X171676671Y-123983152D02*
X171819528Y-123887914D01*
X171819528Y-123887914D02*
X172010004Y-123840295D01*
X172010004Y-123840295D02*
X172390956Y-123840295D01*
X172390956Y-123840295D02*
X172486194Y-123887914D01*
X172486194Y-123887914D02*
X172533814Y-123935533D01*
X172533814Y-123935533D02*
X172581433Y-124030771D01*
X172581433Y-124030771D02*
X172581433Y-124221247D01*
X172581433Y-124221247D02*
X172533814Y-124316485D01*
X172533814Y-124316485D02*
X172486194Y-124364104D01*
X172486194Y-124364104D02*
X172390956Y-124411723D01*
X172390956Y-124411723D02*
X172152861Y-124411723D01*
X172152861Y-124411723D02*
X172057623Y-124364104D01*
X172057623Y-124364104D02*
X172010004Y-124316485D01*
X172010004Y-124316485D02*
X171962385Y-124221247D01*
X171962385Y-124221247D02*
X171962385Y-124030771D01*
X171962385Y-124030771D02*
X172010004Y-123935533D01*
X172010004Y-123935533D02*
X172057623Y-123887914D01*
X172057623Y-123887914D02*
X172152861Y-123840295D01*
X171581433Y-125268866D02*
X171581433Y-125078390D01*
X171581433Y-125078390D02*
X171629052Y-124983152D01*
X171629052Y-124983152D02*
X171676671Y-124935533D01*
X171676671Y-124935533D02*
X171819528Y-124840295D01*
X171819528Y-124840295D02*
X172010004Y-124792676D01*
X172010004Y-124792676D02*
X172390956Y-124792676D01*
X172390956Y-124792676D02*
X172486194Y-124840295D01*
X172486194Y-124840295D02*
X172533814Y-124887914D01*
X172533814Y-124887914D02*
X172581433Y-124983152D01*
X172581433Y-124983152D02*
X172581433Y-125173628D01*
X172581433Y-125173628D02*
X172533814Y-125268866D01*
X172533814Y-125268866D02*
X172486194Y-125316485D01*
X172486194Y-125316485D02*
X172390956Y-125364104D01*
X172390956Y-125364104D02*
X172152861Y-125364104D01*
X172152861Y-125364104D02*
X172057623Y-125316485D01*
X172057623Y-125316485D02*
X172010004Y-125268866D01*
X172010004Y-125268866D02*
X171962385Y-125173628D01*
X171962385Y-125173628D02*
X171962385Y-124983152D01*
X171962385Y-124983152D02*
X172010004Y-124887914D01*
X172010004Y-124887914D02*
X172057623Y-124840295D01*
X172057623Y-124840295D02*
X172152861Y-124792676D01*
X172261433Y-127650295D02*
X171261433Y-127650295D01*
X172261433Y-128221723D02*
X171690004Y-127793152D01*
X171261433Y-128221723D02*
X171832861Y-127650295D01*
X153531433Y-122887914D02*
X152531433Y-122887914D01*
X152531433Y-122887914D02*
X152531433Y-123126009D01*
X152531433Y-123126009D02*
X152579052Y-123268866D01*
X152579052Y-123268866D02*
X152674290Y-123364104D01*
X152674290Y-123364104D02*
X152769528Y-123411723D01*
X152769528Y-123411723D02*
X152960004Y-123459342D01*
X152960004Y-123459342D02*
X153102861Y-123459342D01*
X153102861Y-123459342D02*
X153293337Y-123411723D01*
X153293337Y-123411723D02*
X153388575Y-123364104D01*
X153388575Y-123364104D02*
X153483814Y-123268866D01*
X153483814Y-123268866D02*
X153531433Y-123126009D01*
X153531433Y-123126009D02*
X153531433Y-122887914D01*
X152531433Y-124316485D02*
X152531433Y-124126009D01*
X152531433Y-124126009D02*
X152579052Y-124030771D01*
X152579052Y-124030771D02*
X152626671Y-123983152D01*
X152626671Y-123983152D02*
X152769528Y-123887914D01*
X152769528Y-123887914D02*
X152960004Y-123840295D01*
X152960004Y-123840295D02*
X153340956Y-123840295D01*
X153340956Y-123840295D02*
X153436194Y-123887914D01*
X153436194Y-123887914D02*
X153483814Y-123935533D01*
X153483814Y-123935533D02*
X153531433Y-124030771D01*
X153531433Y-124030771D02*
X153531433Y-124221247D01*
X153531433Y-124221247D02*
X153483814Y-124316485D01*
X153483814Y-124316485D02*
X153436194Y-124364104D01*
X153436194Y-124364104D02*
X153340956Y-124411723D01*
X153340956Y-124411723D02*
X153102861Y-124411723D01*
X153102861Y-124411723D02*
X153007623Y-124364104D01*
X153007623Y-124364104D02*
X152960004Y-124316485D01*
X152960004Y-124316485D02*
X152912385Y-124221247D01*
X152912385Y-124221247D02*
X152912385Y-124030771D01*
X152912385Y-124030771D02*
X152960004Y-123935533D01*
X152960004Y-123935533D02*
X153007623Y-123887914D01*
X153007623Y-123887914D02*
X153102861Y-123840295D01*
X152531433Y-125316485D02*
X152531433Y-124840295D01*
X152531433Y-124840295D02*
X153007623Y-124792676D01*
X153007623Y-124792676D02*
X152960004Y-124840295D01*
X152960004Y-124840295D02*
X152912385Y-124935533D01*
X152912385Y-124935533D02*
X152912385Y-125173628D01*
X152912385Y-125173628D02*
X152960004Y-125268866D01*
X152960004Y-125268866D02*
X153007623Y-125316485D01*
X153007623Y-125316485D02*
X153102861Y-125364104D01*
X153102861Y-125364104D02*
X153340956Y-125364104D01*
X153340956Y-125364104D02*
X153436194Y-125316485D01*
X153436194Y-125316485D02*
X153483814Y-125268866D01*
X153483814Y-125268866D02*
X153531433Y-125173628D01*
X153531433Y-125173628D02*
X153531433Y-124935533D01*
X153531433Y-124935533D02*
X153483814Y-124840295D01*
X153483814Y-124840295D02*
X153436194Y-124792676D01*
X153211433Y-127650295D02*
X152211433Y-127650295D01*
X153211433Y-128221723D02*
X152640004Y-127793152D01*
X152211433Y-128221723D02*
X152782861Y-127650295D01*
X134481433Y-122887914D02*
X133481433Y-122887914D01*
X133481433Y-122887914D02*
X133481433Y-123126009D01*
X133481433Y-123126009D02*
X133529052Y-123268866D01*
X133529052Y-123268866D02*
X133624290Y-123364104D01*
X133624290Y-123364104D02*
X133719528Y-123411723D01*
X133719528Y-123411723D02*
X133910004Y-123459342D01*
X133910004Y-123459342D02*
X134052861Y-123459342D01*
X134052861Y-123459342D02*
X134243337Y-123411723D01*
X134243337Y-123411723D02*
X134338575Y-123364104D01*
X134338575Y-123364104D02*
X134433814Y-123268866D01*
X134433814Y-123268866D02*
X134481433Y-123126009D01*
X134481433Y-123126009D02*
X134481433Y-122887914D01*
X133481433Y-124316485D02*
X133481433Y-124126009D01*
X133481433Y-124126009D02*
X133529052Y-124030771D01*
X133529052Y-124030771D02*
X133576671Y-123983152D01*
X133576671Y-123983152D02*
X133719528Y-123887914D01*
X133719528Y-123887914D02*
X133910004Y-123840295D01*
X133910004Y-123840295D02*
X134290956Y-123840295D01*
X134290956Y-123840295D02*
X134386194Y-123887914D01*
X134386194Y-123887914D02*
X134433814Y-123935533D01*
X134433814Y-123935533D02*
X134481433Y-124030771D01*
X134481433Y-124030771D02*
X134481433Y-124221247D01*
X134481433Y-124221247D02*
X134433814Y-124316485D01*
X134433814Y-124316485D02*
X134386194Y-124364104D01*
X134386194Y-124364104D02*
X134290956Y-124411723D01*
X134290956Y-124411723D02*
X134052861Y-124411723D01*
X134052861Y-124411723D02*
X133957623Y-124364104D01*
X133957623Y-124364104D02*
X133910004Y-124316485D01*
X133910004Y-124316485D02*
X133862385Y-124221247D01*
X133862385Y-124221247D02*
X133862385Y-124030771D01*
X133862385Y-124030771D02*
X133910004Y-123935533D01*
X133910004Y-123935533D02*
X133957623Y-123887914D01*
X133957623Y-123887914D02*
X134052861Y-123840295D01*
X133814766Y-125268866D02*
X134481433Y-125268866D01*
X133433814Y-125030771D02*
X134148099Y-124792676D01*
X134148099Y-124792676D02*
X134148099Y-125411723D01*
X134161433Y-127650295D02*
X133161433Y-127650295D01*
X134161433Y-128221723D02*
X133590004Y-127793152D01*
X133161433Y-128221723D02*
X133732861Y-127650295D01*
X115431433Y-122887914D02*
X114431433Y-122887914D01*
X114431433Y-122887914D02*
X114431433Y-123126009D01*
X114431433Y-123126009D02*
X114479052Y-123268866D01*
X114479052Y-123268866D02*
X114574290Y-123364104D01*
X114574290Y-123364104D02*
X114669528Y-123411723D01*
X114669528Y-123411723D02*
X114860004Y-123459342D01*
X114860004Y-123459342D02*
X115002861Y-123459342D01*
X115002861Y-123459342D02*
X115193337Y-123411723D01*
X115193337Y-123411723D02*
X115288575Y-123364104D01*
X115288575Y-123364104D02*
X115383814Y-123268866D01*
X115383814Y-123268866D02*
X115431433Y-123126009D01*
X115431433Y-123126009D02*
X115431433Y-122887914D01*
X114431433Y-124316485D02*
X114431433Y-124126009D01*
X114431433Y-124126009D02*
X114479052Y-124030771D01*
X114479052Y-124030771D02*
X114526671Y-123983152D01*
X114526671Y-123983152D02*
X114669528Y-123887914D01*
X114669528Y-123887914D02*
X114860004Y-123840295D01*
X114860004Y-123840295D02*
X115240956Y-123840295D01*
X115240956Y-123840295D02*
X115336194Y-123887914D01*
X115336194Y-123887914D02*
X115383814Y-123935533D01*
X115383814Y-123935533D02*
X115431433Y-124030771D01*
X115431433Y-124030771D02*
X115431433Y-124221247D01*
X115431433Y-124221247D02*
X115383814Y-124316485D01*
X115383814Y-124316485D02*
X115336194Y-124364104D01*
X115336194Y-124364104D02*
X115240956Y-124411723D01*
X115240956Y-124411723D02*
X115002861Y-124411723D01*
X115002861Y-124411723D02*
X114907623Y-124364104D01*
X114907623Y-124364104D02*
X114860004Y-124316485D01*
X114860004Y-124316485D02*
X114812385Y-124221247D01*
X114812385Y-124221247D02*
X114812385Y-124030771D01*
X114812385Y-124030771D02*
X114860004Y-123935533D01*
X114860004Y-123935533D02*
X114907623Y-123887914D01*
X114907623Y-123887914D02*
X115002861Y-123840295D01*
X114431433Y-124745057D02*
X114431433Y-125364104D01*
X114431433Y-125364104D02*
X114812385Y-125030771D01*
X114812385Y-125030771D02*
X114812385Y-125173628D01*
X114812385Y-125173628D02*
X114860004Y-125268866D01*
X114860004Y-125268866D02*
X114907623Y-125316485D01*
X114907623Y-125316485D02*
X115002861Y-125364104D01*
X115002861Y-125364104D02*
X115240956Y-125364104D01*
X115240956Y-125364104D02*
X115336194Y-125316485D01*
X115336194Y-125316485D02*
X115383814Y-125268866D01*
X115383814Y-125268866D02*
X115431433Y-125173628D01*
X115431433Y-125173628D02*
X115431433Y-124887914D01*
X115431433Y-124887914D02*
X115383814Y-124792676D01*
X115383814Y-124792676D02*
X115336194Y-124745057D01*
X115111433Y-127650295D02*
X114111433Y-127650295D01*
X115111433Y-128221723D02*
X114540004Y-127793152D01*
X114111433Y-128221723D02*
X114682861Y-127650295D01*
X96381433Y-122887914D02*
X95381433Y-122887914D01*
X95381433Y-122887914D02*
X95381433Y-123126009D01*
X95381433Y-123126009D02*
X95429052Y-123268866D01*
X95429052Y-123268866D02*
X95524290Y-123364104D01*
X95524290Y-123364104D02*
X95619528Y-123411723D01*
X95619528Y-123411723D02*
X95810004Y-123459342D01*
X95810004Y-123459342D02*
X95952861Y-123459342D01*
X95952861Y-123459342D02*
X96143337Y-123411723D01*
X96143337Y-123411723D02*
X96238575Y-123364104D01*
X96238575Y-123364104D02*
X96333814Y-123268866D01*
X96333814Y-123268866D02*
X96381433Y-123126009D01*
X96381433Y-123126009D02*
X96381433Y-122887914D01*
X95381433Y-124316485D02*
X95381433Y-124126009D01*
X95381433Y-124126009D02*
X95429052Y-124030771D01*
X95429052Y-124030771D02*
X95476671Y-123983152D01*
X95476671Y-123983152D02*
X95619528Y-123887914D01*
X95619528Y-123887914D02*
X95810004Y-123840295D01*
X95810004Y-123840295D02*
X96190956Y-123840295D01*
X96190956Y-123840295D02*
X96286194Y-123887914D01*
X96286194Y-123887914D02*
X96333814Y-123935533D01*
X96333814Y-123935533D02*
X96381433Y-124030771D01*
X96381433Y-124030771D02*
X96381433Y-124221247D01*
X96381433Y-124221247D02*
X96333814Y-124316485D01*
X96333814Y-124316485D02*
X96286194Y-124364104D01*
X96286194Y-124364104D02*
X96190956Y-124411723D01*
X96190956Y-124411723D02*
X95952861Y-124411723D01*
X95952861Y-124411723D02*
X95857623Y-124364104D01*
X95857623Y-124364104D02*
X95810004Y-124316485D01*
X95810004Y-124316485D02*
X95762385Y-124221247D01*
X95762385Y-124221247D02*
X95762385Y-124030771D01*
X95762385Y-124030771D02*
X95810004Y-123935533D01*
X95810004Y-123935533D02*
X95857623Y-123887914D01*
X95857623Y-123887914D02*
X95952861Y-123840295D01*
X95476671Y-124792676D02*
X95429052Y-124840295D01*
X95429052Y-124840295D02*
X95381433Y-124935533D01*
X95381433Y-124935533D02*
X95381433Y-125173628D01*
X95381433Y-125173628D02*
X95429052Y-125268866D01*
X95429052Y-125268866D02*
X95476671Y-125316485D01*
X95476671Y-125316485D02*
X95571909Y-125364104D01*
X95571909Y-125364104D02*
X95667147Y-125364104D01*
X95667147Y-125364104D02*
X95810004Y-125316485D01*
X95810004Y-125316485D02*
X96381433Y-124745057D01*
X96381433Y-124745057D02*
X96381433Y-125364104D01*
X96061433Y-127650295D02*
X95061433Y-127650295D01*
X96061433Y-128221723D02*
X95490004Y-127793152D01*
X95061433Y-128221723D02*
X95632861Y-127650295D01*
X65425183Y-122887914D02*
X64425183Y-122887914D01*
X64425183Y-122887914D02*
X64425183Y-123126009D01*
X64425183Y-123126009D02*
X64472802Y-123268866D01*
X64472802Y-123268866D02*
X64568040Y-123364104D01*
X64568040Y-123364104D02*
X64663278Y-123411723D01*
X64663278Y-123411723D02*
X64853754Y-123459342D01*
X64853754Y-123459342D02*
X64996611Y-123459342D01*
X64996611Y-123459342D02*
X65187087Y-123411723D01*
X65187087Y-123411723D02*
X65282325Y-123364104D01*
X65282325Y-123364104D02*
X65377564Y-123268866D01*
X65377564Y-123268866D02*
X65425183Y-123126009D01*
X65425183Y-123126009D02*
X65425183Y-122887914D01*
X64425183Y-124316485D02*
X64425183Y-124126009D01*
X64425183Y-124126009D02*
X64472802Y-124030771D01*
X64472802Y-124030771D02*
X64520421Y-123983152D01*
X64520421Y-123983152D02*
X64663278Y-123887914D01*
X64663278Y-123887914D02*
X64853754Y-123840295D01*
X64853754Y-123840295D02*
X65234706Y-123840295D01*
X65234706Y-123840295D02*
X65329944Y-123887914D01*
X65329944Y-123887914D02*
X65377564Y-123935533D01*
X65377564Y-123935533D02*
X65425183Y-124030771D01*
X65425183Y-124030771D02*
X65425183Y-124221247D01*
X65425183Y-124221247D02*
X65377564Y-124316485D01*
X65377564Y-124316485D02*
X65329944Y-124364104D01*
X65329944Y-124364104D02*
X65234706Y-124411723D01*
X65234706Y-124411723D02*
X64996611Y-124411723D01*
X64996611Y-124411723D02*
X64901373Y-124364104D01*
X64901373Y-124364104D02*
X64853754Y-124316485D01*
X64853754Y-124316485D02*
X64806135Y-124221247D01*
X64806135Y-124221247D02*
X64806135Y-124030771D01*
X64806135Y-124030771D02*
X64853754Y-123935533D01*
X64853754Y-123935533D02*
X64901373Y-123887914D01*
X64901373Y-123887914D02*
X64996611Y-123840295D01*
X65425183Y-125364104D02*
X65425183Y-124792676D01*
X65425183Y-125078390D02*
X64425183Y-125078390D01*
X64425183Y-125078390D02*
X64568040Y-124983152D01*
X64568040Y-124983152D02*
X64663278Y-124887914D01*
X64663278Y-124887914D02*
X64710897Y-124792676D01*
X65105183Y-127650295D02*
X64105183Y-127650295D01*
X65105183Y-128221723D02*
X64533754Y-127793152D01*
X64105183Y-128221723D02*
X64676611Y-127650295D01*
X339268933Y-103837914D02*
X338268933Y-103837914D01*
X338268933Y-103837914D02*
X338268933Y-104076009D01*
X338268933Y-104076009D02*
X338316552Y-104218866D01*
X338316552Y-104218866D02*
X338411790Y-104314104D01*
X338411790Y-104314104D02*
X338507028Y-104361723D01*
X338507028Y-104361723D02*
X338697504Y-104409342D01*
X338697504Y-104409342D02*
X338840361Y-104409342D01*
X338840361Y-104409342D02*
X339030837Y-104361723D01*
X339030837Y-104361723D02*
X339126075Y-104314104D01*
X339126075Y-104314104D02*
X339221314Y-104218866D01*
X339221314Y-104218866D02*
X339268933Y-104076009D01*
X339268933Y-104076009D02*
X339268933Y-103837914D01*
X338268933Y-105266485D02*
X338268933Y-105076009D01*
X338268933Y-105076009D02*
X338316552Y-104980771D01*
X338316552Y-104980771D02*
X338364171Y-104933152D01*
X338364171Y-104933152D02*
X338507028Y-104837914D01*
X338507028Y-104837914D02*
X338697504Y-104790295D01*
X338697504Y-104790295D02*
X339078456Y-104790295D01*
X339078456Y-104790295D02*
X339173694Y-104837914D01*
X339173694Y-104837914D02*
X339221314Y-104885533D01*
X339221314Y-104885533D02*
X339268933Y-104980771D01*
X339268933Y-104980771D02*
X339268933Y-105171247D01*
X339268933Y-105171247D02*
X339221314Y-105266485D01*
X339221314Y-105266485D02*
X339173694Y-105314104D01*
X339173694Y-105314104D02*
X339078456Y-105361723D01*
X339078456Y-105361723D02*
X338840361Y-105361723D01*
X338840361Y-105361723D02*
X338745123Y-105314104D01*
X338745123Y-105314104D02*
X338697504Y-105266485D01*
X338697504Y-105266485D02*
X338649885Y-105171247D01*
X338649885Y-105171247D02*
X338649885Y-104980771D01*
X338649885Y-104980771D02*
X338697504Y-104885533D01*
X338697504Y-104885533D02*
X338745123Y-104837914D01*
X338745123Y-104837914D02*
X338840361Y-104790295D01*
X338268933Y-105980771D02*
X338268933Y-106076009D01*
X338268933Y-106076009D02*
X338316552Y-106171247D01*
X338316552Y-106171247D02*
X338364171Y-106218866D01*
X338364171Y-106218866D02*
X338459409Y-106266485D01*
X338459409Y-106266485D02*
X338649885Y-106314104D01*
X338649885Y-106314104D02*
X338887980Y-106314104D01*
X338887980Y-106314104D02*
X339078456Y-106266485D01*
X339078456Y-106266485D02*
X339173694Y-106218866D01*
X339173694Y-106218866D02*
X339221314Y-106171247D01*
X339221314Y-106171247D02*
X339268933Y-106076009D01*
X339268933Y-106076009D02*
X339268933Y-105980771D01*
X339268933Y-105980771D02*
X339221314Y-105885533D01*
X339221314Y-105885533D02*
X339173694Y-105837914D01*
X339173694Y-105837914D02*
X339078456Y-105790295D01*
X339078456Y-105790295D02*
X338887980Y-105742676D01*
X338887980Y-105742676D02*
X338649885Y-105742676D01*
X338649885Y-105742676D02*
X338459409Y-105790295D01*
X338459409Y-105790295D02*
X338364171Y-105837914D01*
X338364171Y-105837914D02*
X338316552Y-105885533D01*
X338316552Y-105885533D02*
X338268933Y-105980771D01*
X338948933Y-108600295D02*
X337948933Y-108600295D01*
X338948933Y-109171723D02*
X338377504Y-108743152D01*
X337948933Y-109171723D02*
X338520361Y-108600295D01*
X308312683Y-103837914D02*
X307312683Y-103837914D01*
X307312683Y-103837914D02*
X307312683Y-104076009D01*
X307312683Y-104076009D02*
X307360302Y-104218866D01*
X307360302Y-104218866D02*
X307455540Y-104314104D01*
X307455540Y-104314104D02*
X307550778Y-104361723D01*
X307550778Y-104361723D02*
X307741254Y-104409342D01*
X307741254Y-104409342D02*
X307884111Y-104409342D01*
X307884111Y-104409342D02*
X308074587Y-104361723D01*
X308074587Y-104361723D02*
X308169825Y-104314104D01*
X308169825Y-104314104D02*
X308265064Y-104218866D01*
X308265064Y-104218866D02*
X308312683Y-104076009D01*
X308312683Y-104076009D02*
X308312683Y-103837914D01*
X307312683Y-105314104D02*
X307312683Y-104837914D01*
X307312683Y-104837914D02*
X307788873Y-104790295D01*
X307788873Y-104790295D02*
X307741254Y-104837914D01*
X307741254Y-104837914D02*
X307693635Y-104933152D01*
X307693635Y-104933152D02*
X307693635Y-105171247D01*
X307693635Y-105171247D02*
X307741254Y-105266485D01*
X307741254Y-105266485D02*
X307788873Y-105314104D01*
X307788873Y-105314104D02*
X307884111Y-105361723D01*
X307884111Y-105361723D02*
X308122206Y-105361723D01*
X308122206Y-105361723D02*
X308217444Y-105314104D01*
X308217444Y-105314104D02*
X308265064Y-105266485D01*
X308265064Y-105266485D02*
X308312683Y-105171247D01*
X308312683Y-105171247D02*
X308312683Y-104933152D01*
X308312683Y-104933152D02*
X308265064Y-104837914D01*
X308265064Y-104837914D02*
X308217444Y-104790295D01*
X308312683Y-105837914D02*
X308312683Y-106028390D01*
X308312683Y-106028390D02*
X308265064Y-106123628D01*
X308265064Y-106123628D02*
X308217444Y-106171247D01*
X308217444Y-106171247D02*
X308074587Y-106266485D01*
X308074587Y-106266485D02*
X307884111Y-106314104D01*
X307884111Y-106314104D02*
X307503159Y-106314104D01*
X307503159Y-106314104D02*
X307407921Y-106266485D01*
X307407921Y-106266485D02*
X307360302Y-106218866D01*
X307360302Y-106218866D02*
X307312683Y-106123628D01*
X307312683Y-106123628D02*
X307312683Y-105933152D01*
X307312683Y-105933152D02*
X307360302Y-105837914D01*
X307360302Y-105837914D02*
X307407921Y-105790295D01*
X307407921Y-105790295D02*
X307503159Y-105742676D01*
X307503159Y-105742676D02*
X307741254Y-105742676D01*
X307741254Y-105742676D02*
X307836492Y-105790295D01*
X307836492Y-105790295D02*
X307884111Y-105837914D01*
X307884111Y-105837914D02*
X307931730Y-105933152D01*
X307931730Y-105933152D02*
X307931730Y-106123628D01*
X307931730Y-106123628D02*
X307884111Y-106218866D01*
X307884111Y-106218866D02*
X307836492Y-106266485D01*
X307836492Y-106266485D02*
X307741254Y-106314104D01*
X307992683Y-108600295D02*
X306992683Y-108600295D01*
X307992683Y-109171723D02*
X307421254Y-108743152D01*
X306992683Y-109171723D02*
X307564111Y-108600295D01*
X277356433Y-103837914D02*
X276356433Y-103837914D01*
X276356433Y-103837914D02*
X276356433Y-104076009D01*
X276356433Y-104076009D02*
X276404052Y-104218866D01*
X276404052Y-104218866D02*
X276499290Y-104314104D01*
X276499290Y-104314104D02*
X276594528Y-104361723D01*
X276594528Y-104361723D02*
X276785004Y-104409342D01*
X276785004Y-104409342D02*
X276927861Y-104409342D01*
X276927861Y-104409342D02*
X277118337Y-104361723D01*
X277118337Y-104361723D02*
X277213575Y-104314104D01*
X277213575Y-104314104D02*
X277308814Y-104218866D01*
X277308814Y-104218866D02*
X277356433Y-104076009D01*
X277356433Y-104076009D02*
X277356433Y-103837914D01*
X276356433Y-105314104D02*
X276356433Y-104837914D01*
X276356433Y-104837914D02*
X276832623Y-104790295D01*
X276832623Y-104790295D02*
X276785004Y-104837914D01*
X276785004Y-104837914D02*
X276737385Y-104933152D01*
X276737385Y-104933152D02*
X276737385Y-105171247D01*
X276737385Y-105171247D02*
X276785004Y-105266485D01*
X276785004Y-105266485D02*
X276832623Y-105314104D01*
X276832623Y-105314104D02*
X276927861Y-105361723D01*
X276927861Y-105361723D02*
X277165956Y-105361723D01*
X277165956Y-105361723D02*
X277261194Y-105314104D01*
X277261194Y-105314104D02*
X277308814Y-105266485D01*
X277308814Y-105266485D02*
X277356433Y-105171247D01*
X277356433Y-105171247D02*
X277356433Y-104933152D01*
X277356433Y-104933152D02*
X277308814Y-104837914D01*
X277308814Y-104837914D02*
X277261194Y-104790295D01*
X276785004Y-105933152D02*
X276737385Y-105837914D01*
X276737385Y-105837914D02*
X276689766Y-105790295D01*
X276689766Y-105790295D02*
X276594528Y-105742676D01*
X276594528Y-105742676D02*
X276546909Y-105742676D01*
X276546909Y-105742676D02*
X276451671Y-105790295D01*
X276451671Y-105790295D02*
X276404052Y-105837914D01*
X276404052Y-105837914D02*
X276356433Y-105933152D01*
X276356433Y-105933152D02*
X276356433Y-106123628D01*
X276356433Y-106123628D02*
X276404052Y-106218866D01*
X276404052Y-106218866D02*
X276451671Y-106266485D01*
X276451671Y-106266485D02*
X276546909Y-106314104D01*
X276546909Y-106314104D02*
X276594528Y-106314104D01*
X276594528Y-106314104D02*
X276689766Y-106266485D01*
X276689766Y-106266485D02*
X276737385Y-106218866D01*
X276737385Y-106218866D02*
X276785004Y-106123628D01*
X276785004Y-106123628D02*
X276785004Y-105933152D01*
X276785004Y-105933152D02*
X276832623Y-105837914D01*
X276832623Y-105837914D02*
X276880242Y-105790295D01*
X276880242Y-105790295D02*
X276975480Y-105742676D01*
X276975480Y-105742676D02*
X277165956Y-105742676D01*
X277165956Y-105742676D02*
X277261194Y-105790295D01*
X277261194Y-105790295D02*
X277308814Y-105837914D01*
X277308814Y-105837914D02*
X277356433Y-105933152D01*
X277356433Y-105933152D02*
X277356433Y-106123628D01*
X277356433Y-106123628D02*
X277308814Y-106218866D01*
X277308814Y-106218866D02*
X277261194Y-106266485D01*
X277261194Y-106266485D02*
X277165956Y-106314104D01*
X277165956Y-106314104D02*
X276975480Y-106314104D01*
X276975480Y-106314104D02*
X276880242Y-106266485D01*
X276880242Y-106266485D02*
X276832623Y-106218866D01*
X276832623Y-106218866D02*
X276785004Y-106123628D01*
X277036433Y-108600295D02*
X276036433Y-108600295D01*
X277036433Y-109171723D02*
X276465004Y-108743152D01*
X276036433Y-109171723D02*
X276607861Y-108600295D01*
X258306433Y-103837914D02*
X257306433Y-103837914D01*
X257306433Y-103837914D02*
X257306433Y-104076009D01*
X257306433Y-104076009D02*
X257354052Y-104218866D01*
X257354052Y-104218866D02*
X257449290Y-104314104D01*
X257449290Y-104314104D02*
X257544528Y-104361723D01*
X257544528Y-104361723D02*
X257735004Y-104409342D01*
X257735004Y-104409342D02*
X257877861Y-104409342D01*
X257877861Y-104409342D02*
X258068337Y-104361723D01*
X258068337Y-104361723D02*
X258163575Y-104314104D01*
X258163575Y-104314104D02*
X258258814Y-104218866D01*
X258258814Y-104218866D02*
X258306433Y-104076009D01*
X258306433Y-104076009D02*
X258306433Y-103837914D01*
X257306433Y-105314104D02*
X257306433Y-104837914D01*
X257306433Y-104837914D02*
X257782623Y-104790295D01*
X257782623Y-104790295D02*
X257735004Y-104837914D01*
X257735004Y-104837914D02*
X257687385Y-104933152D01*
X257687385Y-104933152D02*
X257687385Y-105171247D01*
X257687385Y-105171247D02*
X257735004Y-105266485D01*
X257735004Y-105266485D02*
X257782623Y-105314104D01*
X257782623Y-105314104D02*
X257877861Y-105361723D01*
X257877861Y-105361723D02*
X258115956Y-105361723D01*
X258115956Y-105361723D02*
X258211194Y-105314104D01*
X258211194Y-105314104D02*
X258258814Y-105266485D01*
X258258814Y-105266485D02*
X258306433Y-105171247D01*
X258306433Y-105171247D02*
X258306433Y-104933152D01*
X258306433Y-104933152D02*
X258258814Y-104837914D01*
X258258814Y-104837914D02*
X258211194Y-104790295D01*
X257306433Y-105695057D02*
X257306433Y-106361723D01*
X257306433Y-106361723D02*
X258306433Y-105933152D01*
X257986433Y-108600295D02*
X256986433Y-108600295D01*
X257986433Y-109171723D02*
X257415004Y-108743152D01*
X256986433Y-109171723D02*
X257557861Y-108600295D01*
X186868933Y-65737914D02*
X185868933Y-65737914D01*
X185868933Y-65737914D02*
X185868933Y-65976009D01*
X185868933Y-65976009D02*
X185916552Y-66118866D01*
X185916552Y-66118866D02*
X186011790Y-66214104D01*
X186011790Y-66214104D02*
X186107028Y-66261723D01*
X186107028Y-66261723D02*
X186297504Y-66309342D01*
X186297504Y-66309342D02*
X186440361Y-66309342D01*
X186440361Y-66309342D02*
X186630837Y-66261723D01*
X186630837Y-66261723D02*
X186726075Y-66214104D01*
X186726075Y-66214104D02*
X186821314Y-66118866D01*
X186821314Y-66118866D02*
X186868933Y-65976009D01*
X186868933Y-65976009D02*
X186868933Y-65737914D01*
X185964171Y-66690295D02*
X185916552Y-66737914D01*
X185916552Y-66737914D02*
X185868933Y-66833152D01*
X185868933Y-66833152D02*
X185868933Y-67071247D01*
X185868933Y-67071247D02*
X185916552Y-67166485D01*
X185916552Y-67166485D02*
X185964171Y-67214104D01*
X185964171Y-67214104D02*
X186059409Y-67261723D01*
X186059409Y-67261723D02*
X186154647Y-67261723D01*
X186154647Y-67261723D02*
X186297504Y-67214104D01*
X186297504Y-67214104D02*
X186868933Y-66642676D01*
X186868933Y-66642676D02*
X186868933Y-67261723D01*
X186202266Y-68118866D02*
X186868933Y-68118866D01*
X185821314Y-67880771D02*
X186535599Y-67642676D01*
X186535599Y-67642676D02*
X186535599Y-68261723D01*
X186548933Y-70500295D02*
X185548933Y-70500295D01*
X186548933Y-71071723D02*
X185977504Y-70643152D01*
X185548933Y-71071723D02*
X186120361Y-70500295D01*
X167818933Y-65737914D02*
X166818933Y-65737914D01*
X166818933Y-65737914D02*
X166818933Y-65976009D01*
X166818933Y-65976009D02*
X166866552Y-66118866D01*
X166866552Y-66118866D02*
X166961790Y-66214104D01*
X166961790Y-66214104D02*
X167057028Y-66261723D01*
X167057028Y-66261723D02*
X167247504Y-66309342D01*
X167247504Y-66309342D02*
X167390361Y-66309342D01*
X167390361Y-66309342D02*
X167580837Y-66261723D01*
X167580837Y-66261723D02*
X167676075Y-66214104D01*
X167676075Y-66214104D02*
X167771314Y-66118866D01*
X167771314Y-66118866D02*
X167818933Y-65976009D01*
X167818933Y-65976009D02*
X167818933Y-65737914D01*
X166914171Y-66690295D02*
X166866552Y-66737914D01*
X166866552Y-66737914D02*
X166818933Y-66833152D01*
X166818933Y-66833152D02*
X166818933Y-67071247D01*
X166818933Y-67071247D02*
X166866552Y-67166485D01*
X166866552Y-67166485D02*
X166914171Y-67214104D01*
X166914171Y-67214104D02*
X167009409Y-67261723D01*
X167009409Y-67261723D02*
X167104647Y-67261723D01*
X167104647Y-67261723D02*
X167247504Y-67214104D01*
X167247504Y-67214104D02*
X167818933Y-66642676D01*
X167818933Y-66642676D02*
X167818933Y-67261723D01*
X166818933Y-67595057D02*
X166818933Y-68214104D01*
X166818933Y-68214104D02*
X167199885Y-67880771D01*
X167199885Y-67880771D02*
X167199885Y-68023628D01*
X167199885Y-68023628D02*
X167247504Y-68118866D01*
X167247504Y-68118866D02*
X167295123Y-68166485D01*
X167295123Y-68166485D02*
X167390361Y-68214104D01*
X167390361Y-68214104D02*
X167628456Y-68214104D01*
X167628456Y-68214104D02*
X167723694Y-68166485D01*
X167723694Y-68166485D02*
X167771314Y-68118866D01*
X167771314Y-68118866D02*
X167818933Y-68023628D01*
X167818933Y-68023628D02*
X167818933Y-67737914D01*
X167818933Y-67737914D02*
X167771314Y-67642676D01*
X167771314Y-67642676D02*
X167723694Y-67595057D01*
X167498933Y-70500295D02*
X166498933Y-70500295D01*
X167498933Y-71071723D02*
X166927504Y-70643152D01*
X166498933Y-71071723D02*
X167070361Y-70500295D01*
X148768933Y-65737914D02*
X147768933Y-65737914D01*
X147768933Y-65737914D02*
X147768933Y-65976009D01*
X147768933Y-65976009D02*
X147816552Y-66118866D01*
X147816552Y-66118866D02*
X147911790Y-66214104D01*
X147911790Y-66214104D02*
X148007028Y-66261723D01*
X148007028Y-66261723D02*
X148197504Y-66309342D01*
X148197504Y-66309342D02*
X148340361Y-66309342D01*
X148340361Y-66309342D02*
X148530837Y-66261723D01*
X148530837Y-66261723D02*
X148626075Y-66214104D01*
X148626075Y-66214104D02*
X148721314Y-66118866D01*
X148721314Y-66118866D02*
X148768933Y-65976009D01*
X148768933Y-65976009D02*
X148768933Y-65737914D01*
X147864171Y-66690295D02*
X147816552Y-66737914D01*
X147816552Y-66737914D02*
X147768933Y-66833152D01*
X147768933Y-66833152D02*
X147768933Y-67071247D01*
X147768933Y-67071247D02*
X147816552Y-67166485D01*
X147816552Y-67166485D02*
X147864171Y-67214104D01*
X147864171Y-67214104D02*
X147959409Y-67261723D01*
X147959409Y-67261723D02*
X148054647Y-67261723D01*
X148054647Y-67261723D02*
X148197504Y-67214104D01*
X148197504Y-67214104D02*
X148768933Y-66642676D01*
X148768933Y-66642676D02*
X148768933Y-67261723D01*
X147864171Y-67642676D02*
X147816552Y-67690295D01*
X147816552Y-67690295D02*
X147768933Y-67785533D01*
X147768933Y-67785533D02*
X147768933Y-68023628D01*
X147768933Y-68023628D02*
X147816552Y-68118866D01*
X147816552Y-68118866D02*
X147864171Y-68166485D01*
X147864171Y-68166485D02*
X147959409Y-68214104D01*
X147959409Y-68214104D02*
X148054647Y-68214104D01*
X148054647Y-68214104D02*
X148197504Y-68166485D01*
X148197504Y-68166485D02*
X148768933Y-67595057D01*
X148768933Y-67595057D02*
X148768933Y-68214104D01*
X148448933Y-70500295D02*
X147448933Y-70500295D01*
X148448933Y-71071723D02*
X147877504Y-70643152D01*
X147448933Y-71071723D02*
X148020361Y-70500295D01*
X129718933Y-65737914D02*
X128718933Y-65737914D01*
X128718933Y-65737914D02*
X128718933Y-65976009D01*
X128718933Y-65976009D02*
X128766552Y-66118866D01*
X128766552Y-66118866D02*
X128861790Y-66214104D01*
X128861790Y-66214104D02*
X128957028Y-66261723D01*
X128957028Y-66261723D02*
X129147504Y-66309342D01*
X129147504Y-66309342D02*
X129290361Y-66309342D01*
X129290361Y-66309342D02*
X129480837Y-66261723D01*
X129480837Y-66261723D02*
X129576075Y-66214104D01*
X129576075Y-66214104D02*
X129671314Y-66118866D01*
X129671314Y-66118866D02*
X129718933Y-65976009D01*
X129718933Y-65976009D02*
X129718933Y-65737914D01*
X128814171Y-66690295D02*
X128766552Y-66737914D01*
X128766552Y-66737914D02*
X128718933Y-66833152D01*
X128718933Y-66833152D02*
X128718933Y-67071247D01*
X128718933Y-67071247D02*
X128766552Y-67166485D01*
X128766552Y-67166485D02*
X128814171Y-67214104D01*
X128814171Y-67214104D02*
X128909409Y-67261723D01*
X128909409Y-67261723D02*
X129004647Y-67261723D01*
X129004647Y-67261723D02*
X129147504Y-67214104D01*
X129147504Y-67214104D02*
X129718933Y-66642676D01*
X129718933Y-66642676D02*
X129718933Y-67261723D01*
X129718933Y-68214104D02*
X129718933Y-67642676D01*
X129718933Y-67928390D02*
X128718933Y-67928390D01*
X128718933Y-67928390D02*
X128861790Y-67833152D01*
X128861790Y-67833152D02*
X128957028Y-67737914D01*
X128957028Y-67737914D02*
X129004647Y-67642676D01*
X129398933Y-70500295D02*
X128398933Y-70500295D01*
X129398933Y-71071723D02*
X128827504Y-70643152D01*
X128398933Y-71071723D02*
X128970361Y-70500295D01*
X110668933Y-65737914D02*
X109668933Y-65737914D01*
X109668933Y-65737914D02*
X109668933Y-65976009D01*
X109668933Y-65976009D02*
X109716552Y-66118866D01*
X109716552Y-66118866D02*
X109811790Y-66214104D01*
X109811790Y-66214104D02*
X109907028Y-66261723D01*
X109907028Y-66261723D02*
X110097504Y-66309342D01*
X110097504Y-66309342D02*
X110240361Y-66309342D01*
X110240361Y-66309342D02*
X110430837Y-66261723D01*
X110430837Y-66261723D02*
X110526075Y-66214104D01*
X110526075Y-66214104D02*
X110621314Y-66118866D01*
X110621314Y-66118866D02*
X110668933Y-65976009D01*
X110668933Y-65976009D02*
X110668933Y-65737914D01*
X109764171Y-66690295D02*
X109716552Y-66737914D01*
X109716552Y-66737914D02*
X109668933Y-66833152D01*
X109668933Y-66833152D02*
X109668933Y-67071247D01*
X109668933Y-67071247D02*
X109716552Y-67166485D01*
X109716552Y-67166485D02*
X109764171Y-67214104D01*
X109764171Y-67214104D02*
X109859409Y-67261723D01*
X109859409Y-67261723D02*
X109954647Y-67261723D01*
X109954647Y-67261723D02*
X110097504Y-67214104D01*
X110097504Y-67214104D02*
X110668933Y-66642676D01*
X110668933Y-66642676D02*
X110668933Y-67261723D01*
X109668933Y-67880771D02*
X109668933Y-67976009D01*
X109668933Y-67976009D02*
X109716552Y-68071247D01*
X109716552Y-68071247D02*
X109764171Y-68118866D01*
X109764171Y-68118866D02*
X109859409Y-68166485D01*
X109859409Y-68166485D02*
X110049885Y-68214104D01*
X110049885Y-68214104D02*
X110287980Y-68214104D01*
X110287980Y-68214104D02*
X110478456Y-68166485D01*
X110478456Y-68166485D02*
X110573694Y-68118866D01*
X110573694Y-68118866D02*
X110621314Y-68071247D01*
X110621314Y-68071247D02*
X110668933Y-67976009D01*
X110668933Y-67976009D02*
X110668933Y-67880771D01*
X110668933Y-67880771D02*
X110621314Y-67785533D01*
X110621314Y-67785533D02*
X110573694Y-67737914D01*
X110573694Y-67737914D02*
X110478456Y-67690295D01*
X110478456Y-67690295D02*
X110287980Y-67642676D01*
X110287980Y-67642676D02*
X110049885Y-67642676D01*
X110049885Y-67642676D02*
X109859409Y-67690295D01*
X109859409Y-67690295D02*
X109764171Y-67737914D01*
X109764171Y-67737914D02*
X109716552Y-67785533D01*
X109716552Y-67785533D02*
X109668933Y-67880771D01*
X110348933Y-70500295D02*
X109348933Y-70500295D01*
X110348933Y-71071723D02*
X109777504Y-70643152D01*
X109348933Y-71071723D02*
X109920361Y-70500295D01*
X91618933Y-65737914D02*
X90618933Y-65737914D01*
X90618933Y-65737914D02*
X90618933Y-65976009D01*
X90618933Y-65976009D02*
X90666552Y-66118866D01*
X90666552Y-66118866D02*
X90761790Y-66214104D01*
X90761790Y-66214104D02*
X90857028Y-66261723D01*
X90857028Y-66261723D02*
X91047504Y-66309342D01*
X91047504Y-66309342D02*
X91190361Y-66309342D01*
X91190361Y-66309342D02*
X91380837Y-66261723D01*
X91380837Y-66261723D02*
X91476075Y-66214104D01*
X91476075Y-66214104D02*
X91571314Y-66118866D01*
X91571314Y-66118866D02*
X91618933Y-65976009D01*
X91618933Y-65976009D02*
X91618933Y-65737914D01*
X91618933Y-67261723D02*
X91618933Y-66690295D01*
X91618933Y-66976009D02*
X90618933Y-66976009D01*
X90618933Y-66976009D02*
X90761790Y-66880771D01*
X90761790Y-66880771D02*
X90857028Y-66785533D01*
X90857028Y-66785533D02*
X90904647Y-66690295D01*
X91618933Y-67737914D02*
X91618933Y-67928390D01*
X91618933Y-67928390D02*
X91571314Y-68023628D01*
X91571314Y-68023628D02*
X91523694Y-68071247D01*
X91523694Y-68071247D02*
X91380837Y-68166485D01*
X91380837Y-68166485D02*
X91190361Y-68214104D01*
X91190361Y-68214104D02*
X90809409Y-68214104D01*
X90809409Y-68214104D02*
X90714171Y-68166485D01*
X90714171Y-68166485D02*
X90666552Y-68118866D01*
X90666552Y-68118866D02*
X90618933Y-68023628D01*
X90618933Y-68023628D02*
X90618933Y-67833152D01*
X90618933Y-67833152D02*
X90666552Y-67737914D01*
X90666552Y-67737914D02*
X90714171Y-67690295D01*
X90714171Y-67690295D02*
X90809409Y-67642676D01*
X90809409Y-67642676D02*
X91047504Y-67642676D01*
X91047504Y-67642676D02*
X91142742Y-67690295D01*
X91142742Y-67690295D02*
X91190361Y-67737914D01*
X91190361Y-67737914D02*
X91237980Y-67833152D01*
X91237980Y-67833152D02*
X91237980Y-68023628D01*
X91237980Y-68023628D02*
X91190361Y-68118866D01*
X91190361Y-68118866D02*
X91142742Y-68166485D01*
X91142742Y-68166485D02*
X91047504Y-68214104D01*
X91298933Y-70500295D02*
X90298933Y-70500295D01*
X91298933Y-71071723D02*
X90727504Y-70643152D01*
X90298933Y-71071723D02*
X90870361Y-70500295D01*
X301168933Y-46687914D02*
X300168933Y-46687914D01*
X300168933Y-46687914D02*
X300168933Y-46926009D01*
X300168933Y-46926009D02*
X300216552Y-47068866D01*
X300216552Y-47068866D02*
X300311790Y-47164104D01*
X300311790Y-47164104D02*
X300407028Y-47211723D01*
X300407028Y-47211723D02*
X300597504Y-47259342D01*
X300597504Y-47259342D02*
X300740361Y-47259342D01*
X300740361Y-47259342D02*
X300930837Y-47211723D01*
X300930837Y-47211723D02*
X301026075Y-47164104D01*
X301026075Y-47164104D02*
X301121314Y-47068866D01*
X301121314Y-47068866D02*
X301168933Y-46926009D01*
X301168933Y-46926009D02*
X301168933Y-46687914D01*
X301168933Y-48211723D02*
X301168933Y-47640295D01*
X301168933Y-47926009D02*
X300168933Y-47926009D01*
X300168933Y-47926009D02*
X300311790Y-47830771D01*
X300311790Y-47830771D02*
X300407028Y-47735533D01*
X300407028Y-47735533D02*
X300454647Y-47640295D01*
X300502266Y-49068866D02*
X301168933Y-49068866D01*
X300121314Y-48830771D02*
X300835599Y-48592676D01*
X300835599Y-48592676D02*
X300835599Y-49211723D01*
X300848933Y-51450295D02*
X299848933Y-51450295D01*
X300848933Y-52021723D02*
X300277504Y-51593152D01*
X299848933Y-52021723D02*
X300420361Y-51450295D01*
X282118933Y-46687914D02*
X281118933Y-46687914D01*
X281118933Y-46687914D02*
X281118933Y-46926009D01*
X281118933Y-46926009D02*
X281166552Y-47068866D01*
X281166552Y-47068866D02*
X281261790Y-47164104D01*
X281261790Y-47164104D02*
X281357028Y-47211723D01*
X281357028Y-47211723D02*
X281547504Y-47259342D01*
X281547504Y-47259342D02*
X281690361Y-47259342D01*
X281690361Y-47259342D02*
X281880837Y-47211723D01*
X281880837Y-47211723D02*
X281976075Y-47164104D01*
X281976075Y-47164104D02*
X282071314Y-47068866D01*
X282071314Y-47068866D02*
X282118933Y-46926009D01*
X282118933Y-46926009D02*
X282118933Y-46687914D01*
X282118933Y-48211723D02*
X282118933Y-47640295D01*
X282118933Y-47926009D02*
X281118933Y-47926009D01*
X281118933Y-47926009D02*
X281261790Y-47830771D01*
X281261790Y-47830771D02*
X281357028Y-47735533D01*
X281357028Y-47735533D02*
X281404647Y-47640295D01*
X281118933Y-48545057D02*
X281118933Y-49164104D01*
X281118933Y-49164104D02*
X281499885Y-48830771D01*
X281499885Y-48830771D02*
X281499885Y-48973628D01*
X281499885Y-48973628D02*
X281547504Y-49068866D01*
X281547504Y-49068866D02*
X281595123Y-49116485D01*
X281595123Y-49116485D02*
X281690361Y-49164104D01*
X281690361Y-49164104D02*
X281928456Y-49164104D01*
X281928456Y-49164104D02*
X282023694Y-49116485D01*
X282023694Y-49116485D02*
X282071314Y-49068866D01*
X282071314Y-49068866D02*
X282118933Y-48973628D01*
X282118933Y-48973628D02*
X282118933Y-48687914D01*
X282118933Y-48687914D02*
X282071314Y-48592676D01*
X282071314Y-48592676D02*
X282023694Y-48545057D01*
X281798933Y-51450295D02*
X280798933Y-51450295D01*
X281798933Y-52021723D02*
X281227504Y-51593152D01*
X280798933Y-52021723D02*
X281370361Y-51450295D01*
X263068933Y-46687914D02*
X262068933Y-46687914D01*
X262068933Y-46687914D02*
X262068933Y-46926009D01*
X262068933Y-46926009D02*
X262116552Y-47068866D01*
X262116552Y-47068866D02*
X262211790Y-47164104D01*
X262211790Y-47164104D02*
X262307028Y-47211723D01*
X262307028Y-47211723D02*
X262497504Y-47259342D01*
X262497504Y-47259342D02*
X262640361Y-47259342D01*
X262640361Y-47259342D02*
X262830837Y-47211723D01*
X262830837Y-47211723D02*
X262926075Y-47164104D01*
X262926075Y-47164104D02*
X263021314Y-47068866D01*
X263021314Y-47068866D02*
X263068933Y-46926009D01*
X263068933Y-46926009D02*
X263068933Y-46687914D01*
X263068933Y-48211723D02*
X263068933Y-47640295D01*
X263068933Y-47926009D02*
X262068933Y-47926009D01*
X262068933Y-47926009D02*
X262211790Y-47830771D01*
X262211790Y-47830771D02*
X262307028Y-47735533D01*
X262307028Y-47735533D02*
X262354647Y-47640295D01*
X262164171Y-48592676D02*
X262116552Y-48640295D01*
X262116552Y-48640295D02*
X262068933Y-48735533D01*
X262068933Y-48735533D02*
X262068933Y-48973628D01*
X262068933Y-48973628D02*
X262116552Y-49068866D01*
X262116552Y-49068866D02*
X262164171Y-49116485D01*
X262164171Y-49116485D02*
X262259409Y-49164104D01*
X262259409Y-49164104D02*
X262354647Y-49164104D01*
X262354647Y-49164104D02*
X262497504Y-49116485D01*
X262497504Y-49116485D02*
X263068933Y-48545057D01*
X263068933Y-48545057D02*
X263068933Y-49164104D01*
X262748933Y-51450295D02*
X261748933Y-51450295D01*
X262748933Y-52021723D02*
X262177504Y-51593152D01*
X261748933Y-52021723D02*
X262320361Y-51450295D01*
X244018933Y-46687914D02*
X243018933Y-46687914D01*
X243018933Y-46687914D02*
X243018933Y-46926009D01*
X243018933Y-46926009D02*
X243066552Y-47068866D01*
X243066552Y-47068866D02*
X243161790Y-47164104D01*
X243161790Y-47164104D02*
X243257028Y-47211723D01*
X243257028Y-47211723D02*
X243447504Y-47259342D01*
X243447504Y-47259342D02*
X243590361Y-47259342D01*
X243590361Y-47259342D02*
X243780837Y-47211723D01*
X243780837Y-47211723D02*
X243876075Y-47164104D01*
X243876075Y-47164104D02*
X243971314Y-47068866D01*
X243971314Y-47068866D02*
X244018933Y-46926009D01*
X244018933Y-46926009D02*
X244018933Y-46687914D01*
X244018933Y-48211723D02*
X244018933Y-47640295D01*
X244018933Y-47926009D02*
X243018933Y-47926009D01*
X243018933Y-47926009D02*
X243161790Y-47830771D01*
X243161790Y-47830771D02*
X243257028Y-47735533D01*
X243257028Y-47735533D02*
X243304647Y-47640295D01*
X244018933Y-49164104D02*
X244018933Y-48592676D01*
X244018933Y-48878390D02*
X243018933Y-48878390D01*
X243018933Y-48878390D02*
X243161790Y-48783152D01*
X243161790Y-48783152D02*
X243257028Y-48687914D01*
X243257028Y-48687914D02*
X243304647Y-48592676D01*
X243698933Y-51450295D02*
X242698933Y-51450295D01*
X243698933Y-52021723D02*
X243127504Y-51593152D01*
X242698933Y-52021723D02*
X243270361Y-51450295D01*
X224968933Y-46687914D02*
X223968933Y-46687914D01*
X223968933Y-46687914D02*
X223968933Y-46926009D01*
X223968933Y-46926009D02*
X224016552Y-47068866D01*
X224016552Y-47068866D02*
X224111790Y-47164104D01*
X224111790Y-47164104D02*
X224207028Y-47211723D01*
X224207028Y-47211723D02*
X224397504Y-47259342D01*
X224397504Y-47259342D02*
X224540361Y-47259342D01*
X224540361Y-47259342D02*
X224730837Y-47211723D01*
X224730837Y-47211723D02*
X224826075Y-47164104D01*
X224826075Y-47164104D02*
X224921314Y-47068866D01*
X224921314Y-47068866D02*
X224968933Y-46926009D01*
X224968933Y-46926009D02*
X224968933Y-46687914D01*
X224968933Y-48211723D02*
X224968933Y-47640295D01*
X224968933Y-47926009D02*
X223968933Y-47926009D01*
X223968933Y-47926009D02*
X224111790Y-47830771D01*
X224111790Y-47830771D02*
X224207028Y-47735533D01*
X224207028Y-47735533D02*
X224254647Y-47640295D01*
X223968933Y-48830771D02*
X223968933Y-48926009D01*
X223968933Y-48926009D02*
X224016552Y-49021247D01*
X224016552Y-49021247D02*
X224064171Y-49068866D01*
X224064171Y-49068866D02*
X224159409Y-49116485D01*
X224159409Y-49116485D02*
X224349885Y-49164104D01*
X224349885Y-49164104D02*
X224587980Y-49164104D01*
X224587980Y-49164104D02*
X224778456Y-49116485D01*
X224778456Y-49116485D02*
X224873694Y-49068866D01*
X224873694Y-49068866D02*
X224921314Y-49021247D01*
X224921314Y-49021247D02*
X224968933Y-48926009D01*
X224968933Y-48926009D02*
X224968933Y-48830771D01*
X224968933Y-48830771D02*
X224921314Y-48735533D01*
X224921314Y-48735533D02*
X224873694Y-48687914D01*
X224873694Y-48687914D02*
X224778456Y-48640295D01*
X224778456Y-48640295D02*
X224587980Y-48592676D01*
X224587980Y-48592676D02*
X224349885Y-48592676D01*
X224349885Y-48592676D02*
X224159409Y-48640295D01*
X224159409Y-48640295D02*
X224064171Y-48687914D01*
X224064171Y-48687914D02*
X224016552Y-48735533D01*
X224016552Y-48735533D02*
X223968933Y-48830771D01*
X224648933Y-51450295D02*
X223648933Y-51450295D01*
X224648933Y-52021723D02*
X224077504Y-51593152D01*
X223648933Y-52021723D02*
X224220361Y-51450295D01*
X234493933Y-84787914D02*
X233493933Y-84787914D01*
X233493933Y-84787914D02*
X233493933Y-85026009D01*
X233493933Y-85026009D02*
X233541552Y-85168866D01*
X233541552Y-85168866D02*
X233636790Y-85264104D01*
X233636790Y-85264104D02*
X233732028Y-85311723D01*
X233732028Y-85311723D02*
X233922504Y-85359342D01*
X233922504Y-85359342D02*
X234065361Y-85359342D01*
X234065361Y-85359342D02*
X234255837Y-85311723D01*
X234255837Y-85311723D02*
X234351075Y-85264104D01*
X234351075Y-85264104D02*
X234446314Y-85168866D01*
X234446314Y-85168866D02*
X234493933Y-85026009D01*
X234493933Y-85026009D02*
X234493933Y-84787914D01*
X233827266Y-86216485D02*
X234493933Y-86216485D01*
X233446314Y-85978390D02*
X234160599Y-85740295D01*
X234160599Y-85740295D02*
X234160599Y-86359342D01*
X234493933Y-87264104D02*
X234493933Y-86692676D01*
X234493933Y-86978390D02*
X233493933Y-86978390D01*
X233493933Y-86978390D02*
X233636790Y-86883152D01*
X233636790Y-86883152D02*
X233732028Y-86787914D01*
X233732028Y-86787914D02*
X233779647Y-86692676D01*
X234173933Y-89550295D02*
X233173933Y-89550295D01*
X234173933Y-90121723D02*
X233602504Y-89693152D01*
X233173933Y-90121723D02*
X233745361Y-89550295D01*
X215443933Y-84787914D02*
X214443933Y-84787914D01*
X214443933Y-84787914D02*
X214443933Y-85026009D01*
X214443933Y-85026009D02*
X214491552Y-85168866D01*
X214491552Y-85168866D02*
X214586790Y-85264104D01*
X214586790Y-85264104D02*
X214682028Y-85311723D01*
X214682028Y-85311723D02*
X214872504Y-85359342D01*
X214872504Y-85359342D02*
X215015361Y-85359342D01*
X215015361Y-85359342D02*
X215205837Y-85311723D01*
X215205837Y-85311723D02*
X215301075Y-85264104D01*
X215301075Y-85264104D02*
X215396314Y-85168866D01*
X215396314Y-85168866D02*
X215443933Y-85026009D01*
X215443933Y-85026009D02*
X215443933Y-84787914D01*
X214777266Y-86216485D02*
X215443933Y-86216485D01*
X214396314Y-85978390D02*
X215110599Y-85740295D01*
X215110599Y-85740295D02*
X215110599Y-86359342D01*
X214443933Y-86930771D02*
X214443933Y-87026009D01*
X214443933Y-87026009D02*
X214491552Y-87121247D01*
X214491552Y-87121247D02*
X214539171Y-87168866D01*
X214539171Y-87168866D02*
X214634409Y-87216485D01*
X214634409Y-87216485D02*
X214824885Y-87264104D01*
X214824885Y-87264104D02*
X215062980Y-87264104D01*
X215062980Y-87264104D02*
X215253456Y-87216485D01*
X215253456Y-87216485D02*
X215348694Y-87168866D01*
X215348694Y-87168866D02*
X215396314Y-87121247D01*
X215396314Y-87121247D02*
X215443933Y-87026009D01*
X215443933Y-87026009D02*
X215443933Y-86930771D01*
X215443933Y-86930771D02*
X215396314Y-86835533D01*
X215396314Y-86835533D02*
X215348694Y-86787914D01*
X215348694Y-86787914D02*
X215253456Y-86740295D01*
X215253456Y-86740295D02*
X215062980Y-86692676D01*
X215062980Y-86692676D02*
X214824885Y-86692676D01*
X214824885Y-86692676D02*
X214634409Y-86740295D01*
X214634409Y-86740295D02*
X214539171Y-86787914D01*
X214539171Y-86787914D02*
X214491552Y-86835533D01*
X214491552Y-86835533D02*
X214443933Y-86930771D01*
X215123933Y-89550295D02*
X214123933Y-89550295D01*
X215123933Y-90121723D02*
X214552504Y-89693152D01*
X214123933Y-90121723D02*
X214695361Y-89550295D01*
X339268933Y-141937914D02*
X338268933Y-141937914D01*
X338268933Y-141937914D02*
X338268933Y-142176009D01*
X338268933Y-142176009D02*
X338316552Y-142318866D01*
X338316552Y-142318866D02*
X338411790Y-142414104D01*
X338411790Y-142414104D02*
X338507028Y-142461723D01*
X338507028Y-142461723D02*
X338697504Y-142509342D01*
X338697504Y-142509342D02*
X338840361Y-142509342D01*
X338840361Y-142509342D02*
X339030837Y-142461723D01*
X339030837Y-142461723D02*
X339126075Y-142414104D01*
X339126075Y-142414104D02*
X339221314Y-142318866D01*
X339221314Y-142318866D02*
X339268933Y-142176009D01*
X339268933Y-142176009D02*
X339268933Y-141937914D01*
X338697504Y-143080771D02*
X338649885Y-142985533D01*
X338649885Y-142985533D02*
X338602266Y-142937914D01*
X338602266Y-142937914D02*
X338507028Y-142890295D01*
X338507028Y-142890295D02*
X338459409Y-142890295D01*
X338459409Y-142890295D02*
X338364171Y-142937914D01*
X338364171Y-142937914D02*
X338316552Y-142985533D01*
X338316552Y-142985533D02*
X338268933Y-143080771D01*
X338268933Y-143080771D02*
X338268933Y-143271247D01*
X338268933Y-143271247D02*
X338316552Y-143366485D01*
X338316552Y-143366485D02*
X338364171Y-143414104D01*
X338364171Y-143414104D02*
X338459409Y-143461723D01*
X338459409Y-143461723D02*
X338507028Y-143461723D01*
X338507028Y-143461723D02*
X338602266Y-143414104D01*
X338602266Y-143414104D02*
X338649885Y-143366485D01*
X338649885Y-143366485D02*
X338697504Y-143271247D01*
X338697504Y-143271247D02*
X338697504Y-143080771D01*
X338697504Y-143080771D02*
X338745123Y-142985533D01*
X338745123Y-142985533D02*
X338792742Y-142937914D01*
X338792742Y-142937914D02*
X338887980Y-142890295D01*
X338887980Y-142890295D02*
X339078456Y-142890295D01*
X339078456Y-142890295D02*
X339173694Y-142937914D01*
X339173694Y-142937914D02*
X339221314Y-142985533D01*
X339221314Y-142985533D02*
X339268933Y-143080771D01*
X339268933Y-143080771D02*
X339268933Y-143271247D01*
X339268933Y-143271247D02*
X339221314Y-143366485D01*
X339221314Y-143366485D02*
X339173694Y-143414104D01*
X339173694Y-143414104D02*
X339078456Y-143461723D01*
X339078456Y-143461723D02*
X338887980Y-143461723D01*
X338887980Y-143461723D02*
X338792742Y-143414104D01*
X338792742Y-143414104D02*
X338745123Y-143366485D01*
X338745123Y-143366485D02*
X338697504Y-143271247D01*
X338602266Y-144318866D02*
X339268933Y-144318866D01*
X338221314Y-144080771D02*
X338935599Y-143842676D01*
X338935599Y-143842676D02*
X338935599Y-144461723D01*
X338948933Y-146700295D02*
X337948933Y-146700295D01*
X338948933Y-147271723D02*
X338377504Y-146843152D01*
X337948933Y-147271723D02*
X338520361Y-146700295D01*
X320218933Y-141937914D02*
X319218933Y-141937914D01*
X319218933Y-141937914D02*
X319218933Y-142176009D01*
X319218933Y-142176009D02*
X319266552Y-142318866D01*
X319266552Y-142318866D02*
X319361790Y-142414104D01*
X319361790Y-142414104D02*
X319457028Y-142461723D01*
X319457028Y-142461723D02*
X319647504Y-142509342D01*
X319647504Y-142509342D02*
X319790361Y-142509342D01*
X319790361Y-142509342D02*
X319980837Y-142461723D01*
X319980837Y-142461723D02*
X320076075Y-142414104D01*
X320076075Y-142414104D02*
X320171314Y-142318866D01*
X320171314Y-142318866D02*
X320218933Y-142176009D01*
X320218933Y-142176009D02*
X320218933Y-141937914D01*
X319647504Y-143080771D02*
X319599885Y-142985533D01*
X319599885Y-142985533D02*
X319552266Y-142937914D01*
X319552266Y-142937914D02*
X319457028Y-142890295D01*
X319457028Y-142890295D02*
X319409409Y-142890295D01*
X319409409Y-142890295D02*
X319314171Y-142937914D01*
X319314171Y-142937914D02*
X319266552Y-142985533D01*
X319266552Y-142985533D02*
X319218933Y-143080771D01*
X319218933Y-143080771D02*
X319218933Y-143271247D01*
X319218933Y-143271247D02*
X319266552Y-143366485D01*
X319266552Y-143366485D02*
X319314171Y-143414104D01*
X319314171Y-143414104D02*
X319409409Y-143461723D01*
X319409409Y-143461723D02*
X319457028Y-143461723D01*
X319457028Y-143461723D02*
X319552266Y-143414104D01*
X319552266Y-143414104D02*
X319599885Y-143366485D01*
X319599885Y-143366485D02*
X319647504Y-143271247D01*
X319647504Y-143271247D02*
X319647504Y-143080771D01*
X319647504Y-143080771D02*
X319695123Y-142985533D01*
X319695123Y-142985533D02*
X319742742Y-142937914D01*
X319742742Y-142937914D02*
X319837980Y-142890295D01*
X319837980Y-142890295D02*
X320028456Y-142890295D01*
X320028456Y-142890295D02*
X320123694Y-142937914D01*
X320123694Y-142937914D02*
X320171314Y-142985533D01*
X320171314Y-142985533D02*
X320218933Y-143080771D01*
X320218933Y-143080771D02*
X320218933Y-143271247D01*
X320218933Y-143271247D02*
X320171314Y-143366485D01*
X320171314Y-143366485D02*
X320123694Y-143414104D01*
X320123694Y-143414104D02*
X320028456Y-143461723D01*
X320028456Y-143461723D02*
X319837980Y-143461723D01*
X319837980Y-143461723D02*
X319742742Y-143414104D01*
X319742742Y-143414104D02*
X319695123Y-143366485D01*
X319695123Y-143366485D02*
X319647504Y-143271247D01*
X319218933Y-143795057D02*
X319218933Y-144414104D01*
X319218933Y-144414104D02*
X319599885Y-144080771D01*
X319599885Y-144080771D02*
X319599885Y-144223628D01*
X319599885Y-144223628D02*
X319647504Y-144318866D01*
X319647504Y-144318866D02*
X319695123Y-144366485D01*
X319695123Y-144366485D02*
X319790361Y-144414104D01*
X319790361Y-144414104D02*
X320028456Y-144414104D01*
X320028456Y-144414104D02*
X320123694Y-144366485D01*
X320123694Y-144366485D02*
X320171314Y-144318866D01*
X320171314Y-144318866D02*
X320218933Y-144223628D01*
X320218933Y-144223628D02*
X320218933Y-143937914D01*
X320218933Y-143937914D02*
X320171314Y-143842676D01*
X320171314Y-143842676D02*
X320123694Y-143795057D01*
X319898933Y-146700295D02*
X318898933Y-146700295D01*
X319898933Y-147271723D02*
X319327504Y-146843152D01*
X318898933Y-147271723D02*
X319470361Y-146700295D01*
X196393933Y-84787914D02*
X195393933Y-84787914D01*
X195393933Y-84787914D02*
X195393933Y-85026009D01*
X195393933Y-85026009D02*
X195441552Y-85168866D01*
X195441552Y-85168866D02*
X195536790Y-85264104D01*
X195536790Y-85264104D02*
X195632028Y-85311723D01*
X195632028Y-85311723D02*
X195822504Y-85359342D01*
X195822504Y-85359342D02*
X195965361Y-85359342D01*
X195965361Y-85359342D02*
X196155837Y-85311723D01*
X196155837Y-85311723D02*
X196251075Y-85264104D01*
X196251075Y-85264104D02*
X196346314Y-85168866D01*
X196346314Y-85168866D02*
X196393933Y-85026009D01*
X196393933Y-85026009D02*
X196393933Y-84787914D01*
X195393933Y-85692676D02*
X195393933Y-86311723D01*
X195393933Y-86311723D02*
X195774885Y-85978390D01*
X195774885Y-85978390D02*
X195774885Y-86121247D01*
X195774885Y-86121247D02*
X195822504Y-86216485D01*
X195822504Y-86216485D02*
X195870123Y-86264104D01*
X195870123Y-86264104D02*
X195965361Y-86311723D01*
X195965361Y-86311723D02*
X196203456Y-86311723D01*
X196203456Y-86311723D02*
X196298694Y-86264104D01*
X196298694Y-86264104D02*
X196346314Y-86216485D01*
X196346314Y-86216485D02*
X196393933Y-86121247D01*
X196393933Y-86121247D02*
X196393933Y-85835533D01*
X196393933Y-85835533D02*
X196346314Y-85740295D01*
X196346314Y-85740295D02*
X196298694Y-85692676D01*
X196393933Y-86787914D02*
X196393933Y-86978390D01*
X196393933Y-86978390D02*
X196346314Y-87073628D01*
X196346314Y-87073628D02*
X196298694Y-87121247D01*
X196298694Y-87121247D02*
X196155837Y-87216485D01*
X196155837Y-87216485D02*
X195965361Y-87264104D01*
X195965361Y-87264104D02*
X195584409Y-87264104D01*
X195584409Y-87264104D02*
X195489171Y-87216485D01*
X195489171Y-87216485D02*
X195441552Y-87168866D01*
X195441552Y-87168866D02*
X195393933Y-87073628D01*
X195393933Y-87073628D02*
X195393933Y-86883152D01*
X195393933Y-86883152D02*
X195441552Y-86787914D01*
X195441552Y-86787914D02*
X195489171Y-86740295D01*
X195489171Y-86740295D02*
X195584409Y-86692676D01*
X195584409Y-86692676D02*
X195822504Y-86692676D01*
X195822504Y-86692676D02*
X195917742Y-86740295D01*
X195917742Y-86740295D02*
X195965361Y-86787914D01*
X195965361Y-86787914D02*
X196012980Y-86883152D01*
X196012980Y-86883152D02*
X196012980Y-87073628D01*
X196012980Y-87073628D02*
X195965361Y-87168866D01*
X195965361Y-87168866D02*
X195917742Y-87216485D01*
X195917742Y-87216485D02*
X195822504Y-87264104D01*
X196073933Y-89550295D02*
X195073933Y-89550295D01*
X196073933Y-90121723D02*
X195502504Y-89693152D01*
X195073933Y-90121723D02*
X195645361Y-89550295D01*
X177343933Y-84787914D02*
X176343933Y-84787914D01*
X176343933Y-84787914D02*
X176343933Y-85026009D01*
X176343933Y-85026009D02*
X176391552Y-85168866D01*
X176391552Y-85168866D02*
X176486790Y-85264104D01*
X176486790Y-85264104D02*
X176582028Y-85311723D01*
X176582028Y-85311723D02*
X176772504Y-85359342D01*
X176772504Y-85359342D02*
X176915361Y-85359342D01*
X176915361Y-85359342D02*
X177105837Y-85311723D01*
X177105837Y-85311723D02*
X177201075Y-85264104D01*
X177201075Y-85264104D02*
X177296314Y-85168866D01*
X177296314Y-85168866D02*
X177343933Y-85026009D01*
X177343933Y-85026009D02*
X177343933Y-84787914D01*
X176343933Y-85692676D02*
X176343933Y-86311723D01*
X176343933Y-86311723D02*
X176724885Y-85978390D01*
X176724885Y-85978390D02*
X176724885Y-86121247D01*
X176724885Y-86121247D02*
X176772504Y-86216485D01*
X176772504Y-86216485D02*
X176820123Y-86264104D01*
X176820123Y-86264104D02*
X176915361Y-86311723D01*
X176915361Y-86311723D02*
X177153456Y-86311723D01*
X177153456Y-86311723D02*
X177248694Y-86264104D01*
X177248694Y-86264104D02*
X177296314Y-86216485D01*
X177296314Y-86216485D02*
X177343933Y-86121247D01*
X177343933Y-86121247D02*
X177343933Y-85835533D01*
X177343933Y-85835533D02*
X177296314Y-85740295D01*
X177296314Y-85740295D02*
X177248694Y-85692676D01*
X176772504Y-86883152D02*
X176724885Y-86787914D01*
X176724885Y-86787914D02*
X176677266Y-86740295D01*
X176677266Y-86740295D02*
X176582028Y-86692676D01*
X176582028Y-86692676D02*
X176534409Y-86692676D01*
X176534409Y-86692676D02*
X176439171Y-86740295D01*
X176439171Y-86740295D02*
X176391552Y-86787914D01*
X176391552Y-86787914D02*
X176343933Y-86883152D01*
X176343933Y-86883152D02*
X176343933Y-87073628D01*
X176343933Y-87073628D02*
X176391552Y-87168866D01*
X176391552Y-87168866D02*
X176439171Y-87216485D01*
X176439171Y-87216485D02*
X176534409Y-87264104D01*
X176534409Y-87264104D02*
X176582028Y-87264104D01*
X176582028Y-87264104D02*
X176677266Y-87216485D01*
X176677266Y-87216485D02*
X176724885Y-87168866D01*
X176724885Y-87168866D02*
X176772504Y-87073628D01*
X176772504Y-87073628D02*
X176772504Y-86883152D01*
X176772504Y-86883152D02*
X176820123Y-86787914D01*
X176820123Y-86787914D02*
X176867742Y-86740295D01*
X176867742Y-86740295D02*
X176962980Y-86692676D01*
X176962980Y-86692676D02*
X177153456Y-86692676D01*
X177153456Y-86692676D02*
X177248694Y-86740295D01*
X177248694Y-86740295D02*
X177296314Y-86787914D01*
X177296314Y-86787914D02*
X177343933Y-86883152D01*
X177343933Y-86883152D02*
X177343933Y-87073628D01*
X177343933Y-87073628D02*
X177296314Y-87168866D01*
X177296314Y-87168866D02*
X177248694Y-87216485D01*
X177248694Y-87216485D02*
X177153456Y-87264104D01*
X177153456Y-87264104D02*
X176962980Y-87264104D01*
X176962980Y-87264104D02*
X176867742Y-87216485D01*
X176867742Y-87216485D02*
X176820123Y-87168866D01*
X176820123Y-87168866D02*
X176772504Y-87073628D01*
X177023933Y-89550295D02*
X176023933Y-89550295D01*
X177023933Y-90121723D02*
X176452504Y-89693152D01*
X176023933Y-90121723D02*
X176595361Y-89550295D01*
X158293933Y-84787914D02*
X157293933Y-84787914D01*
X157293933Y-84787914D02*
X157293933Y-85026009D01*
X157293933Y-85026009D02*
X157341552Y-85168866D01*
X157341552Y-85168866D02*
X157436790Y-85264104D01*
X157436790Y-85264104D02*
X157532028Y-85311723D01*
X157532028Y-85311723D02*
X157722504Y-85359342D01*
X157722504Y-85359342D02*
X157865361Y-85359342D01*
X157865361Y-85359342D02*
X158055837Y-85311723D01*
X158055837Y-85311723D02*
X158151075Y-85264104D01*
X158151075Y-85264104D02*
X158246314Y-85168866D01*
X158246314Y-85168866D02*
X158293933Y-85026009D01*
X158293933Y-85026009D02*
X158293933Y-84787914D01*
X157293933Y-85692676D02*
X157293933Y-86311723D01*
X157293933Y-86311723D02*
X157674885Y-85978390D01*
X157674885Y-85978390D02*
X157674885Y-86121247D01*
X157674885Y-86121247D02*
X157722504Y-86216485D01*
X157722504Y-86216485D02*
X157770123Y-86264104D01*
X157770123Y-86264104D02*
X157865361Y-86311723D01*
X157865361Y-86311723D02*
X158103456Y-86311723D01*
X158103456Y-86311723D02*
X158198694Y-86264104D01*
X158198694Y-86264104D02*
X158246314Y-86216485D01*
X158246314Y-86216485D02*
X158293933Y-86121247D01*
X158293933Y-86121247D02*
X158293933Y-85835533D01*
X158293933Y-85835533D02*
X158246314Y-85740295D01*
X158246314Y-85740295D02*
X158198694Y-85692676D01*
X157293933Y-86645057D02*
X157293933Y-87311723D01*
X157293933Y-87311723D02*
X158293933Y-86883152D01*
X157973933Y-89550295D02*
X156973933Y-89550295D01*
X157973933Y-90121723D02*
X157402504Y-89693152D01*
X156973933Y-90121723D02*
X157545361Y-89550295D01*
X253543933Y-84787914D02*
X252543933Y-84787914D01*
X252543933Y-84787914D02*
X252543933Y-85026009D01*
X252543933Y-85026009D02*
X252591552Y-85168866D01*
X252591552Y-85168866D02*
X252686790Y-85264104D01*
X252686790Y-85264104D02*
X252782028Y-85311723D01*
X252782028Y-85311723D02*
X252972504Y-85359342D01*
X252972504Y-85359342D02*
X253115361Y-85359342D01*
X253115361Y-85359342D02*
X253305837Y-85311723D01*
X253305837Y-85311723D02*
X253401075Y-85264104D01*
X253401075Y-85264104D02*
X253496314Y-85168866D01*
X253496314Y-85168866D02*
X253543933Y-85026009D01*
X253543933Y-85026009D02*
X253543933Y-84787914D01*
X252877266Y-86216485D02*
X253543933Y-86216485D01*
X252496314Y-85978390D02*
X253210599Y-85740295D01*
X253210599Y-85740295D02*
X253210599Y-86359342D01*
X252639171Y-86692676D02*
X252591552Y-86740295D01*
X252591552Y-86740295D02*
X252543933Y-86835533D01*
X252543933Y-86835533D02*
X252543933Y-87073628D01*
X252543933Y-87073628D02*
X252591552Y-87168866D01*
X252591552Y-87168866D02*
X252639171Y-87216485D01*
X252639171Y-87216485D02*
X252734409Y-87264104D01*
X252734409Y-87264104D02*
X252829647Y-87264104D01*
X252829647Y-87264104D02*
X252972504Y-87216485D01*
X252972504Y-87216485D02*
X253543933Y-86645057D01*
X253543933Y-86645057D02*
X253543933Y-87264104D01*
X253223933Y-89550295D02*
X252223933Y-89550295D01*
X253223933Y-90121723D02*
X252652504Y-89693152D01*
X252223933Y-90121723D02*
X252795361Y-89550295D01*
X205918933Y-47164105D02*
X204918933Y-47164105D01*
X204918933Y-47164105D02*
X204918933Y-47402200D01*
X204918933Y-47402200D02*
X204966552Y-47545057D01*
X204966552Y-47545057D02*
X205061790Y-47640295D01*
X205061790Y-47640295D02*
X205157028Y-47687914D01*
X205157028Y-47687914D02*
X205347504Y-47735533D01*
X205347504Y-47735533D02*
X205490361Y-47735533D01*
X205490361Y-47735533D02*
X205680837Y-47687914D01*
X205680837Y-47687914D02*
X205776075Y-47640295D01*
X205776075Y-47640295D02*
X205871314Y-47545057D01*
X205871314Y-47545057D02*
X205918933Y-47402200D01*
X205918933Y-47402200D02*
X205918933Y-47164105D01*
X205918933Y-48211724D02*
X205918933Y-48402200D01*
X205918933Y-48402200D02*
X205871314Y-48497438D01*
X205871314Y-48497438D02*
X205823694Y-48545057D01*
X205823694Y-48545057D02*
X205680837Y-48640295D01*
X205680837Y-48640295D02*
X205490361Y-48687914D01*
X205490361Y-48687914D02*
X205109409Y-48687914D01*
X205109409Y-48687914D02*
X205014171Y-48640295D01*
X205014171Y-48640295D02*
X204966552Y-48592676D01*
X204966552Y-48592676D02*
X204918933Y-48497438D01*
X204918933Y-48497438D02*
X204918933Y-48306962D01*
X204918933Y-48306962D02*
X204966552Y-48211724D01*
X204966552Y-48211724D02*
X205014171Y-48164105D01*
X205014171Y-48164105D02*
X205109409Y-48116486D01*
X205109409Y-48116486D02*
X205347504Y-48116486D01*
X205347504Y-48116486D02*
X205442742Y-48164105D01*
X205442742Y-48164105D02*
X205490361Y-48211724D01*
X205490361Y-48211724D02*
X205537980Y-48306962D01*
X205537980Y-48306962D02*
X205537980Y-48497438D01*
X205537980Y-48497438D02*
X205490361Y-48592676D01*
X205490361Y-48592676D02*
X205442742Y-48640295D01*
X205442742Y-48640295D02*
X205347504Y-48687914D01*
X205598933Y-51450295D02*
X204598933Y-51450295D01*
X205598933Y-52021723D02*
X205027504Y-51593152D01*
X204598933Y-52021723D02*
X205170361Y-51450295D01*
X186868933Y-47164105D02*
X185868933Y-47164105D01*
X185868933Y-47164105D02*
X185868933Y-47402200D01*
X185868933Y-47402200D02*
X185916552Y-47545057D01*
X185916552Y-47545057D02*
X186011790Y-47640295D01*
X186011790Y-47640295D02*
X186107028Y-47687914D01*
X186107028Y-47687914D02*
X186297504Y-47735533D01*
X186297504Y-47735533D02*
X186440361Y-47735533D01*
X186440361Y-47735533D02*
X186630837Y-47687914D01*
X186630837Y-47687914D02*
X186726075Y-47640295D01*
X186726075Y-47640295D02*
X186821314Y-47545057D01*
X186821314Y-47545057D02*
X186868933Y-47402200D01*
X186868933Y-47402200D02*
X186868933Y-47164105D01*
X186297504Y-48306962D02*
X186249885Y-48211724D01*
X186249885Y-48211724D02*
X186202266Y-48164105D01*
X186202266Y-48164105D02*
X186107028Y-48116486D01*
X186107028Y-48116486D02*
X186059409Y-48116486D01*
X186059409Y-48116486D02*
X185964171Y-48164105D01*
X185964171Y-48164105D02*
X185916552Y-48211724D01*
X185916552Y-48211724D02*
X185868933Y-48306962D01*
X185868933Y-48306962D02*
X185868933Y-48497438D01*
X185868933Y-48497438D02*
X185916552Y-48592676D01*
X185916552Y-48592676D02*
X185964171Y-48640295D01*
X185964171Y-48640295D02*
X186059409Y-48687914D01*
X186059409Y-48687914D02*
X186107028Y-48687914D01*
X186107028Y-48687914D02*
X186202266Y-48640295D01*
X186202266Y-48640295D02*
X186249885Y-48592676D01*
X186249885Y-48592676D02*
X186297504Y-48497438D01*
X186297504Y-48497438D02*
X186297504Y-48306962D01*
X186297504Y-48306962D02*
X186345123Y-48211724D01*
X186345123Y-48211724D02*
X186392742Y-48164105D01*
X186392742Y-48164105D02*
X186487980Y-48116486D01*
X186487980Y-48116486D02*
X186678456Y-48116486D01*
X186678456Y-48116486D02*
X186773694Y-48164105D01*
X186773694Y-48164105D02*
X186821314Y-48211724D01*
X186821314Y-48211724D02*
X186868933Y-48306962D01*
X186868933Y-48306962D02*
X186868933Y-48497438D01*
X186868933Y-48497438D02*
X186821314Y-48592676D01*
X186821314Y-48592676D02*
X186773694Y-48640295D01*
X186773694Y-48640295D02*
X186678456Y-48687914D01*
X186678456Y-48687914D02*
X186487980Y-48687914D01*
X186487980Y-48687914D02*
X186392742Y-48640295D01*
X186392742Y-48640295D02*
X186345123Y-48592676D01*
X186345123Y-48592676D02*
X186297504Y-48497438D01*
X186548933Y-51450295D02*
X185548933Y-51450295D01*
X186548933Y-52021723D02*
X185977504Y-51593152D01*
X185548933Y-52021723D02*
X186120361Y-51450295D01*
X167818933Y-47164105D02*
X166818933Y-47164105D01*
X166818933Y-47164105D02*
X166818933Y-47402200D01*
X166818933Y-47402200D02*
X166866552Y-47545057D01*
X166866552Y-47545057D02*
X166961790Y-47640295D01*
X166961790Y-47640295D02*
X167057028Y-47687914D01*
X167057028Y-47687914D02*
X167247504Y-47735533D01*
X167247504Y-47735533D02*
X167390361Y-47735533D01*
X167390361Y-47735533D02*
X167580837Y-47687914D01*
X167580837Y-47687914D02*
X167676075Y-47640295D01*
X167676075Y-47640295D02*
X167771314Y-47545057D01*
X167771314Y-47545057D02*
X167818933Y-47402200D01*
X167818933Y-47402200D02*
X167818933Y-47164105D01*
X166818933Y-48068867D02*
X166818933Y-48735533D01*
X166818933Y-48735533D02*
X167818933Y-48306962D01*
X167498933Y-51450295D02*
X166498933Y-51450295D01*
X167498933Y-52021723D02*
X166927504Y-51593152D01*
X166498933Y-52021723D02*
X167070361Y-51450295D01*
X148768933Y-47164105D02*
X147768933Y-47164105D01*
X147768933Y-47164105D02*
X147768933Y-47402200D01*
X147768933Y-47402200D02*
X147816552Y-47545057D01*
X147816552Y-47545057D02*
X147911790Y-47640295D01*
X147911790Y-47640295D02*
X148007028Y-47687914D01*
X148007028Y-47687914D02*
X148197504Y-47735533D01*
X148197504Y-47735533D02*
X148340361Y-47735533D01*
X148340361Y-47735533D02*
X148530837Y-47687914D01*
X148530837Y-47687914D02*
X148626075Y-47640295D01*
X148626075Y-47640295D02*
X148721314Y-47545057D01*
X148721314Y-47545057D02*
X148768933Y-47402200D01*
X148768933Y-47402200D02*
X148768933Y-47164105D01*
X147768933Y-48592676D02*
X147768933Y-48402200D01*
X147768933Y-48402200D02*
X147816552Y-48306962D01*
X147816552Y-48306962D02*
X147864171Y-48259343D01*
X147864171Y-48259343D02*
X148007028Y-48164105D01*
X148007028Y-48164105D02*
X148197504Y-48116486D01*
X148197504Y-48116486D02*
X148578456Y-48116486D01*
X148578456Y-48116486D02*
X148673694Y-48164105D01*
X148673694Y-48164105D02*
X148721314Y-48211724D01*
X148721314Y-48211724D02*
X148768933Y-48306962D01*
X148768933Y-48306962D02*
X148768933Y-48497438D01*
X148768933Y-48497438D02*
X148721314Y-48592676D01*
X148721314Y-48592676D02*
X148673694Y-48640295D01*
X148673694Y-48640295D02*
X148578456Y-48687914D01*
X148578456Y-48687914D02*
X148340361Y-48687914D01*
X148340361Y-48687914D02*
X148245123Y-48640295D01*
X148245123Y-48640295D02*
X148197504Y-48592676D01*
X148197504Y-48592676D02*
X148149885Y-48497438D01*
X148149885Y-48497438D02*
X148149885Y-48306962D01*
X148149885Y-48306962D02*
X148197504Y-48211724D01*
X148197504Y-48211724D02*
X148245123Y-48164105D01*
X148245123Y-48164105D02*
X148340361Y-48116486D01*
X148448933Y-51450295D02*
X147448933Y-51450295D01*
X148448933Y-52021723D02*
X147877504Y-51593152D01*
X147448933Y-52021723D02*
X148020361Y-51450295D01*
X129718933Y-47164105D02*
X128718933Y-47164105D01*
X128718933Y-47164105D02*
X128718933Y-47402200D01*
X128718933Y-47402200D02*
X128766552Y-47545057D01*
X128766552Y-47545057D02*
X128861790Y-47640295D01*
X128861790Y-47640295D02*
X128957028Y-47687914D01*
X128957028Y-47687914D02*
X129147504Y-47735533D01*
X129147504Y-47735533D02*
X129290361Y-47735533D01*
X129290361Y-47735533D02*
X129480837Y-47687914D01*
X129480837Y-47687914D02*
X129576075Y-47640295D01*
X129576075Y-47640295D02*
X129671314Y-47545057D01*
X129671314Y-47545057D02*
X129718933Y-47402200D01*
X129718933Y-47402200D02*
X129718933Y-47164105D01*
X128718933Y-48640295D02*
X128718933Y-48164105D01*
X128718933Y-48164105D02*
X129195123Y-48116486D01*
X129195123Y-48116486D02*
X129147504Y-48164105D01*
X129147504Y-48164105D02*
X129099885Y-48259343D01*
X129099885Y-48259343D02*
X129099885Y-48497438D01*
X129099885Y-48497438D02*
X129147504Y-48592676D01*
X129147504Y-48592676D02*
X129195123Y-48640295D01*
X129195123Y-48640295D02*
X129290361Y-48687914D01*
X129290361Y-48687914D02*
X129528456Y-48687914D01*
X129528456Y-48687914D02*
X129623694Y-48640295D01*
X129623694Y-48640295D02*
X129671314Y-48592676D01*
X129671314Y-48592676D02*
X129718933Y-48497438D01*
X129718933Y-48497438D02*
X129718933Y-48259343D01*
X129718933Y-48259343D02*
X129671314Y-48164105D01*
X129671314Y-48164105D02*
X129623694Y-48116486D01*
X129398933Y-51450295D02*
X128398933Y-51450295D01*
X129398933Y-52021723D02*
X128827504Y-51593152D01*
X128398933Y-52021723D02*
X128970361Y-51450295D01*
X239256433Y-103837914D02*
X238256433Y-103837914D01*
X238256433Y-103837914D02*
X238256433Y-104076009D01*
X238256433Y-104076009D02*
X238304052Y-104218866D01*
X238304052Y-104218866D02*
X238399290Y-104314104D01*
X238399290Y-104314104D02*
X238494528Y-104361723D01*
X238494528Y-104361723D02*
X238685004Y-104409342D01*
X238685004Y-104409342D02*
X238827861Y-104409342D01*
X238827861Y-104409342D02*
X239018337Y-104361723D01*
X239018337Y-104361723D02*
X239113575Y-104314104D01*
X239113575Y-104314104D02*
X239208814Y-104218866D01*
X239208814Y-104218866D02*
X239256433Y-104076009D01*
X239256433Y-104076009D02*
X239256433Y-103837914D01*
X238256433Y-105314104D02*
X238256433Y-104837914D01*
X238256433Y-104837914D02*
X238732623Y-104790295D01*
X238732623Y-104790295D02*
X238685004Y-104837914D01*
X238685004Y-104837914D02*
X238637385Y-104933152D01*
X238637385Y-104933152D02*
X238637385Y-105171247D01*
X238637385Y-105171247D02*
X238685004Y-105266485D01*
X238685004Y-105266485D02*
X238732623Y-105314104D01*
X238732623Y-105314104D02*
X238827861Y-105361723D01*
X238827861Y-105361723D02*
X239065956Y-105361723D01*
X239065956Y-105361723D02*
X239161194Y-105314104D01*
X239161194Y-105314104D02*
X239208814Y-105266485D01*
X239208814Y-105266485D02*
X239256433Y-105171247D01*
X239256433Y-105171247D02*
X239256433Y-104933152D01*
X239256433Y-104933152D02*
X239208814Y-104837914D01*
X239208814Y-104837914D02*
X239161194Y-104790295D01*
X238256433Y-106218866D02*
X238256433Y-106028390D01*
X238256433Y-106028390D02*
X238304052Y-105933152D01*
X238304052Y-105933152D02*
X238351671Y-105885533D01*
X238351671Y-105885533D02*
X238494528Y-105790295D01*
X238494528Y-105790295D02*
X238685004Y-105742676D01*
X238685004Y-105742676D02*
X239065956Y-105742676D01*
X239065956Y-105742676D02*
X239161194Y-105790295D01*
X239161194Y-105790295D02*
X239208814Y-105837914D01*
X239208814Y-105837914D02*
X239256433Y-105933152D01*
X239256433Y-105933152D02*
X239256433Y-106123628D01*
X239256433Y-106123628D02*
X239208814Y-106218866D01*
X239208814Y-106218866D02*
X239161194Y-106266485D01*
X239161194Y-106266485D02*
X239065956Y-106314104D01*
X239065956Y-106314104D02*
X238827861Y-106314104D01*
X238827861Y-106314104D02*
X238732623Y-106266485D01*
X238732623Y-106266485D02*
X238685004Y-106218866D01*
X238685004Y-106218866D02*
X238637385Y-106123628D01*
X238637385Y-106123628D02*
X238637385Y-105933152D01*
X238637385Y-105933152D02*
X238685004Y-105837914D01*
X238685004Y-105837914D02*
X238732623Y-105790295D01*
X238732623Y-105790295D02*
X238827861Y-105742676D01*
X238936433Y-108600295D02*
X237936433Y-108600295D01*
X238936433Y-109171723D02*
X238365004Y-108743152D01*
X237936433Y-109171723D02*
X238507861Y-108600295D01*
X220206433Y-103837914D02*
X219206433Y-103837914D01*
X219206433Y-103837914D02*
X219206433Y-104076009D01*
X219206433Y-104076009D02*
X219254052Y-104218866D01*
X219254052Y-104218866D02*
X219349290Y-104314104D01*
X219349290Y-104314104D02*
X219444528Y-104361723D01*
X219444528Y-104361723D02*
X219635004Y-104409342D01*
X219635004Y-104409342D02*
X219777861Y-104409342D01*
X219777861Y-104409342D02*
X219968337Y-104361723D01*
X219968337Y-104361723D02*
X220063575Y-104314104D01*
X220063575Y-104314104D02*
X220158814Y-104218866D01*
X220158814Y-104218866D02*
X220206433Y-104076009D01*
X220206433Y-104076009D02*
X220206433Y-103837914D01*
X219206433Y-105314104D02*
X219206433Y-104837914D01*
X219206433Y-104837914D02*
X219682623Y-104790295D01*
X219682623Y-104790295D02*
X219635004Y-104837914D01*
X219635004Y-104837914D02*
X219587385Y-104933152D01*
X219587385Y-104933152D02*
X219587385Y-105171247D01*
X219587385Y-105171247D02*
X219635004Y-105266485D01*
X219635004Y-105266485D02*
X219682623Y-105314104D01*
X219682623Y-105314104D02*
X219777861Y-105361723D01*
X219777861Y-105361723D02*
X220015956Y-105361723D01*
X220015956Y-105361723D02*
X220111194Y-105314104D01*
X220111194Y-105314104D02*
X220158814Y-105266485D01*
X220158814Y-105266485D02*
X220206433Y-105171247D01*
X220206433Y-105171247D02*
X220206433Y-104933152D01*
X220206433Y-104933152D02*
X220158814Y-104837914D01*
X220158814Y-104837914D02*
X220111194Y-104790295D01*
X219206433Y-106266485D02*
X219206433Y-105790295D01*
X219206433Y-105790295D02*
X219682623Y-105742676D01*
X219682623Y-105742676D02*
X219635004Y-105790295D01*
X219635004Y-105790295D02*
X219587385Y-105885533D01*
X219587385Y-105885533D02*
X219587385Y-106123628D01*
X219587385Y-106123628D02*
X219635004Y-106218866D01*
X219635004Y-106218866D02*
X219682623Y-106266485D01*
X219682623Y-106266485D02*
X219777861Y-106314104D01*
X219777861Y-106314104D02*
X220015956Y-106314104D01*
X220015956Y-106314104D02*
X220111194Y-106266485D01*
X220111194Y-106266485D02*
X220158814Y-106218866D01*
X220158814Y-106218866D02*
X220206433Y-106123628D01*
X220206433Y-106123628D02*
X220206433Y-105885533D01*
X220206433Y-105885533D02*
X220158814Y-105790295D01*
X220158814Y-105790295D02*
X220111194Y-105742676D01*
X219886433Y-108600295D02*
X218886433Y-108600295D01*
X219886433Y-109171723D02*
X219315004Y-108743152D01*
X218886433Y-109171723D02*
X219457861Y-108600295D01*
X201156433Y-103837914D02*
X200156433Y-103837914D01*
X200156433Y-103837914D02*
X200156433Y-104076009D01*
X200156433Y-104076009D02*
X200204052Y-104218866D01*
X200204052Y-104218866D02*
X200299290Y-104314104D01*
X200299290Y-104314104D02*
X200394528Y-104361723D01*
X200394528Y-104361723D02*
X200585004Y-104409342D01*
X200585004Y-104409342D02*
X200727861Y-104409342D01*
X200727861Y-104409342D02*
X200918337Y-104361723D01*
X200918337Y-104361723D02*
X201013575Y-104314104D01*
X201013575Y-104314104D02*
X201108814Y-104218866D01*
X201108814Y-104218866D02*
X201156433Y-104076009D01*
X201156433Y-104076009D02*
X201156433Y-103837914D01*
X200156433Y-105314104D02*
X200156433Y-104837914D01*
X200156433Y-104837914D02*
X200632623Y-104790295D01*
X200632623Y-104790295D02*
X200585004Y-104837914D01*
X200585004Y-104837914D02*
X200537385Y-104933152D01*
X200537385Y-104933152D02*
X200537385Y-105171247D01*
X200537385Y-105171247D02*
X200585004Y-105266485D01*
X200585004Y-105266485D02*
X200632623Y-105314104D01*
X200632623Y-105314104D02*
X200727861Y-105361723D01*
X200727861Y-105361723D02*
X200965956Y-105361723D01*
X200965956Y-105361723D02*
X201061194Y-105314104D01*
X201061194Y-105314104D02*
X201108814Y-105266485D01*
X201108814Y-105266485D02*
X201156433Y-105171247D01*
X201156433Y-105171247D02*
X201156433Y-104933152D01*
X201156433Y-104933152D02*
X201108814Y-104837914D01*
X201108814Y-104837914D02*
X201061194Y-104790295D01*
X200489766Y-106218866D02*
X201156433Y-106218866D01*
X200108814Y-105980771D02*
X200823099Y-105742676D01*
X200823099Y-105742676D02*
X200823099Y-106361723D01*
X200836433Y-108600295D02*
X199836433Y-108600295D01*
X200836433Y-109171723D02*
X200265004Y-108743152D01*
X199836433Y-109171723D02*
X200407861Y-108600295D01*
X182106433Y-103837914D02*
X181106433Y-103837914D01*
X181106433Y-103837914D02*
X181106433Y-104076009D01*
X181106433Y-104076009D02*
X181154052Y-104218866D01*
X181154052Y-104218866D02*
X181249290Y-104314104D01*
X181249290Y-104314104D02*
X181344528Y-104361723D01*
X181344528Y-104361723D02*
X181535004Y-104409342D01*
X181535004Y-104409342D02*
X181677861Y-104409342D01*
X181677861Y-104409342D02*
X181868337Y-104361723D01*
X181868337Y-104361723D02*
X181963575Y-104314104D01*
X181963575Y-104314104D02*
X182058814Y-104218866D01*
X182058814Y-104218866D02*
X182106433Y-104076009D01*
X182106433Y-104076009D02*
X182106433Y-103837914D01*
X181106433Y-105314104D02*
X181106433Y-104837914D01*
X181106433Y-104837914D02*
X181582623Y-104790295D01*
X181582623Y-104790295D02*
X181535004Y-104837914D01*
X181535004Y-104837914D02*
X181487385Y-104933152D01*
X181487385Y-104933152D02*
X181487385Y-105171247D01*
X181487385Y-105171247D02*
X181535004Y-105266485D01*
X181535004Y-105266485D02*
X181582623Y-105314104D01*
X181582623Y-105314104D02*
X181677861Y-105361723D01*
X181677861Y-105361723D02*
X181915956Y-105361723D01*
X181915956Y-105361723D02*
X182011194Y-105314104D01*
X182011194Y-105314104D02*
X182058814Y-105266485D01*
X182058814Y-105266485D02*
X182106433Y-105171247D01*
X182106433Y-105171247D02*
X182106433Y-104933152D01*
X182106433Y-104933152D02*
X182058814Y-104837914D01*
X182058814Y-104837914D02*
X182011194Y-104790295D01*
X181106433Y-105695057D02*
X181106433Y-106314104D01*
X181106433Y-106314104D02*
X181487385Y-105980771D01*
X181487385Y-105980771D02*
X181487385Y-106123628D01*
X181487385Y-106123628D02*
X181535004Y-106218866D01*
X181535004Y-106218866D02*
X181582623Y-106266485D01*
X181582623Y-106266485D02*
X181677861Y-106314104D01*
X181677861Y-106314104D02*
X181915956Y-106314104D01*
X181915956Y-106314104D02*
X182011194Y-106266485D01*
X182011194Y-106266485D02*
X182058814Y-106218866D01*
X182058814Y-106218866D02*
X182106433Y-106123628D01*
X182106433Y-106123628D02*
X182106433Y-105837914D01*
X182106433Y-105837914D02*
X182058814Y-105742676D01*
X182058814Y-105742676D02*
X182011194Y-105695057D01*
X181786433Y-108600295D02*
X180786433Y-108600295D01*
X181786433Y-109171723D02*
X181215004Y-108743152D01*
X180786433Y-109171723D02*
X181357861Y-108600295D01*
X163056433Y-103837914D02*
X162056433Y-103837914D01*
X162056433Y-103837914D02*
X162056433Y-104076009D01*
X162056433Y-104076009D02*
X162104052Y-104218866D01*
X162104052Y-104218866D02*
X162199290Y-104314104D01*
X162199290Y-104314104D02*
X162294528Y-104361723D01*
X162294528Y-104361723D02*
X162485004Y-104409342D01*
X162485004Y-104409342D02*
X162627861Y-104409342D01*
X162627861Y-104409342D02*
X162818337Y-104361723D01*
X162818337Y-104361723D02*
X162913575Y-104314104D01*
X162913575Y-104314104D02*
X163008814Y-104218866D01*
X163008814Y-104218866D02*
X163056433Y-104076009D01*
X163056433Y-104076009D02*
X163056433Y-103837914D01*
X162056433Y-105314104D02*
X162056433Y-104837914D01*
X162056433Y-104837914D02*
X162532623Y-104790295D01*
X162532623Y-104790295D02*
X162485004Y-104837914D01*
X162485004Y-104837914D02*
X162437385Y-104933152D01*
X162437385Y-104933152D02*
X162437385Y-105171247D01*
X162437385Y-105171247D02*
X162485004Y-105266485D01*
X162485004Y-105266485D02*
X162532623Y-105314104D01*
X162532623Y-105314104D02*
X162627861Y-105361723D01*
X162627861Y-105361723D02*
X162865956Y-105361723D01*
X162865956Y-105361723D02*
X162961194Y-105314104D01*
X162961194Y-105314104D02*
X163008814Y-105266485D01*
X163008814Y-105266485D02*
X163056433Y-105171247D01*
X163056433Y-105171247D02*
X163056433Y-104933152D01*
X163056433Y-104933152D02*
X163008814Y-104837914D01*
X163008814Y-104837914D02*
X162961194Y-104790295D01*
X162151671Y-105742676D02*
X162104052Y-105790295D01*
X162104052Y-105790295D02*
X162056433Y-105885533D01*
X162056433Y-105885533D02*
X162056433Y-106123628D01*
X162056433Y-106123628D02*
X162104052Y-106218866D01*
X162104052Y-106218866D02*
X162151671Y-106266485D01*
X162151671Y-106266485D02*
X162246909Y-106314104D01*
X162246909Y-106314104D02*
X162342147Y-106314104D01*
X162342147Y-106314104D02*
X162485004Y-106266485D01*
X162485004Y-106266485D02*
X163056433Y-105695057D01*
X163056433Y-105695057D02*
X163056433Y-106314104D01*
X162736433Y-108600295D02*
X161736433Y-108600295D01*
X162736433Y-109171723D02*
X162165004Y-108743152D01*
X161736433Y-109171723D02*
X162307861Y-108600295D01*
X144006433Y-103837914D02*
X143006433Y-103837914D01*
X143006433Y-103837914D02*
X143006433Y-104076009D01*
X143006433Y-104076009D02*
X143054052Y-104218866D01*
X143054052Y-104218866D02*
X143149290Y-104314104D01*
X143149290Y-104314104D02*
X143244528Y-104361723D01*
X143244528Y-104361723D02*
X143435004Y-104409342D01*
X143435004Y-104409342D02*
X143577861Y-104409342D01*
X143577861Y-104409342D02*
X143768337Y-104361723D01*
X143768337Y-104361723D02*
X143863575Y-104314104D01*
X143863575Y-104314104D02*
X143958814Y-104218866D01*
X143958814Y-104218866D02*
X144006433Y-104076009D01*
X144006433Y-104076009D02*
X144006433Y-103837914D01*
X143006433Y-105314104D02*
X143006433Y-104837914D01*
X143006433Y-104837914D02*
X143482623Y-104790295D01*
X143482623Y-104790295D02*
X143435004Y-104837914D01*
X143435004Y-104837914D02*
X143387385Y-104933152D01*
X143387385Y-104933152D02*
X143387385Y-105171247D01*
X143387385Y-105171247D02*
X143435004Y-105266485D01*
X143435004Y-105266485D02*
X143482623Y-105314104D01*
X143482623Y-105314104D02*
X143577861Y-105361723D01*
X143577861Y-105361723D02*
X143815956Y-105361723D01*
X143815956Y-105361723D02*
X143911194Y-105314104D01*
X143911194Y-105314104D02*
X143958814Y-105266485D01*
X143958814Y-105266485D02*
X144006433Y-105171247D01*
X144006433Y-105171247D02*
X144006433Y-104933152D01*
X144006433Y-104933152D02*
X143958814Y-104837914D01*
X143958814Y-104837914D02*
X143911194Y-104790295D01*
X144006433Y-106314104D02*
X144006433Y-105742676D01*
X144006433Y-106028390D02*
X143006433Y-106028390D01*
X143006433Y-106028390D02*
X143149290Y-105933152D01*
X143149290Y-105933152D02*
X143244528Y-105837914D01*
X143244528Y-105837914D02*
X143292147Y-105742676D01*
X143686433Y-108600295D02*
X142686433Y-108600295D01*
X143686433Y-109171723D02*
X143115004Y-108743152D01*
X142686433Y-109171723D02*
X143257861Y-108600295D01*
X124956433Y-103837914D02*
X123956433Y-103837914D01*
X123956433Y-103837914D02*
X123956433Y-104076009D01*
X123956433Y-104076009D02*
X124004052Y-104218866D01*
X124004052Y-104218866D02*
X124099290Y-104314104D01*
X124099290Y-104314104D02*
X124194528Y-104361723D01*
X124194528Y-104361723D02*
X124385004Y-104409342D01*
X124385004Y-104409342D02*
X124527861Y-104409342D01*
X124527861Y-104409342D02*
X124718337Y-104361723D01*
X124718337Y-104361723D02*
X124813575Y-104314104D01*
X124813575Y-104314104D02*
X124908814Y-104218866D01*
X124908814Y-104218866D02*
X124956433Y-104076009D01*
X124956433Y-104076009D02*
X124956433Y-103837914D01*
X123956433Y-105314104D02*
X123956433Y-104837914D01*
X123956433Y-104837914D02*
X124432623Y-104790295D01*
X124432623Y-104790295D02*
X124385004Y-104837914D01*
X124385004Y-104837914D02*
X124337385Y-104933152D01*
X124337385Y-104933152D02*
X124337385Y-105171247D01*
X124337385Y-105171247D02*
X124385004Y-105266485D01*
X124385004Y-105266485D02*
X124432623Y-105314104D01*
X124432623Y-105314104D02*
X124527861Y-105361723D01*
X124527861Y-105361723D02*
X124765956Y-105361723D01*
X124765956Y-105361723D02*
X124861194Y-105314104D01*
X124861194Y-105314104D02*
X124908814Y-105266485D01*
X124908814Y-105266485D02*
X124956433Y-105171247D01*
X124956433Y-105171247D02*
X124956433Y-104933152D01*
X124956433Y-104933152D02*
X124908814Y-104837914D01*
X124908814Y-104837914D02*
X124861194Y-104790295D01*
X123956433Y-105980771D02*
X123956433Y-106076009D01*
X123956433Y-106076009D02*
X124004052Y-106171247D01*
X124004052Y-106171247D02*
X124051671Y-106218866D01*
X124051671Y-106218866D02*
X124146909Y-106266485D01*
X124146909Y-106266485D02*
X124337385Y-106314104D01*
X124337385Y-106314104D02*
X124575480Y-106314104D01*
X124575480Y-106314104D02*
X124765956Y-106266485D01*
X124765956Y-106266485D02*
X124861194Y-106218866D01*
X124861194Y-106218866D02*
X124908814Y-106171247D01*
X124908814Y-106171247D02*
X124956433Y-106076009D01*
X124956433Y-106076009D02*
X124956433Y-105980771D01*
X124956433Y-105980771D02*
X124908814Y-105885533D01*
X124908814Y-105885533D02*
X124861194Y-105837914D01*
X124861194Y-105837914D02*
X124765956Y-105790295D01*
X124765956Y-105790295D02*
X124575480Y-105742676D01*
X124575480Y-105742676D02*
X124337385Y-105742676D01*
X124337385Y-105742676D02*
X124146909Y-105790295D01*
X124146909Y-105790295D02*
X124051671Y-105837914D01*
X124051671Y-105837914D02*
X124004052Y-105885533D01*
X124004052Y-105885533D02*
X123956433Y-105980771D01*
X124636433Y-108600295D02*
X123636433Y-108600295D01*
X124636433Y-109171723D02*
X124065004Y-108743152D01*
X123636433Y-109171723D02*
X124207861Y-108600295D01*
X105906433Y-103837914D02*
X104906433Y-103837914D01*
X104906433Y-103837914D02*
X104906433Y-104076009D01*
X104906433Y-104076009D02*
X104954052Y-104218866D01*
X104954052Y-104218866D02*
X105049290Y-104314104D01*
X105049290Y-104314104D02*
X105144528Y-104361723D01*
X105144528Y-104361723D02*
X105335004Y-104409342D01*
X105335004Y-104409342D02*
X105477861Y-104409342D01*
X105477861Y-104409342D02*
X105668337Y-104361723D01*
X105668337Y-104361723D02*
X105763575Y-104314104D01*
X105763575Y-104314104D02*
X105858814Y-104218866D01*
X105858814Y-104218866D02*
X105906433Y-104076009D01*
X105906433Y-104076009D02*
X105906433Y-103837914D01*
X105239766Y-105266485D02*
X105906433Y-105266485D01*
X104858814Y-105028390D02*
X105573099Y-104790295D01*
X105573099Y-104790295D02*
X105573099Y-105409342D01*
X105906433Y-105837914D02*
X105906433Y-106028390D01*
X105906433Y-106028390D02*
X105858814Y-106123628D01*
X105858814Y-106123628D02*
X105811194Y-106171247D01*
X105811194Y-106171247D02*
X105668337Y-106266485D01*
X105668337Y-106266485D02*
X105477861Y-106314104D01*
X105477861Y-106314104D02*
X105096909Y-106314104D01*
X105096909Y-106314104D02*
X105001671Y-106266485D01*
X105001671Y-106266485D02*
X104954052Y-106218866D01*
X104954052Y-106218866D02*
X104906433Y-106123628D01*
X104906433Y-106123628D02*
X104906433Y-105933152D01*
X104906433Y-105933152D02*
X104954052Y-105837914D01*
X104954052Y-105837914D02*
X105001671Y-105790295D01*
X105001671Y-105790295D02*
X105096909Y-105742676D01*
X105096909Y-105742676D02*
X105335004Y-105742676D01*
X105335004Y-105742676D02*
X105430242Y-105790295D01*
X105430242Y-105790295D02*
X105477861Y-105837914D01*
X105477861Y-105837914D02*
X105525480Y-105933152D01*
X105525480Y-105933152D02*
X105525480Y-106123628D01*
X105525480Y-106123628D02*
X105477861Y-106218866D01*
X105477861Y-106218866D02*
X105430242Y-106266485D01*
X105430242Y-106266485D02*
X105335004Y-106314104D01*
X105586433Y-108600295D02*
X104586433Y-108600295D01*
X105586433Y-109171723D02*
X105015004Y-108743152D01*
X104586433Y-109171723D02*
X105157861Y-108600295D01*
X86856433Y-103837914D02*
X85856433Y-103837914D01*
X85856433Y-103837914D02*
X85856433Y-104076009D01*
X85856433Y-104076009D02*
X85904052Y-104218866D01*
X85904052Y-104218866D02*
X85999290Y-104314104D01*
X85999290Y-104314104D02*
X86094528Y-104361723D01*
X86094528Y-104361723D02*
X86285004Y-104409342D01*
X86285004Y-104409342D02*
X86427861Y-104409342D01*
X86427861Y-104409342D02*
X86618337Y-104361723D01*
X86618337Y-104361723D02*
X86713575Y-104314104D01*
X86713575Y-104314104D02*
X86808814Y-104218866D01*
X86808814Y-104218866D02*
X86856433Y-104076009D01*
X86856433Y-104076009D02*
X86856433Y-103837914D01*
X86189766Y-105266485D02*
X86856433Y-105266485D01*
X85808814Y-105028390D02*
X86523099Y-104790295D01*
X86523099Y-104790295D02*
X86523099Y-105409342D01*
X86285004Y-105933152D02*
X86237385Y-105837914D01*
X86237385Y-105837914D02*
X86189766Y-105790295D01*
X86189766Y-105790295D02*
X86094528Y-105742676D01*
X86094528Y-105742676D02*
X86046909Y-105742676D01*
X86046909Y-105742676D02*
X85951671Y-105790295D01*
X85951671Y-105790295D02*
X85904052Y-105837914D01*
X85904052Y-105837914D02*
X85856433Y-105933152D01*
X85856433Y-105933152D02*
X85856433Y-106123628D01*
X85856433Y-106123628D02*
X85904052Y-106218866D01*
X85904052Y-106218866D02*
X85951671Y-106266485D01*
X85951671Y-106266485D02*
X86046909Y-106314104D01*
X86046909Y-106314104D02*
X86094528Y-106314104D01*
X86094528Y-106314104D02*
X86189766Y-106266485D01*
X86189766Y-106266485D02*
X86237385Y-106218866D01*
X86237385Y-106218866D02*
X86285004Y-106123628D01*
X86285004Y-106123628D02*
X86285004Y-105933152D01*
X86285004Y-105933152D02*
X86332623Y-105837914D01*
X86332623Y-105837914D02*
X86380242Y-105790295D01*
X86380242Y-105790295D02*
X86475480Y-105742676D01*
X86475480Y-105742676D02*
X86665956Y-105742676D01*
X86665956Y-105742676D02*
X86761194Y-105790295D01*
X86761194Y-105790295D02*
X86808814Y-105837914D01*
X86808814Y-105837914D02*
X86856433Y-105933152D01*
X86856433Y-105933152D02*
X86856433Y-106123628D01*
X86856433Y-106123628D02*
X86808814Y-106218866D01*
X86808814Y-106218866D02*
X86761194Y-106266485D01*
X86761194Y-106266485D02*
X86665956Y-106314104D01*
X86665956Y-106314104D02*
X86475480Y-106314104D01*
X86475480Y-106314104D02*
X86380242Y-106266485D01*
X86380242Y-106266485D02*
X86332623Y-106218866D01*
X86332623Y-106218866D02*
X86285004Y-106123628D01*
X86536433Y-108600295D02*
X85536433Y-108600295D01*
X86536433Y-109171723D02*
X85965004Y-108743152D01*
X85536433Y-109171723D02*
X86107861Y-108600295D01*
X60662683Y-103837914D02*
X59662683Y-103837914D01*
X59662683Y-103837914D02*
X59662683Y-104076009D01*
X59662683Y-104076009D02*
X59710302Y-104218866D01*
X59710302Y-104218866D02*
X59805540Y-104314104D01*
X59805540Y-104314104D02*
X59900778Y-104361723D01*
X59900778Y-104361723D02*
X60091254Y-104409342D01*
X60091254Y-104409342D02*
X60234111Y-104409342D01*
X60234111Y-104409342D02*
X60424587Y-104361723D01*
X60424587Y-104361723D02*
X60519825Y-104314104D01*
X60519825Y-104314104D02*
X60615064Y-104218866D01*
X60615064Y-104218866D02*
X60662683Y-104076009D01*
X60662683Y-104076009D02*
X60662683Y-103837914D01*
X59996016Y-105266485D02*
X60662683Y-105266485D01*
X59615064Y-105028390D02*
X60329349Y-104790295D01*
X60329349Y-104790295D02*
X60329349Y-105409342D01*
X59662683Y-105695057D02*
X59662683Y-106361723D01*
X59662683Y-106361723D02*
X60662683Y-105933152D01*
X60342683Y-108600295D02*
X59342683Y-108600295D01*
X60342683Y-109171723D02*
X59771254Y-108743152D01*
X59342683Y-109171723D02*
X59914111Y-108600295D01*
X339268933Y-84787914D02*
X338268933Y-84787914D01*
X338268933Y-84787914D02*
X338268933Y-85026009D01*
X338268933Y-85026009D02*
X338316552Y-85168866D01*
X338316552Y-85168866D02*
X338411790Y-85264104D01*
X338411790Y-85264104D02*
X338507028Y-85311723D01*
X338507028Y-85311723D02*
X338697504Y-85359342D01*
X338697504Y-85359342D02*
X338840361Y-85359342D01*
X338840361Y-85359342D02*
X339030837Y-85311723D01*
X339030837Y-85311723D02*
X339126075Y-85264104D01*
X339126075Y-85264104D02*
X339221314Y-85168866D01*
X339221314Y-85168866D02*
X339268933Y-85026009D01*
X339268933Y-85026009D02*
X339268933Y-84787914D01*
X338602266Y-86216485D02*
X339268933Y-86216485D01*
X338221314Y-85978390D02*
X338935599Y-85740295D01*
X338935599Y-85740295D02*
X338935599Y-86359342D01*
X338268933Y-87168866D02*
X338268933Y-86978390D01*
X338268933Y-86978390D02*
X338316552Y-86883152D01*
X338316552Y-86883152D02*
X338364171Y-86835533D01*
X338364171Y-86835533D02*
X338507028Y-86740295D01*
X338507028Y-86740295D02*
X338697504Y-86692676D01*
X338697504Y-86692676D02*
X339078456Y-86692676D01*
X339078456Y-86692676D02*
X339173694Y-86740295D01*
X339173694Y-86740295D02*
X339221314Y-86787914D01*
X339221314Y-86787914D02*
X339268933Y-86883152D01*
X339268933Y-86883152D02*
X339268933Y-87073628D01*
X339268933Y-87073628D02*
X339221314Y-87168866D01*
X339221314Y-87168866D02*
X339173694Y-87216485D01*
X339173694Y-87216485D02*
X339078456Y-87264104D01*
X339078456Y-87264104D02*
X338840361Y-87264104D01*
X338840361Y-87264104D02*
X338745123Y-87216485D01*
X338745123Y-87216485D02*
X338697504Y-87168866D01*
X338697504Y-87168866D02*
X338649885Y-87073628D01*
X338649885Y-87073628D02*
X338649885Y-86883152D01*
X338649885Y-86883152D02*
X338697504Y-86787914D01*
X338697504Y-86787914D02*
X338745123Y-86740295D01*
X338745123Y-86740295D02*
X338840361Y-86692676D01*
X338948933Y-89550295D02*
X337948933Y-89550295D01*
X338948933Y-90121723D02*
X338377504Y-89693152D01*
X337948933Y-90121723D02*
X338520361Y-89550295D01*
X315456433Y-84787914D02*
X314456433Y-84787914D01*
X314456433Y-84787914D02*
X314456433Y-85026009D01*
X314456433Y-85026009D02*
X314504052Y-85168866D01*
X314504052Y-85168866D02*
X314599290Y-85264104D01*
X314599290Y-85264104D02*
X314694528Y-85311723D01*
X314694528Y-85311723D02*
X314885004Y-85359342D01*
X314885004Y-85359342D02*
X315027861Y-85359342D01*
X315027861Y-85359342D02*
X315218337Y-85311723D01*
X315218337Y-85311723D02*
X315313575Y-85264104D01*
X315313575Y-85264104D02*
X315408814Y-85168866D01*
X315408814Y-85168866D02*
X315456433Y-85026009D01*
X315456433Y-85026009D02*
X315456433Y-84787914D01*
X314789766Y-86216485D02*
X315456433Y-86216485D01*
X314408814Y-85978390D02*
X315123099Y-85740295D01*
X315123099Y-85740295D02*
X315123099Y-86359342D01*
X314456433Y-87216485D02*
X314456433Y-86740295D01*
X314456433Y-86740295D02*
X314932623Y-86692676D01*
X314932623Y-86692676D02*
X314885004Y-86740295D01*
X314885004Y-86740295D02*
X314837385Y-86835533D01*
X314837385Y-86835533D02*
X314837385Y-87073628D01*
X314837385Y-87073628D02*
X314885004Y-87168866D01*
X314885004Y-87168866D02*
X314932623Y-87216485D01*
X314932623Y-87216485D02*
X315027861Y-87264104D01*
X315027861Y-87264104D02*
X315265956Y-87264104D01*
X315265956Y-87264104D02*
X315361194Y-87216485D01*
X315361194Y-87216485D02*
X315408814Y-87168866D01*
X315408814Y-87168866D02*
X315456433Y-87073628D01*
X315456433Y-87073628D02*
X315456433Y-86835533D01*
X315456433Y-86835533D02*
X315408814Y-86740295D01*
X315408814Y-86740295D02*
X315361194Y-86692676D01*
X315136433Y-89550295D02*
X314136433Y-89550295D01*
X315136433Y-90121723D02*
X314565004Y-89693152D01*
X314136433Y-90121723D02*
X314707861Y-89550295D01*
X291643933Y-84787914D02*
X290643933Y-84787914D01*
X290643933Y-84787914D02*
X290643933Y-85026009D01*
X290643933Y-85026009D02*
X290691552Y-85168866D01*
X290691552Y-85168866D02*
X290786790Y-85264104D01*
X290786790Y-85264104D02*
X290882028Y-85311723D01*
X290882028Y-85311723D02*
X291072504Y-85359342D01*
X291072504Y-85359342D02*
X291215361Y-85359342D01*
X291215361Y-85359342D02*
X291405837Y-85311723D01*
X291405837Y-85311723D02*
X291501075Y-85264104D01*
X291501075Y-85264104D02*
X291596314Y-85168866D01*
X291596314Y-85168866D02*
X291643933Y-85026009D01*
X291643933Y-85026009D02*
X291643933Y-84787914D01*
X290977266Y-86216485D02*
X291643933Y-86216485D01*
X290596314Y-85978390D02*
X291310599Y-85740295D01*
X291310599Y-85740295D02*
X291310599Y-86359342D01*
X290977266Y-87168866D02*
X291643933Y-87168866D01*
X290596314Y-86930771D02*
X291310599Y-86692676D01*
X291310599Y-86692676D02*
X291310599Y-87311723D01*
X291323933Y-89550295D02*
X290323933Y-89550295D01*
X291323933Y-90121723D02*
X290752504Y-89693152D01*
X290323933Y-90121723D02*
X290895361Y-89550295D01*
X272593933Y-84787914D02*
X271593933Y-84787914D01*
X271593933Y-84787914D02*
X271593933Y-85026009D01*
X271593933Y-85026009D02*
X271641552Y-85168866D01*
X271641552Y-85168866D02*
X271736790Y-85264104D01*
X271736790Y-85264104D02*
X271832028Y-85311723D01*
X271832028Y-85311723D02*
X272022504Y-85359342D01*
X272022504Y-85359342D02*
X272165361Y-85359342D01*
X272165361Y-85359342D02*
X272355837Y-85311723D01*
X272355837Y-85311723D02*
X272451075Y-85264104D01*
X272451075Y-85264104D02*
X272546314Y-85168866D01*
X272546314Y-85168866D02*
X272593933Y-85026009D01*
X272593933Y-85026009D02*
X272593933Y-84787914D01*
X271927266Y-86216485D02*
X272593933Y-86216485D01*
X271546314Y-85978390D02*
X272260599Y-85740295D01*
X272260599Y-85740295D02*
X272260599Y-86359342D01*
X271593933Y-86645057D02*
X271593933Y-87264104D01*
X271593933Y-87264104D02*
X271974885Y-86930771D01*
X271974885Y-86930771D02*
X271974885Y-87073628D01*
X271974885Y-87073628D02*
X272022504Y-87168866D01*
X272022504Y-87168866D02*
X272070123Y-87216485D01*
X272070123Y-87216485D02*
X272165361Y-87264104D01*
X272165361Y-87264104D02*
X272403456Y-87264104D01*
X272403456Y-87264104D02*
X272498694Y-87216485D01*
X272498694Y-87216485D02*
X272546314Y-87168866D01*
X272546314Y-87168866D02*
X272593933Y-87073628D01*
X272593933Y-87073628D02*
X272593933Y-86787914D01*
X272593933Y-86787914D02*
X272546314Y-86692676D01*
X272546314Y-86692676D02*
X272498694Y-86645057D01*
X272273933Y-89550295D02*
X271273933Y-89550295D01*
X272273933Y-90121723D02*
X271702504Y-89693152D01*
X271273933Y-90121723D02*
X271845361Y-89550295D01*
X72568933Y-65737914D02*
X71568933Y-65737914D01*
X71568933Y-65737914D02*
X71568933Y-65976009D01*
X71568933Y-65976009D02*
X71616552Y-66118866D01*
X71616552Y-66118866D02*
X71711790Y-66214104D01*
X71711790Y-66214104D02*
X71807028Y-66261723D01*
X71807028Y-66261723D02*
X71997504Y-66309342D01*
X71997504Y-66309342D02*
X72140361Y-66309342D01*
X72140361Y-66309342D02*
X72330837Y-66261723D01*
X72330837Y-66261723D02*
X72426075Y-66214104D01*
X72426075Y-66214104D02*
X72521314Y-66118866D01*
X72521314Y-66118866D02*
X72568933Y-65976009D01*
X72568933Y-65976009D02*
X72568933Y-65737914D01*
X72568933Y-67261723D02*
X72568933Y-66690295D01*
X72568933Y-66976009D02*
X71568933Y-66976009D01*
X71568933Y-66976009D02*
X71711790Y-66880771D01*
X71711790Y-66880771D02*
X71807028Y-66785533D01*
X71807028Y-66785533D02*
X71854647Y-66690295D01*
X71997504Y-67833152D02*
X71949885Y-67737914D01*
X71949885Y-67737914D02*
X71902266Y-67690295D01*
X71902266Y-67690295D02*
X71807028Y-67642676D01*
X71807028Y-67642676D02*
X71759409Y-67642676D01*
X71759409Y-67642676D02*
X71664171Y-67690295D01*
X71664171Y-67690295D02*
X71616552Y-67737914D01*
X71616552Y-67737914D02*
X71568933Y-67833152D01*
X71568933Y-67833152D02*
X71568933Y-68023628D01*
X71568933Y-68023628D02*
X71616552Y-68118866D01*
X71616552Y-68118866D02*
X71664171Y-68166485D01*
X71664171Y-68166485D02*
X71759409Y-68214104D01*
X71759409Y-68214104D02*
X71807028Y-68214104D01*
X71807028Y-68214104D02*
X71902266Y-68166485D01*
X71902266Y-68166485D02*
X71949885Y-68118866D01*
X71949885Y-68118866D02*
X71997504Y-68023628D01*
X71997504Y-68023628D02*
X71997504Y-67833152D01*
X71997504Y-67833152D02*
X72045123Y-67737914D01*
X72045123Y-67737914D02*
X72092742Y-67690295D01*
X72092742Y-67690295D02*
X72187980Y-67642676D01*
X72187980Y-67642676D02*
X72378456Y-67642676D01*
X72378456Y-67642676D02*
X72473694Y-67690295D01*
X72473694Y-67690295D02*
X72521314Y-67737914D01*
X72521314Y-67737914D02*
X72568933Y-67833152D01*
X72568933Y-67833152D02*
X72568933Y-68023628D01*
X72568933Y-68023628D02*
X72521314Y-68118866D01*
X72521314Y-68118866D02*
X72473694Y-68166485D01*
X72473694Y-68166485D02*
X72378456Y-68214104D01*
X72378456Y-68214104D02*
X72187980Y-68214104D01*
X72187980Y-68214104D02*
X72092742Y-68166485D01*
X72092742Y-68166485D02*
X72045123Y-68118866D01*
X72045123Y-68118866D02*
X71997504Y-68023628D01*
X72248933Y-70500295D02*
X71248933Y-70500295D01*
X72248933Y-71071723D02*
X71677504Y-70643152D01*
X71248933Y-71071723D02*
X71820361Y-70500295D01*
X53518933Y-65737914D02*
X52518933Y-65737914D01*
X52518933Y-65737914D02*
X52518933Y-65976009D01*
X52518933Y-65976009D02*
X52566552Y-66118866D01*
X52566552Y-66118866D02*
X52661790Y-66214104D01*
X52661790Y-66214104D02*
X52757028Y-66261723D01*
X52757028Y-66261723D02*
X52947504Y-66309342D01*
X52947504Y-66309342D02*
X53090361Y-66309342D01*
X53090361Y-66309342D02*
X53280837Y-66261723D01*
X53280837Y-66261723D02*
X53376075Y-66214104D01*
X53376075Y-66214104D02*
X53471314Y-66118866D01*
X53471314Y-66118866D02*
X53518933Y-65976009D01*
X53518933Y-65976009D02*
X53518933Y-65737914D01*
X53518933Y-67261723D02*
X53518933Y-66690295D01*
X53518933Y-66976009D02*
X52518933Y-66976009D01*
X52518933Y-66976009D02*
X52661790Y-66880771D01*
X52661790Y-66880771D02*
X52757028Y-66785533D01*
X52757028Y-66785533D02*
X52804647Y-66690295D01*
X52518933Y-67595057D02*
X52518933Y-68261723D01*
X52518933Y-68261723D02*
X53518933Y-67833152D01*
X53198933Y-70500295D02*
X52198933Y-70500295D01*
X53198933Y-71071723D02*
X52627504Y-70643152D01*
X52198933Y-71071723D02*
X52770361Y-70500295D01*
X339268933Y-46687914D02*
X338268933Y-46687914D01*
X338268933Y-46687914D02*
X338268933Y-46926009D01*
X338268933Y-46926009D02*
X338316552Y-47068866D01*
X338316552Y-47068866D02*
X338411790Y-47164104D01*
X338411790Y-47164104D02*
X338507028Y-47211723D01*
X338507028Y-47211723D02*
X338697504Y-47259342D01*
X338697504Y-47259342D02*
X338840361Y-47259342D01*
X338840361Y-47259342D02*
X339030837Y-47211723D01*
X339030837Y-47211723D02*
X339126075Y-47164104D01*
X339126075Y-47164104D02*
X339221314Y-47068866D01*
X339221314Y-47068866D02*
X339268933Y-46926009D01*
X339268933Y-46926009D02*
X339268933Y-46687914D01*
X339268933Y-48211723D02*
X339268933Y-47640295D01*
X339268933Y-47926009D02*
X338268933Y-47926009D01*
X338268933Y-47926009D02*
X338411790Y-47830771D01*
X338411790Y-47830771D02*
X338507028Y-47735533D01*
X338507028Y-47735533D02*
X338554647Y-47640295D01*
X338268933Y-49068866D02*
X338268933Y-48878390D01*
X338268933Y-48878390D02*
X338316552Y-48783152D01*
X338316552Y-48783152D02*
X338364171Y-48735533D01*
X338364171Y-48735533D02*
X338507028Y-48640295D01*
X338507028Y-48640295D02*
X338697504Y-48592676D01*
X338697504Y-48592676D02*
X339078456Y-48592676D01*
X339078456Y-48592676D02*
X339173694Y-48640295D01*
X339173694Y-48640295D02*
X339221314Y-48687914D01*
X339221314Y-48687914D02*
X339268933Y-48783152D01*
X339268933Y-48783152D02*
X339268933Y-48973628D01*
X339268933Y-48973628D02*
X339221314Y-49068866D01*
X339221314Y-49068866D02*
X339173694Y-49116485D01*
X339173694Y-49116485D02*
X339078456Y-49164104D01*
X339078456Y-49164104D02*
X338840361Y-49164104D01*
X338840361Y-49164104D02*
X338745123Y-49116485D01*
X338745123Y-49116485D02*
X338697504Y-49068866D01*
X338697504Y-49068866D02*
X338649885Y-48973628D01*
X338649885Y-48973628D02*
X338649885Y-48783152D01*
X338649885Y-48783152D02*
X338697504Y-48687914D01*
X338697504Y-48687914D02*
X338745123Y-48640295D01*
X338745123Y-48640295D02*
X338840361Y-48592676D01*
X338948933Y-51450295D02*
X337948933Y-51450295D01*
X338948933Y-52021723D02*
X338377504Y-51593152D01*
X337948933Y-52021723D02*
X338520361Y-51450295D01*
X320218933Y-46687914D02*
X319218933Y-46687914D01*
X319218933Y-46687914D02*
X319218933Y-46926009D01*
X319218933Y-46926009D02*
X319266552Y-47068866D01*
X319266552Y-47068866D02*
X319361790Y-47164104D01*
X319361790Y-47164104D02*
X319457028Y-47211723D01*
X319457028Y-47211723D02*
X319647504Y-47259342D01*
X319647504Y-47259342D02*
X319790361Y-47259342D01*
X319790361Y-47259342D02*
X319980837Y-47211723D01*
X319980837Y-47211723D02*
X320076075Y-47164104D01*
X320076075Y-47164104D02*
X320171314Y-47068866D01*
X320171314Y-47068866D02*
X320218933Y-46926009D01*
X320218933Y-46926009D02*
X320218933Y-46687914D01*
X320218933Y-48211723D02*
X320218933Y-47640295D01*
X320218933Y-47926009D02*
X319218933Y-47926009D01*
X319218933Y-47926009D02*
X319361790Y-47830771D01*
X319361790Y-47830771D02*
X319457028Y-47735533D01*
X319457028Y-47735533D02*
X319504647Y-47640295D01*
X319218933Y-49116485D02*
X319218933Y-48640295D01*
X319218933Y-48640295D02*
X319695123Y-48592676D01*
X319695123Y-48592676D02*
X319647504Y-48640295D01*
X319647504Y-48640295D02*
X319599885Y-48735533D01*
X319599885Y-48735533D02*
X319599885Y-48973628D01*
X319599885Y-48973628D02*
X319647504Y-49068866D01*
X319647504Y-49068866D02*
X319695123Y-49116485D01*
X319695123Y-49116485D02*
X319790361Y-49164104D01*
X319790361Y-49164104D02*
X320028456Y-49164104D01*
X320028456Y-49164104D02*
X320123694Y-49116485D01*
X320123694Y-49116485D02*
X320171314Y-49068866D01*
X320171314Y-49068866D02*
X320218933Y-48973628D01*
X320218933Y-48973628D02*
X320218933Y-48735533D01*
X320218933Y-48735533D02*
X320171314Y-48640295D01*
X320171314Y-48640295D02*
X320123694Y-48592676D01*
X319898933Y-51450295D02*
X318898933Y-51450295D01*
X319898933Y-52021723D02*
X319327504Y-51593152D01*
X318898933Y-52021723D02*
X319470361Y-51450295D01*
X110668933Y-47164105D02*
X109668933Y-47164105D01*
X109668933Y-47164105D02*
X109668933Y-47402200D01*
X109668933Y-47402200D02*
X109716552Y-47545057D01*
X109716552Y-47545057D02*
X109811790Y-47640295D01*
X109811790Y-47640295D02*
X109907028Y-47687914D01*
X109907028Y-47687914D02*
X110097504Y-47735533D01*
X110097504Y-47735533D02*
X110240361Y-47735533D01*
X110240361Y-47735533D02*
X110430837Y-47687914D01*
X110430837Y-47687914D02*
X110526075Y-47640295D01*
X110526075Y-47640295D02*
X110621314Y-47545057D01*
X110621314Y-47545057D02*
X110668933Y-47402200D01*
X110668933Y-47402200D02*
X110668933Y-47164105D01*
X110002266Y-48592676D02*
X110668933Y-48592676D01*
X109621314Y-48354581D02*
X110335599Y-48116486D01*
X110335599Y-48116486D02*
X110335599Y-48735533D01*
X110348933Y-51450295D02*
X109348933Y-51450295D01*
X110348933Y-52021723D02*
X109777504Y-51593152D01*
X109348933Y-52021723D02*
X109920361Y-51450295D01*
X91618933Y-47164105D02*
X90618933Y-47164105D01*
X90618933Y-47164105D02*
X90618933Y-47402200D01*
X90618933Y-47402200D02*
X90666552Y-47545057D01*
X90666552Y-47545057D02*
X90761790Y-47640295D01*
X90761790Y-47640295D02*
X90857028Y-47687914D01*
X90857028Y-47687914D02*
X91047504Y-47735533D01*
X91047504Y-47735533D02*
X91190361Y-47735533D01*
X91190361Y-47735533D02*
X91380837Y-47687914D01*
X91380837Y-47687914D02*
X91476075Y-47640295D01*
X91476075Y-47640295D02*
X91571314Y-47545057D01*
X91571314Y-47545057D02*
X91618933Y-47402200D01*
X91618933Y-47402200D02*
X91618933Y-47164105D01*
X90618933Y-48068867D02*
X90618933Y-48687914D01*
X90618933Y-48687914D02*
X90999885Y-48354581D01*
X90999885Y-48354581D02*
X90999885Y-48497438D01*
X90999885Y-48497438D02*
X91047504Y-48592676D01*
X91047504Y-48592676D02*
X91095123Y-48640295D01*
X91095123Y-48640295D02*
X91190361Y-48687914D01*
X91190361Y-48687914D02*
X91428456Y-48687914D01*
X91428456Y-48687914D02*
X91523694Y-48640295D01*
X91523694Y-48640295D02*
X91571314Y-48592676D01*
X91571314Y-48592676D02*
X91618933Y-48497438D01*
X91618933Y-48497438D02*
X91618933Y-48211724D01*
X91618933Y-48211724D02*
X91571314Y-48116486D01*
X91571314Y-48116486D02*
X91523694Y-48068867D01*
X91298933Y-51450295D02*
X90298933Y-51450295D01*
X91298933Y-52021723D02*
X90727504Y-51593152D01*
X90298933Y-52021723D02*
X90870361Y-51450295D01*
X72568933Y-47164105D02*
X71568933Y-47164105D01*
X71568933Y-47164105D02*
X71568933Y-47402200D01*
X71568933Y-47402200D02*
X71616552Y-47545057D01*
X71616552Y-47545057D02*
X71711790Y-47640295D01*
X71711790Y-47640295D02*
X71807028Y-47687914D01*
X71807028Y-47687914D02*
X71997504Y-47735533D01*
X71997504Y-47735533D02*
X72140361Y-47735533D01*
X72140361Y-47735533D02*
X72330837Y-47687914D01*
X72330837Y-47687914D02*
X72426075Y-47640295D01*
X72426075Y-47640295D02*
X72521314Y-47545057D01*
X72521314Y-47545057D02*
X72568933Y-47402200D01*
X72568933Y-47402200D02*
X72568933Y-47164105D01*
X71664171Y-48116486D02*
X71616552Y-48164105D01*
X71616552Y-48164105D02*
X71568933Y-48259343D01*
X71568933Y-48259343D02*
X71568933Y-48497438D01*
X71568933Y-48497438D02*
X71616552Y-48592676D01*
X71616552Y-48592676D02*
X71664171Y-48640295D01*
X71664171Y-48640295D02*
X71759409Y-48687914D01*
X71759409Y-48687914D02*
X71854647Y-48687914D01*
X71854647Y-48687914D02*
X71997504Y-48640295D01*
X71997504Y-48640295D02*
X72568933Y-48068867D01*
X72568933Y-48068867D02*
X72568933Y-48687914D01*
X72248933Y-51450295D02*
X71248933Y-51450295D01*
X72248933Y-52021723D02*
X71677504Y-51593152D01*
X71248933Y-52021723D02*
X71820361Y-51450295D01*
X53518933Y-47164105D02*
X52518933Y-47164105D01*
X52518933Y-47164105D02*
X52518933Y-47402200D01*
X52518933Y-47402200D02*
X52566552Y-47545057D01*
X52566552Y-47545057D02*
X52661790Y-47640295D01*
X52661790Y-47640295D02*
X52757028Y-47687914D01*
X52757028Y-47687914D02*
X52947504Y-47735533D01*
X52947504Y-47735533D02*
X53090361Y-47735533D01*
X53090361Y-47735533D02*
X53280837Y-47687914D01*
X53280837Y-47687914D02*
X53376075Y-47640295D01*
X53376075Y-47640295D02*
X53471314Y-47545057D01*
X53471314Y-47545057D02*
X53518933Y-47402200D01*
X53518933Y-47402200D02*
X53518933Y-47164105D01*
X53518933Y-48687914D02*
X53518933Y-48116486D01*
X53518933Y-48402200D02*
X52518933Y-48402200D01*
X52518933Y-48402200D02*
X52661790Y-48306962D01*
X52661790Y-48306962D02*
X52757028Y-48211724D01*
X52757028Y-48211724D02*
X52804647Y-48116486D01*
X53198933Y-51450295D02*
X52198933Y-51450295D01*
X53198933Y-52021723D02*
X52627504Y-51593152D01*
X52198933Y-52021723D02*
X52770361Y-51450295D01*
%TO.C,D29*%
D11*
X279544114Y-69722200D02*
X279544114Y-69072200D01*
X280664114Y-68472200D02*
X278424114Y-68472200D01*
X280664114Y-68352200D02*
X278424114Y-68352200D01*
X280664114Y-68232200D02*
X278424114Y-68232200D01*
X279544114Y-64182200D02*
X279544114Y-64832200D01*
X278424114Y-64832200D02*
X280664114Y-64832200D01*
X280664114Y-69072200D01*
X278424114Y-69072200D01*
X278424114Y-64832200D01*
%TO.C,D28*%
X260494114Y-69722200D02*
X260494114Y-69072200D01*
X261614114Y-68472200D02*
X259374114Y-68472200D01*
X261614114Y-68352200D02*
X259374114Y-68352200D01*
X261614114Y-68232200D02*
X259374114Y-68232200D01*
X260494114Y-64182200D02*
X260494114Y-64832200D01*
X259374114Y-64832200D02*
X261614114Y-64832200D01*
X261614114Y-69072200D01*
X259374114Y-69072200D01*
X259374114Y-64832200D01*
%TO.C,D27*%
X241444114Y-69722200D02*
X241444114Y-69072200D01*
X242564114Y-68472200D02*
X240324114Y-68472200D01*
X242564114Y-68352200D02*
X240324114Y-68352200D01*
X242564114Y-68232200D02*
X240324114Y-68232200D01*
X241444114Y-64182200D02*
X241444114Y-64832200D01*
X240324114Y-64832200D02*
X242564114Y-64832200D01*
X242564114Y-69072200D01*
X240324114Y-69072200D01*
X240324114Y-64832200D01*
%TO.C,D26*%
X222394114Y-69722200D02*
X222394114Y-69072200D01*
X223514114Y-68472200D02*
X221274114Y-68472200D01*
X223514114Y-68352200D02*
X221274114Y-68352200D01*
X223514114Y-68232200D02*
X221274114Y-68232200D01*
X222394114Y-64182200D02*
X222394114Y-64832200D01*
X221274114Y-64832200D02*
X223514114Y-64832200D01*
X223514114Y-69072200D01*
X221274114Y-69072200D01*
X221274114Y-64832200D01*
%TO.C,D25*%
X203344114Y-69722200D02*
X203344114Y-69072200D01*
X204464114Y-68472200D02*
X202224114Y-68472200D01*
X204464114Y-68352200D02*
X202224114Y-68352200D01*
X204464114Y-68232200D02*
X202224114Y-68232200D01*
X203344114Y-64182200D02*
X203344114Y-64832200D01*
X202224114Y-64832200D02*
X204464114Y-64832200D01*
X204464114Y-69072200D01*
X202224114Y-69072200D01*
X202224114Y-64832200D01*
%TO.C,D82*%
X298594114Y-145922200D02*
X298594114Y-145272200D01*
X299714114Y-144672200D02*
X297474114Y-144672200D01*
X299714114Y-144552200D02*
X297474114Y-144552200D01*
X299714114Y-144432200D02*
X297474114Y-144432200D01*
X298594114Y-140382200D02*
X298594114Y-141032200D01*
X297474114Y-141032200D02*
X299714114Y-141032200D01*
X299714114Y-145272200D01*
X297474114Y-145272200D01*
X297474114Y-141032200D01*
%TO.C,D81*%
X265256614Y-145922200D02*
X265256614Y-145272200D01*
X266376614Y-144672200D02*
X264136614Y-144672200D01*
X266376614Y-144552200D02*
X264136614Y-144552200D01*
X266376614Y-144432200D02*
X264136614Y-144432200D01*
X265256614Y-140382200D02*
X265256614Y-141032200D01*
X264136614Y-141032200D02*
X266376614Y-141032200D01*
X266376614Y-145272200D01*
X264136614Y-145272200D01*
X264136614Y-141032200D01*
%TO.C,D80*%
X246206614Y-145922200D02*
X246206614Y-145272200D01*
X247326614Y-144672200D02*
X245086614Y-144672200D01*
X247326614Y-144552200D02*
X245086614Y-144552200D01*
X247326614Y-144432200D02*
X245086614Y-144432200D01*
X246206614Y-140382200D02*
X246206614Y-141032200D01*
X245086614Y-141032200D02*
X247326614Y-141032200D01*
X247326614Y-145272200D01*
X245086614Y-145272200D01*
X245086614Y-141032200D01*
%TO.C,D79*%
X227156614Y-145922200D02*
X227156614Y-145272200D01*
X228276614Y-144672200D02*
X226036614Y-144672200D01*
X228276614Y-144552200D02*
X226036614Y-144552200D01*
X228276614Y-144432200D02*
X226036614Y-144432200D01*
X227156614Y-140382200D02*
X227156614Y-141032200D01*
X226036614Y-141032200D02*
X228276614Y-141032200D01*
X228276614Y-145272200D01*
X226036614Y-145272200D01*
X226036614Y-141032200D01*
%TO.C,D78*%
X165244114Y-145922200D02*
X165244114Y-145272200D01*
X166364114Y-144672200D02*
X164124114Y-144672200D01*
X166364114Y-144552200D02*
X164124114Y-144552200D01*
X166364114Y-144432200D02*
X164124114Y-144432200D01*
X165244114Y-140382200D02*
X165244114Y-141032200D01*
X164124114Y-141032200D02*
X166364114Y-141032200D01*
X166364114Y-145272200D01*
X164124114Y-145272200D01*
X164124114Y-141032200D01*
%TO.C,D77*%
X100950364Y-145922200D02*
X100950364Y-145272200D01*
X102070364Y-144672200D02*
X99830364Y-144672200D01*
X102070364Y-144552200D02*
X99830364Y-144552200D01*
X102070364Y-144432200D02*
X99830364Y-144432200D01*
X100950364Y-140382200D02*
X100950364Y-141032200D01*
X99830364Y-141032200D02*
X102070364Y-141032200D01*
X102070364Y-145272200D01*
X99830364Y-145272200D01*
X99830364Y-141032200D01*
%TO.C,D76*%
X77137864Y-145922200D02*
X77137864Y-145272200D01*
X78257864Y-144672200D02*
X76017864Y-144672200D01*
X78257864Y-144552200D02*
X76017864Y-144552200D01*
X78257864Y-144432200D02*
X76017864Y-144432200D01*
X77137864Y-140382200D02*
X77137864Y-141032200D01*
X76017864Y-141032200D02*
X78257864Y-141032200D01*
X78257864Y-145272200D01*
X76017864Y-145272200D01*
X76017864Y-141032200D01*
%TO.C,D75*%
X53325364Y-145922200D02*
X53325364Y-145272200D01*
X54445364Y-144672200D02*
X52205364Y-144672200D01*
X54445364Y-144552200D02*
X52205364Y-144552200D01*
X54445364Y-144432200D02*
X52205364Y-144432200D01*
X53325364Y-140382200D02*
X53325364Y-141032200D01*
X52205364Y-141032200D02*
X54445364Y-141032200D01*
X54445364Y-145272200D01*
X52205364Y-145272200D01*
X52205364Y-141032200D01*
%TO.C,D74*%
X336694114Y-126872200D02*
X336694114Y-126222200D01*
X337814114Y-125622200D02*
X335574114Y-125622200D01*
X337814114Y-125502200D02*
X335574114Y-125502200D01*
X337814114Y-125382200D02*
X335574114Y-125382200D01*
X336694114Y-121332200D02*
X336694114Y-121982200D01*
X335574114Y-121982200D02*
X337814114Y-121982200D01*
X337814114Y-126222200D01*
X335574114Y-126222200D01*
X335574114Y-121982200D01*
%TO.C,D73*%
X317644114Y-126872200D02*
X317644114Y-126222200D01*
X318764114Y-125622200D02*
X316524114Y-125622200D01*
X318764114Y-125502200D02*
X316524114Y-125502200D01*
X318764114Y-125382200D02*
X316524114Y-125382200D01*
X317644114Y-121332200D02*
X317644114Y-121982200D01*
X316524114Y-121982200D02*
X318764114Y-121982200D01*
X318764114Y-126222200D01*
X316524114Y-126222200D01*
X316524114Y-121982200D01*
%TO.C,D72*%
X298594114Y-126872200D02*
X298594114Y-126222200D01*
X299714114Y-125622200D02*
X297474114Y-125622200D01*
X299714114Y-125502200D02*
X297474114Y-125502200D01*
X299714114Y-125382200D02*
X297474114Y-125382200D01*
X298594114Y-121332200D02*
X298594114Y-121982200D01*
X297474114Y-121982200D02*
X299714114Y-121982200D01*
X299714114Y-126222200D01*
X297474114Y-126222200D01*
X297474114Y-121982200D01*
%TO.C,D71*%
X265256614Y-126872200D02*
X265256614Y-126222200D01*
X266376614Y-125622200D02*
X264136614Y-125622200D01*
X266376614Y-125502200D02*
X264136614Y-125502200D01*
X266376614Y-125382200D02*
X264136614Y-125382200D01*
X265256614Y-121332200D02*
X265256614Y-121982200D01*
X264136614Y-121982200D02*
X266376614Y-121982200D01*
X266376614Y-126222200D01*
X264136614Y-126222200D01*
X264136614Y-121982200D01*
%TO.C,D36*%
X136669114Y-88772200D02*
X136669114Y-88122200D01*
X137789114Y-87522200D02*
X135549114Y-87522200D01*
X137789114Y-87402200D02*
X135549114Y-87402200D01*
X137789114Y-87282200D02*
X135549114Y-87282200D01*
X136669114Y-83232200D02*
X136669114Y-83882200D01*
X135549114Y-83882200D02*
X137789114Y-83882200D01*
X137789114Y-88122200D01*
X135549114Y-88122200D01*
X135549114Y-83882200D01*
%TO.C,D35*%
X117619114Y-88772200D02*
X117619114Y-88122200D01*
X118739114Y-87522200D02*
X116499114Y-87522200D01*
X118739114Y-87402200D02*
X116499114Y-87402200D01*
X118739114Y-87282200D02*
X116499114Y-87282200D01*
X117619114Y-83232200D02*
X117619114Y-83882200D01*
X116499114Y-83882200D02*
X118739114Y-83882200D01*
X118739114Y-88122200D01*
X116499114Y-88122200D01*
X116499114Y-83882200D01*
%TO.C,D34*%
X98569114Y-88772200D02*
X98569114Y-88122200D01*
X99689114Y-87522200D02*
X97449114Y-87522200D01*
X99689114Y-87402200D02*
X97449114Y-87402200D01*
X99689114Y-87282200D02*
X97449114Y-87282200D01*
X98569114Y-83232200D02*
X98569114Y-83882200D01*
X97449114Y-83882200D02*
X99689114Y-83882200D01*
X99689114Y-88122200D01*
X97449114Y-88122200D01*
X97449114Y-83882200D01*
%TO.C,D33*%
X79519114Y-88772200D02*
X79519114Y-88122200D01*
X80639114Y-87522200D02*
X78399114Y-87522200D01*
X80639114Y-87402200D02*
X78399114Y-87402200D01*
X80639114Y-87282200D02*
X78399114Y-87282200D01*
X79519114Y-83232200D02*
X79519114Y-83882200D01*
X78399114Y-83882200D02*
X80639114Y-83882200D01*
X80639114Y-88122200D01*
X78399114Y-88122200D01*
X78399114Y-83882200D01*
%TO.C,D32*%
X55706614Y-88772200D02*
X55706614Y-88122200D01*
X56826614Y-87522200D02*
X54586614Y-87522200D01*
X56826614Y-87402200D02*
X54586614Y-87402200D01*
X56826614Y-87282200D02*
X54586614Y-87282200D01*
X55706614Y-83232200D02*
X55706614Y-83882200D01*
X54586614Y-83882200D02*
X56826614Y-83882200D01*
X56826614Y-88122200D01*
X54586614Y-88122200D01*
X54586614Y-83882200D01*
%TO.C,D31*%
X336694114Y-69722200D02*
X336694114Y-69072200D01*
X337814114Y-68472200D02*
X335574114Y-68472200D01*
X337814114Y-68352200D02*
X335574114Y-68352200D01*
X337814114Y-68232200D02*
X335574114Y-68232200D01*
X336694114Y-64182200D02*
X336694114Y-64832200D01*
X335574114Y-64832200D02*
X337814114Y-64832200D01*
X337814114Y-69072200D01*
X335574114Y-69072200D01*
X335574114Y-64832200D01*
%TO.C,D30*%
X308119114Y-69722200D02*
X308119114Y-69072200D01*
X309239114Y-68472200D02*
X306999114Y-68472200D01*
X309239114Y-68352200D02*
X306999114Y-68352200D01*
X309239114Y-68232200D02*
X306999114Y-68232200D01*
X308119114Y-64182200D02*
X308119114Y-64832200D01*
X306999114Y-64832200D02*
X309239114Y-64832200D01*
X309239114Y-69072200D01*
X306999114Y-69072200D01*
X306999114Y-64832200D01*
%TO.C,D70*%
X246206614Y-126872200D02*
X246206614Y-126222200D01*
X247326614Y-125622200D02*
X245086614Y-125622200D01*
X247326614Y-125502200D02*
X245086614Y-125502200D01*
X247326614Y-125382200D02*
X245086614Y-125382200D01*
X246206614Y-121332200D02*
X246206614Y-121982200D01*
X245086614Y-121982200D02*
X247326614Y-121982200D01*
X247326614Y-126222200D01*
X245086614Y-126222200D01*
X245086614Y-121982200D01*
%TO.C,D69*%
X227156614Y-126872200D02*
X227156614Y-126222200D01*
X228276614Y-125622200D02*
X226036614Y-125622200D01*
X228276614Y-125502200D02*
X226036614Y-125502200D01*
X228276614Y-125382200D02*
X226036614Y-125382200D01*
X227156614Y-121332200D02*
X227156614Y-121982200D01*
X226036614Y-121982200D02*
X228276614Y-121982200D01*
X228276614Y-126222200D01*
X226036614Y-126222200D01*
X226036614Y-121982200D01*
%TO.C,D68*%
X208106614Y-126872200D02*
X208106614Y-126222200D01*
X209226614Y-125622200D02*
X206986614Y-125622200D01*
X209226614Y-125502200D02*
X206986614Y-125502200D01*
X209226614Y-125382200D02*
X206986614Y-125382200D01*
X208106614Y-121332200D02*
X208106614Y-121982200D01*
X206986614Y-121982200D02*
X209226614Y-121982200D01*
X209226614Y-126222200D01*
X206986614Y-126222200D01*
X206986614Y-121982200D01*
%TO.C,D67*%
X189056614Y-126872200D02*
X189056614Y-126222200D01*
X190176614Y-125622200D02*
X187936614Y-125622200D01*
X190176614Y-125502200D02*
X187936614Y-125502200D01*
X190176614Y-125382200D02*
X187936614Y-125382200D01*
X189056614Y-121332200D02*
X189056614Y-121982200D01*
X187936614Y-121982200D02*
X190176614Y-121982200D01*
X190176614Y-126222200D01*
X187936614Y-126222200D01*
X187936614Y-121982200D01*
%TO.C,D66*%
X170006614Y-126872200D02*
X170006614Y-126222200D01*
X171126614Y-125622200D02*
X168886614Y-125622200D01*
X171126614Y-125502200D02*
X168886614Y-125502200D01*
X171126614Y-125382200D02*
X168886614Y-125382200D01*
X170006614Y-121332200D02*
X170006614Y-121982200D01*
X168886614Y-121982200D02*
X171126614Y-121982200D01*
X171126614Y-126222200D01*
X168886614Y-126222200D01*
X168886614Y-121982200D01*
%TO.C,D65*%
X150956614Y-126872200D02*
X150956614Y-126222200D01*
X152076614Y-125622200D02*
X149836614Y-125622200D01*
X152076614Y-125502200D02*
X149836614Y-125502200D01*
X152076614Y-125382200D02*
X149836614Y-125382200D01*
X150956614Y-121332200D02*
X150956614Y-121982200D01*
X149836614Y-121982200D02*
X152076614Y-121982200D01*
X152076614Y-126222200D01*
X149836614Y-126222200D01*
X149836614Y-121982200D01*
%TO.C,D64*%
X131906614Y-126872200D02*
X131906614Y-126222200D01*
X133026614Y-125622200D02*
X130786614Y-125622200D01*
X133026614Y-125502200D02*
X130786614Y-125502200D01*
X133026614Y-125382200D02*
X130786614Y-125382200D01*
X131906614Y-121332200D02*
X131906614Y-121982200D01*
X130786614Y-121982200D02*
X133026614Y-121982200D01*
X133026614Y-126222200D01*
X130786614Y-126222200D01*
X130786614Y-121982200D01*
%TO.C,D63*%
X112856614Y-126872200D02*
X112856614Y-126222200D01*
X113976614Y-125622200D02*
X111736614Y-125622200D01*
X113976614Y-125502200D02*
X111736614Y-125502200D01*
X113976614Y-125382200D02*
X111736614Y-125382200D01*
X112856614Y-121332200D02*
X112856614Y-121982200D01*
X111736614Y-121982200D02*
X113976614Y-121982200D01*
X113976614Y-126222200D01*
X111736614Y-126222200D01*
X111736614Y-121982200D01*
%TO.C,D62*%
X93806614Y-126872200D02*
X93806614Y-126222200D01*
X94926614Y-125622200D02*
X92686614Y-125622200D01*
X94926614Y-125502200D02*
X92686614Y-125502200D01*
X94926614Y-125382200D02*
X92686614Y-125382200D01*
X93806614Y-121332200D02*
X93806614Y-121982200D01*
X92686614Y-121982200D02*
X94926614Y-121982200D01*
X94926614Y-126222200D01*
X92686614Y-126222200D01*
X92686614Y-121982200D01*
%TO.C,D61*%
X62850364Y-126872200D02*
X62850364Y-126222200D01*
X63970364Y-125622200D02*
X61730364Y-125622200D01*
X63970364Y-125502200D02*
X61730364Y-125502200D01*
X63970364Y-125382200D02*
X61730364Y-125382200D01*
X62850364Y-121332200D02*
X62850364Y-121982200D01*
X61730364Y-121982200D02*
X63970364Y-121982200D01*
X63970364Y-126222200D01*
X61730364Y-126222200D01*
X61730364Y-121982200D01*
%TO.C,D60*%
X336694114Y-107822200D02*
X336694114Y-107172200D01*
X337814114Y-106572200D02*
X335574114Y-106572200D01*
X337814114Y-106452200D02*
X335574114Y-106452200D01*
X337814114Y-106332200D02*
X335574114Y-106332200D01*
X336694114Y-102282200D02*
X336694114Y-102932200D01*
X335574114Y-102932200D02*
X337814114Y-102932200D01*
X337814114Y-107172200D01*
X335574114Y-107172200D01*
X335574114Y-102932200D01*
%TO.C,D59*%
X305737864Y-107822200D02*
X305737864Y-107172200D01*
X306857864Y-106572200D02*
X304617864Y-106572200D01*
X306857864Y-106452200D02*
X304617864Y-106452200D01*
X306857864Y-106332200D02*
X304617864Y-106332200D01*
X305737864Y-102282200D02*
X305737864Y-102932200D01*
X304617864Y-102932200D02*
X306857864Y-102932200D01*
X306857864Y-107172200D01*
X304617864Y-107172200D01*
X304617864Y-102932200D01*
%TO.C,D58*%
X274781614Y-107822200D02*
X274781614Y-107172200D01*
X275901614Y-106572200D02*
X273661614Y-106572200D01*
X275901614Y-106452200D02*
X273661614Y-106452200D01*
X275901614Y-106332200D02*
X273661614Y-106332200D01*
X274781614Y-102282200D02*
X274781614Y-102932200D01*
X273661614Y-102932200D02*
X275901614Y-102932200D01*
X275901614Y-107172200D01*
X273661614Y-107172200D01*
X273661614Y-102932200D01*
%TO.C,D57*%
X255731614Y-107822200D02*
X255731614Y-107172200D01*
X256851614Y-106572200D02*
X254611614Y-106572200D01*
X256851614Y-106452200D02*
X254611614Y-106452200D01*
X256851614Y-106332200D02*
X254611614Y-106332200D01*
X255731614Y-102282200D02*
X255731614Y-102932200D01*
X254611614Y-102932200D02*
X256851614Y-102932200D01*
X256851614Y-107172200D01*
X254611614Y-107172200D01*
X254611614Y-102932200D01*
%TO.C,D24*%
X184294114Y-69722200D02*
X184294114Y-69072200D01*
X185414114Y-68472200D02*
X183174114Y-68472200D01*
X185414114Y-68352200D02*
X183174114Y-68352200D01*
X185414114Y-68232200D02*
X183174114Y-68232200D01*
X184294114Y-64182200D02*
X184294114Y-64832200D01*
X183174114Y-64832200D02*
X185414114Y-64832200D01*
X185414114Y-69072200D01*
X183174114Y-69072200D01*
X183174114Y-64832200D01*
%TO.C,D23*%
X165244114Y-69722200D02*
X165244114Y-69072200D01*
X166364114Y-68472200D02*
X164124114Y-68472200D01*
X166364114Y-68352200D02*
X164124114Y-68352200D01*
X166364114Y-68232200D02*
X164124114Y-68232200D01*
X165244114Y-64182200D02*
X165244114Y-64832200D01*
X164124114Y-64832200D02*
X166364114Y-64832200D01*
X166364114Y-69072200D01*
X164124114Y-69072200D01*
X164124114Y-64832200D01*
%TO.C,D22*%
X146194114Y-69722200D02*
X146194114Y-69072200D01*
X147314114Y-68472200D02*
X145074114Y-68472200D01*
X147314114Y-68352200D02*
X145074114Y-68352200D01*
X147314114Y-68232200D02*
X145074114Y-68232200D01*
X146194114Y-64182200D02*
X146194114Y-64832200D01*
X145074114Y-64832200D02*
X147314114Y-64832200D01*
X147314114Y-69072200D01*
X145074114Y-69072200D01*
X145074114Y-64832200D01*
%TO.C,D21*%
X127144114Y-69722200D02*
X127144114Y-69072200D01*
X128264114Y-68472200D02*
X126024114Y-68472200D01*
X128264114Y-68352200D02*
X126024114Y-68352200D01*
X128264114Y-68232200D02*
X126024114Y-68232200D01*
X127144114Y-64182200D02*
X127144114Y-64832200D01*
X126024114Y-64832200D02*
X128264114Y-64832200D01*
X128264114Y-69072200D01*
X126024114Y-69072200D01*
X126024114Y-64832200D01*
%TO.C,D20*%
X108094114Y-69722200D02*
X108094114Y-69072200D01*
X109214114Y-68472200D02*
X106974114Y-68472200D01*
X109214114Y-68352200D02*
X106974114Y-68352200D01*
X109214114Y-68232200D02*
X106974114Y-68232200D01*
X108094114Y-64182200D02*
X108094114Y-64832200D01*
X106974114Y-64832200D02*
X109214114Y-64832200D01*
X109214114Y-69072200D01*
X106974114Y-69072200D01*
X106974114Y-64832200D01*
%TO.C,D19*%
X89044114Y-69722200D02*
X89044114Y-69072200D01*
X90164114Y-68472200D02*
X87924114Y-68472200D01*
X90164114Y-68352200D02*
X87924114Y-68352200D01*
X90164114Y-68232200D02*
X87924114Y-68232200D01*
X89044114Y-64182200D02*
X89044114Y-64832200D01*
X87924114Y-64832200D02*
X90164114Y-64832200D01*
X90164114Y-69072200D01*
X87924114Y-69072200D01*
X87924114Y-64832200D01*
%TO.C,D14*%
X298594114Y-50672200D02*
X298594114Y-50022200D01*
X299714114Y-49422200D02*
X297474114Y-49422200D01*
X299714114Y-49302200D02*
X297474114Y-49302200D01*
X299714114Y-49182200D02*
X297474114Y-49182200D01*
X298594114Y-45132200D02*
X298594114Y-45782200D01*
X297474114Y-45782200D02*
X299714114Y-45782200D01*
X299714114Y-50022200D01*
X297474114Y-50022200D01*
X297474114Y-45782200D01*
%TO.C,D13*%
X279544114Y-50672200D02*
X279544114Y-50022200D01*
X280664114Y-49422200D02*
X278424114Y-49422200D01*
X280664114Y-49302200D02*
X278424114Y-49302200D01*
X280664114Y-49182200D02*
X278424114Y-49182200D01*
X279544114Y-45132200D02*
X279544114Y-45782200D01*
X278424114Y-45782200D02*
X280664114Y-45782200D01*
X280664114Y-50022200D01*
X278424114Y-50022200D01*
X278424114Y-45782200D01*
%TO.C,D12*%
X260494114Y-50672200D02*
X260494114Y-50022200D01*
X261614114Y-49422200D02*
X259374114Y-49422200D01*
X261614114Y-49302200D02*
X259374114Y-49302200D01*
X261614114Y-49182200D02*
X259374114Y-49182200D01*
X260494114Y-45132200D02*
X260494114Y-45782200D01*
X259374114Y-45782200D02*
X261614114Y-45782200D01*
X261614114Y-50022200D01*
X259374114Y-50022200D01*
X259374114Y-45782200D01*
%TO.C,D11*%
X241444114Y-50672200D02*
X241444114Y-50022200D01*
X242564114Y-49422200D02*
X240324114Y-49422200D01*
X242564114Y-49302200D02*
X240324114Y-49302200D01*
X242564114Y-49182200D02*
X240324114Y-49182200D01*
X241444114Y-45132200D02*
X241444114Y-45782200D01*
X240324114Y-45782200D02*
X242564114Y-45782200D01*
X242564114Y-50022200D01*
X240324114Y-50022200D01*
X240324114Y-45782200D01*
%TO.C,D10*%
X222394114Y-50672200D02*
X222394114Y-50022200D01*
X223514114Y-49422200D02*
X221274114Y-49422200D01*
X223514114Y-49302200D02*
X221274114Y-49302200D01*
X223514114Y-49182200D02*
X221274114Y-49182200D01*
X222394114Y-45132200D02*
X222394114Y-45782200D01*
X221274114Y-45782200D02*
X223514114Y-45782200D01*
X223514114Y-50022200D01*
X221274114Y-50022200D01*
X221274114Y-45782200D01*
%TO.C,D41*%
X231919114Y-88772200D02*
X231919114Y-88122200D01*
X233039114Y-87522200D02*
X230799114Y-87522200D01*
X233039114Y-87402200D02*
X230799114Y-87402200D01*
X233039114Y-87282200D02*
X230799114Y-87282200D01*
X231919114Y-83232200D02*
X231919114Y-83882200D01*
X230799114Y-83882200D02*
X233039114Y-83882200D01*
X233039114Y-88122200D01*
X230799114Y-88122200D01*
X230799114Y-83882200D01*
%TO.C,D40*%
X212869114Y-88772200D02*
X212869114Y-88122200D01*
X213989114Y-87522200D02*
X211749114Y-87522200D01*
X213989114Y-87402200D02*
X211749114Y-87402200D01*
X213989114Y-87282200D02*
X211749114Y-87282200D01*
X212869114Y-83232200D02*
X212869114Y-83882200D01*
X211749114Y-83882200D02*
X213989114Y-83882200D01*
X213989114Y-88122200D01*
X211749114Y-88122200D01*
X211749114Y-83882200D01*
%TO.C,D84*%
X336694114Y-145922200D02*
X336694114Y-145272200D01*
X337814114Y-144672200D02*
X335574114Y-144672200D01*
X337814114Y-144552200D02*
X335574114Y-144552200D01*
X337814114Y-144432200D02*
X335574114Y-144432200D01*
X336694114Y-140382200D02*
X336694114Y-141032200D01*
X335574114Y-141032200D02*
X337814114Y-141032200D01*
X337814114Y-145272200D01*
X335574114Y-145272200D01*
X335574114Y-141032200D01*
%TO.C,D83*%
X317644114Y-145922200D02*
X317644114Y-145272200D01*
X318764114Y-144672200D02*
X316524114Y-144672200D01*
X318764114Y-144552200D02*
X316524114Y-144552200D01*
X318764114Y-144432200D02*
X316524114Y-144432200D01*
X317644114Y-140382200D02*
X317644114Y-141032200D01*
X316524114Y-141032200D02*
X318764114Y-141032200D01*
X318764114Y-145272200D01*
X316524114Y-145272200D01*
X316524114Y-141032200D01*
%TO.C,D39*%
X193819114Y-88772200D02*
X193819114Y-88122200D01*
X194939114Y-87522200D02*
X192699114Y-87522200D01*
X194939114Y-87402200D02*
X192699114Y-87402200D01*
X194939114Y-87282200D02*
X192699114Y-87282200D01*
X193819114Y-83232200D02*
X193819114Y-83882200D01*
X192699114Y-83882200D02*
X194939114Y-83882200D01*
X194939114Y-88122200D01*
X192699114Y-88122200D01*
X192699114Y-83882200D01*
%TO.C,D38*%
X174769114Y-88772200D02*
X174769114Y-88122200D01*
X175889114Y-87522200D02*
X173649114Y-87522200D01*
X175889114Y-87402200D02*
X173649114Y-87402200D01*
X175889114Y-87282200D02*
X173649114Y-87282200D01*
X174769114Y-83232200D02*
X174769114Y-83882200D01*
X173649114Y-83882200D02*
X175889114Y-83882200D01*
X175889114Y-88122200D01*
X173649114Y-88122200D01*
X173649114Y-83882200D01*
%TO.C,D37*%
X155719114Y-88772200D02*
X155719114Y-88122200D01*
X156839114Y-87522200D02*
X154599114Y-87522200D01*
X156839114Y-87402200D02*
X154599114Y-87402200D01*
X156839114Y-87282200D02*
X154599114Y-87282200D01*
X155719114Y-83232200D02*
X155719114Y-83882200D01*
X154599114Y-83882200D02*
X156839114Y-83882200D01*
X156839114Y-88122200D01*
X154599114Y-88122200D01*
X154599114Y-83882200D01*
%TO.C,D42*%
X250969114Y-88772200D02*
X250969114Y-88122200D01*
X252089114Y-87522200D02*
X249849114Y-87522200D01*
X252089114Y-87402200D02*
X249849114Y-87402200D01*
X252089114Y-87282200D02*
X249849114Y-87282200D01*
X250969114Y-83232200D02*
X250969114Y-83882200D01*
X249849114Y-83882200D02*
X252089114Y-83882200D01*
X252089114Y-88122200D01*
X249849114Y-88122200D01*
X249849114Y-83882200D01*
%TO.C,D9*%
X203344114Y-50672200D02*
X203344114Y-50022200D01*
X204464114Y-49422200D02*
X202224114Y-49422200D01*
X204464114Y-49302200D02*
X202224114Y-49302200D01*
X204464114Y-49182200D02*
X202224114Y-49182200D01*
X203344114Y-45132200D02*
X203344114Y-45782200D01*
X202224114Y-45782200D02*
X204464114Y-45782200D01*
X204464114Y-50022200D01*
X202224114Y-50022200D01*
X202224114Y-45782200D01*
%TO.C,D8*%
X184294114Y-50672200D02*
X184294114Y-50022200D01*
X185414114Y-49422200D02*
X183174114Y-49422200D01*
X185414114Y-49302200D02*
X183174114Y-49302200D01*
X185414114Y-49182200D02*
X183174114Y-49182200D01*
X184294114Y-45132200D02*
X184294114Y-45782200D01*
X183174114Y-45782200D02*
X185414114Y-45782200D01*
X185414114Y-50022200D01*
X183174114Y-50022200D01*
X183174114Y-45782200D01*
%TO.C,D7*%
X165244114Y-50672200D02*
X165244114Y-50022200D01*
X166364114Y-49422200D02*
X164124114Y-49422200D01*
X166364114Y-49302200D02*
X164124114Y-49302200D01*
X166364114Y-49182200D02*
X164124114Y-49182200D01*
X165244114Y-45132200D02*
X165244114Y-45782200D01*
X164124114Y-45782200D02*
X166364114Y-45782200D01*
X166364114Y-50022200D01*
X164124114Y-50022200D01*
X164124114Y-45782200D01*
%TO.C,D6*%
X146194114Y-50672200D02*
X146194114Y-50022200D01*
X147314114Y-49422200D02*
X145074114Y-49422200D01*
X147314114Y-49302200D02*
X145074114Y-49302200D01*
X147314114Y-49182200D02*
X145074114Y-49182200D01*
X146194114Y-45132200D02*
X146194114Y-45782200D01*
X145074114Y-45782200D02*
X147314114Y-45782200D01*
X147314114Y-50022200D01*
X145074114Y-50022200D01*
X145074114Y-45782200D01*
%TO.C,D5*%
X127144114Y-50672200D02*
X127144114Y-50022200D01*
X128264114Y-49422200D02*
X126024114Y-49422200D01*
X128264114Y-49302200D02*
X126024114Y-49302200D01*
X128264114Y-49182200D02*
X126024114Y-49182200D01*
X127144114Y-45132200D02*
X127144114Y-45782200D01*
X126024114Y-45782200D02*
X128264114Y-45782200D01*
X128264114Y-50022200D01*
X126024114Y-50022200D01*
X126024114Y-45782200D01*
%TO.C,D56*%
X236681614Y-107822200D02*
X236681614Y-107172200D01*
X237801614Y-106572200D02*
X235561614Y-106572200D01*
X237801614Y-106452200D02*
X235561614Y-106452200D01*
X237801614Y-106332200D02*
X235561614Y-106332200D01*
X236681614Y-102282200D02*
X236681614Y-102932200D01*
X235561614Y-102932200D02*
X237801614Y-102932200D01*
X237801614Y-107172200D01*
X235561614Y-107172200D01*
X235561614Y-102932200D01*
%TO.C,D55*%
X217631614Y-107822200D02*
X217631614Y-107172200D01*
X218751614Y-106572200D02*
X216511614Y-106572200D01*
X218751614Y-106452200D02*
X216511614Y-106452200D01*
X218751614Y-106332200D02*
X216511614Y-106332200D01*
X217631614Y-102282200D02*
X217631614Y-102932200D01*
X216511614Y-102932200D02*
X218751614Y-102932200D01*
X218751614Y-107172200D01*
X216511614Y-107172200D01*
X216511614Y-102932200D01*
%TO.C,D54*%
X198581614Y-107822200D02*
X198581614Y-107172200D01*
X199701614Y-106572200D02*
X197461614Y-106572200D01*
X199701614Y-106452200D02*
X197461614Y-106452200D01*
X199701614Y-106332200D02*
X197461614Y-106332200D01*
X198581614Y-102282200D02*
X198581614Y-102932200D01*
X197461614Y-102932200D02*
X199701614Y-102932200D01*
X199701614Y-107172200D01*
X197461614Y-107172200D01*
X197461614Y-102932200D01*
%TO.C,D53*%
X179531614Y-107822200D02*
X179531614Y-107172200D01*
X180651614Y-106572200D02*
X178411614Y-106572200D01*
X180651614Y-106452200D02*
X178411614Y-106452200D01*
X180651614Y-106332200D02*
X178411614Y-106332200D01*
X179531614Y-102282200D02*
X179531614Y-102932200D01*
X178411614Y-102932200D02*
X180651614Y-102932200D01*
X180651614Y-107172200D01*
X178411614Y-107172200D01*
X178411614Y-102932200D01*
%TO.C,D52*%
X160481614Y-107822200D02*
X160481614Y-107172200D01*
X161601614Y-106572200D02*
X159361614Y-106572200D01*
X161601614Y-106452200D02*
X159361614Y-106452200D01*
X161601614Y-106332200D02*
X159361614Y-106332200D01*
X160481614Y-102282200D02*
X160481614Y-102932200D01*
X159361614Y-102932200D02*
X161601614Y-102932200D01*
X161601614Y-107172200D01*
X159361614Y-107172200D01*
X159361614Y-102932200D01*
%TO.C,D51*%
X141431614Y-107822200D02*
X141431614Y-107172200D01*
X142551614Y-106572200D02*
X140311614Y-106572200D01*
X142551614Y-106452200D02*
X140311614Y-106452200D01*
X142551614Y-106332200D02*
X140311614Y-106332200D01*
X141431614Y-102282200D02*
X141431614Y-102932200D01*
X140311614Y-102932200D02*
X142551614Y-102932200D01*
X142551614Y-107172200D01*
X140311614Y-107172200D01*
X140311614Y-102932200D01*
%TO.C,D50*%
X122381614Y-107822200D02*
X122381614Y-107172200D01*
X123501614Y-106572200D02*
X121261614Y-106572200D01*
X123501614Y-106452200D02*
X121261614Y-106452200D01*
X123501614Y-106332200D02*
X121261614Y-106332200D01*
X122381614Y-102282200D02*
X122381614Y-102932200D01*
X121261614Y-102932200D02*
X123501614Y-102932200D01*
X123501614Y-107172200D01*
X121261614Y-107172200D01*
X121261614Y-102932200D01*
%TO.C,D49*%
X103331614Y-107822200D02*
X103331614Y-107172200D01*
X104451614Y-106572200D02*
X102211614Y-106572200D01*
X104451614Y-106452200D02*
X102211614Y-106452200D01*
X104451614Y-106332200D02*
X102211614Y-106332200D01*
X103331614Y-102282200D02*
X103331614Y-102932200D01*
X102211614Y-102932200D02*
X104451614Y-102932200D01*
X104451614Y-107172200D01*
X102211614Y-107172200D01*
X102211614Y-102932200D01*
%TO.C,D48*%
X84281614Y-107822200D02*
X84281614Y-107172200D01*
X85401614Y-106572200D02*
X83161614Y-106572200D01*
X85401614Y-106452200D02*
X83161614Y-106452200D01*
X85401614Y-106332200D02*
X83161614Y-106332200D01*
X84281614Y-102282200D02*
X84281614Y-102932200D01*
X83161614Y-102932200D02*
X85401614Y-102932200D01*
X85401614Y-107172200D01*
X83161614Y-107172200D01*
X83161614Y-102932200D01*
%TO.C,D47*%
X58087864Y-107822200D02*
X58087864Y-107172200D01*
X59207864Y-106572200D02*
X56967864Y-106572200D01*
X59207864Y-106452200D02*
X56967864Y-106452200D01*
X59207864Y-106332200D02*
X56967864Y-106332200D01*
X58087864Y-102282200D02*
X58087864Y-102932200D01*
X56967864Y-102932200D02*
X59207864Y-102932200D01*
X59207864Y-107172200D01*
X56967864Y-107172200D01*
X56967864Y-102932200D01*
%TO.C,D46*%
X336694114Y-88772200D02*
X336694114Y-88122200D01*
X337814114Y-87522200D02*
X335574114Y-87522200D01*
X337814114Y-87402200D02*
X335574114Y-87402200D01*
X337814114Y-87282200D02*
X335574114Y-87282200D01*
X336694114Y-83232200D02*
X336694114Y-83882200D01*
X335574114Y-83882200D02*
X337814114Y-83882200D01*
X337814114Y-88122200D01*
X335574114Y-88122200D01*
X335574114Y-83882200D01*
%TO.C,D45*%
X312881614Y-88772200D02*
X312881614Y-88122200D01*
X314001614Y-87522200D02*
X311761614Y-87522200D01*
X314001614Y-87402200D02*
X311761614Y-87402200D01*
X314001614Y-87282200D02*
X311761614Y-87282200D01*
X312881614Y-83232200D02*
X312881614Y-83882200D01*
X311761614Y-83882200D02*
X314001614Y-83882200D01*
X314001614Y-88122200D01*
X311761614Y-88122200D01*
X311761614Y-83882200D01*
%TO.C,D44*%
X289069114Y-88772200D02*
X289069114Y-88122200D01*
X290189114Y-87522200D02*
X287949114Y-87522200D01*
X290189114Y-87402200D02*
X287949114Y-87402200D01*
X290189114Y-87282200D02*
X287949114Y-87282200D01*
X289069114Y-83232200D02*
X289069114Y-83882200D01*
X287949114Y-83882200D02*
X290189114Y-83882200D01*
X290189114Y-88122200D01*
X287949114Y-88122200D01*
X287949114Y-83882200D01*
%TO.C,D43*%
X270019114Y-88772200D02*
X270019114Y-88122200D01*
X271139114Y-87522200D02*
X268899114Y-87522200D01*
X271139114Y-87402200D02*
X268899114Y-87402200D01*
X271139114Y-87282200D02*
X268899114Y-87282200D01*
X270019114Y-83232200D02*
X270019114Y-83882200D01*
X268899114Y-83882200D02*
X271139114Y-83882200D01*
X271139114Y-88122200D01*
X268899114Y-88122200D01*
X268899114Y-83882200D01*
%TO.C,D18*%
X69994114Y-69722200D02*
X69994114Y-69072200D01*
X71114114Y-68472200D02*
X68874114Y-68472200D01*
X71114114Y-68352200D02*
X68874114Y-68352200D01*
X71114114Y-68232200D02*
X68874114Y-68232200D01*
X69994114Y-64182200D02*
X69994114Y-64832200D01*
X68874114Y-64832200D02*
X71114114Y-64832200D01*
X71114114Y-69072200D01*
X68874114Y-69072200D01*
X68874114Y-64832200D01*
%TO.C,D17*%
X50944114Y-69722200D02*
X50944114Y-69072200D01*
X52064114Y-68472200D02*
X49824114Y-68472200D01*
X52064114Y-68352200D02*
X49824114Y-68352200D01*
X52064114Y-68232200D02*
X49824114Y-68232200D01*
X50944114Y-64182200D02*
X50944114Y-64832200D01*
X49824114Y-64832200D02*
X52064114Y-64832200D01*
X52064114Y-69072200D01*
X49824114Y-69072200D01*
X49824114Y-64832200D01*
%TO.C,D16*%
X336694114Y-50672200D02*
X336694114Y-50022200D01*
X337814114Y-49422200D02*
X335574114Y-49422200D01*
X337814114Y-49302200D02*
X335574114Y-49302200D01*
X337814114Y-49182200D02*
X335574114Y-49182200D01*
X336694114Y-45132200D02*
X336694114Y-45782200D01*
X335574114Y-45782200D02*
X337814114Y-45782200D01*
X337814114Y-50022200D01*
X335574114Y-50022200D01*
X335574114Y-45782200D01*
%TO.C,D15*%
X317644114Y-50672200D02*
X317644114Y-50022200D01*
X318764114Y-49422200D02*
X316524114Y-49422200D01*
X318764114Y-49302200D02*
X316524114Y-49302200D01*
X318764114Y-49182200D02*
X316524114Y-49182200D01*
X317644114Y-45132200D02*
X317644114Y-45782200D01*
X316524114Y-45782200D02*
X318764114Y-45782200D01*
X318764114Y-50022200D01*
X316524114Y-50022200D01*
X316524114Y-45782200D01*
%TO.C,D4*%
X108094114Y-50672200D02*
X108094114Y-50022200D01*
X109214114Y-49422200D02*
X106974114Y-49422200D01*
X109214114Y-49302200D02*
X106974114Y-49302200D01*
X109214114Y-49182200D02*
X106974114Y-49182200D01*
X108094114Y-45132200D02*
X108094114Y-45782200D01*
X106974114Y-45782200D02*
X109214114Y-45782200D01*
X109214114Y-50022200D01*
X106974114Y-50022200D01*
X106974114Y-45782200D01*
%TO.C,D3*%
X89044114Y-50672200D02*
X89044114Y-50022200D01*
X90164114Y-49422200D02*
X87924114Y-49422200D01*
X90164114Y-49302200D02*
X87924114Y-49302200D01*
X90164114Y-49182200D02*
X87924114Y-49182200D01*
X89044114Y-45132200D02*
X89044114Y-45782200D01*
X87924114Y-45782200D02*
X90164114Y-45782200D01*
X90164114Y-50022200D01*
X87924114Y-50022200D01*
X87924114Y-45782200D01*
%TO.C,D2*%
X69994114Y-50672200D02*
X69994114Y-50022200D01*
X71114114Y-49422200D02*
X68874114Y-49422200D01*
X71114114Y-49302200D02*
X68874114Y-49302200D01*
X71114114Y-49182200D02*
X68874114Y-49182200D01*
X69994114Y-45132200D02*
X69994114Y-45782200D01*
X68874114Y-45782200D02*
X71114114Y-45782200D01*
X71114114Y-50022200D01*
X68874114Y-50022200D01*
X68874114Y-45782200D01*
%TO.C,D1*%
X50944114Y-50672200D02*
X50944114Y-50022200D01*
X52064114Y-49422200D02*
X49824114Y-49422200D01*
X52064114Y-49302200D02*
X49824114Y-49302200D01*
X52064114Y-49182200D02*
X49824114Y-49182200D01*
X50944114Y-45132200D02*
X50944114Y-45782200D01*
X49824114Y-45782200D02*
X52064114Y-45782200D01*
X52064114Y-50022200D01*
X49824114Y-50022200D01*
X49824114Y-45782200D01*
%TD*%
M02*
