M48
; DRILL file KiCad 10.0.6 date 2026-09-05T14:14:17
; FORMAT={-:-/ absolute / metric / decimal}
; #@! TF.CreationDate,2026-09-05T14:14:17-04:00
; #@! TF.GenerationSoftware,Kicad,Pcbnew,10.0.6
; #@! TF.FileFunction,Plated,1,2,PTH
FMAT,2
METRIC
; #@! TA.AperFunction,Plated,PTH,ViaDrill
T1C0.300
; #@! TA.AperFunction,Plated,PTH,ComponentDrill
T2C0.800
; #@! TA.AperFunction,Plated,PTH,ComponentDrill
T3C1.000
; #@! TA.AperFunction,Plated,PTH,ComponentDrill
T4C1.524
%
G90
G05
T1
X120.172Y-53.269
X139.221Y-54.063
X157.476Y-54.857
X176.525Y-55.65
X195.574Y-56.444
X214.622Y-57.238
X238.433Y-77.874
X257.482Y-78.668
X280.5Y-91.367
X298.755Y-115.972
X315.422Y-116.765
X328.915Y-53.269
X328.915Y-54.857
X328.915Y-56.444
X329.709Y-54.063
X329.709Y-57.238
X330.503Y-58.031
X335.265Y-75.493
X336.059Y-76.287
X339.233Y-91.367
X340.027Y-113.59
X340.627Y-114.384
X341.614Y-115.178
T2
X50.944Y-44.092
X50.944Y-51.712
X50.944Y-63.142
X50.944Y-70.762
X53.325Y-139.342
X53.325Y-146.962
X55.707Y-82.192
X55.707Y-89.812
X58.088Y-101.242
X58.088Y-108.862
X62.85Y-120.292
X62.85Y-127.912
X69.994Y-44.092
X69.994Y-51.712
X69.994Y-63.142
X69.994Y-70.762
X77.138Y-139.342
X77.138Y-146.962
X79.519Y-82.192
X79.519Y-89.812
X84.282Y-101.242
X84.282Y-108.862
X89.044Y-44.092
X89.044Y-51.712
X89.044Y-63.142
X89.044Y-70.762
X93.807Y-120.292
X93.807Y-127.912
X98.569Y-82.192
X98.569Y-89.812
X100.95Y-139.342
X100.95Y-146.962
X103.332Y-101.242
X103.332Y-108.862
X108.094Y-44.092
X108.094Y-51.712
X108.094Y-63.142
X108.094Y-70.762
X112.857Y-120.292
X112.857Y-127.912
X117.619Y-82.192
X117.619Y-89.812
X122.382Y-101.242
X122.382Y-108.862
X127.144Y-44.092
X127.144Y-51.712
X127.144Y-63.142
X127.144Y-70.762
X131.907Y-120.292
X131.907Y-127.912
X136.669Y-82.192
X136.669Y-89.812
X141.432Y-101.242
X141.432Y-108.862
X146.194Y-44.092
X146.194Y-51.712
X146.194Y-63.142
X146.194Y-70.762
X150.957Y-120.292
X150.957Y-127.912
X155.719Y-82.192
X155.719Y-89.812
X160.482Y-101.242
X160.482Y-108.862
X165.244Y-44.092
X165.244Y-51.712
X165.244Y-63.142
X165.244Y-70.762
X165.244Y-139.342
X165.244Y-146.962
X170.007Y-120.292
X170.007Y-127.912
X174.769Y-82.192
X174.769Y-89.812
X179.532Y-101.242
X179.532Y-108.862
X184.294Y-44.092
X184.294Y-51.712
X184.294Y-63.142
X184.294Y-70.762
X189.057Y-120.292
X189.057Y-127.912
X193.819Y-82.192
X193.819Y-89.812
X198.582Y-101.242
X198.582Y-108.862
X203.344Y-44.092
X203.344Y-51.712
X203.344Y-63.142
X203.344Y-70.762
X208.107Y-120.292
X208.107Y-127.912
X212.869Y-82.192
X212.869Y-89.812
X217.632Y-101.242
X217.632Y-108.862
X222.394Y-44.092
X222.394Y-51.712
X222.394Y-63.142
X222.394Y-70.762
X227.157Y-120.292
X227.157Y-127.912
X227.157Y-139.342
X227.157Y-146.962
X231.919Y-82.192
X231.919Y-89.812
X236.682Y-101.242
X236.682Y-108.862
X241.444Y-44.092
X241.444Y-51.712
X241.444Y-63.142
X241.444Y-70.762
X246.207Y-120.292
X246.207Y-127.912
X246.207Y-139.342
X246.207Y-146.962
X250.969Y-82.192
X250.969Y-89.812
X255.732Y-101.242
X255.732Y-108.862
X260.494Y-44.092
X260.494Y-51.712
X260.494Y-63.142
X260.494Y-70.762
X265.257Y-120.292
X265.257Y-127.912
X265.257Y-139.342
X265.257Y-146.962
X270.019Y-82.192
X270.019Y-89.812
X274.782Y-101.242
X274.782Y-108.862
X279.544Y-44.092
X279.544Y-51.712
X279.544Y-63.142
X279.544Y-70.762
X289.069Y-82.192
X289.069Y-89.812
X298.594Y-44.092
X298.594Y-51.712
X298.594Y-120.292
X298.594Y-127.912
X298.594Y-139.342
X298.594Y-146.962
X305.738Y-101.242
X305.738Y-108.862
X308.119Y-63.142
X308.119Y-70.762
X312.882Y-82.192
X312.882Y-89.812
X317.644Y-44.092
X317.644Y-51.712
X317.644Y-120.292
X317.644Y-127.912
X317.644Y-139.342
X317.644Y-146.962
X336.694Y-44.092
X336.694Y-51.712
X336.694Y-63.142
X336.694Y-70.762
X336.694Y-82.192
X336.694Y-89.812
X336.694Y-101.242
X336.694Y-108.862
X336.694Y-120.292
X336.694Y-127.912
X336.694Y-139.342
X336.694Y-146.962
T3
X343.836Y-39.452
X343.836Y-41.992
X343.836Y-44.532
X343.836Y-47.072
X343.836Y-49.612
X343.836Y-52.152
X343.836Y-54.692
X343.836Y-57.232
X343.836Y-59.772
X343.836Y-62.312
X343.836Y-64.852
X343.836Y-67.392
X343.836Y-69.932
X343.836Y-72.472
X343.836Y-75.012
X343.836Y-77.552
X343.836Y-80.092
X343.836Y-82.632
X343.836Y-85.172
X343.836Y-87.712
X361.616Y-39.452
X361.616Y-41.992
X361.616Y-44.532
X361.616Y-47.072
X361.616Y-49.612
X361.616Y-52.152
X361.616Y-54.692
X361.616Y-57.232
X361.616Y-59.772
X361.616Y-62.312
X361.616Y-64.852
X361.616Y-67.392
X361.616Y-69.932
X361.616Y-72.472
X361.616Y-75.012
X361.616Y-77.552
X361.616Y-80.092
X361.616Y-82.632
X361.616Y-85.172
X361.616Y-87.712
T4
X42.054Y-45.172
X42.054Y-64.222
X44.435Y-140.422
X46.817Y-83.272
X48.404Y-42.632
X48.404Y-61.682
X49.198Y-102.322
X50.785Y-137.882
X53.167Y-80.732
X53.96Y-121.372
X55.548Y-99.782
X60.31Y-118.832
X61.104Y-45.172
X61.104Y-64.222
X67.454Y-42.632
X67.454Y-61.682
X68.248Y-140.422
X70.629Y-83.272
X74.598Y-137.882
X75.392Y-102.322
X76.979Y-80.732
X80.154Y-45.172
X80.154Y-64.222
X81.742Y-99.782
X84.917Y-121.372
X86.504Y-42.632
X86.504Y-61.682
X89.679Y-83.272
X91.267Y-118.832
X92.06Y-140.422
X94.442Y-102.322
X96.029Y-80.732
X98.41Y-137.882
X99.204Y-45.172
X99.204Y-64.222
X100.792Y-99.782
X103.967Y-121.372
X105.554Y-42.632
X105.554Y-61.682
X108.729Y-83.272
X110.317Y-118.832
X113.492Y-102.322
X115.079Y-80.732
X118.254Y-45.172
X118.254Y-64.222
X119.842Y-99.782
X123.017Y-121.372
X124.604Y-42.632
X124.604Y-61.682
X127.779Y-83.272
X129.367Y-118.832
X132.542Y-102.322
X134.129Y-80.732
X137.304Y-45.172
X137.304Y-64.222
X138.892Y-99.782
X142.067Y-121.372
X143.654Y-42.632
X143.654Y-61.682
X146.829Y-83.272
X148.417Y-118.832
X151.592Y-102.322
X153.179Y-80.732
X156.354Y-45.172
X156.354Y-64.222
X156.354Y-140.422
X157.942Y-99.782
X161.117Y-121.372
X162.704Y-42.632
X162.704Y-61.682
X162.704Y-137.882
X165.879Y-83.272
X167.467Y-118.832
X170.642Y-102.322
X172.229Y-80.732
X175.404Y-45.172
X175.404Y-64.222
X176.992Y-99.782
X180.167Y-121.372
X181.754Y-42.632
X181.754Y-61.682
X184.929Y-83.272
X186.517Y-118.832
X189.692Y-102.322
X191.279Y-80.732
X194.454Y-45.172
X194.454Y-64.222
X196.042Y-99.782
X199.217Y-121.372
X200.804Y-42.632
X200.804Y-61.682
X203.979Y-83.272
X205.567Y-118.832
X208.742Y-102.322
X210.329Y-80.732
X213.504Y-45.172
X213.504Y-64.222
X215.092Y-99.782
X218.267Y-121.372
X218.267Y-140.422
X219.854Y-42.632
X219.854Y-61.682
X223.029Y-83.272
X224.617Y-118.832
X224.617Y-137.882
X227.792Y-102.322
X229.379Y-80.732
X232.554Y-45.172
X232.554Y-64.222
X234.142Y-99.782
X237.317Y-121.372
X237.317Y-140.422
X238.904Y-42.632
X238.904Y-61.682
X242.079Y-83.272
X243.667Y-118.832
X243.667Y-137.882
X246.842Y-102.322
X248.429Y-80.732
X251.604Y-45.172
X251.604Y-64.222
X253.192Y-99.782
X256.367Y-121.372
X256.367Y-140.422
X257.954Y-42.632
X257.954Y-61.682
X261.129Y-83.272
X262.717Y-118.832
X262.717Y-137.882
X265.892Y-102.322
X267.479Y-80.732
X270.654Y-45.172
X270.654Y-64.222
X272.242Y-99.782
X277.004Y-42.632
X277.004Y-61.682
X280.179Y-83.272
X286.529Y-80.732
X289.704Y-45.172
X289.704Y-121.372
X289.704Y-140.422
X296.054Y-42.632
X296.054Y-118.832
X296.054Y-137.882
X296.848Y-102.322
X299.229Y-64.222
X303.198Y-99.782
X303.992Y-83.272
X305.579Y-61.682
X308.754Y-45.172
X308.754Y-121.372
X308.754Y-140.422
X310.342Y-80.732
X315.104Y-42.632
X315.104Y-118.832
X315.104Y-137.882
X327.804Y-45.172
X327.804Y-64.222
X327.804Y-83.272
X327.804Y-102.322
X327.804Y-121.372
X327.804Y-140.422
X334.154Y-42.632
X334.154Y-61.682
X334.154Y-80.732
X334.154Y-99.782
X334.154Y-118.832
X334.154Y-137.882
M30
