%TF.GenerationSoftware,KiCad,Pcbnew,10.0.6*%
%TF.CreationDate,2026-09-05T14:14:12-04:00*%
%TF.ProjectId,test,74657374-2e6b-4696-9361-645f70636258,rev?*%
%TF.SameCoordinates,Original*%
%TF.FileFunction,Legend,Top*%
%TF.FilePolarity,Positive*%
%FSLAX46Y46*%
G04 Gerber Fmt 4.6, Leading zero omitted, Abs format (unit mm)*
G04 Created by KiCad (PCBNEW 10.0.6) date 2026-09-05 14:14:12*
%MOMM*%
%LPD*%
G01*
G04 APERTURE LIST*
%ADD10C,0.120000*%
G04 APERTURE END LIST*
%TO.C,A1*%
D10*
X341796214Y-40251800D02*
X341796214Y-38651800D01*
X342116214Y-38581800D02*
X342116214Y-88581800D01*
X342456214Y-38034800D02*
X342456214Y-89128800D01*
X342726214Y-37971800D02*
X345216214Y-37971800D01*
X342726214Y-89191800D02*
X346564153Y-89191800D01*
X345216214Y-37971800D02*
X345216214Y-38885320D01*
X345216214Y-37971800D02*
X346564154Y-37971800D01*
X345216214Y-41278280D02*
X345216214Y-85885320D01*
X345216214Y-88278280D02*
X345216214Y-89191800D01*
X347488275Y-37971800D02*
X348491214Y-37971800D01*
X348491214Y-37971800D02*
X356961214Y-37971800D01*
X348616214Y-36671800D02*
X348616214Y-37491800D01*
X348616214Y-36671800D02*
X356836214Y-36671800D01*
X348616214Y-37491800D02*
X348826214Y-37491800D01*
X348826214Y-37491800D02*
X348826214Y-38887800D01*
X348826214Y-41275800D02*
X348826214Y-42491800D01*
X349126214Y-89191800D02*
X347488275Y-89191800D01*
X356326214Y-89191800D02*
X349126214Y-89191800D01*
X356626214Y-37491800D02*
X356626214Y-38887800D01*
X356626214Y-41275800D02*
X356626214Y-42491800D01*
X356626214Y-42491800D02*
X348826214Y-42491800D01*
X356836214Y-36671800D02*
X356836214Y-37491800D01*
X356836214Y-37491800D02*
X356626214Y-37491800D01*
X356961214Y-37971800D02*
X357964153Y-37971800D01*
X357964153Y-89191800D02*
X356326214Y-89191800D01*
X358888275Y-37971800D02*
X360236214Y-37971800D01*
X358888275Y-89191800D02*
X362726214Y-89191800D01*
X360236214Y-37971800D02*
X360236214Y-38885320D01*
X360236214Y-41278280D02*
X360236214Y-85885320D01*
X360236214Y-88278280D02*
X360236214Y-89191800D01*
X362726214Y-37971800D02*
X360236214Y-37971800D01*
X362996214Y-89128800D02*
X362996214Y-38034800D01*
X363336214Y-38581800D02*
X363336214Y-88581800D01*
X342116214Y-38581800D02*
G75*
G02*
X342726214Y-37971800I610000J0D01*
G01*
X342726214Y-89191800D02*
G75*
G02*
X342116214Y-88581800I-99J609901D01*
G01*
X362726214Y-37971800D02*
G75*
G02*
X363336214Y-38581800I0J-610000D01*
G01*
X363336214Y-88581800D02*
G75*
G02*
X362726214Y-89191800I-610000J0D01*
G01*
%TD*%
M02*
