%TF.GenerationSoftware,KiCad,Pcbnew,10.0.6*%
%TF.CreationDate,2026-09-25T15:23:43-04:00*%
%TF.ProjectId,keyboard-full,6b657962-6f61-4726-942d-66756c6c2e6b,rev?*%
%TF.SameCoordinates,Original*%
%TF.FileFunction,Soldermask,Top*%
%TF.FilePolarity,Negative*%
%FSLAX46Y46*%
G04 Gerber Fmt 4.6, Leading zero omitted, Abs format (unit mm)*
G04 Created by KiCad (PCBNEW 10.0.6) date 2026-09-25 15:23:43*
%MOMM*%
%LPD*%
G01*
G04 APERTURE LIST*
G04 Aperture macros list*
%AMRoundRect*
0 Rectangle with rounded corners*
0 $1 Rounding radius*
0 $2 $3 $4 $5 $6 $7 $8 $9 X,Y pos of 4 corners*
0 Add a 4 corners polygon primitive as box body*
4,1,4,$2,$3,$4,$5,$6,$7,$8,$9,$2,$3,0*
0 Add four circle primitives for the rounded corners*
1,1,$1+$1,$2,$3*
1,1,$1+$1,$4,$5*
1,1,$1+$1,$6,$7*
1,1,$1+$1,$8,$9*
0 Add four rect primitives between the rounded corners*
20,1,$1+$1,$2,$3,$4,$5,0*
20,1,$1+$1,$4,$5,$6,$7,0*
20,1,$1+$1,$6,$7,$8,$9,0*
20,1,$1+$1,$8,$9,$2,$3,0*%
%AMFreePoly0*
4,1,37,0.603843,0.796157,0.639018,0.796157,0.711114,0.766294,0.766294,0.711114,0.796157,0.639018,0.796157,0.603843,0.800000,0.600000,0.800000,-0.600000,0.796157,-0.603843,0.796157,-0.639018,0.766294,-0.711114,0.711114,-0.766294,0.639018,-0.796157,0.603843,-0.796157,0.600000,-0.800000,0.000000,-0.800000,0.000000,-0.796148,-0.078414,-0.796148,-0.232228,-0.765552,-0.377117,-0.705537,
-0.507515,-0.618408,-0.618408,-0.507515,-0.705537,-0.377117,-0.765552,-0.232228,-0.796148,-0.078414,-0.796148,0.078414,-0.765552,0.232228,-0.705537,0.377117,-0.618408,0.507515,-0.507515,0.618408,-0.377117,0.705537,-0.232228,0.765552,-0.078414,0.796148,0.000000,0.796148,0.000000,0.800000,0.600000,0.800000,0.603843,0.796157,0.603843,0.796157,$1*%
%AMFreePoly1*
4,1,37,0.000000,0.796148,0.078414,0.796148,0.232228,0.765552,0.377117,0.705537,0.507515,0.618408,0.618408,0.507515,0.705537,0.377117,0.765552,0.232228,0.796148,0.078414,0.796148,-0.078414,0.765552,-0.232228,0.705537,-0.377117,0.618408,-0.507515,0.507515,-0.618408,0.377117,-0.705537,0.232228,-0.765552,0.078414,-0.796148,0.000000,-0.796148,0.000000,-0.800000,-0.600000,-0.800000,
-0.603843,-0.796157,-0.639018,-0.796157,-0.711114,-0.766294,-0.766294,-0.711114,-0.796157,-0.639018,-0.796157,-0.603843,-0.800000,-0.600000,-0.800000,0.600000,-0.796157,0.603843,-0.796157,0.639018,-0.766294,0.711114,-0.711114,0.766294,-0.639018,0.796157,-0.603843,0.796157,-0.600000,0.800000,0.000000,0.800000,0.000000,0.796148,0.000000,0.796148,$1*%
G04 Aperture macros list end*
%ADD10C,1.750000*%
%ADD11C,3.987800*%
%ADD12C,3.300000*%
%ADD13RoundRect,0.250000X-1.025000X-1.000000X1.025000X-1.000000X1.025000X1.000000X-1.025000X1.000000X0*%
%ADD14C,3.048000*%
%ADD15C,2.100000*%
%ADD16RoundRect,0.200000X-0.600000X-0.600000X0.600000X-0.600000X0.600000X0.600000X-0.600000X0.600000X0*%
%ADD17C,1.600000*%
%ADD18FreePoly0,0.000000*%
%ADD19FreePoly1,0.000000*%
%ADD20RoundRect,0.250000X0.550000X-0.550000X0.550000X0.550000X-0.550000X0.550000X-0.550000X-0.550000X0*%
G04 APERTURE END LIST*
D10*
%TO.C,MX69*%
X147320000Y-123825000D03*
D11*
X152400000Y-123825000D03*
D10*
X157480000Y-123825000D03*
D12*
X156210000Y-121285000D03*
D13*
X159760000Y-121285000D03*
X146310000Y-118745000D03*
D12*
X149860000Y-118745000D03*
%TD*%
D14*
%TO.C,S4*%
X280987500Y-97790000D03*
D11*
X280987500Y-113030000D03*
D14*
X304800000Y-97790000D03*
D11*
X304800000Y-113030000D03*
%TD*%
D10*
%TO.C,MX57*%
X161607500Y-104775000D03*
D11*
X166687500Y-104775000D03*
D10*
X171767500Y-104775000D03*
D12*
X170497500Y-102235000D03*
D13*
X174047500Y-102235000D03*
X160597500Y-99695000D03*
D12*
X164147500Y-99695000D03*
%TD*%
D10*
%TO.C,MX63*%
X287813750Y-104775000D03*
D11*
X292893750Y-104775000D03*
D10*
X297973750Y-104775000D03*
D12*
X296703750Y-102235000D03*
D13*
X300253750Y-102235000D03*
X286803750Y-99695000D03*
D12*
X290353750Y-99695000D03*
%TD*%
D10*
%TO.C,MX11*%
X261620000Y-38100000D03*
D11*
X266700000Y-38100000D03*
D10*
X271780000Y-38100000D03*
D12*
X270510000Y-35560000D03*
D13*
X274060000Y-35560000D03*
X260610000Y-33020000D03*
D12*
X264160000Y-33020000D03*
%TD*%
D14*
%TO.C,S3*%
X283368750Y-59690000D03*
D11*
X283368750Y-74930000D03*
D14*
X307181250Y-59690000D03*
D11*
X307181250Y-74930000D03*
%TD*%
D10*
%TO.C,MX1*%
X33020000Y-38100000D03*
D11*
X38100000Y-38100000D03*
D10*
X43180000Y-38100000D03*
D12*
X41910000Y-35560000D03*
D13*
X45460000Y-35560000D03*
X32010000Y-33020000D03*
D12*
X35560000Y-33020000D03*
%TD*%
D10*
%TO.C,MX49*%
X361632500Y-85725000D03*
D11*
X366712500Y-85725000D03*
D10*
X371792500Y-85725000D03*
D12*
X370522500Y-83185000D03*
D13*
X374072500Y-83185000D03*
X360622500Y-80645000D03*
D12*
X364172500Y-80645000D03*
%TD*%
D10*
%TO.C,MX65*%
X71120000Y-123825000D03*
D11*
X76200000Y-123825000D03*
D10*
X81280000Y-123825000D03*
D12*
X80010000Y-121285000D03*
D13*
X83560000Y-121285000D03*
X70110000Y-118745000D03*
D12*
X73660000Y-118745000D03*
%TD*%
D10*
%TO.C,MX82*%
X59213750Y-142875000D03*
D11*
X64293750Y-142875000D03*
D10*
X69373750Y-142875000D03*
D12*
X68103750Y-140335000D03*
D13*
X71653750Y-140335000D03*
X58203750Y-137795000D03*
D12*
X61753750Y-137795000D03*
%TD*%
D10*
%TO.C,MX91*%
X380682500Y-142875000D03*
D11*
X385762500Y-142875000D03*
D10*
X390842500Y-142875000D03*
D12*
X389572500Y-140335000D03*
D13*
X393122500Y-140335000D03*
X379672500Y-137795000D03*
D12*
X383222500Y-137795000D03*
%TD*%
D10*
%TO.C,MX89*%
X342582500Y-142875000D03*
D11*
X347662500Y-142875000D03*
D10*
X352742500Y-142875000D03*
D12*
X351472500Y-140335000D03*
D13*
X355022500Y-140335000D03*
X341572500Y-137795000D03*
D12*
X345122500Y-137795000D03*
%TD*%
D10*
%TO.C,MX31*%
X342582500Y-66675000D03*
D11*
X347662500Y-66675000D03*
D10*
X352742500Y-66675000D03*
D12*
X351472500Y-64135000D03*
D13*
X355022500Y-64135000D03*
X341572500Y-61595000D03*
D12*
X345122500Y-61595000D03*
%TD*%
D10*
%TO.C,MX39*%
X137795000Y-85725000D03*
D11*
X142875000Y-85725000D03*
D10*
X147955000Y-85725000D03*
D12*
X146685000Y-83185000D03*
D13*
X150235000Y-83185000D03*
X136785000Y-80645000D03*
D12*
X140335000Y-80645000D03*
%TD*%
D10*
%TO.C,MX15*%
X361632500Y-38100000D03*
D11*
X366712500Y-38100000D03*
D10*
X371792500Y-38100000D03*
D12*
X370522500Y-35560000D03*
D13*
X374072500Y-35560000D03*
X360622500Y-33020000D03*
D12*
X364172500Y-33020000D03*
%TD*%
D10*
%TO.C,MX79*%
X361632500Y-123825000D03*
D11*
X366712500Y-123825000D03*
D10*
X371792500Y-123825000D03*
D12*
X370522500Y-121285000D03*
D13*
X374072500Y-121285000D03*
X360622500Y-118745000D03*
D12*
X364172500Y-118745000D03*
%TD*%
D10*
%TO.C,MX38*%
X118745000Y-85725000D03*
D11*
X123825000Y-85725000D03*
D10*
X128905000Y-85725000D03*
D12*
X127635000Y-83185000D03*
D13*
X131185000Y-83185000D03*
X117735000Y-80645000D03*
D12*
X121285000Y-80645000D03*
%TD*%
D10*
%TO.C,MX54*%
X104457500Y-104775000D03*
D11*
X109537500Y-104775000D03*
D10*
X114617500Y-104775000D03*
D12*
X113347500Y-102235000D03*
D13*
X116897500Y-102235000D03*
X103447500Y-99695000D03*
D12*
X106997500Y-99695000D03*
%TD*%
D15*
%TO.C,H3*%
X234141500Y-35716500D03*
%TD*%
D10*
%TO.C,MX25*%
X185420000Y-66675000D03*
D11*
X190500000Y-66675000D03*
D10*
X195580000Y-66675000D03*
D12*
X194310000Y-64135000D03*
D13*
X197860000Y-64135000D03*
X184410000Y-61595000D03*
D12*
X187960000Y-61595000D03*
%TD*%
D15*
%TO.C,H2*%
X392881500Y-111118000D03*
%TD*%
D10*
%TO.C,MX51*%
X40163750Y-104775000D03*
D11*
X45243750Y-104775000D03*
D10*
X50323750Y-104775000D03*
D12*
X49053750Y-102235000D03*
D13*
X52603750Y-102235000D03*
X39153750Y-99695000D03*
D12*
X42703750Y-99695000D03*
%TD*%
D10*
%TO.C,MX18*%
X52070000Y-66675000D03*
D11*
X57150000Y-66675000D03*
D10*
X62230000Y-66675000D03*
D12*
X60960000Y-64135000D03*
D13*
X64510000Y-64135000D03*
X51060000Y-61595000D03*
D12*
X54610000Y-61595000D03*
%TD*%
D10*
%TO.C,MX21*%
X109220000Y-66675000D03*
D11*
X114300000Y-66675000D03*
D10*
X119380000Y-66675000D03*
D12*
X118110000Y-64135000D03*
D13*
X121660000Y-64135000D03*
X108210000Y-61595000D03*
D12*
X111760000Y-61595000D03*
%TD*%
D10*
%TO.C,MX42*%
X194945000Y-85725000D03*
D11*
X200025000Y-85725000D03*
D10*
X205105000Y-85725000D03*
D12*
X203835000Y-83185000D03*
D13*
X207385000Y-83185000D03*
X193935000Y-80645000D03*
D12*
X197485000Y-80645000D03*
%TD*%
D10*
%TO.C,MX43*%
X213995000Y-85725000D03*
D11*
X219075000Y-85725000D03*
D10*
X224155000Y-85725000D03*
D12*
X222885000Y-83185000D03*
D13*
X226435000Y-83185000D03*
X212985000Y-80645000D03*
D12*
X216535000Y-80645000D03*
%TD*%
D10*
%TO.C,MX83*%
X83026250Y-142875000D03*
D11*
X88106250Y-142875000D03*
D10*
X93186250Y-142875000D03*
D12*
X91916250Y-140335000D03*
D13*
X95466250Y-140335000D03*
X82016250Y-137795000D03*
D12*
X85566250Y-137795000D03*
%TD*%
D10*
%TO.C,MX64*%
X42545000Y-123825000D03*
D11*
X47625000Y-123825000D03*
D10*
X52705000Y-123825000D03*
D12*
X51435000Y-121285000D03*
D13*
X54985000Y-121285000D03*
X41535000Y-118745000D03*
D12*
X45085000Y-118745000D03*
%TD*%
D10*
%TO.C,MX41*%
X175895000Y-85725000D03*
D11*
X180975000Y-85725000D03*
D10*
X186055000Y-85725000D03*
D12*
X184785000Y-83185000D03*
D13*
X188335000Y-83185000D03*
X174885000Y-80645000D03*
D12*
X178435000Y-80645000D03*
%TD*%
D10*
%TO.C,MX74*%
X242570000Y-123825000D03*
D11*
X247650000Y-123825000D03*
D10*
X252730000Y-123825000D03*
D12*
X251460000Y-121285000D03*
D13*
X255010000Y-121285000D03*
X241560000Y-118745000D03*
D12*
X245110000Y-118745000D03*
%TD*%
D10*
%TO.C,MX3*%
X90170000Y-38100000D03*
D11*
X95250000Y-38100000D03*
D10*
X100330000Y-38100000D03*
D12*
X99060000Y-35560000D03*
D13*
X102610000Y-35560000D03*
X89160000Y-33020000D03*
D12*
X92710000Y-33020000D03*
%TD*%
D10*
%TO.C,MX12*%
X280670000Y-38100000D03*
D11*
X285750000Y-38100000D03*
D10*
X290830000Y-38100000D03*
D12*
X289560000Y-35560000D03*
D13*
X293110000Y-35560000D03*
X279660000Y-33020000D03*
D12*
X283210000Y-33020000D03*
%TD*%
D16*
%TO.C,A1*%
X317376892Y-30099314D03*
D17*
X317376892Y-32639314D03*
D18*
X317376892Y-35179314D03*
D17*
X317376892Y-37719314D03*
X317376892Y-40259314D03*
X317376892Y-42799314D03*
X317376892Y-45339314D03*
D18*
X317376892Y-47879314D03*
D17*
X317376892Y-50419314D03*
X317376892Y-52959314D03*
X317376892Y-55499314D03*
X317376892Y-58039314D03*
D18*
X317376892Y-60579314D03*
D17*
X317376892Y-63119314D03*
X317376892Y-65659314D03*
X317376892Y-68199314D03*
X317376892Y-70739314D03*
D18*
X317376892Y-73279314D03*
D17*
X317376892Y-75819314D03*
X317376892Y-78359314D03*
X335156892Y-78359314D03*
X335156892Y-75819314D03*
D19*
X335156892Y-73279314D03*
D17*
X335156892Y-70739314D03*
X335156892Y-68199314D03*
X335156892Y-65659314D03*
X335156892Y-63119314D03*
D19*
X335156892Y-60579314D03*
D17*
X335156892Y-58039314D03*
X335156892Y-55499314D03*
X335156892Y-52959314D03*
X335156892Y-50419314D03*
D19*
X335156892Y-47879314D03*
D17*
X335156892Y-45339314D03*
X335156892Y-42799314D03*
X335156892Y-40259314D03*
X335156892Y-37719314D03*
D19*
X335156892Y-35179314D03*
D17*
X335156892Y-32639314D03*
X335156892Y-30099314D03*
%TD*%
D10*
%TO.C,MX81*%
X35401250Y-142875000D03*
D11*
X40481250Y-142875000D03*
D10*
X45561250Y-142875000D03*
D12*
X44291250Y-140335000D03*
D13*
X47841250Y-140335000D03*
X34391250Y-137795000D03*
D12*
X37941250Y-137795000D03*
%TD*%
D10*
%TO.C,MX73*%
X223520000Y-123825000D03*
D11*
X228600000Y-123825000D03*
D10*
X233680000Y-123825000D03*
D12*
X232410000Y-121285000D03*
D13*
X235960000Y-121285000D03*
X222510000Y-118745000D03*
D12*
X226060000Y-118745000D03*
%TD*%
D10*
%TO.C,MX14*%
X342582500Y-38100000D03*
D11*
X347662500Y-38100000D03*
D10*
X352742500Y-38100000D03*
D12*
X351472500Y-35560000D03*
D13*
X355022500Y-35560000D03*
X341572500Y-33020000D03*
D12*
X345122500Y-33020000D03*
%TD*%
D10*
%TO.C,MX28*%
X242570000Y-66675000D03*
D11*
X247650000Y-66675000D03*
D10*
X252730000Y-66675000D03*
D12*
X251460000Y-64135000D03*
D13*
X255010000Y-64135000D03*
X241560000Y-61595000D03*
D12*
X245110000Y-61595000D03*
%TD*%
D10*
%TO.C,MX61*%
X237807500Y-104775000D03*
D11*
X242887500Y-104775000D03*
D10*
X247967500Y-104775000D03*
D12*
X246697500Y-102235000D03*
D13*
X250247500Y-102235000D03*
X236797500Y-99695000D03*
D12*
X240347500Y-99695000D03*
%TD*%
D10*
%TO.C,MX90*%
X361632500Y-142875000D03*
D11*
X366712500Y-142875000D03*
D10*
X371792500Y-142875000D03*
D12*
X370522500Y-140335000D03*
D13*
X374072500Y-140335000D03*
X360622500Y-137795000D03*
D12*
X364172500Y-137795000D03*
%TD*%
D10*
%TO.C,MX33*%
X380682500Y-66675000D03*
D11*
X385762500Y-66675000D03*
D10*
X390842500Y-66675000D03*
D12*
X389572500Y-64135000D03*
D13*
X393122500Y-64135000D03*
X379672500Y-61595000D03*
D12*
X383222500Y-61595000D03*
%TD*%
D10*
%TO.C,MX85*%
X225901250Y-142875000D03*
D11*
X230981250Y-142875000D03*
D10*
X236061250Y-142875000D03*
D12*
X234791250Y-140335000D03*
D13*
X238341250Y-140335000D03*
X224891250Y-137795000D03*
D12*
X228441250Y-137795000D03*
%TD*%
D10*
%TO.C,MX77*%
X299720000Y-123825000D03*
D11*
X304800000Y-123825000D03*
D10*
X309880000Y-123825000D03*
D12*
X308610000Y-121285000D03*
D13*
X312160000Y-121285000D03*
X298710000Y-118745000D03*
D12*
X302260000Y-118745000D03*
%TD*%
D15*
%TO.C,H1*%
X32541700Y-51590500D03*
%TD*%
D10*
%TO.C,MX72*%
X204470000Y-123825000D03*
D11*
X209550000Y-123825000D03*
D10*
X214630000Y-123825000D03*
D12*
X213360000Y-121285000D03*
D13*
X216910000Y-121285000D03*
X203460000Y-118745000D03*
D12*
X207010000Y-118745000D03*
%TD*%
D10*
%TO.C,MX56*%
X142557500Y-104775000D03*
D11*
X147637500Y-104775000D03*
D10*
X152717500Y-104775000D03*
D12*
X151447500Y-102235000D03*
D13*
X154997500Y-102235000D03*
X141547500Y-99695000D03*
D12*
X145097500Y-99695000D03*
%TD*%
D10*
%TO.C,MX10*%
X242570000Y-38100000D03*
D11*
X247650000Y-38100000D03*
D10*
X252730000Y-38100000D03*
D12*
X251460000Y-35560000D03*
D13*
X255010000Y-35560000D03*
X241560000Y-33020000D03*
D12*
X245110000Y-33020000D03*
%TD*%
D10*
%TO.C,MX46*%
X271145000Y-85725000D03*
D11*
X276225000Y-85725000D03*
D10*
X281305000Y-85725000D03*
D12*
X280035000Y-83185000D03*
D13*
X283585000Y-83185000D03*
X270135000Y-80645000D03*
D12*
X273685000Y-80645000D03*
%TD*%
D10*
%TO.C,MX55*%
X123507500Y-104775000D03*
D11*
X128587500Y-104775000D03*
D10*
X133667500Y-104775000D03*
D12*
X132397500Y-102235000D03*
D13*
X135947500Y-102235000D03*
X122497500Y-99695000D03*
D12*
X126047500Y-99695000D03*
%TD*%
D10*
%TO.C,MX26*%
X204470000Y-66675000D03*
D11*
X209550000Y-66675000D03*
D10*
X214630000Y-66675000D03*
D12*
X213360000Y-64135000D03*
D13*
X216910000Y-64135000D03*
X203460000Y-61595000D03*
D12*
X207010000Y-61595000D03*
%TD*%
D10*
%TO.C,MX29*%
X261620000Y-66675000D03*
D11*
X266700000Y-66675000D03*
D10*
X271780000Y-66675000D03*
D12*
X270510000Y-64135000D03*
D13*
X274060000Y-64135000D03*
X260610000Y-61595000D03*
D12*
X264160000Y-61595000D03*
%TD*%
D10*
%TO.C,MX5*%
X128270000Y-38100000D03*
D11*
X133350000Y-38100000D03*
D10*
X138430000Y-38100000D03*
D12*
X137160000Y-35560000D03*
D13*
X140710000Y-35560000D03*
X127260000Y-33020000D03*
D12*
X130810000Y-33020000D03*
%TD*%
D10*
%TO.C,MX40*%
X156845000Y-85725000D03*
D11*
X161925000Y-85725000D03*
D10*
X167005000Y-85725000D03*
D12*
X165735000Y-83185000D03*
D13*
X169285000Y-83185000D03*
X155835000Y-80645000D03*
D12*
X159385000Y-80645000D03*
%TD*%
D10*
%TO.C,MX88*%
X297338750Y-142875000D03*
D11*
X302418750Y-142875000D03*
D10*
X307498750Y-142875000D03*
D12*
X306228750Y-140335000D03*
D13*
X309778750Y-140335000D03*
X296328750Y-137795000D03*
D12*
X299878750Y-137795000D03*
%TD*%
D10*
%TO.C,MX2*%
X71120000Y-38100000D03*
D11*
X76200000Y-38100000D03*
D10*
X81280000Y-38100000D03*
D12*
X80010000Y-35560000D03*
D13*
X83560000Y-35560000D03*
X70110000Y-33020000D03*
D12*
X73660000Y-33020000D03*
%TD*%
D10*
%TO.C,MX70*%
X166370000Y-123825000D03*
D11*
X171450000Y-123825000D03*
D10*
X176530000Y-123825000D03*
D12*
X175260000Y-121285000D03*
D13*
X178810000Y-121285000D03*
X165360000Y-118745000D03*
D12*
X168910000Y-118745000D03*
%TD*%
D10*
%TO.C,MX24*%
X166370000Y-66675000D03*
D11*
X171450000Y-66675000D03*
D10*
X176530000Y-66675000D03*
D12*
X175260000Y-64135000D03*
D13*
X178810000Y-64135000D03*
X165360000Y-61595000D03*
D12*
X168910000Y-61595000D03*
%TD*%
D10*
%TO.C,MX67*%
X109220000Y-123825000D03*
D11*
X114300000Y-123825000D03*
D10*
X119380000Y-123825000D03*
D12*
X118110000Y-121285000D03*
D13*
X121660000Y-121285000D03*
X108210000Y-118745000D03*
D12*
X111760000Y-118745000D03*
%TD*%
D10*
%TO.C,MX52*%
X66357500Y-104775000D03*
D11*
X71437500Y-104775000D03*
D10*
X76517500Y-104775000D03*
D12*
X75247500Y-102235000D03*
D13*
X78797500Y-102235000D03*
X65347500Y-99695000D03*
D12*
X68897500Y-99695000D03*
%TD*%
D10*
%TO.C,MX9*%
X213995000Y-38100000D03*
D11*
X219075000Y-38100000D03*
D10*
X224155000Y-38100000D03*
D12*
X222885000Y-35560000D03*
D13*
X226435000Y-35560000D03*
X212985000Y-33020000D03*
D12*
X216535000Y-33020000D03*
%TD*%
D10*
%TO.C,MX68*%
X128270000Y-123825000D03*
D11*
X133350000Y-123825000D03*
D10*
X138430000Y-123825000D03*
D12*
X137160000Y-121285000D03*
D13*
X140710000Y-121285000D03*
X127260000Y-118745000D03*
D12*
X130810000Y-118745000D03*
%TD*%
D10*
%TO.C,MX16*%
X380682500Y-38100000D03*
D11*
X385762500Y-38100000D03*
D10*
X390842500Y-38100000D03*
D12*
X389572500Y-35560000D03*
D13*
X393122500Y-35560000D03*
X379672500Y-33020000D03*
D12*
X383222500Y-33020000D03*
%TD*%
D14*
%TO.C,S2*%
X35718750Y-116840000D03*
D11*
X35718750Y-132080000D03*
D14*
X59531250Y-116840000D03*
D11*
X59531250Y-132080000D03*
%TD*%
D10*
%TO.C,MX8*%
X194945000Y-38100000D03*
D11*
X200025000Y-38100000D03*
D10*
X205105000Y-38100000D03*
D12*
X203835000Y-35560000D03*
D13*
X207385000Y-35560000D03*
X193935000Y-33020000D03*
D12*
X197485000Y-33020000D03*
%TD*%
D10*
%TO.C,MX58*%
X180657500Y-104775000D03*
D11*
X185737500Y-104775000D03*
D10*
X190817500Y-104775000D03*
D12*
X189547500Y-102235000D03*
D13*
X193097500Y-102235000D03*
X179647500Y-99695000D03*
D12*
X183197500Y-99695000D03*
%TD*%
D10*
%TO.C,MX80*%
X380682500Y-123825000D03*
D11*
X385762500Y-123825000D03*
D10*
X390842500Y-123825000D03*
D12*
X389572500Y-121285000D03*
D13*
X393122500Y-121285000D03*
X379672500Y-118745000D03*
D12*
X383222500Y-118745000D03*
%TD*%
D10*
%TO.C,MX62*%
X256857500Y-104775000D03*
D11*
X261937500Y-104775000D03*
D10*
X267017500Y-104775000D03*
D12*
X265747500Y-102235000D03*
D13*
X269297500Y-102235000D03*
X255847500Y-99695000D03*
D12*
X259397500Y-99695000D03*
%TD*%
D10*
%TO.C,MX50*%
X380682500Y-85725000D03*
D11*
X385762500Y-85725000D03*
D10*
X390842500Y-85725000D03*
D12*
X389572500Y-83185000D03*
D13*
X393122500Y-83185000D03*
X379672500Y-80645000D03*
D12*
X383222500Y-80645000D03*
%TD*%
D14*
%TO.C,S1*%
X109537500Y-135890000D03*
D11*
X109537500Y-151130000D03*
D14*
X209550000Y-135890000D03*
D11*
X209550000Y-151130000D03*
%TD*%
D10*
%TO.C,MX76*%
X280670000Y-123825000D03*
D11*
X285750000Y-123825000D03*
D10*
X290830000Y-123825000D03*
D12*
X289560000Y-121285000D03*
D13*
X293110000Y-121285000D03*
X279660000Y-118745000D03*
D12*
X283210000Y-118745000D03*
%TD*%
D10*
%TO.C,MX6*%
X156845000Y-38100000D03*
D11*
X161925000Y-38100000D03*
D10*
X167005000Y-38100000D03*
D12*
X165735000Y-35560000D03*
D13*
X169285000Y-35560000D03*
X155835000Y-33020000D03*
D12*
X159385000Y-33020000D03*
%TD*%
D10*
%TO.C,MX47*%
X294957500Y-85725000D03*
D11*
X300037500Y-85725000D03*
D10*
X305117500Y-85725000D03*
D12*
X303847500Y-83185000D03*
D13*
X307397500Y-83185000D03*
X293947500Y-80645000D03*
D12*
X297497500Y-80645000D03*
%TD*%
D10*
%TO.C,MX30*%
X290195000Y-66675000D03*
D11*
X295275000Y-66675000D03*
D10*
X300355000Y-66675000D03*
D12*
X299085000Y-64135000D03*
D13*
X302635000Y-64135000D03*
X289185000Y-61595000D03*
D12*
X292735000Y-61595000D03*
%TD*%
D10*
%TO.C,MX75*%
X261620000Y-123825000D03*
D11*
X266700000Y-123825000D03*
D10*
X271780000Y-123825000D03*
D12*
X270510000Y-121285000D03*
D13*
X274060000Y-121285000D03*
X260610000Y-118745000D03*
D12*
X264160000Y-118745000D03*
%TD*%
D10*
%TO.C,MX34*%
X37782500Y-85725000D03*
D11*
X42862500Y-85725000D03*
D10*
X47942500Y-85725000D03*
D12*
X46672500Y-83185000D03*
D13*
X50222500Y-83185000D03*
X36772500Y-80645000D03*
D12*
X40322500Y-80645000D03*
%TD*%
D10*
%TO.C,MX13*%
X299720000Y-38100000D03*
D11*
X304800000Y-38100000D03*
D10*
X309880000Y-38100000D03*
D12*
X308610000Y-35560000D03*
D13*
X312160000Y-35560000D03*
X298710000Y-33020000D03*
D12*
X302260000Y-33020000D03*
%TD*%
D10*
%TO.C,MX20*%
X90170000Y-66675000D03*
D11*
X95250000Y-66675000D03*
D10*
X100330000Y-66675000D03*
D12*
X99060000Y-64135000D03*
D13*
X102610000Y-64135000D03*
X89160000Y-61595000D03*
D12*
X92710000Y-61595000D03*
%TD*%
D10*
%TO.C,MX23*%
X147320000Y-66675000D03*
D11*
X152400000Y-66675000D03*
D10*
X157480000Y-66675000D03*
D12*
X156210000Y-64135000D03*
D13*
X159760000Y-64135000D03*
X146310000Y-61595000D03*
D12*
X149860000Y-61595000D03*
%TD*%
D10*
%TO.C,MX4*%
X109220000Y-38100000D03*
D11*
X114300000Y-38100000D03*
D10*
X119380000Y-38100000D03*
D12*
X118110000Y-35560000D03*
D13*
X121660000Y-35560000D03*
X108210000Y-33020000D03*
D12*
X111760000Y-33020000D03*
%TD*%
D10*
%TO.C,MX44*%
X233045000Y-85725000D03*
D11*
X238125000Y-85725000D03*
D10*
X243205000Y-85725000D03*
D12*
X241935000Y-83185000D03*
D13*
X245485000Y-83185000D03*
X232035000Y-80645000D03*
D12*
X235585000Y-80645000D03*
%TD*%
D10*
%TO.C,MX78*%
X342582500Y-123825000D03*
D11*
X347662500Y-123825000D03*
D10*
X352742500Y-123825000D03*
D12*
X351472500Y-121285000D03*
D13*
X355022500Y-121285000D03*
X341572500Y-118745000D03*
D12*
X345122500Y-118745000D03*
%TD*%
D10*
%TO.C,MX37*%
X99695000Y-85725000D03*
D11*
X104775000Y-85725000D03*
D10*
X109855000Y-85725000D03*
D12*
X108585000Y-83185000D03*
D13*
X112135000Y-83185000D03*
X98685000Y-80645000D03*
D12*
X102235000Y-80645000D03*
%TD*%
D10*
%TO.C,MX17*%
X33020000Y-66675000D03*
D11*
X38100000Y-66675000D03*
D10*
X43180000Y-66675000D03*
D12*
X41910000Y-64135000D03*
D13*
X45460000Y-64135000D03*
X32010000Y-61595000D03*
D12*
X35560000Y-61595000D03*
%TD*%
D10*
%TO.C,MX27*%
X223520000Y-66675000D03*
D11*
X228600000Y-66675000D03*
D10*
X233680000Y-66675000D03*
D12*
X232410000Y-64135000D03*
D13*
X235960000Y-64135000D03*
X222510000Y-61595000D03*
D12*
X226060000Y-61595000D03*
%TD*%
D10*
%TO.C,MX84*%
X154463750Y-142875000D03*
D11*
X159543750Y-142875000D03*
D10*
X164623750Y-142875000D03*
D12*
X163353750Y-140335000D03*
D13*
X166903750Y-140335000D03*
X153453750Y-137795000D03*
D12*
X157003750Y-137795000D03*
%TD*%
D10*
%TO.C,MX53*%
X85407500Y-104775000D03*
D11*
X90487500Y-104775000D03*
D10*
X95567500Y-104775000D03*
D12*
X94297500Y-102235000D03*
D13*
X97847500Y-102235000D03*
X84397500Y-99695000D03*
D12*
X87947500Y-99695000D03*
%TD*%
D10*
%TO.C,MX45*%
X252095000Y-85725000D03*
D11*
X257175000Y-85725000D03*
D10*
X262255000Y-85725000D03*
D12*
X260985000Y-83185000D03*
D13*
X264535000Y-83185000D03*
X251085000Y-80645000D03*
D12*
X254635000Y-80645000D03*
%TD*%
D10*
%TO.C,MX7*%
X175895000Y-38100000D03*
D11*
X180975000Y-38100000D03*
D10*
X186055000Y-38100000D03*
D12*
X184785000Y-35560000D03*
D13*
X188335000Y-35560000D03*
X174885000Y-33020000D03*
D12*
X178435000Y-33020000D03*
%TD*%
D17*
%TO.C,R1*%
X29366900Y-35875000D03*
X29366900Y-43495000D03*
%TD*%
D10*
%TO.C,MX32*%
X361632500Y-66675000D03*
D11*
X366712500Y-66675000D03*
D10*
X371792500Y-66675000D03*
D12*
X370522500Y-64135000D03*
D13*
X374072500Y-64135000D03*
X360622500Y-61595000D03*
D12*
X364172500Y-61595000D03*
%TD*%
D10*
%TO.C,MX36*%
X80645000Y-85725000D03*
D11*
X85725000Y-85725000D03*
D10*
X90805000Y-85725000D03*
D12*
X89535000Y-83185000D03*
D13*
X93085000Y-83185000D03*
X79635000Y-80645000D03*
D12*
X83185000Y-80645000D03*
%TD*%
D10*
%TO.C,MX71*%
X185420000Y-123825000D03*
D11*
X190500000Y-123825000D03*
D10*
X195580000Y-123825000D03*
D12*
X194310000Y-121285000D03*
D13*
X197860000Y-121285000D03*
X184410000Y-118745000D03*
D12*
X187960000Y-118745000D03*
%TD*%
D10*
%TO.C,MX86*%
X249713750Y-142875000D03*
D11*
X254793750Y-142875000D03*
D10*
X259873750Y-142875000D03*
D12*
X258603750Y-140335000D03*
D13*
X262153750Y-140335000D03*
X248703750Y-137795000D03*
D12*
X252253750Y-137795000D03*
%TD*%
D10*
%TO.C,MX35*%
X61595000Y-85725000D03*
D11*
X66675000Y-85725000D03*
D10*
X71755000Y-85725000D03*
D12*
X70485000Y-83185000D03*
D13*
X74035000Y-83185000D03*
X60585000Y-80645000D03*
D12*
X64135000Y-80645000D03*
%TD*%
D10*
%TO.C,MX48*%
X342582500Y-85725000D03*
D11*
X347662500Y-85725000D03*
D10*
X352742500Y-85725000D03*
D12*
X351472500Y-83185000D03*
D13*
X355022500Y-83185000D03*
X341572500Y-80645000D03*
D12*
X345122500Y-80645000D03*
%TD*%
D10*
%TO.C,MX87*%
X273526250Y-142875000D03*
D11*
X278606250Y-142875000D03*
D10*
X283686250Y-142875000D03*
D12*
X282416250Y-140335000D03*
D13*
X285966250Y-140335000D03*
X272516250Y-137795000D03*
D12*
X276066250Y-137795000D03*
%TD*%
D10*
%TO.C,MX60*%
X218757500Y-104775000D03*
D11*
X223837500Y-104775000D03*
D10*
X228917500Y-104775000D03*
D12*
X227647500Y-102235000D03*
D13*
X231197500Y-102235000D03*
X217747500Y-99695000D03*
D12*
X221297500Y-99695000D03*
%TD*%
D10*
%TO.C,MX66*%
X90170000Y-123825000D03*
D11*
X95250000Y-123825000D03*
D10*
X100330000Y-123825000D03*
D12*
X99060000Y-121285000D03*
D13*
X102610000Y-121285000D03*
X89160000Y-118745000D03*
D12*
X92710000Y-118745000D03*
%TD*%
D10*
%TO.C,MX59*%
X199707500Y-104775000D03*
D11*
X204787500Y-104775000D03*
D10*
X209867500Y-104775000D03*
D12*
X208597500Y-102235000D03*
D13*
X212147500Y-102235000D03*
X198697500Y-99695000D03*
D12*
X202247500Y-99695000D03*
%TD*%
D15*
%TO.C,H4*%
X200012400Y-141278600D03*
%TD*%
D10*
%TO.C,MX19*%
X71120000Y-66675000D03*
D11*
X76200000Y-66675000D03*
D10*
X81280000Y-66675000D03*
D12*
X80010000Y-64135000D03*
D13*
X83560000Y-64135000D03*
X70110000Y-61595000D03*
D12*
X73660000Y-61595000D03*
%TD*%
D10*
%TO.C,MX22*%
X128270000Y-66675000D03*
D11*
X133350000Y-66675000D03*
D10*
X138430000Y-66675000D03*
D12*
X137160000Y-64135000D03*
D13*
X140710000Y-64135000D03*
X127260000Y-61595000D03*
D12*
X130810000Y-61595000D03*
%TD*%
D20*
%TO.C,D24*%
X179750000Y-68775000D03*
D17*
X179750000Y-61155000D03*
%TD*%
D20*
%TO.C,D52*%
X79737500Y-106875000D03*
D17*
X79737500Y-99255000D03*
%TD*%
D20*
%TO.C,D73*%
X236900000Y-125925000D03*
D17*
X236900000Y-118305000D03*
%TD*%
D20*
%TO.C,D26*%
X217850000Y-68775000D03*
D17*
X217850000Y-61155000D03*
%TD*%
D20*
%TO.C,D72*%
X217850000Y-125925000D03*
D17*
X217850000Y-118305000D03*
%TD*%
D20*
%TO.C,D88*%
X310718750Y-144975000D03*
D17*
X310718750Y-137355000D03*
%TD*%
D20*
%TO.C,D2*%
X84500000Y-40200000D03*
D17*
X84500000Y-32580000D03*
%TD*%
D20*
%TO.C,D81*%
X48781250Y-144975000D03*
D17*
X48781250Y-137355000D03*
%TD*%
D20*
%TO.C,D56*%
X155937500Y-106875000D03*
D17*
X155937500Y-99255000D03*
%TD*%
D20*
%TO.C,D78*%
X355962500Y-125925000D03*
D17*
X355962500Y-118305000D03*
%TD*%
D20*
%TO.C,D58*%
X194037500Y-106875000D03*
D17*
X194037500Y-99255000D03*
%TD*%
D20*
%TO.C,D13*%
X313100000Y-40200000D03*
D17*
X313100000Y-32580000D03*
%TD*%
D20*
%TO.C,D65*%
X84500000Y-125925000D03*
D17*
X84500000Y-118305000D03*
%TD*%
D20*
%TO.C,D28*%
X255950000Y-68775000D03*
D17*
X255950000Y-61155000D03*
%TD*%
D20*
%TO.C,D90*%
X375012500Y-144975000D03*
D17*
X375012500Y-137355000D03*
%TD*%
D20*
%TO.C,D64*%
X55925000Y-125925000D03*
D17*
X55925000Y-118305000D03*
%TD*%
D20*
%TO.C,D33*%
X394062500Y-68775000D03*
D17*
X394062500Y-61155000D03*
%TD*%
D20*
%TO.C,D54*%
X117837500Y-106875000D03*
D17*
X117837500Y-99255000D03*
%TD*%
D20*
%TO.C,D69*%
X160700000Y-125925000D03*
D17*
X160700000Y-118305000D03*
%TD*%
D20*
%TO.C,D53*%
X98787500Y-106875000D03*
D17*
X98787500Y-99255000D03*
%TD*%
D20*
%TO.C,D21*%
X122600000Y-68775000D03*
D17*
X122600000Y-61155000D03*
%TD*%
D20*
%TO.C,D15*%
X375012500Y-40200000D03*
D17*
X375012500Y-32580000D03*
%TD*%
D20*
%TO.C,D42*%
X208325000Y-87825000D03*
D17*
X208325000Y-80205000D03*
%TD*%
D20*
%TO.C,D85*%
X239281250Y-144975000D03*
D17*
X239281250Y-137355000D03*
%TD*%
D20*
%TO.C,D62*%
X270237500Y-106875000D03*
D17*
X270237500Y-99255000D03*
%TD*%
D20*
%TO.C,D25*%
X198800000Y-68775000D03*
D17*
X198800000Y-61155000D03*
%TD*%
D20*
%TO.C,D3*%
X103550000Y-40200000D03*
D17*
X103550000Y-32580000D03*
%TD*%
D20*
%TO.C,D89*%
X355962500Y-144975000D03*
D17*
X355962500Y-137355000D03*
%TD*%
D20*
%TO.C,D66*%
X103550000Y-125925000D03*
D17*
X103550000Y-118305000D03*
%TD*%
D20*
%TO.C,D9*%
X227375000Y-40200000D03*
D17*
X227375000Y-32580000D03*
%TD*%
D20*
%TO.C,D30*%
X303575000Y-68775000D03*
D17*
X303575000Y-61155000D03*
%TD*%
D20*
%TO.C,D1*%
X46400000Y-40200000D03*
D17*
X46400000Y-32580000D03*
%TD*%
D20*
%TO.C,D10*%
X255950000Y-40200000D03*
D17*
X255950000Y-32580000D03*
%TD*%
D20*
%TO.C,D37*%
X113075000Y-87825000D03*
D17*
X113075000Y-80205000D03*
%TD*%
D20*
%TO.C,D75*%
X275000000Y-125925000D03*
D17*
X275000000Y-118305000D03*
%TD*%
D20*
%TO.C,D48*%
X355962500Y-87825000D03*
D17*
X355962500Y-80205000D03*
%TD*%
D20*
%TO.C,D49*%
X375012500Y-87825000D03*
D17*
X375012500Y-80205000D03*
%TD*%
D20*
%TO.C,D23*%
X160700000Y-68775000D03*
D17*
X160700000Y-61155000D03*
%TD*%
D20*
%TO.C,D7*%
X189275000Y-40200000D03*
D17*
X189275000Y-32580000D03*
%TD*%
D20*
%TO.C,D43*%
X227375000Y-87825000D03*
D17*
X227375000Y-80205000D03*
%TD*%
D20*
%TO.C,D6*%
X170225000Y-40200000D03*
D17*
X170225000Y-32580000D03*
%TD*%
D20*
%TO.C,D84*%
X167843750Y-144975000D03*
D17*
X167843750Y-137355000D03*
%TD*%
D20*
%TO.C,D45*%
X265475000Y-87825000D03*
D17*
X265475000Y-80205000D03*
%TD*%
D20*
%TO.C,D38*%
X132125000Y-87825000D03*
D17*
X132125000Y-80205000D03*
%TD*%
D20*
%TO.C,D8*%
X208325000Y-40200000D03*
D17*
X208325000Y-32580000D03*
%TD*%
D20*
%TO.C,D14*%
X355962500Y-40200000D03*
D17*
X355962500Y-32580000D03*
%TD*%
D20*
%TO.C,D19*%
X84500000Y-68775000D03*
D17*
X84500000Y-61155000D03*
%TD*%
D20*
%TO.C,D74*%
X255950000Y-125925000D03*
D17*
X255950000Y-118305000D03*
%TD*%
D20*
%TO.C,D20*%
X103550000Y-68775000D03*
D17*
X103550000Y-61155000D03*
%TD*%
D20*
%TO.C,D68*%
X141650000Y-125925000D03*
D17*
X141650000Y-118305000D03*
%TD*%
D20*
%TO.C,D61*%
X251187500Y-106875000D03*
D17*
X251187500Y-99255000D03*
%TD*%
D20*
%TO.C,D77*%
X313100000Y-125925000D03*
D17*
X313100000Y-118305000D03*
%TD*%
D20*
%TO.C,D80*%
X394062500Y-125925000D03*
D17*
X394062500Y-118305000D03*
%TD*%
D20*
%TO.C,D67*%
X122600000Y-125925000D03*
D17*
X122600000Y-118305000D03*
%TD*%
D20*
%TO.C,D50*%
X394062500Y-87825000D03*
D17*
X394062500Y-80205000D03*
%TD*%
D20*
%TO.C,D71*%
X198800000Y-125925000D03*
D17*
X198800000Y-118305000D03*
%TD*%
D20*
%TO.C,D36*%
X94025000Y-87825000D03*
D17*
X94025000Y-80205000D03*
%TD*%
D20*
%TO.C,D57*%
X174987500Y-106875000D03*
D17*
X174987500Y-99255000D03*
%TD*%
D20*
%TO.C,D18*%
X65450000Y-68775000D03*
D17*
X65450000Y-61155000D03*
%TD*%
D20*
%TO.C,D12*%
X294050000Y-40200000D03*
D17*
X294050000Y-32580000D03*
%TD*%
D20*
%TO.C,D39*%
X151175000Y-87825000D03*
D17*
X151175000Y-80205000D03*
%TD*%
D20*
%TO.C,D55*%
X136887500Y-106875000D03*
D17*
X136887500Y-99255000D03*
%TD*%
D20*
%TO.C,D83*%
X96406250Y-144975000D03*
D17*
X96406250Y-137355000D03*
%TD*%
D20*
%TO.C,D40*%
X170225000Y-87825000D03*
D17*
X170225000Y-80205000D03*
%TD*%
D20*
%TO.C,D63*%
X301193750Y-106875000D03*
D17*
X301193750Y-99255000D03*
%TD*%
D20*
%TO.C,D51*%
X53543750Y-106875000D03*
D17*
X53543750Y-99255000D03*
%TD*%
D20*
%TO.C,D34*%
X51162500Y-87825000D03*
D17*
X51162500Y-80205000D03*
%TD*%
D20*
%TO.C,D17*%
X46400000Y-68775000D03*
D17*
X46400000Y-61155000D03*
%TD*%
D20*
%TO.C,D47*%
X308337500Y-87825000D03*
D17*
X308337500Y-80205000D03*
%TD*%
D20*
%TO.C,D60*%
X232137500Y-106875000D03*
D17*
X232137500Y-99255000D03*
%TD*%
D20*
%TO.C,D4*%
X122600000Y-40200000D03*
D17*
X122600000Y-32580000D03*
%TD*%
D20*
%TO.C,D16*%
X394062500Y-40200000D03*
D17*
X394062500Y-32580000D03*
%TD*%
D20*
%TO.C,D5*%
X141650000Y-40200000D03*
D17*
X141650000Y-32580000D03*
%TD*%
D20*
%TO.C,D29*%
X275000000Y-68775000D03*
D17*
X275000000Y-61155000D03*
%TD*%
D20*
%TO.C,D82*%
X72593750Y-144975000D03*
D17*
X72593750Y-137355000D03*
%TD*%
D20*
%TO.C,D35*%
X74975000Y-87825000D03*
D17*
X74975000Y-80205000D03*
%TD*%
D20*
%TO.C,D46*%
X284525000Y-87825000D03*
D17*
X284525000Y-80205000D03*
%TD*%
D20*
%TO.C,D31*%
X355962500Y-68775000D03*
D17*
X355962500Y-61155000D03*
%TD*%
D20*
%TO.C,D59*%
X213087500Y-106875000D03*
D17*
X213087500Y-99255000D03*
%TD*%
D20*
%TO.C,D70*%
X179750000Y-125925000D03*
D17*
X179750000Y-118305000D03*
%TD*%
D20*
%TO.C,D76*%
X294050000Y-125925000D03*
D17*
X294050000Y-118305000D03*
%TD*%
D20*
%TO.C,D22*%
X141650000Y-68775000D03*
D17*
X141650000Y-61155000D03*
%TD*%
D20*
%TO.C,D11*%
X275000000Y-40200000D03*
D17*
X275000000Y-32580000D03*
%TD*%
D20*
%TO.C,D87*%
X286906250Y-144975000D03*
D17*
X286906250Y-137355000D03*
%TD*%
D20*
%TO.C,D91*%
X394062500Y-144975000D03*
D17*
X394062500Y-137355000D03*
%TD*%
D20*
%TO.C,D41*%
X189275000Y-87825000D03*
D17*
X189275000Y-80205000D03*
%TD*%
D20*
%TO.C,D32*%
X375012500Y-68775000D03*
D17*
X375012500Y-61155000D03*
%TD*%
D20*
%TO.C,D27*%
X236900000Y-68775000D03*
D17*
X236900000Y-61155000D03*
%TD*%
D20*
%TO.C,D44*%
X246425000Y-87825000D03*
D17*
X246425000Y-80205000D03*
%TD*%
D20*
%TO.C,D86*%
X263093750Y-144975000D03*
D17*
X263093750Y-137355000D03*
%TD*%
D20*
%TO.C,D79*%
X375012500Y-125925000D03*
D17*
X375012500Y-118305000D03*
%TD*%
M02*
