%TF.GenerationSoftware,KiCad,Pcbnew,10.0.6*%
%TF.CreationDate,2026-09-25T15:23:43-04:00*%
%TF.ProjectId,keyboard-full,6b657962-6f61-4726-942d-66756c6c2e6b,rev?*%
%TF.SameCoordinates,Original*%
%TF.FileFunction,Paste,Top*%
%TF.FilePolarity,Positive*%
%FSLAX46Y46*%
G04 Gerber Fmt 4.6, Leading zero omitted, Abs format (unit mm)*
G04 Created by KiCad (PCBNEW 10.0.6) date 2026-09-25 15:23:43*
%MOMM*%
%LPD*%
G01*
G04 APERTURE LIST*
G04 Aperture macros list*
%AMRoundRect*
0 Rectangle with rounded corners*
0 $1 Rounding radius*
0 $2 $3 $4 $5 $6 $7 $8 $9 X,Y pos of 4 corners*
0 Add a 4 corners polygon primitive as box body*
4,1,4,$2,$3,$4,$5,$6,$7,$8,$9,$2,$3,0*
0 Add four circle primitives for the rounded corners*
1,1,$1+$1,$2,$3*
1,1,$1+$1,$4,$5*
1,1,$1+$1,$6,$7*
1,1,$1+$1,$8,$9*
0 Add four rect primitives between the rounded corners*
20,1,$1+$1,$2,$3,$4,$5,0*
20,1,$1+$1,$4,$5,$6,$7,0*
20,1,$1+$1,$6,$7,$8,$9,0*
20,1,$1+$1,$8,$9,$2,$3,0*%
G04 Aperture macros list end*
%ADD10RoundRect,0.250000X-1.025000X-1.000000X1.025000X-1.000000X1.025000X1.000000X-1.025000X1.000000X0*%
G04 APERTURE END LIST*
D10*
%TO.C,MX69*%
X159760000Y-121285000D03*
X146310000Y-118745000D03*
%TD*%
%TO.C,MX57*%
X174047500Y-102235000D03*
X160597500Y-99695000D03*
%TD*%
%TO.C,MX63*%
X300253750Y-102235000D03*
X286803750Y-99695000D03*
%TD*%
%TO.C,MX11*%
X274060000Y-35560000D03*
X260610000Y-33020000D03*
%TD*%
%TO.C,MX1*%
X45460000Y-35560000D03*
X32010000Y-33020000D03*
%TD*%
%TO.C,MX49*%
X374072500Y-83185000D03*
X360622500Y-80645000D03*
%TD*%
%TO.C,MX65*%
X83560000Y-121285000D03*
X70110000Y-118745000D03*
%TD*%
%TO.C,MX82*%
X71653750Y-140335000D03*
X58203750Y-137795000D03*
%TD*%
%TO.C,MX91*%
X393122500Y-140335000D03*
X379672500Y-137795000D03*
%TD*%
%TO.C,MX89*%
X355022500Y-140335000D03*
X341572500Y-137795000D03*
%TD*%
%TO.C,MX31*%
X355022500Y-64135000D03*
X341572500Y-61595000D03*
%TD*%
%TO.C,MX39*%
X150235000Y-83185000D03*
X136785000Y-80645000D03*
%TD*%
%TO.C,MX15*%
X374072500Y-35560000D03*
X360622500Y-33020000D03*
%TD*%
%TO.C,MX79*%
X374072500Y-121285000D03*
X360622500Y-118745000D03*
%TD*%
%TO.C,MX38*%
X131185000Y-83185000D03*
X117735000Y-80645000D03*
%TD*%
%TO.C,MX54*%
X116897500Y-102235000D03*
X103447500Y-99695000D03*
%TD*%
%TO.C,MX25*%
X197860000Y-64135000D03*
X184410000Y-61595000D03*
%TD*%
%TO.C,MX51*%
X52603750Y-102235000D03*
X39153750Y-99695000D03*
%TD*%
%TO.C,MX18*%
X64510000Y-64135000D03*
X51060000Y-61595000D03*
%TD*%
%TO.C,MX21*%
X121660000Y-64135000D03*
X108210000Y-61595000D03*
%TD*%
%TO.C,MX42*%
X207385000Y-83185000D03*
X193935000Y-80645000D03*
%TD*%
%TO.C,MX43*%
X226435000Y-83185000D03*
X212985000Y-80645000D03*
%TD*%
%TO.C,MX83*%
X95466250Y-140335000D03*
X82016250Y-137795000D03*
%TD*%
%TO.C,MX64*%
X54985000Y-121285000D03*
X41535000Y-118745000D03*
%TD*%
%TO.C,MX41*%
X188335000Y-83185000D03*
X174885000Y-80645000D03*
%TD*%
%TO.C,MX74*%
X255010000Y-121285000D03*
X241560000Y-118745000D03*
%TD*%
%TO.C,MX3*%
X102610000Y-35560000D03*
X89160000Y-33020000D03*
%TD*%
%TO.C,MX12*%
X293110000Y-35560000D03*
X279660000Y-33020000D03*
%TD*%
%TO.C,MX81*%
X47841250Y-140335000D03*
X34391250Y-137795000D03*
%TD*%
%TO.C,MX73*%
X235960000Y-121285000D03*
X222510000Y-118745000D03*
%TD*%
%TO.C,MX14*%
X355022500Y-35560000D03*
X341572500Y-33020000D03*
%TD*%
%TO.C,MX28*%
X255010000Y-64135000D03*
X241560000Y-61595000D03*
%TD*%
%TO.C,MX61*%
X250247500Y-102235000D03*
X236797500Y-99695000D03*
%TD*%
%TO.C,MX90*%
X374072500Y-140335000D03*
X360622500Y-137795000D03*
%TD*%
%TO.C,MX33*%
X393122500Y-64135000D03*
X379672500Y-61595000D03*
%TD*%
%TO.C,MX85*%
X238341250Y-140335000D03*
X224891250Y-137795000D03*
%TD*%
%TO.C,MX77*%
X312160000Y-121285000D03*
X298710000Y-118745000D03*
%TD*%
%TO.C,MX72*%
X216910000Y-121285000D03*
X203460000Y-118745000D03*
%TD*%
%TO.C,MX56*%
X154997500Y-102235000D03*
X141547500Y-99695000D03*
%TD*%
%TO.C,MX10*%
X255010000Y-35560000D03*
X241560000Y-33020000D03*
%TD*%
%TO.C,MX46*%
X283585000Y-83185000D03*
X270135000Y-80645000D03*
%TD*%
%TO.C,MX55*%
X135947500Y-102235000D03*
X122497500Y-99695000D03*
%TD*%
%TO.C,MX26*%
X216910000Y-64135000D03*
X203460000Y-61595000D03*
%TD*%
%TO.C,MX29*%
X274060000Y-64135000D03*
X260610000Y-61595000D03*
%TD*%
%TO.C,MX5*%
X140710000Y-35560000D03*
X127260000Y-33020000D03*
%TD*%
%TO.C,MX40*%
X169285000Y-83185000D03*
X155835000Y-80645000D03*
%TD*%
%TO.C,MX88*%
X309778750Y-140335000D03*
X296328750Y-137795000D03*
%TD*%
%TO.C,MX2*%
X83560000Y-35560000D03*
X70110000Y-33020000D03*
%TD*%
%TO.C,MX70*%
X178810000Y-121285000D03*
X165360000Y-118745000D03*
%TD*%
%TO.C,MX24*%
X178810000Y-64135000D03*
X165360000Y-61595000D03*
%TD*%
%TO.C,MX67*%
X121660000Y-121285000D03*
X108210000Y-118745000D03*
%TD*%
%TO.C,MX52*%
X78797500Y-102235000D03*
X65347500Y-99695000D03*
%TD*%
%TO.C,MX9*%
X226435000Y-35560000D03*
X212985000Y-33020000D03*
%TD*%
%TO.C,MX68*%
X140710000Y-121285000D03*
X127260000Y-118745000D03*
%TD*%
%TO.C,MX16*%
X393122500Y-35560000D03*
X379672500Y-33020000D03*
%TD*%
%TO.C,MX8*%
X207385000Y-35560000D03*
X193935000Y-33020000D03*
%TD*%
%TO.C,MX58*%
X193097500Y-102235000D03*
X179647500Y-99695000D03*
%TD*%
%TO.C,MX80*%
X393122500Y-121285000D03*
X379672500Y-118745000D03*
%TD*%
%TO.C,MX62*%
X269297500Y-102235000D03*
X255847500Y-99695000D03*
%TD*%
%TO.C,MX50*%
X393122500Y-83185000D03*
X379672500Y-80645000D03*
%TD*%
%TO.C,MX76*%
X293110000Y-121285000D03*
X279660000Y-118745000D03*
%TD*%
%TO.C,MX6*%
X169285000Y-35560000D03*
X155835000Y-33020000D03*
%TD*%
%TO.C,MX47*%
X307397500Y-83185000D03*
X293947500Y-80645000D03*
%TD*%
%TO.C,MX30*%
X302635000Y-64135000D03*
X289185000Y-61595000D03*
%TD*%
%TO.C,MX75*%
X274060000Y-121285000D03*
X260610000Y-118745000D03*
%TD*%
%TO.C,MX34*%
X50222500Y-83185000D03*
X36772500Y-80645000D03*
%TD*%
%TO.C,MX13*%
X312160000Y-35560000D03*
X298710000Y-33020000D03*
%TD*%
%TO.C,MX20*%
X102610000Y-64135000D03*
X89160000Y-61595000D03*
%TD*%
%TO.C,MX23*%
X159760000Y-64135000D03*
X146310000Y-61595000D03*
%TD*%
%TO.C,MX4*%
X121660000Y-35560000D03*
X108210000Y-33020000D03*
%TD*%
%TO.C,MX44*%
X245485000Y-83185000D03*
X232035000Y-80645000D03*
%TD*%
%TO.C,MX78*%
X355022500Y-121285000D03*
X341572500Y-118745000D03*
%TD*%
%TO.C,MX37*%
X112135000Y-83185000D03*
X98685000Y-80645000D03*
%TD*%
%TO.C,MX17*%
X45460000Y-64135000D03*
X32010000Y-61595000D03*
%TD*%
%TO.C,MX27*%
X235960000Y-64135000D03*
X222510000Y-61595000D03*
%TD*%
%TO.C,MX84*%
X166903750Y-140335000D03*
X153453750Y-137795000D03*
%TD*%
%TO.C,MX53*%
X97847500Y-102235000D03*
X84397500Y-99695000D03*
%TD*%
%TO.C,MX45*%
X264535000Y-83185000D03*
X251085000Y-80645000D03*
%TD*%
%TO.C,MX7*%
X188335000Y-35560000D03*
X174885000Y-33020000D03*
%TD*%
%TO.C,MX32*%
X374072500Y-64135000D03*
X360622500Y-61595000D03*
%TD*%
%TO.C,MX36*%
X93085000Y-83185000D03*
X79635000Y-80645000D03*
%TD*%
%TO.C,MX71*%
X197860000Y-121285000D03*
X184410000Y-118745000D03*
%TD*%
%TO.C,MX86*%
X262153750Y-140335000D03*
X248703750Y-137795000D03*
%TD*%
%TO.C,MX35*%
X74035000Y-83185000D03*
X60585000Y-80645000D03*
%TD*%
%TO.C,MX48*%
X355022500Y-83185000D03*
X341572500Y-80645000D03*
%TD*%
%TO.C,MX87*%
X285966250Y-140335000D03*
X272516250Y-137795000D03*
%TD*%
%TO.C,MX60*%
X231197500Y-102235000D03*
X217747500Y-99695000D03*
%TD*%
%TO.C,MX66*%
X102610000Y-121285000D03*
X89160000Y-118745000D03*
%TD*%
%TO.C,MX59*%
X212147500Y-102235000D03*
X198697500Y-99695000D03*
%TD*%
%TO.C,MX19*%
X83560000Y-64135000D03*
X70110000Y-61595000D03*
%TD*%
%TO.C,MX22*%
X140710000Y-64135000D03*
X127260000Y-61595000D03*
%TD*%
M02*
