M48
; DRILL file KiCad 10.0.6 date 2026-09-25T15:25:43
; FORMAT={-:-/ absolute / metric / decimal}
; #@! TF.CreationDate,2026-09-25T15:25:43-04:00
; #@! TF.GenerationSoftware,Kicad,Pcbnew,10.0.6
; #@! TF.FileFunction,Plated,1,2,PTH
FMAT,2
METRIC
; #@! TA.AperFunction,Plated,PTH,ViaDrill
T1C0.300
; #@! TA.AperFunction,Plated,PTH,ComponentDrill
T2C0.800
; #@! TA.AperFunction,Plated,PTH,ComponentDrill
T3C1.000
; #@! TA.AperFunction,Plated,PTH,ComponentDrill
T4C3.000
%
G90
G05
T1
X33.335Y-72.227
X35.1Y-74.608
X40.479Y-109.531
X42.066Y-112.705
X44.447Y-47.9
X47.625Y-73.819
X52.384Y-71.433
X52.384Y-74.608
X52.387Y-150.019
X57.15Y-92.869
X59.527Y-147.628
X59.527Y-150.803
X61.912Y-111.919
X62.702Y-48.622
X66.671Y-109.531
X66.671Y-112.705
X66.675Y-45.244
X66.675Y-73.819
X66.675Y-130.969
X69.85Y-87.312
X71.433Y-71.433
X71.433Y-74.608
X76.2Y-92.869
X76.2Y-150.019
X79.375Y-39.688
X79.375Y-125.412
X80.957Y-49.209
X80.962Y-111.919
X83.338Y-147.628
X83.338Y-150.803
X85.72Y-109.531
X85.72Y-112.705
X85.725Y-45.244
X85.725Y-73.819
X85.725Y-130.969
X88.9Y-87.312
X90.482Y-71.433
X90.482Y-74.608
X95.25Y-92.869
X98.425Y-39.688
X98.425Y-125.412
X100.012Y-111.919
X100.012Y-150.019
X100.8Y-49.428
X104.768Y-109.531
X104.768Y-112.705
X104.775Y-45.244
X104.775Y-73.819
X104.775Y-130.969
X107.95Y-87.312
X109.531Y-71.433
X109.531Y-74.608
X114.3Y-92.869
X117.475Y-39.688
X119.062Y-111.919
X119.636Y-49.828
X123.817Y-109.531
X123.817Y-112.705
X123.825Y-45.244
X123.825Y-73.819
X123.825Y-130.969
X127.0Y-87.312
X128.579Y-71.433
X128.579Y-74.608
X133.35Y-92.869
X136.525Y-39.688
X138.104Y-50.228
X138.112Y-111.919
X142.866Y-109.531
X142.866Y-112.705
X142.875Y-73.819
X142.875Y-130.969
X146.05Y-87.312
X147.628Y-71.433
X147.628Y-74.608
X152.4Y-45.244
X152.4Y-92.869
X154.772Y-147.628
X154.772Y-150.803
X155.575Y-125.412
X157.162Y-111.919
X161.915Y-109.531
X161.915Y-112.705
X161.925Y-73.819
X161.925Y-130.969
X165.1Y-39.688
X165.1Y-87.312
X166.677Y-50.797
X166.677Y-71.433
X166.677Y-74.608
X171.45Y-45.244
X171.45Y-92.869
X171.45Y-150.019
X176.213Y-111.919
X180.964Y-109.531
X180.964Y-112.705
X180.975Y-73.819
X180.975Y-130.969
X184.15Y-39.688
X184.15Y-87.312
X185.726Y-51.028
X185.726Y-71.433
X185.726Y-74.608
X190.5Y-45.244
X190.5Y-92.869
X195.262Y-111.919
X200.012Y-109.531
X200.012Y-112.705
X200.025Y-73.819
X200.025Y-130.969
X203.2Y-39.688
X203.2Y-87.312
X204.775Y-71.433
X204.775Y-74.608
X205.568Y-51.428
X209.55Y-45.244
X209.55Y-92.869
X214.312Y-111.919
X219.061Y-109.531
X219.061Y-112.705
X219.075Y-73.819
X219.075Y-130.969
X222.25Y-39.688
X222.25Y-87.312
X223.823Y-51.828
X223.823Y-71.433
X223.823Y-74.608
X226.204Y-147.628
X226.204Y-150.803
X228.6Y-92.869
X231.775Y-125.412
X233.362Y-111.919
X238.11Y-109.531
X238.11Y-112.705
X238.125Y-45.244
X238.125Y-73.819
X238.125Y-130.969
X241.3Y-87.312
X242.872Y-71.433
X242.872Y-74.608
X242.887Y-150.019
X247.65Y-92.869
X247.692Y-52.403
X250.015Y-147.628
X250.015Y-150.803
X250.825Y-39.688
X250.825Y-125.412
X252.412Y-111.919
X257.159Y-109.531
X257.159Y-112.705
X257.175Y-45.244
X257.175Y-73.819
X257.175Y-130.969
X260.35Y-87.312
X261.921Y-71.433
X261.921Y-74.608
X262.94Y-52.628
X266.7Y-92.869
X266.7Y-150.019
X269.875Y-39.688
X269.875Y-125.412
X271.462Y-111.919
X273.827Y-147.628
X273.827Y-150.803
X276.225Y-45.244
X276.225Y-73.819
X276.225Y-130.969
X279.4Y-87.312
X281.592Y-53.028
X285.75Y-92.869
X286.544Y-76.025
X288.113Y-109.531
X288.113Y-112.705
X288.662Y-47.422
X288.925Y-39.688
X290.494Y-71.433
X290.494Y-74.608
X290.512Y-150.019
X295.275Y-45.244
X295.275Y-130.969
X297.637Y-147.628
X297.637Y-150.803
X302.419Y-111.919
X303.212Y-87.312
X304.8Y-73.819
X307.975Y-39.688
X307.975Y-125.412
X314.325Y-150.019
X335.735Y-145.219
X336.529Y-126.169
X337.322Y-88.069
X339.704Y-46.828
X339.704Y-75.401
X339.704Y-82.545
X339.704Y-95.075
X339.704Y-113.499
X339.704Y-133.175
X339.704Y-152.225
X340.519Y-92.869
X340.519Y-130.969
X342.878Y-71.433
X342.878Y-74.608
X342.878Y-147.628
X342.878Y-150.803
X343.194Y-40.444
X343.656Y-88.069
X343.694Y-126.206
X349.228Y-52.178
X350.325Y-40.2
X350.773Y-87.708
X350.822Y-125.79
X357.188Y-45.244
X357.188Y-73.819
X357.188Y-92.869
X357.188Y-130.969
X357.188Y-150.019
X361.927Y-71.433
X361.927Y-74.608
X361.927Y-147.628
X361.927Y-150.803
X369.07Y-52.384
X369.887Y-39.688
X369.887Y-87.312
X369.887Y-125.412
X376.238Y-45.244
X376.238Y-73.819
X376.238Y-92.869
X376.238Y-130.969
X376.238Y-150.019
X380.976Y-71.433
X380.976Y-74.608
X380.976Y-147.628
X380.976Y-150.803
X388.119Y-53.178
X388.938Y-39.688
X388.938Y-87.312
X388.938Y-125.412
X395.287Y-73.819
X395.287Y-150.019
T2
X29.367Y-35.875
X29.367Y-43.495
X46.4Y-32.58
X46.4Y-40.2
X46.4Y-61.155
X46.4Y-68.775
X48.781Y-137.355
X48.781Y-144.975
X51.162Y-80.205
X51.162Y-87.825
X53.544Y-99.255
X53.544Y-106.875
X55.925Y-118.305
X55.925Y-125.925
X65.45Y-61.155
X65.45Y-68.775
X72.594Y-137.355
X72.594Y-144.975
X74.975Y-80.205
X74.975Y-87.825
X79.737Y-99.255
X79.737Y-106.875
X84.5Y-32.58
X84.5Y-40.2
X84.5Y-61.155
X84.5Y-68.775
X84.5Y-118.305
X84.5Y-125.925
X94.025Y-80.205
X94.025Y-87.825
X96.406Y-137.355
X96.406Y-144.975
X98.787Y-99.255
X98.787Y-106.875
X103.55Y-32.58
X103.55Y-40.2
X103.55Y-61.155
X103.55Y-68.775
X103.55Y-118.305
X103.55Y-125.925
X113.075Y-80.205
X113.075Y-87.825
X117.837Y-99.255
X117.837Y-106.875
X122.6Y-32.58
X122.6Y-40.2
X122.6Y-61.155
X122.6Y-68.775
X122.6Y-118.305
X122.6Y-125.925
X132.125Y-80.205
X132.125Y-87.825
X136.887Y-99.255
X136.887Y-106.875
X141.65Y-32.58
X141.65Y-40.2
X141.65Y-61.155
X141.65Y-68.775
X141.65Y-118.305
X141.65Y-125.925
X151.175Y-80.205
X151.175Y-87.825
X155.938Y-99.255
X155.938Y-106.875
X160.7Y-61.155
X160.7Y-68.775
X160.7Y-118.305
X160.7Y-125.925
X167.844Y-137.355
X167.844Y-144.975
X170.225Y-32.58
X170.225Y-40.2
X170.225Y-80.205
X170.225Y-87.825
X174.987Y-99.255
X174.987Y-106.875
X179.75Y-61.155
X179.75Y-68.775
X179.75Y-118.305
X179.75Y-125.925
X189.275Y-32.58
X189.275Y-40.2
X189.275Y-80.205
X189.275Y-87.825
X194.037Y-99.255
X194.037Y-106.875
X198.8Y-61.155
X198.8Y-68.775
X198.8Y-118.305
X198.8Y-125.925
X208.325Y-32.58
X208.325Y-40.2
X208.325Y-80.205
X208.325Y-87.825
X213.087Y-99.255
X213.087Y-106.875
X217.85Y-61.155
X217.85Y-68.775
X217.85Y-118.305
X217.85Y-125.925
X227.375Y-32.58
X227.375Y-40.2
X227.375Y-80.205
X227.375Y-87.825
X232.137Y-99.255
X232.137Y-106.875
X236.9Y-61.155
X236.9Y-68.775
X236.9Y-118.305
X236.9Y-125.925
X239.281Y-137.355
X239.281Y-144.975
X246.425Y-80.205
X246.425Y-87.825
X251.188Y-99.255
X251.188Y-106.875
X255.95Y-32.58
X255.95Y-40.2
X255.95Y-61.155
X255.95Y-68.775
X255.95Y-118.305
X255.95Y-125.925
X263.094Y-137.355
X263.094Y-144.975
X265.475Y-80.205
X265.475Y-87.825
X270.238Y-99.255
X270.238Y-106.875
X275.0Y-32.58
X275.0Y-40.2
X275.0Y-61.155
X275.0Y-68.775
X275.0Y-118.305
X275.0Y-125.925
X284.525Y-80.205
X284.525Y-87.825
X286.906Y-137.355
X286.906Y-144.975
X294.05Y-32.58
X294.05Y-40.2
X294.05Y-118.305
X294.05Y-125.925
X301.194Y-99.255
X301.194Y-106.875
X303.575Y-61.155
X303.575Y-68.775
X308.337Y-80.205
X308.337Y-87.825
X310.719Y-137.355
X310.719Y-144.975
X313.1Y-32.58
X313.1Y-40.2
X313.1Y-118.305
X313.1Y-125.925
X355.962Y-32.58
X355.962Y-40.2
X355.962Y-61.155
X355.962Y-68.775
X355.962Y-80.205
X355.962Y-87.825
X355.962Y-118.305
X355.962Y-125.925
X355.962Y-137.355
X355.962Y-144.975
X375.012Y-32.58
X375.012Y-40.2
X375.012Y-61.155
X375.012Y-68.775
X375.012Y-80.205
X375.012Y-87.825
X375.012Y-118.305
X375.012Y-125.925
X375.012Y-137.355
X375.012Y-144.975
X394.062Y-32.58
X394.062Y-40.2
X394.062Y-61.155
X394.062Y-68.775
X394.062Y-80.205
X394.062Y-87.825
X394.062Y-118.305
X394.062Y-125.925
X394.062Y-137.355
X394.062Y-144.975
T3
X317.377Y-30.099
X317.377Y-32.639
X317.377Y-35.179
X317.377Y-37.719
X317.377Y-40.259
X317.377Y-42.799
X317.377Y-45.339
X317.377Y-47.879
X317.377Y-50.419
X317.377Y-52.959
X317.377Y-55.499
X317.377Y-58.039
X317.377Y-60.579
X317.377Y-63.119
X317.377Y-65.659
X317.377Y-68.199
X317.377Y-70.739
X317.377Y-73.279
X317.377Y-75.819
X317.377Y-78.359
X335.157Y-30.099
X335.157Y-32.639
X335.157Y-35.179
X335.157Y-37.719
X335.157Y-40.259
X335.157Y-42.799
X335.157Y-45.339
X335.157Y-47.879
X335.157Y-50.419
X335.157Y-52.959
X335.157Y-55.499
X335.157Y-58.039
X335.157Y-60.579
X335.157Y-63.119
X335.157Y-65.659
X335.157Y-68.199
X335.157Y-70.739
X335.157Y-73.279
X335.157Y-75.819
X335.157Y-78.359
T4
X35.56Y-33.02
X35.56Y-61.595
X37.941Y-137.795
X40.322Y-80.645
X41.91Y-35.56
X41.91Y-64.135
X42.704Y-99.695
X44.291Y-140.335
X45.085Y-118.745
X46.672Y-83.185
X49.054Y-102.235
X51.435Y-121.285
X54.61Y-61.595
X60.96Y-64.135
X61.754Y-137.795
X64.135Y-80.645
X68.104Y-140.335
X68.897Y-99.695
X70.485Y-83.185
X73.66Y-33.02
X73.66Y-61.595
X73.66Y-118.745
X75.248Y-102.235
X80.01Y-35.56
X80.01Y-64.135
X80.01Y-121.285
X83.185Y-80.645
X85.566Y-137.795
X87.947Y-99.695
X89.535Y-83.185
X91.916Y-140.335
X92.71Y-33.02
X92.71Y-61.595
X92.71Y-118.745
X94.297Y-102.235
X99.06Y-35.56
X99.06Y-64.135
X99.06Y-121.285
X102.235Y-80.645
X106.997Y-99.695
X108.585Y-83.185
X111.76Y-33.02
X111.76Y-61.595
X111.76Y-118.745
X113.347Y-102.235
X118.11Y-35.56
X118.11Y-64.135
X118.11Y-121.285
X121.285Y-80.645
X126.047Y-99.695
X127.635Y-83.185
X130.81Y-33.02
X130.81Y-61.595
X130.81Y-118.745
X132.398Y-102.235
X137.16Y-35.56
X137.16Y-64.135
X137.16Y-121.285
X140.335Y-80.645
X145.097Y-99.695
X146.685Y-83.185
X149.86Y-61.595
X149.86Y-118.745
X151.447Y-102.235
X156.21Y-64.135
X156.21Y-121.285
X157.004Y-137.795
X159.385Y-33.02
X159.385Y-80.645
X163.354Y-140.335
X164.147Y-99.695
X165.735Y-35.56
X165.735Y-83.185
X168.91Y-61.595
X168.91Y-118.745
X170.498Y-102.235
X175.26Y-64.135
X175.26Y-121.285
X178.435Y-33.02
X178.435Y-80.645
X183.197Y-99.695
X184.785Y-35.56
X184.785Y-83.185
X187.96Y-61.595
X187.96Y-118.745
X189.547Y-102.235
X194.31Y-64.135
X194.31Y-121.285
X197.485Y-33.02
X197.485Y-80.645
X202.248Y-99.695
X203.835Y-35.56
X203.835Y-83.185
X207.01Y-61.595
X207.01Y-118.745
X208.597Y-102.235
X213.36Y-64.135
X213.36Y-121.285
X216.535Y-33.02
X216.535Y-80.645
X221.297Y-99.695
X222.885Y-35.56
X222.885Y-83.185
X226.06Y-61.595
X226.06Y-118.745
X227.647Y-102.235
X228.441Y-137.795
X232.41Y-64.135
X232.41Y-121.285
X234.791Y-140.335
X235.585Y-80.645
X240.347Y-99.695
X241.935Y-83.185
X245.11Y-33.02
X245.11Y-61.595
X245.11Y-118.745
X246.697Y-102.235
X251.46Y-35.56
X251.46Y-64.135
X251.46Y-121.285
X252.254Y-137.795
X254.635Y-80.645
X258.604Y-140.335
X259.397Y-99.695
X260.985Y-83.185
X264.16Y-33.02
X264.16Y-61.595
X264.16Y-118.745
X265.748Y-102.235
X270.51Y-35.56
X270.51Y-64.135
X270.51Y-121.285
X273.685Y-80.645
X276.066Y-137.795
X280.035Y-83.185
X282.416Y-140.335
X283.21Y-33.02
X283.21Y-118.745
X289.56Y-35.56
X289.56Y-121.285
X290.354Y-99.695
X292.735Y-61.595
X296.704Y-102.235
X297.498Y-80.645
X299.085Y-64.135
X299.879Y-137.795
X302.26Y-33.02
X302.26Y-118.745
X303.847Y-83.185
X306.229Y-140.335
X308.61Y-35.56
X308.61Y-121.285
X345.123Y-33.02
X345.123Y-61.595
X345.123Y-80.645
X345.123Y-118.745
X345.123Y-137.795
X351.472Y-35.56
X351.472Y-64.135
X351.472Y-83.185
X351.472Y-121.285
X351.472Y-140.335
X364.172Y-33.02
X364.172Y-61.595
X364.172Y-80.645
X364.172Y-118.745
X364.172Y-137.795
X370.522Y-35.56
X370.522Y-64.135
X370.522Y-83.185
X370.522Y-121.285
X370.522Y-140.335
X383.222Y-33.02
X383.222Y-61.595
X383.222Y-80.645
X383.222Y-118.745
X383.222Y-137.795
X389.572Y-35.56
X389.572Y-64.135
X389.572Y-83.185
X389.572Y-121.285
X389.572Y-140.335
M30
