%TF.GenerationSoftware,KiCad,Pcbnew,10.0.6*%
%TF.CreationDate,2026-09-25T15:23:43-04:00*%
%TF.ProjectId,keyboard-full,6b657962-6f61-4726-942d-66756c6c2e6b,rev?*%
%TF.SameCoordinates,Original*%
%TF.FileFunction,Soldermask,Bot*%
%TF.FilePolarity,Negative*%
%FSLAX46Y46*%
G04 Gerber Fmt 4.6, Leading zero omitted, Abs format (unit mm)*
G04 Created by KiCad (PCBNEW 10.0.6) date 2026-09-25 15:23:43*
%MOMM*%
%LPD*%
G01*
G04 APERTURE LIST*
G04 Aperture macros list*
%AMRoundRect*
0 Rectangle with rounded corners*
0 $1 Rounding radius*
0 $2 $3 $4 $5 $6 $7 $8 $9 X,Y pos of 4 corners*
0 Add a 4 corners polygon primitive as box body*
4,1,4,$2,$3,$4,$5,$6,$7,$8,$9,$2,$3,0*
0 Add four circle primitives for the rounded corners*
1,1,$1+$1,$2,$3*
1,1,$1+$1,$4,$5*
1,1,$1+$1,$6,$7*
1,1,$1+$1,$8,$9*
0 Add four rect primitives between the rounded corners*
20,1,$1+$1,$2,$3,$4,$5,0*
20,1,$1+$1,$4,$5,$6,$7,0*
20,1,$1+$1,$6,$7,$8,$9,0*
20,1,$1+$1,$8,$9,$2,$3,0*%
%AMFreePoly0*
4,1,37,0.603843,0.796157,0.639018,0.796157,0.711114,0.766294,0.766294,0.711114,0.796157,0.639018,0.796157,0.603843,0.800000,0.600000,0.800000,-0.600000,0.796157,-0.603843,0.796157,-0.639018,0.766294,-0.711114,0.711114,-0.766294,0.639018,-0.796157,0.603843,-0.796157,0.600000,-0.800000,0.000000,-0.800000,0.000000,-0.796148,-0.078414,-0.796148,-0.232228,-0.765552,-0.377117,-0.705537,
-0.507515,-0.618408,-0.618408,-0.507515,-0.705537,-0.377117,-0.765552,-0.232228,-0.796148,-0.078414,-0.796148,0.078414,-0.765552,0.232228,-0.705537,0.377117,-0.618408,0.507515,-0.507515,0.618408,-0.377117,0.705537,-0.232228,0.765552,-0.078414,0.796148,0.000000,0.796148,0.000000,0.800000,0.600000,0.800000,0.603843,0.796157,0.603843,0.796157,$1*%
%AMFreePoly1*
4,1,37,0.000000,0.796148,0.078414,0.796148,0.232228,0.765552,0.377117,0.705537,0.507515,0.618408,0.618408,0.507515,0.705537,0.377117,0.765552,0.232228,0.796148,0.078414,0.796148,-0.078414,0.765552,-0.232228,0.705537,-0.377117,0.618408,-0.507515,0.507515,-0.618408,0.377117,-0.705537,0.232228,-0.765552,0.078414,-0.796148,0.000000,-0.796148,0.000000,-0.800000,-0.600000,-0.800000,
-0.603843,-0.796157,-0.639018,-0.796157,-0.711114,-0.766294,-0.766294,-0.711114,-0.796157,-0.639018,-0.796157,-0.603843,-0.800000,-0.600000,-0.800000,0.600000,-0.796157,0.603843,-0.796157,0.639018,-0.766294,0.711114,-0.711114,0.766294,-0.639018,0.796157,-0.603843,0.796157,-0.600000,0.800000,0.000000,0.800000,0.000000,0.796148,0.000000,0.796148,$1*%
G04 Aperture macros list end*
%ADD10C,1.750000*%
%ADD11C,3.987800*%
%ADD12C,3.300000*%
%ADD13C,3.048000*%
%ADD14C,2.100000*%
%ADD15RoundRect,0.200000X-0.600000X-0.600000X0.600000X-0.600000X0.600000X0.600000X-0.600000X0.600000X0*%
%ADD16C,1.600000*%
%ADD17FreePoly0,0.000000*%
%ADD18FreePoly1,0.000000*%
%ADD19RoundRect,0.205000X-0.470000X-0.205000X0.470000X-0.205000X0.470000X0.205000X-0.470000X0.205000X0*%
%ADD20RoundRect,0.250000X0.550000X-0.550000X0.550000X0.550000X-0.550000X0.550000X-0.550000X-0.550000X0*%
%ADD21RoundRect,0.250000X-0.412500X-0.650000X0.412500X-0.650000X0.412500X0.650000X-0.412500X0.650000X0*%
%ADD22RoundRect,0.205000X0.470000X0.205000X-0.470000X0.205000X-0.470000X-0.205000X0.470000X-0.205000X0*%
%ADD23RoundRect,0.250000X0.412500X0.650000X-0.412500X0.650000X-0.412500X-0.650000X0.412500X-0.650000X0*%
G04 APERTURE END LIST*
D10*
%TO.C,MX69*%
X147320000Y-123825000D03*
D11*
X152400000Y-123825000D03*
D10*
X157480000Y-123825000D03*
D12*
X156210000Y-121285000D03*
X149860000Y-118745000D03*
%TD*%
D13*
%TO.C,S4*%
X280987500Y-97790000D03*
D11*
X280987500Y-113030000D03*
D13*
X304800000Y-97790000D03*
D11*
X304800000Y-113030000D03*
%TD*%
D10*
%TO.C,MX57*%
X161607500Y-104775000D03*
D11*
X166687500Y-104775000D03*
D10*
X171767500Y-104775000D03*
D12*
X170497500Y-102235000D03*
X164147500Y-99695000D03*
%TD*%
D10*
%TO.C,MX63*%
X287813750Y-104775000D03*
D11*
X292893750Y-104775000D03*
D10*
X297973750Y-104775000D03*
D12*
X296703750Y-102235000D03*
X290353750Y-99695000D03*
%TD*%
D10*
%TO.C,MX11*%
X261620000Y-38100000D03*
D11*
X266700000Y-38100000D03*
D10*
X271780000Y-38100000D03*
D12*
X270510000Y-35560000D03*
X264160000Y-33020000D03*
%TD*%
D13*
%TO.C,S3*%
X283368750Y-59690000D03*
D11*
X283368750Y-74930000D03*
D13*
X307181250Y-59690000D03*
D11*
X307181250Y-74930000D03*
%TD*%
D10*
%TO.C,MX1*%
X33020000Y-38100000D03*
D11*
X38100000Y-38100000D03*
D10*
X43180000Y-38100000D03*
D12*
X41910000Y-35560000D03*
X35560000Y-33020000D03*
%TD*%
D10*
%TO.C,MX49*%
X361632500Y-85725000D03*
D11*
X366712500Y-85725000D03*
D10*
X371792500Y-85725000D03*
D12*
X370522500Y-83185000D03*
X364172500Y-80645000D03*
%TD*%
D10*
%TO.C,MX65*%
X71120000Y-123825000D03*
D11*
X76200000Y-123825000D03*
D10*
X81280000Y-123825000D03*
D12*
X80010000Y-121285000D03*
X73660000Y-118745000D03*
%TD*%
D10*
%TO.C,MX82*%
X59213750Y-142875000D03*
D11*
X64293750Y-142875000D03*
D10*
X69373750Y-142875000D03*
D12*
X68103750Y-140335000D03*
X61753750Y-137795000D03*
%TD*%
D10*
%TO.C,MX91*%
X380682500Y-142875000D03*
D11*
X385762500Y-142875000D03*
D10*
X390842500Y-142875000D03*
D12*
X389572500Y-140335000D03*
X383222500Y-137795000D03*
%TD*%
D10*
%TO.C,MX89*%
X342582500Y-142875000D03*
D11*
X347662500Y-142875000D03*
D10*
X352742500Y-142875000D03*
D12*
X351472500Y-140335000D03*
X345122500Y-137795000D03*
%TD*%
D10*
%TO.C,MX31*%
X342582500Y-66675000D03*
D11*
X347662500Y-66675000D03*
D10*
X352742500Y-66675000D03*
D12*
X351472500Y-64135000D03*
X345122500Y-61595000D03*
%TD*%
D10*
%TO.C,MX39*%
X137795000Y-85725000D03*
D11*
X142875000Y-85725000D03*
D10*
X147955000Y-85725000D03*
D12*
X146685000Y-83185000D03*
X140335000Y-80645000D03*
%TD*%
D10*
%TO.C,MX15*%
X361632500Y-38100000D03*
D11*
X366712500Y-38100000D03*
D10*
X371792500Y-38100000D03*
D12*
X370522500Y-35560000D03*
X364172500Y-33020000D03*
%TD*%
D10*
%TO.C,MX79*%
X361632500Y-123825000D03*
D11*
X366712500Y-123825000D03*
D10*
X371792500Y-123825000D03*
D12*
X370522500Y-121285000D03*
X364172500Y-118745000D03*
%TD*%
D10*
%TO.C,MX38*%
X118745000Y-85725000D03*
D11*
X123825000Y-85725000D03*
D10*
X128905000Y-85725000D03*
D12*
X127635000Y-83185000D03*
X121285000Y-80645000D03*
%TD*%
D10*
%TO.C,MX54*%
X104457500Y-104775000D03*
D11*
X109537500Y-104775000D03*
D10*
X114617500Y-104775000D03*
D12*
X113347500Y-102235000D03*
X106997500Y-99695000D03*
%TD*%
D14*
%TO.C,H3*%
X234141500Y-35716500D03*
%TD*%
D10*
%TO.C,MX25*%
X185420000Y-66675000D03*
D11*
X190500000Y-66675000D03*
D10*
X195580000Y-66675000D03*
D12*
X194310000Y-64135000D03*
X187960000Y-61595000D03*
%TD*%
D14*
%TO.C,H2*%
X392881500Y-111118000D03*
%TD*%
D10*
%TO.C,MX51*%
X40163750Y-104775000D03*
D11*
X45243750Y-104775000D03*
D10*
X50323750Y-104775000D03*
D12*
X49053750Y-102235000D03*
X42703750Y-99695000D03*
%TD*%
D10*
%TO.C,MX18*%
X52070000Y-66675000D03*
D11*
X57150000Y-66675000D03*
D10*
X62230000Y-66675000D03*
D12*
X60960000Y-64135000D03*
X54610000Y-61595000D03*
%TD*%
D10*
%TO.C,MX21*%
X109220000Y-66675000D03*
D11*
X114300000Y-66675000D03*
D10*
X119380000Y-66675000D03*
D12*
X118110000Y-64135000D03*
X111760000Y-61595000D03*
%TD*%
D10*
%TO.C,MX42*%
X194945000Y-85725000D03*
D11*
X200025000Y-85725000D03*
D10*
X205105000Y-85725000D03*
D12*
X203835000Y-83185000D03*
X197485000Y-80645000D03*
%TD*%
D10*
%TO.C,MX43*%
X213995000Y-85725000D03*
D11*
X219075000Y-85725000D03*
D10*
X224155000Y-85725000D03*
D12*
X222885000Y-83185000D03*
X216535000Y-80645000D03*
%TD*%
D10*
%TO.C,MX83*%
X83026250Y-142875000D03*
D11*
X88106250Y-142875000D03*
D10*
X93186250Y-142875000D03*
D12*
X91916250Y-140335000D03*
X85566250Y-137795000D03*
%TD*%
D10*
%TO.C,MX64*%
X42545000Y-123825000D03*
D11*
X47625000Y-123825000D03*
D10*
X52705000Y-123825000D03*
D12*
X51435000Y-121285000D03*
X45085000Y-118745000D03*
%TD*%
D10*
%TO.C,MX41*%
X175895000Y-85725000D03*
D11*
X180975000Y-85725000D03*
D10*
X186055000Y-85725000D03*
D12*
X184785000Y-83185000D03*
X178435000Y-80645000D03*
%TD*%
D10*
%TO.C,MX74*%
X242570000Y-123825000D03*
D11*
X247650000Y-123825000D03*
D10*
X252730000Y-123825000D03*
D12*
X251460000Y-121285000D03*
X245110000Y-118745000D03*
%TD*%
D10*
%TO.C,MX3*%
X90170000Y-38100000D03*
D11*
X95250000Y-38100000D03*
D10*
X100330000Y-38100000D03*
D12*
X99060000Y-35560000D03*
X92710000Y-33020000D03*
%TD*%
D10*
%TO.C,MX12*%
X280670000Y-38100000D03*
D11*
X285750000Y-38100000D03*
D10*
X290830000Y-38100000D03*
D12*
X289560000Y-35560000D03*
X283210000Y-33020000D03*
%TD*%
D15*
%TO.C,A1*%
X317376892Y-30099314D03*
D16*
X317376892Y-32639314D03*
D17*
X317376892Y-35179314D03*
D16*
X317376892Y-37719314D03*
X317376892Y-40259314D03*
X317376892Y-42799314D03*
X317376892Y-45339314D03*
D17*
X317376892Y-47879314D03*
D16*
X317376892Y-50419314D03*
X317376892Y-52959314D03*
X317376892Y-55499314D03*
X317376892Y-58039314D03*
D17*
X317376892Y-60579314D03*
D16*
X317376892Y-63119314D03*
X317376892Y-65659314D03*
X317376892Y-68199314D03*
X317376892Y-70739314D03*
D17*
X317376892Y-73279314D03*
D16*
X317376892Y-75819314D03*
X317376892Y-78359314D03*
X335156892Y-78359314D03*
X335156892Y-75819314D03*
D18*
X335156892Y-73279314D03*
D16*
X335156892Y-70739314D03*
X335156892Y-68199314D03*
X335156892Y-65659314D03*
X335156892Y-63119314D03*
D18*
X335156892Y-60579314D03*
D16*
X335156892Y-58039314D03*
X335156892Y-55499314D03*
X335156892Y-52959314D03*
X335156892Y-50419314D03*
D18*
X335156892Y-47879314D03*
D16*
X335156892Y-45339314D03*
X335156892Y-42799314D03*
X335156892Y-40259314D03*
X335156892Y-37719314D03*
D18*
X335156892Y-35179314D03*
D16*
X335156892Y-32639314D03*
X335156892Y-30099314D03*
%TD*%
D10*
%TO.C,MX81*%
X35401250Y-142875000D03*
D11*
X40481250Y-142875000D03*
D10*
X45561250Y-142875000D03*
D12*
X44291250Y-140335000D03*
X37941250Y-137795000D03*
%TD*%
D10*
%TO.C,MX73*%
X223520000Y-123825000D03*
D11*
X228600000Y-123825000D03*
D10*
X233680000Y-123825000D03*
D12*
X232410000Y-121285000D03*
X226060000Y-118745000D03*
%TD*%
D10*
%TO.C,MX14*%
X342582500Y-38100000D03*
D11*
X347662500Y-38100000D03*
D10*
X352742500Y-38100000D03*
D12*
X351472500Y-35560000D03*
X345122500Y-33020000D03*
%TD*%
D10*
%TO.C,MX28*%
X242570000Y-66675000D03*
D11*
X247650000Y-66675000D03*
D10*
X252730000Y-66675000D03*
D12*
X251460000Y-64135000D03*
X245110000Y-61595000D03*
%TD*%
D10*
%TO.C,MX61*%
X237807500Y-104775000D03*
D11*
X242887500Y-104775000D03*
D10*
X247967500Y-104775000D03*
D12*
X246697500Y-102235000D03*
X240347500Y-99695000D03*
%TD*%
D10*
%TO.C,MX90*%
X361632500Y-142875000D03*
D11*
X366712500Y-142875000D03*
D10*
X371792500Y-142875000D03*
D12*
X370522500Y-140335000D03*
X364172500Y-137795000D03*
%TD*%
D10*
%TO.C,MX33*%
X380682500Y-66675000D03*
D11*
X385762500Y-66675000D03*
D10*
X390842500Y-66675000D03*
D12*
X389572500Y-64135000D03*
X383222500Y-61595000D03*
%TD*%
D10*
%TO.C,MX85*%
X225901250Y-142875000D03*
D11*
X230981250Y-142875000D03*
D10*
X236061250Y-142875000D03*
D12*
X234791250Y-140335000D03*
X228441250Y-137795000D03*
%TD*%
D10*
%TO.C,MX77*%
X299720000Y-123825000D03*
D11*
X304800000Y-123825000D03*
D10*
X309880000Y-123825000D03*
D12*
X308610000Y-121285000D03*
X302260000Y-118745000D03*
%TD*%
D14*
%TO.C,H1*%
X32541700Y-51590500D03*
%TD*%
D10*
%TO.C,MX72*%
X204470000Y-123825000D03*
D11*
X209550000Y-123825000D03*
D10*
X214630000Y-123825000D03*
D12*
X213360000Y-121285000D03*
X207010000Y-118745000D03*
%TD*%
D10*
%TO.C,MX56*%
X142557500Y-104775000D03*
D11*
X147637500Y-104775000D03*
D10*
X152717500Y-104775000D03*
D12*
X151447500Y-102235000D03*
X145097500Y-99695000D03*
%TD*%
D10*
%TO.C,MX10*%
X242570000Y-38100000D03*
D11*
X247650000Y-38100000D03*
D10*
X252730000Y-38100000D03*
D12*
X251460000Y-35560000D03*
X245110000Y-33020000D03*
%TD*%
D10*
%TO.C,MX46*%
X271145000Y-85725000D03*
D11*
X276225000Y-85725000D03*
D10*
X281305000Y-85725000D03*
D12*
X280035000Y-83185000D03*
X273685000Y-80645000D03*
%TD*%
D10*
%TO.C,MX55*%
X123507500Y-104775000D03*
D11*
X128587500Y-104775000D03*
D10*
X133667500Y-104775000D03*
D12*
X132397500Y-102235000D03*
X126047500Y-99695000D03*
%TD*%
D10*
%TO.C,MX26*%
X204470000Y-66675000D03*
D11*
X209550000Y-66675000D03*
D10*
X214630000Y-66675000D03*
D12*
X213360000Y-64135000D03*
X207010000Y-61595000D03*
%TD*%
D10*
%TO.C,MX29*%
X261620000Y-66675000D03*
D11*
X266700000Y-66675000D03*
D10*
X271780000Y-66675000D03*
D12*
X270510000Y-64135000D03*
X264160000Y-61595000D03*
%TD*%
D10*
%TO.C,MX5*%
X128270000Y-38100000D03*
D11*
X133350000Y-38100000D03*
D10*
X138430000Y-38100000D03*
D12*
X137160000Y-35560000D03*
X130810000Y-33020000D03*
%TD*%
D10*
%TO.C,MX40*%
X156845000Y-85725000D03*
D11*
X161925000Y-85725000D03*
D10*
X167005000Y-85725000D03*
D12*
X165735000Y-83185000D03*
X159385000Y-80645000D03*
%TD*%
D10*
%TO.C,MX88*%
X297338750Y-142875000D03*
D11*
X302418750Y-142875000D03*
D10*
X307498750Y-142875000D03*
D12*
X306228750Y-140335000D03*
X299878750Y-137795000D03*
%TD*%
D10*
%TO.C,MX2*%
X71120000Y-38100000D03*
D11*
X76200000Y-38100000D03*
D10*
X81280000Y-38100000D03*
D12*
X80010000Y-35560000D03*
X73660000Y-33020000D03*
%TD*%
D10*
%TO.C,MX70*%
X166370000Y-123825000D03*
D11*
X171450000Y-123825000D03*
D10*
X176530000Y-123825000D03*
D12*
X175260000Y-121285000D03*
X168910000Y-118745000D03*
%TD*%
D10*
%TO.C,MX24*%
X166370000Y-66675000D03*
D11*
X171450000Y-66675000D03*
D10*
X176530000Y-66675000D03*
D12*
X175260000Y-64135000D03*
X168910000Y-61595000D03*
%TD*%
D10*
%TO.C,MX67*%
X109220000Y-123825000D03*
D11*
X114300000Y-123825000D03*
D10*
X119380000Y-123825000D03*
D12*
X118110000Y-121285000D03*
X111760000Y-118745000D03*
%TD*%
D10*
%TO.C,MX52*%
X66357500Y-104775000D03*
D11*
X71437500Y-104775000D03*
D10*
X76517500Y-104775000D03*
D12*
X75247500Y-102235000D03*
X68897500Y-99695000D03*
%TD*%
D10*
%TO.C,MX9*%
X213995000Y-38100000D03*
D11*
X219075000Y-38100000D03*
D10*
X224155000Y-38100000D03*
D12*
X222885000Y-35560000D03*
X216535000Y-33020000D03*
%TD*%
D10*
%TO.C,MX68*%
X128270000Y-123825000D03*
D11*
X133350000Y-123825000D03*
D10*
X138430000Y-123825000D03*
D12*
X137160000Y-121285000D03*
X130810000Y-118745000D03*
%TD*%
D10*
%TO.C,MX16*%
X380682500Y-38100000D03*
D11*
X385762500Y-38100000D03*
D10*
X390842500Y-38100000D03*
D12*
X389572500Y-35560000D03*
X383222500Y-33020000D03*
%TD*%
D13*
%TO.C,S2*%
X35718750Y-116840000D03*
D11*
X35718750Y-132080000D03*
D13*
X59531250Y-116840000D03*
D11*
X59531250Y-132080000D03*
%TD*%
D10*
%TO.C,MX8*%
X194945000Y-38100000D03*
D11*
X200025000Y-38100000D03*
D10*
X205105000Y-38100000D03*
D12*
X203835000Y-35560000D03*
X197485000Y-33020000D03*
%TD*%
D10*
%TO.C,MX58*%
X180657500Y-104775000D03*
D11*
X185737500Y-104775000D03*
D10*
X190817500Y-104775000D03*
D12*
X189547500Y-102235000D03*
X183197500Y-99695000D03*
%TD*%
D10*
%TO.C,MX80*%
X380682500Y-123825000D03*
D11*
X385762500Y-123825000D03*
D10*
X390842500Y-123825000D03*
D12*
X389572500Y-121285000D03*
X383222500Y-118745000D03*
%TD*%
D10*
%TO.C,MX62*%
X256857500Y-104775000D03*
D11*
X261937500Y-104775000D03*
D10*
X267017500Y-104775000D03*
D12*
X265747500Y-102235000D03*
X259397500Y-99695000D03*
%TD*%
D10*
%TO.C,MX50*%
X380682500Y-85725000D03*
D11*
X385762500Y-85725000D03*
D10*
X390842500Y-85725000D03*
D12*
X389572500Y-83185000D03*
X383222500Y-80645000D03*
%TD*%
D13*
%TO.C,S1*%
X109537500Y-135890000D03*
D11*
X109537500Y-151130000D03*
D13*
X209550000Y-135890000D03*
D11*
X209550000Y-151130000D03*
%TD*%
D10*
%TO.C,MX76*%
X280670000Y-123825000D03*
D11*
X285750000Y-123825000D03*
D10*
X290830000Y-123825000D03*
D12*
X289560000Y-121285000D03*
X283210000Y-118745000D03*
%TD*%
D10*
%TO.C,MX6*%
X156845000Y-38100000D03*
D11*
X161925000Y-38100000D03*
D10*
X167005000Y-38100000D03*
D12*
X165735000Y-35560000D03*
X159385000Y-33020000D03*
%TD*%
D10*
%TO.C,MX47*%
X294957500Y-85725000D03*
D11*
X300037500Y-85725000D03*
D10*
X305117500Y-85725000D03*
D12*
X303847500Y-83185000D03*
X297497500Y-80645000D03*
%TD*%
D10*
%TO.C,MX30*%
X290195000Y-66675000D03*
D11*
X295275000Y-66675000D03*
D10*
X300355000Y-66675000D03*
D12*
X299085000Y-64135000D03*
X292735000Y-61595000D03*
%TD*%
D10*
%TO.C,MX75*%
X261620000Y-123825000D03*
D11*
X266700000Y-123825000D03*
D10*
X271780000Y-123825000D03*
D12*
X270510000Y-121285000D03*
X264160000Y-118745000D03*
%TD*%
D10*
%TO.C,MX34*%
X37782500Y-85725000D03*
D11*
X42862500Y-85725000D03*
D10*
X47942500Y-85725000D03*
D12*
X46672500Y-83185000D03*
X40322500Y-80645000D03*
%TD*%
D10*
%TO.C,MX13*%
X299720000Y-38100000D03*
D11*
X304800000Y-38100000D03*
D10*
X309880000Y-38100000D03*
D12*
X308610000Y-35560000D03*
X302260000Y-33020000D03*
%TD*%
D10*
%TO.C,MX20*%
X90170000Y-66675000D03*
D11*
X95250000Y-66675000D03*
D10*
X100330000Y-66675000D03*
D12*
X99060000Y-64135000D03*
X92710000Y-61595000D03*
%TD*%
D10*
%TO.C,MX23*%
X147320000Y-66675000D03*
D11*
X152400000Y-66675000D03*
D10*
X157480000Y-66675000D03*
D12*
X156210000Y-64135000D03*
X149860000Y-61595000D03*
%TD*%
D10*
%TO.C,MX4*%
X109220000Y-38100000D03*
D11*
X114300000Y-38100000D03*
D10*
X119380000Y-38100000D03*
D12*
X118110000Y-35560000D03*
X111760000Y-33020000D03*
%TD*%
D10*
%TO.C,MX44*%
X233045000Y-85725000D03*
D11*
X238125000Y-85725000D03*
D10*
X243205000Y-85725000D03*
D12*
X241935000Y-83185000D03*
X235585000Y-80645000D03*
%TD*%
D10*
%TO.C,MX78*%
X342582500Y-123825000D03*
D11*
X347662500Y-123825000D03*
D10*
X352742500Y-123825000D03*
D12*
X351472500Y-121285000D03*
X345122500Y-118745000D03*
%TD*%
D10*
%TO.C,MX37*%
X99695000Y-85725000D03*
D11*
X104775000Y-85725000D03*
D10*
X109855000Y-85725000D03*
D12*
X108585000Y-83185000D03*
X102235000Y-80645000D03*
%TD*%
D10*
%TO.C,MX17*%
X33020000Y-66675000D03*
D11*
X38100000Y-66675000D03*
D10*
X43180000Y-66675000D03*
D12*
X41910000Y-64135000D03*
X35560000Y-61595000D03*
%TD*%
D10*
%TO.C,MX27*%
X223520000Y-66675000D03*
D11*
X228600000Y-66675000D03*
D10*
X233680000Y-66675000D03*
D12*
X232410000Y-64135000D03*
X226060000Y-61595000D03*
%TD*%
D10*
%TO.C,MX84*%
X154463750Y-142875000D03*
D11*
X159543750Y-142875000D03*
D10*
X164623750Y-142875000D03*
D12*
X163353750Y-140335000D03*
X157003750Y-137795000D03*
%TD*%
D10*
%TO.C,MX53*%
X85407500Y-104775000D03*
D11*
X90487500Y-104775000D03*
D10*
X95567500Y-104775000D03*
D12*
X94297500Y-102235000D03*
X87947500Y-99695000D03*
%TD*%
D10*
%TO.C,MX45*%
X252095000Y-85725000D03*
D11*
X257175000Y-85725000D03*
D10*
X262255000Y-85725000D03*
D12*
X260985000Y-83185000D03*
X254635000Y-80645000D03*
%TD*%
D10*
%TO.C,MX7*%
X175895000Y-38100000D03*
D11*
X180975000Y-38100000D03*
D10*
X186055000Y-38100000D03*
D12*
X184785000Y-35560000D03*
X178435000Y-33020000D03*
%TD*%
D16*
%TO.C,R1*%
X29366900Y-35875000D03*
X29366900Y-43495000D03*
%TD*%
D10*
%TO.C,MX32*%
X361632500Y-66675000D03*
D11*
X366712500Y-66675000D03*
D10*
X371792500Y-66675000D03*
D12*
X370522500Y-64135000D03*
X364172500Y-61595000D03*
%TD*%
D10*
%TO.C,MX36*%
X80645000Y-85725000D03*
D11*
X85725000Y-85725000D03*
D10*
X90805000Y-85725000D03*
D12*
X89535000Y-83185000D03*
X83185000Y-80645000D03*
%TD*%
D10*
%TO.C,MX71*%
X185420000Y-123825000D03*
D11*
X190500000Y-123825000D03*
D10*
X195580000Y-123825000D03*
D12*
X194310000Y-121285000D03*
X187960000Y-118745000D03*
%TD*%
D10*
%TO.C,MX86*%
X249713750Y-142875000D03*
D11*
X254793750Y-142875000D03*
D10*
X259873750Y-142875000D03*
D12*
X258603750Y-140335000D03*
X252253750Y-137795000D03*
%TD*%
D10*
%TO.C,MX35*%
X61595000Y-85725000D03*
D11*
X66675000Y-85725000D03*
D10*
X71755000Y-85725000D03*
D12*
X70485000Y-83185000D03*
X64135000Y-80645000D03*
%TD*%
D10*
%TO.C,MX48*%
X342582500Y-85725000D03*
D11*
X347662500Y-85725000D03*
D10*
X352742500Y-85725000D03*
D12*
X351472500Y-83185000D03*
X345122500Y-80645000D03*
%TD*%
D10*
%TO.C,MX87*%
X273526250Y-142875000D03*
D11*
X278606250Y-142875000D03*
D10*
X283686250Y-142875000D03*
D12*
X282416250Y-140335000D03*
X276066250Y-137795000D03*
%TD*%
D10*
%TO.C,MX60*%
X218757500Y-104775000D03*
D11*
X223837500Y-104775000D03*
D10*
X228917500Y-104775000D03*
D12*
X227647500Y-102235000D03*
X221297500Y-99695000D03*
%TD*%
D10*
%TO.C,MX66*%
X90170000Y-123825000D03*
D11*
X95250000Y-123825000D03*
D10*
X100330000Y-123825000D03*
D12*
X99060000Y-121285000D03*
X92710000Y-118745000D03*
%TD*%
D10*
%TO.C,MX59*%
X199707500Y-104775000D03*
D11*
X204787500Y-104775000D03*
D10*
X209867500Y-104775000D03*
D12*
X208597500Y-102235000D03*
X202247500Y-99695000D03*
%TD*%
D14*
%TO.C,H4*%
X200012400Y-141278600D03*
%TD*%
D10*
%TO.C,MX19*%
X71120000Y-66675000D03*
D11*
X76200000Y-66675000D03*
D10*
X81280000Y-66675000D03*
D12*
X80010000Y-64135000D03*
X73660000Y-61595000D03*
%TD*%
D10*
%TO.C,MX22*%
X128270000Y-66675000D03*
D11*
X133350000Y-66675000D03*
D10*
X138430000Y-66675000D03*
D12*
X137160000Y-64135000D03*
X130810000Y-61595000D03*
%TD*%
D19*
%TO.C,LED67*%
X111575000Y-128075000D03*
X111575000Y-129575000D03*
X117025000Y-129575000D03*
X117025000Y-128075000D03*
%TD*%
D20*
%TO.C,D24*%
X179750000Y-68775000D03*
D16*
X179750000Y-61155000D03*
%TD*%
D20*
%TO.C,D52*%
X79737500Y-106875000D03*
D16*
X79737500Y-99255000D03*
%TD*%
D21*
%TO.C,C31*%
X346100000Y-74675000D03*
X349225000Y-74675000D03*
%TD*%
D20*
%TO.C,D73*%
X236900000Y-125925000D03*
D16*
X236900000Y-118305000D03*
%TD*%
D22*
%TO.C,LED90*%
X369437500Y-148625000D03*
X369437500Y-147125000D03*
X363987500Y-147125000D03*
X363987500Y-148625000D03*
%TD*%
D21*
%TO.C,C81*%
X38918750Y-150875000D03*
X42043750Y-150875000D03*
%TD*%
D19*
%TO.C,LED5*%
X130625000Y-42350000D03*
X130625000Y-43850000D03*
X136075000Y-43850000D03*
X136075000Y-42350000D03*
%TD*%
D23*
%TO.C,C15*%
X368275000Y-46100000D03*
X365150000Y-46100000D03*
%TD*%
%TO.C,C11*%
X268262500Y-46100000D03*
X265137500Y-46100000D03*
%TD*%
D20*
%TO.C,D26*%
X217850000Y-68775000D03*
D16*
X217850000Y-61155000D03*
%TD*%
D20*
%TO.C,D72*%
X217850000Y-125925000D03*
D16*
X217850000Y-118305000D03*
%TD*%
D22*
%TO.C,LED86*%
X257518750Y-148625000D03*
X257518750Y-147125000D03*
X252068750Y-147125000D03*
X252068750Y-148625000D03*
%TD*%
%TO.C,LED52*%
X74162500Y-110525000D03*
X74162500Y-109025000D03*
X68712500Y-109025000D03*
X68712500Y-110525000D03*
%TD*%
D19*
%TO.C,LED4*%
X111575000Y-42350000D03*
X111575000Y-43850000D03*
X117025000Y-43850000D03*
X117025000Y-42350000D03*
%TD*%
D20*
%TO.C,D88*%
X310718750Y-144975000D03*
D16*
X310718750Y-137355000D03*
%TD*%
D19*
%TO.C,LED35*%
X63950000Y-89975000D03*
X63950000Y-91475000D03*
X69400000Y-91475000D03*
X69400000Y-89975000D03*
%TD*%
D20*
%TO.C,D2*%
X84500000Y-40200000D03*
D16*
X84500000Y-32580000D03*
%TD*%
D23*
%TO.C,C71*%
X192062500Y-131825000D03*
X188937500Y-131825000D03*
%TD*%
D20*
%TO.C,D81*%
X48781250Y-144975000D03*
D16*
X48781250Y-137355000D03*
%TD*%
D19*
%TO.C,LED36*%
X83000000Y-89975000D03*
X83000000Y-91475000D03*
X88450000Y-91475000D03*
X88450000Y-89975000D03*
%TD*%
D20*
%TO.C,D56*%
X155937500Y-106875000D03*
D16*
X155937500Y-99255000D03*
%TD*%
D20*
%TO.C,D78*%
X355962500Y-125925000D03*
D16*
X355962500Y-118305000D03*
%TD*%
D19*
%TO.C,LED49*%
X363987500Y-89975000D03*
X363987500Y-91475000D03*
X369437500Y-91475000D03*
X369437500Y-89975000D03*
%TD*%
%TO.C,LED76*%
X283025000Y-128075000D03*
X283025000Y-129575000D03*
X288475000Y-129575000D03*
X288475000Y-128075000D03*
%TD*%
D22*
%TO.C,LED20*%
X97975000Y-72425000D03*
X97975000Y-70925000D03*
X92525000Y-70925000D03*
X92525000Y-72425000D03*
%TD*%
%TO.C,LED29*%
X269425000Y-72425000D03*
X269425000Y-70925000D03*
X263975000Y-70925000D03*
X263975000Y-72425000D03*
%TD*%
D23*
%TO.C,C37*%
X106337500Y-93725000D03*
X103212500Y-93725000D03*
%TD*%
%TO.C,C49*%
X368275000Y-93725000D03*
X365150000Y-93725000D03*
%TD*%
%TO.C,C16*%
X387325000Y-46100000D03*
X384200000Y-46100000D03*
%TD*%
D19*
%TO.C,LED7*%
X178250000Y-42350000D03*
X178250000Y-43850000D03*
X183700000Y-43850000D03*
X183700000Y-42350000D03*
%TD*%
%TO.C,LED12*%
X283025000Y-42350000D03*
X283025000Y-43850000D03*
X288475000Y-43850000D03*
X288475000Y-42350000D03*
%TD*%
D20*
%TO.C,D58*%
X194037500Y-106875000D03*
D16*
X194037500Y-99255000D03*
%TD*%
D21*
%TO.C,C23*%
X150837500Y-74675000D03*
X153962500Y-74675000D03*
%TD*%
D20*
%TO.C,D13*%
X313100000Y-40200000D03*
D16*
X313100000Y-32580000D03*
%TD*%
D22*
%TO.C,LED27*%
X231325000Y-72425000D03*
X231325000Y-70925000D03*
X225875000Y-70925000D03*
X225875000Y-72425000D03*
%TD*%
D23*
%TO.C,C6*%
X163487500Y-46100000D03*
X160362500Y-46100000D03*
%TD*%
D20*
%TO.C,D65*%
X84500000Y-125925000D03*
D16*
X84500000Y-118305000D03*
%TD*%
D19*
%TO.C,LED69*%
X149675000Y-128075000D03*
X149675000Y-129575000D03*
X155125000Y-129575000D03*
X155125000Y-128075000D03*
%TD*%
D21*
%TO.C,C62*%
X260375000Y-112775000D03*
X263500000Y-112775000D03*
%TD*%
D20*
%TO.C,D28*%
X255950000Y-68775000D03*
D16*
X255950000Y-61155000D03*
%TD*%
D23*
%TO.C,C46*%
X277787500Y-93725000D03*
X274662500Y-93725000D03*
%TD*%
D20*
%TO.C,D90*%
X375012500Y-144975000D03*
D16*
X375012500Y-137355000D03*
%TD*%
D20*
%TO.C,D64*%
X55925000Y-125925000D03*
D16*
X55925000Y-118305000D03*
%TD*%
D20*
%TO.C,D33*%
X394062500Y-68775000D03*
D16*
X394062500Y-61155000D03*
%TD*%
D19*
%TO.C,LED70*%
X168725000Y-128075000D03*
X168725000Y-129575000D03*
X174175000Y-129575000D03*
X174175000Y-128075000D03*
%TD*%
D20*
%TO.C,D54*%
X117837500Y-106875000D03*
D16*
X117837500Y-99255000D03*
%TD*%
D22*
%TO.C,LED18*%
X59875000Y-72425000D03*
X59875000Y-70925000D03*
X54425000Y-70925000D03*
X54425000Y-72425000D03*
%TD*%
D23*
%TO.C,C75*%
X268262500Y-131825000D03*
X265137500Y-131825000D03*
%TD*%
D20*
%TO.C,D69*%
X160700000Y-125925000D03*
D16*
X160700000Y-118305000D03*
%TD*%
D23*
%TO.C,C48*%
X349225000Y-93725000D03*
X346100000Y-93725000D03*
%TD*%
D20*
%TO.C,D53*%
X98787500Y-106875000D03*
D16*
X98787500Y-99255000D03*
%TD*%
D20*
%TO.C,D21*%
X122600000Y-68775000D03*
D16*
X122600000Y-61155000D03*
%TD*%
D21*
%TO.C,C60*%
X222275000Y-112775000D03*
X225400000Y-112775000D03*
%TD*%
%TO.C,C86*%
X253231250Y-150875000D03*
X256356250Y-150875000D03*
%TD*%
D19*
%TO.C,LED6*%
X159200000Y-42350000D03*
X159200000Y-43850000D03*
X164650000Y-43850000D03*
X164650000Y-42350000D03*
%TD*%
D20*
%TO.C,D15*%
X375012500Y-40200000D03*
D16*
X375012500Y-32580000D03*
%TD*%
D21*
%TO.C,C61*%
X241325000Y-112775000D03*
X244450000Y-112775000D03*
%TD*%
D23*
%TO.C,C38*%
X125387500Y-93725000D03*
X122262500Y-93725000D03*
%TD*%
D21*
%TO.C,C28*%
X246087500Y-74675000D03*
X249212500Y-74675000D03*
%TD*%
D23*
%TO.C,C79*%
X368275000Y-131825000D03*
X365150000Y-131825000D03*
%TD*%
D20*
%TO.C,D42*%
X208325000Y-87825000D03*
D16*
X208325000Y-80205000D03*
%TD*%
D20*
%TO.C,D85*%
X239281250Y-144975000D03*
D16*
X239281250Y-137355000D03*
%TD*%
D23*
%TO.C,C5*%
X134912500Y-46100000D03*
X131787500Y-46100000D03*
%TD*%
D20*
%TO.C,D62*%
X270237500Y-106875000D03*
D16*
X270237500Y-99255000D03*
%TD*%
D23*
%TO.C,C70*%
X173012500Y-131825000D03*
X169887500Y-131825000D03*
%TD*%
D20*
%TO.C,D25*%
X198800000Y-68775000D03*
D16*
X198800000Y-61155000D03*
%TD*%
D19*
%TO.C,LED74*%
X244925000Y-128075000D03*
X244925000Y-129575000D03*
X250375000Y-129575000D03*
X250375000Y-128075000D03*
%TD*%
%TO.C,LED44*%
X235400000Y-89975000D03*
X235400000Y-91475000D03*
X240850000Y-91475000D03*
X240850000Y-89975000D03*
%TD*%
D21*
%TO.C,C87*%
X277043750Y-150875000D03*
X280168750Y-150875000D03*
%TD*%
D20*
%TO.C,D3*%
X103550000Y-40200000D03*
D16*
X103550000Y-32580000D03*
%TD*%
D23*
%TO.C,C1*%
X39662500Y-46100000D03*
X36537500Y-46100000D03*
%TD*%
D20*
%TO.C,D89*%
X355962500Y-144975000D03*
D16*
X355962500Y-137355000D03*
%TD*%
D22*
%TO.C,LED56*%
X150362500Y-110525000D03*
X150362500Y-109025000D03*
X144912500Y-109025000D03*
X144912500Y-110525000D03*
%TD*%
D20*
%TO.C,D66*%
X103550000Y-125925000D03*
D16*
X103550000Y-118305000D03*
%TD*%
D22*
%TO.C,LED89*%
X350387500Y-148625000D03*
X350387500Y-147125000D03*
X344937500Y-147125000D03*
X344937500Y-148625000D03*
%TD*%
D23*
%TO.C,C64*%
X49187500Y-131825000D03*
X46062500Y-131825000D03*
%TD*%
D21*
%TO.C,C22*%
X131787500Y-74675000D03*
X134912500Y-74675000D03*
%TD*%
D19*
%TO.C,LED11*%
X263975000Y-42350000D03*
X263975000Y-43850000D03*
X269425000Y-43850000D03*
X269425000Y-42350000D03*
%TD*%
%TO.C,LED16*%
X383037500Y-42350000D03*
X383037500Y-43850000D03*
X388487500Y-43850000D03*
X388487500Y-42350000D03*
%TD*%
D20*
%TO.C,D9*%
X227375000Y-40200000D03*
D16*
X227375000Y-32580000D03*
%TD*%
D19*
%TO.C,LED13*%
X302075000Y-42350000D03*
X302075000Y-43850000D03*
X307525000Y-43850000D03*
X307525000Y-42350000D03*
%TD*%
%TO.C,LED41*%
X178250000Y-89975000D03*
X178250000Y-91475000D03*
X183700000Y-91475000D03*
X183700000Y-89975000D03*
%TD*%
%TO.C,LED15*%
X363987500Y-42350000D03*
X363987500Y-43850000D03*
X369437500Y-43850000D03*
X369437500Y-42350000D03*
%TD*%
D22*
%TO.C,LED84*%
X162268750Y-148625000D03*
X162268750Y-147125000D03*
X156818750Y-147125000D03*
X156818750Y-148625000D03*
%TD*%
D19*
%TO.C,LED78*%
X344937500Y-128075000D03*
X344937500Y-129575000D03*
X350387500Y-129575000D03*
X350387500Y-128075000D03*
%TD*%
D20*
%TO.C,D30*%
X303575000Y-68775000D03*
D16*
X303575000Y-61155000D03*
%TD*%
D22*
%TO.C,LED19*%
X78925000Y-72425000D03*
X78925000Y-70925000D03*
X73475000Y-70925000D03*
X73475000Y-72425000D03*
%TD*%
D20*
%TO.C,D1*%
X46400000Y-40200000D03*
D16*
X46400000Y-32580000D03*
%TD*%
D19*
%TO.C,LED71*%
X187775000Y-128075000D03*
X187775000Y-129575000D03*
X193225000Y-129575000D03*
X193225000Y-128075000D03*
%TD*%
%TO.C,LED43*%
X216350000Y-89975000D03*
X216350000Y-91475000D03*
X221800000Y-91475000D03*
X221800000Y-89975000D03*
%TD*%
D20*
%TO.C,D10*%
X255950000Y-40200000D03*
D16*
X255950000Y-32580000D03*
%TD*%
D19*
%TO.C,LED38*%
X121100000Y-89975000D03*
X121100000Y-91475000D03*
X126550000Y-91475000D03*
X126550000Y-89975000D03*
%TD*%
D21*
%TO.C,C18*%
X55587500Y-74675000D03*
X58712500Y-74675000D03*
%TD*%
D22*
%TO.C,LED63*%
X295618750Y-110525000D03*
X295618750Y-109025000D03*
X290168750Y-109025000D03*
X290168750Y-110525000D03*
%TD*%
D23*
%TO.C,C69*%
X153962500Y-131825000D03*
X150837500Y-131825000D03*
%TD*%
D19*
%TO.C,LED9*%
X216350000Y-42350000D03*
X216350000Y-43850000D03*
X221800000Y-43850000D03*
X221800000Y-42350000D03*
%TD*%
%TO.C,LED75*%
X263975000Y-128075000D03*
X263975000Y-129575000D03*
X269425000Y-129575000D03*
X269425000Y-128075000D03*
%TD*%
D23*
%TO.C,C35*%
X68237500Y-93725000D03*
X65112500Y-93725000D03*
%TD*%
D20*
%TO.C,D37*%
X113075000Y-87825000D03*
D16*
X113075000Y-80205000D03*
%TD*%
D19*
%TO.C,LED66*%
X92525000Y-128075000D03*
X92525000Y-129575000D03*
X97975000Y-129575000D03*
X97975000Y-128075000D03*
%TD*%
D20*
%TO.C,D75*%
X275000000Y-125925000D03*
D16*
X275000000Y-118305000D03*
%TD*%
D21*
%TO.C,C63*%
X291331250Y-112775000D03*
X294456250Y-112775000D03*
%TD*%
D22*
%TO.C,LED62*%
X264662500Y-110525000D03*
X264662500Y-109025000D03*
X259212500Y-109025000D03*
X259212500Y-110525000D03*
%TD*%
D20*
%TO.C,D48*%
X355962500Y-87825000D03*
D16*
X355962500Y-80205000D03*
%TD*%
D23*
%TO.C,C66*%
X96812500Y-131825000D03*
X93687500Y-131825000D03*
%TD*%
%TO.C,C13*%
X306362500Y-46100000D03*
X303237500Y-46100000D03*
%TD*%
D22*
%TO.C,LED57*%
X169412500Y-110525000D03*
X169412500Y-109025000D03*
X163962500Y-109025000D03*
X163962500Y-110525000D03*
%TD*%
D19*
%TO.C,LED45*%
X254450000Y-89975000D03*
X254450000Y-91475000D03*
X259900000Y-91475000D03*
X259900000Y-89975000D03*
%TD*%
D20*
%TO.C,D49*%
X375012500Y-87825000D03*
D16*
X375012500Y-80205000D03*
%TD*%
D19*
%TO.C,LED50*%
X383037500Y-89975000D03*
X383037500Y-91475000D03*
X388487500Y-91475000D03*
X388487500Y-89975000D03*
%TD*%
%TO.C,LED77*%
X302075000Y-128075000D03*
X302075000Y-129575000D03*
X307525000Y-129575000D03*
X307525000Y-128075000D03*
%TD*%
D21*
%TO.C,C27*%
X227037500Y-74675000D03*
X230162500Y-74675000D03*
%TD*%
D23*
%TO.C,C47*%
X301600000Y-93725000D03*
X298475000Y-93725000D03*
%TD*%
D19*
%TO.C,LED73*%
X225875000Y-128075000D03*
X225875000Y-129575000D03*
X231325000Y-129575000D03*
X231325000Y-128075000D03*
%TD*%
D23*
%TO.C,C78*%
X349225000Y-131825000D03*
X346100000Y-131825000D03*
%TD*%
%TO.C,C74*%
X249212500Y-131825000D03*
X246087500Y-131825000D03*
%TD*%
D21*
%TO.C,C26*%
X207987500Y-74675000D03*
X211112500Y-74675000D03*
%TD*%
%TO.C,C91*%
X384200000Y-150875000D03*
X387325000Y-150875000D03*
%TD*%
D22*
%TO.C,LED53*%
X93212500Y-110525000D03*
X93212500Y-109025000D03*
X87762500Y-109025000D03*
X87762500Y-110525000D03*
%TD*%
D20*
%TO.C,D23*%
X160700000Y-68775000D03*
D16*
X160700000Y-61155000D03*
%TD*%
D22*
%TO.C,LED31*%
X350387500Y-72425000D03*
X350387500Y-70925000D03*
X344937500Y-70925000D03*
X344937500Y-72425000D03*
%TD*%
D23*
%TO.C,C10*%
X249212500Y-46100000D03*
X246087500Y-46100000D03*
%TD*%
D20*
%TO.C,D7*%
X189275000Y-40200000D03*
D16*
X189275000Y-32580000D03*
%TD*%
D22*
%TO.C,LED81*%
X43206250Y-148625000D03*
X43206250Y-147125000D03*
X37756250Y-147125000D03*
X37756250Y-148625000D03*
%TD*%
D21*
%TO.C,C53*%
X88925000Y-112775000D03*
X92050000Y-112775000D03*
%TD*%
%TO.C,C57*%
X165125000Y-112775000D03*
X168250000Y-112775000D03*
%TD*%
D20*
%TO.C,D43*%
X227375000Y-87825000D03*
D16*
X227375000Y-80205000D03*
%TD*%
D20*
%TO.C,D6*%
X170225000Y-40200000D03*
D16*
X170225000Y-32580000D03*
%TD*%
D19*
%TO.C,LED64*%
X44900000Y-128075000D03*
X44900000Y-129575000D03*
X50350000Y-129575000D03*
X50350000Y-128075000D03*
%TD*%
D23*
%TO.C,C77*%
X306362500Y-131825000D03*
X303237500Y-131825000D03*
%TD*%
D20*
%TO.C,D84*%
X167843750Y-144975000D03*
D16*
X167843750Y-137355000D03*
%TD*%
D19*
%TO.C,LED46*%
X273500000Y-89975000D03*
X273500000Y-91475000D03*
X278950000Y-91475000D03*
X278950000Y-89975000D03*
%TD*%
%TO.C,LED47*%
X297312500Y-89975000D03*
X297312500Y-91475000D03*
X302762500Y-91475000D03*
X302762500Y-89975000D03*
%TD*%
D20*
%TO.C,D45*%
X265475000Y-87825000D03*
D16*
X265475000Y-80205000D03*
%TD*%
D21*
%TO.C,C24*%
X169887500Y-74675000D03*
X173012500Y-74675000D03*
%TD*%
D19*
%TO.C,LED42*%
X197300000Y-89975000D03*
X197300000Y-91475000D03*
X202750000Y-91475000D03*
X202750000Y-89975000D03*
%TD*%
D20*
%TO.C,D38*%
X132125000Y-87825000D03*
D16*
X132125000Y-80205000D03*
%TD*%
D20*
%TO.C,D8*%
X208325000Y-40200000D03*
D16*
X208325000Y-32580000D03*
%TD*%
D20*
%TO.C,D14*%
X355962500Y-40200000D03*
D16*
X355962500Y-32580000D03*
%TD*%
D19*
%TO.C,LED39*%
X140150000Y-89975000D03*
X140150000Y-91475000D03*
X145600000Y-91475000D03*
X145600000Y-89975000D03*
%TD*%
D20*
%TO.C,D19*%
X84500000Y-68775000D03*
D16*
X84500000Y-61155000D03*
%TD*%
D23*
%TO.C,C9*%
X220637500Y-46100000D03*
X217512500Y-46100000D03*
%TD*%
%TO.C,C2*%
X77762500Y-46100000D03*
X74637500Y-46100000D03*
%TD*%
D22*
%TO.C,LED83*%
X90831250Y-148625000D03*
X90831250Y-147125000D03*
X85381250Y-147125000D03*
X85381250Y-148625000D03*
%TD*%
D23*
%TO.C,C76*%
X287312500Y-131825000D03*
X284187500Y-131825000D03*
%TD*%
D21*
%TO.C,C30*%
X293712500Y-74675000D03*
X296837500Y-74675000D03*
%TD*%
D22*
%TO.C,LED21*%
X117025000Y-72425000D03*
X117025000Y-70925000D03*
X111575000Y-70925000D03*
X111575000Y-72425000D03*
%TD*%
D20*
%TO.C,D74*%
X255950000Y-125925000D03*
D16*
X255950000Y-118305000D03*
%TD*%
D23*
%TO.C,C12*%
X287312500Y-46100000D03*
X284187500Y-46100000D03*
%TD*%
D20*
%TO.C,D20*%
X103550000Y-68775000D03*
D16*
X103550000Y-61155000D03*
%TD*%
D20*
%TO.C,D68*%
X141650000Y-125925000D03*
D16*
X141650000Y-118305000D03*
%TD*%
D20*
%TO.C,D61*%
X251187500Y-106875000D03*
D16*
X251187500Y-99255000D03*
%TD*%
D20*
%TO.C,D77*%
X313100000Y-125925000D03*
D16*
X313100000Y-118305000D03*
%TD*%
D19*
%TO.C,LED80*%
X383037500Y-128075000D03*
X383037500Y-129575000D03*
X388487500Y-129575000D03*
X388487500Y-128075000D03*
%TD*%
D20*
%TO.C,D80*%
X394062500Y-125925000D03*
D16*
X394062500Y-118305000D03*
%TD*%
D23*
%TO.C,C44*%
X239687500Y-93725000D03*
X236562500Y-93725000D03*
%TD*%
D20*
%TO.C,D67*%
X122600000Y-125925000D03*
D16*
X122600000Y-118305000D03*
%TD*%
D20*
%TO.C,D50*%
X394062500Y-87825000D03*
D16*
X394062500Y-80205000D03*
%TD*%
D20*
%TO.C,D71*%
X198800000Y-125925000D03*
D16*
X198800000Y-118305000D03*
%TD*%
D20*
%TO.C,D36*%
X94025000Y-87825000D03*
D16*
X94025000Y-80205000D03*
%TD*%
D22*
%TO.C,LED85*%
X233706250Y-148625000D03*
X233706250Y-147125000D03*
X228256250Y-147125000D03*
X228256250Y-148625000D03*
%TD*%
D20*
%TO.C,D57*%
X174987500Y-106875000D03*
D16*
X174987500Y-99255000D03*
%TD*%
D23*
%TO.C,C68*%
X134912500Y-131825000D03*
X131787500Y-131825000D03*
%TD*%
%TO.C,C40*%
X163487500Y-93725000D03*
X160362500Y-93725000D03*
%TD*%
D20*
%TO.C,D18*%
X65450000Y-68775000D03*
D16*
X65450000Y-61155000D03*
%TD*%
D22*
%TO.C,LED82*%
X67018750Y-148625000D03*
X67018750Y-147125000D03*
X61568750Y-147125000D03*
X61568750Y-148625000D03*
%TD*%
D20*
%TO.C,D12*%
X294050000Y-40200000D03*
D16*
X294050000Y-32580000D03*
%TD*%
D23*
%TO.C,C65*%
X77762500Y-131825000D03*
X74637500Y-131825000D03*
%TD*%
%TO.C,C43*%
X220637500Y-93725000D03*
X217512500Y-93725000D03*
%TD*%
%TO.C,C34*%
X44425000Y-93725000D03*
X41300000Y-93725000D03*
%TD*%
D21*
%TO.C,C90*%
X365150000Y-150875000D03*
X368275000Y-150875000D03*
%TD*%
D20*
%TO.C,D39*%
X151175000Y-87825000D03*
D16*
X151175000Y-80205000D03*
%TD*%
D20*
%TO.C,D55*%
X136887500Y-106875000D03*
D16*
X136887500Y-99255000D03*
%TD*%
D21*
%TO.C,C21*%
X112737500Y-74675000D03*
X115862500Y-74675000D03*
%TD*%
%TO.C,C54*%
X107975000Y-112775000D03*
X111100000Y-112775000D03*
%TD*%
%TO.C,C58*%
X184175000Y-112775000D03*
X187300000Y-112775000D03*
%TD*%
D19*
%TO.C,LED8*%
X197300000Y-42350000D03*
X197300000Y-43850000D03*
X202750000Y-43850000D03*
X202750000Y-42350000D03*
%TD*%
D22*
%TO.C,LED88*%
X305143750Y-148625000D03*
X305143750Y-147125000D03*
X299693750Y-147125000D03*
X299693750Y-148625000D03*
%TD*%
%TO.C,LED33*%
X388487500Y-72425000D03*
X388487500Y-70925000D03*
X383037500Y-70925000D03*
X383037500Y-72425000D03*
%TD*%
D23*
%TO.C,C72*%
X211112500Y-131825000D03*
X207987500Y-131825000D03*
%TD*%
D21*
%TO.C,C83*%
X86543750Y-150875000D03*
X89668750Y-150875000D03*
%TD*%
D20*
%TO.C,D83*%
X96406250Y-144975000D03*
D16*
X96406250Y-137355000D03*
%TD*%
D22*
%TO.C,LED28*%
X250375000Y-72425000D03*
X250375000Y-70925000D03*
X244925000Y-70925000D03*
X244925000Y-72425000D03*
%TD*%
D21*
%TO.C,C20*%
X93687500Y-74675000D03*
X96812500Y-74675000D03*
%TD*%
D19*
%TO.C,LED72*%
X206825000Y-128075000D03*
X206825000Y-129575000D03*
X212275000Y-129575000D03*
X212275000Y-128075000D03*
%TD*%
D20*
%TO.C,D40*%
X170225000Y-87825000D03*
D16*
X170225000Y-80205000D03*
%TD*%
D21*
%TO.C,C29*%
X265137500Y-74675000D03*
X268262500Y-74675000D03*
%TD*%
%TO.C,C88*%
X300856250Y-150875000D03*
X303981250Y-150875000D03*
%TD*%
D23*
%TO.C,C8*%
X201587500Y-46100000D03*
X198462500Y-46100000D03*
%TD*%
%TO.C,C67*%
X115862500Y-131825000D03*
X112737500Y-131825000D03*
%TD*%
D19*
%TO.C,LED3*%
X92525000Y-42350000D03*
X92525000Y-43850000D03*
X97975000Y-43850000D03*
X97975000Y-42350000D03*
%TD*%
D23*
%TO.C,C4*%
X115862500Y-46100000D03*
X112737500Y-46100000D03*
%TD*%
D21*
%TO.C,C51*%
X43681250Y-112775000D03*
X46806250Y-112775000D03*
%TD*%
D19*
%TO.C,LED34*%
X40137500Y-89975000D03*
X40137500Y-91475000D03*
X45587500Y-91475000D03*
X45587500Y-89975000D03*
%TD*%
D21*
%TO.C,C17*%
X36693618Y-74836718D03*
X39818618Y-74836718D03*
%TD*%
D23*
%TO.C,C7*%
X182537500Y-46100000D03*
X179412500Y-46100000D03*
%TD*%
D22*
%TO.C,LED22*%
X136075000Y-72425000D03*
X136075000Y-70925000D03*
X130625000Y-70925000D03*
X130625000Y-72425000D03*
%TD*%
D21*
%TO.C,C59*%
X203225000Y-112775000D03*
X206350000Y-112775000D03*
%TD*%
D23*
%TO.C,C3*%
X96812500Y-46100000D03*
X93687500Y-46100000D03*
%TD*%
D20*
%TO.C,D63*%
X301193750Y-106875000D03*
D16*
X301193750Y-99255000D03*
%TD*%
D23*
%TO.C,C39*%
X144437500Y-93725000D03*
X141312500Y-93725000D03*
%TD*%
D20*
%TO.C,D51*%
X53543750Y-106875000D03*
D16*
X53543750Y-99255000D03*
%TD*%
D19*
%TO.C,LED48*%
X344937500Y-89975000D03*
X344937500Y-91475000D03*
X350387500Y-91475000D03*
X350387500Y-89975000D03*
%TD*%
%TO.C,LED65*%
X73475000Y-128075000D03*
X73475000Y-129575000D03*
X78925000Y-129575000D03*
X78925000Y-128075000D03*
%TD*%
D20*
%TO.C,D34*%
X51162500Y-87825000D03*
D16*
X51162500Y-80205000D03*
%TD*%
D23*
%TO.C,C42*%
X201587500Y-93725000D03*
X198462500Y-93725000D03*
%TD*%
D22*
%TO.C,LED58*%
X188462500Y-110525000D03*
X188462500Y-109025000D03*
X183012500Y-109025000D03*
X183012500Y-110525000D03*
%TD*%
D19*
%TO.C,LED1*%
X35375000Y-42350000D03*
X35375000Y-43850000D03*
X40825000Y-43850000D03*
X40825000Y-42350000D03*
%TD*%
D22*
%TO.C,LED51*%
X47968750Y-110525000D03*
X47968750Y-109025000D03*
X42518750Y-109025000D03*
X42518750Y-110525000D03*
%TD*%
D23*
%TO.C,C73*%
X230162500Y-131825000D03*
X227037500Y-131825000D03*
%TD*%
D19*
%TO.C,LED68*%
X130625000Y-128075000D03*
X130625000Y-129575000D03*
X136075000Y-129575000D03*
X136075000Y-128075000D03*
%TD*%
D20*
%TO.C,D17*%
X46400000Y-68775000D03*
D16*
X46400000Y-61155000D03*
%TD*%
D22*
%TO.C,LED54*%
X112262500Y-110525000D03*
X112262500Y-109025000D03*
X106812500Y-109025000D03*
X106812500Y-110525000D03*
%TD*%
D23*
%TO.C,C36*%
X87287500Y-93725000D03*
X84162500Y-93725000D03*
%TD*%
D20*
%TO.C,D47*%
X308337500Y-87825000D03*
D16*
X308337500Y-80205000D03*
%TD*%
D23*
%TO.C,C14*%
X349225000Y-46100000D03*
X346100000Y-46100000D03*
%TD*%
D20*
%TO.C,D60*%
X232137500Y-106875000D03*
D16*
X232137500Y-99255000D03*
%TD*%
D20*
%TO.C,D4*%
X122600000Y-40200000D03*
D16*
X122600000Y-32580000D03*
%TD*%
D19*
%TO.C,LED37*%
X102050000Y-89975000D03*
X102050000Y-91475000D03*
X107500000Y-91475000D03*
X107500000Y-89975000D03*
%TD*%
D21*
%TO.C,C89*%
X346100000Y-150875000D03*
X349225000Y-150875000D03*
%TD*%
D22*
%TO.C,LED91*%
X388487500Y-148625000D03*
X388487500Y-147125000D03*
X383037500Y-147125000D03*
X383037500Y-148625000D03*
%TD*%
D21*
%TO.C,C56*%
X146075000Y-112775000D03*
X149200000Y-112775000D03*
%TD*%
D20*
%TO.C,D16*%
X394062500Y-40200000D03*
D16*
X394062500Y-32580000D03*
%TD*%
D22*
%TO.C,LED26*%
X212275000Y-72425000D03*
X212275000Y-70925000D03*
X206825000Y-70925000D03*
X206825000Y-72425000D03*
%TD*%
%TO.C,LED30*%
X298000000Y-72425000D03*
X298000000Y-70925000D03*
X292550000Y-70925000D03*
X292550000Y-72425000D03*
%TD*%
D20*
%TO.C,D5*%
X141650000Y-40200000D03*
D16*
X141650000Y-32580000D03*
%TD*%
D21*
%TO.C,C82*%
X62731250Y-150875000D03*
X65856250Y-150875000D03*
%TD*%
D19*
%TO.C,LED79*%
X363987500Y-128075000D03*
X363987500Y-129575000D03*
X369437500Y-129575000D03*
X369437500Y-128075000D03*
%TD*%
%TO.C,LED14*%
X344937500Y-42350000D03*
X344937500Y-43850000D03*
X350387500Y-43850000D03*
X350387500Y-42350000D03*
%TD*%
D23*
%TO.C,C45*%
X258737500Y-93725000D03*
X255612500Y-93725000D03*
%TD*%
D20*
%TO.C,D29*%
X275000000Y-68775000D03*
D16*
X275000000Y-61155000D03*
%TD*%
D22*
%TO.C,LED87*%
X281331250Y-148625000D03*
X281331250Y-147125000D03*
X275881250Y-147125000D03*
X275881250Y-148625000D03*
%TD*%
D20*
%TO.C,D82*%
X72593750Y-144975000D03*
D16*
X72593750Y-137355000D03*
%TD*%
D20*
%TO.C,D35*%
X74975000Y-87825000D03*
D16*
X74975000Y-80205000D03*
%TD*%
D22*
%TO.C,LED24*%
X174175000Y-72425000D03*
X174175000Y-70925000D03*
X168725000Y-70925000D03*
X168725000Y-72425000D03*
%TD*%
D23*
%TO.C,C41*%
X182537500Y-93725000D03*
X179412500Y-93725000D03*
%TD*%
D20*
%TO.C,D46*%
X284525000Y-87825000D03*
D16*
X284525000Y-80205000D03*
%TD*%
D23*
%TO.C,C50*%
X387325000Y-93725000D03*
X384200000Y-93725000D03*
%TD*%
D22*
%TO.C,LED23*%
X155125000Y-72425000D03*
X155125000Y-70925000D03*
X149675000Y-70925000D03*
X149675000Y-72425000D03*
%TD*%
D20*
%TO.C,D31*%
X355962500Y-68775000D03*
D16*
X355962500Y-61155000D03*
%TD*%
D20*
%TO.C,D59*%
X213087500Y-106875000D03*
D16*
X213087500Y-99255000D03*
%TD*%
D20*
%TO.C,D70*%
X179750000Y-125925000D03*
D16*
X179750000Y-118305000D03*
%TD*%
D20*
%TO.C,D76*%
X294050000Y-125925000D03*
D16*
X294050000Y-118305000D03*
%TD*%
D22*
%TO.C,LED17*%
X40825000Y-72425000D03*
X40825000Y-70925000D03*
X35375000Y-70925000D03*
X35375000Y-72425000D03*
%TD*%
D20*
%TO.C,D22*%
X141650000Y-68775000D03*
D16*
X141650000Y-61155000D03*
%TD*%
D20*
%TO.C,D11*%
X275000000Y-40200000D03*
D16*
X275000000Y-32580000D03*
%TD*%
D19*
%TO.C,LED2*%
X73475000Y-42350000D03*
X73475000Y-43850000D03*
X78925000Y-43850000D03*
X78925000Y-42350000D03*
%TD*%
D21*
%TO.C,C85*%
X229418750Y-150875000D03*
X232543750Y-150875000D03*
%TD*%
%TO.C,C33*%
X384214062Y-74827634D03*
X387339062Y-74827634D03*
%TD*%
%TO.C,C52*%
X69875000Y-112775000D03*
X73000000Y-112775000D03*
%TD*%
D20*
%TO.C,D87*%
X286906250Y-144975000D03*
D16*
X286906250Y-137355000D03*
%TD*%
D20*
%TO.C,D91*%
X394062500Y-144975000D03*
D16*
X394062500Y-137355000D03*
%TD*%
D19*
%TO.C,LED10*%
X244925000Y-42350000D03*
X244925000Y-43850000D03*
X250375000Y-43850000D03*
X250375000Y-42350000D03*
%TD*%
D20*
%TO.C,D41*%
X189275000Y-87825000D03*
D16*
X189275000Y-80205000D03*
%TD*%
D22*
%TO.C,LED25*%
X193225000Y-72425000D03*
X193225000Y-70925000D03*
X187775000Y-70925000D03*
X187775000Y-72425000D03*
%TD*%
D21*
%TO.C,C84*%
X157981250Y-150875000D03*
X161106250Y-150875000D03*
%TD*%
%TO.C,C32*%
X365150000Y-74675000D03*
X368275000Y-74675000D03*
%TD*%
D22*
%TO.C,LED59*%
X207512500Y-110525000D03*
X207512500Y-109025000D03*
X202062500Y-109025000D03*
X202062500Y-110525000D03*
%TD*%
%TO.C,LED55*%
X131312500Y-110525000D03*
X131312500Y-109025000D03*
X125862500Y-109025000D03*
X125862500Y-110525000D03*
%TD*%
D21*
%TO.C,C55*%
X127025000Y-112775000D03*
X130150000Y-112775000D03*
%TD*%
D22*
%TO.C,LED61*%
X245612500Y-110525000D03*
X245612500Y-109025000D03*
X240162500Y-109025000D03*
X240162500Y-110525000D03*
%TD*%
D20*
%TO.C,D32*%
X375012500Y-68775000D03*
D16*
X375012500Y-61155000D03*
%TD*%
D19*
%TO.C,LED40*%
X159200000Y-89975000D03*
X159200000Y-91475000D03*
X164650000Y-91475000D03*
X164650000Y-89975000D03*
%TD*%
D20*
%TO.C,D27*%
X236900000Y-68775000D03*
D16*
X236900000Y-61155000D03*
%TD*%
D20*
%TO.C,D44*%
X246425000Y-87825000D03*
D16*
X246425000Y-80205000D03*
%TD*%
D20*
%TO.C,D86*%
X263093750Y-144975000D03*
D16*
X263093750Y-137355000D03*
%TD*%
D21*
%TO.C,C25*%
X188937500Y-74675000D03*
X192062500Y-74675000D03*
%TD*%
%TO.C,C19*%
X74637500Y-74675000D03*
X77762500Y-74675000D03*
%TD*%
D23*
%TO.C,C80*%
X387325000Y-131825000D03*
X384200000Y-131825000D03*
%TD*%
D22*
%TO.C,LED32*%
X369437500Y-72425000D03*
X369437500Y-70925000D03*
X363987500Y-70925000D03*
X363987500Y-72425000D03*
%TD*%
D20*
%TO.C,D79*%
X375012500Y-125925000D03*
D16*
X375012500Y-118305000D03*
%TD*%
D22*
%TO.C,LED60*%
X226562500Y-110525000D03*
X226562500Y-109025000D03*
X221112500Y-109025000D03*
X221112500Y-110525000D03*
%TD*%
M02*
