%TF.GenerationSoftware,KiCad,Pcbnew,10.0.6*%
%TF.CreationDate,2026-09-25T15:23:43-04:00*%
%TF.ProjectId,keyboard-full,6b657962-6f61-4726-942d-66756c6c2e6b,rev?*%
%TF.SameCoordinates,Original*%
%TF.FileFunction,Paste,Bot*%
%TF.FilePolarity,Positive*%
%FSLAX46Y46*%
G04 Gerber Fmt 4.6, Leading zero omitted, Abs format (unit mm)*
G04 Created by KiCad (PCBNEW 10.0.6) date 2026-09-25 15:23:43*
%MOMM*%
%LPD*%
G01*
G04 APERTURE LIST*
G04 Aperture macros list*
%AMRoundRect*
0 Rectangle with rounded corners*
0 $1 Rounding radius*
0 $2 $3 $4 $5 $6 $7 $8 $9 X,Y pos of 4 corners*
0 Add a 4 corners polygon primitive as box body*
4,1,4,$2,$3,$4,$5,$6,$7,$8,$9,$2,$3,0*
0 Add four circle primitives for the rounded corners*
1,1,$1+$1,$2,$3*
1,1,$1+$1,$4,$5*
1,1,$1+$1,$6,$7*
1,1,$1+$1,$8,$9*
0 Add four rect primitives between the rounded corners*
20,1,$1+$1,$2,$3,$4,$5,0*
20,1,$1+$1,$4,$5,$6,$7,0*
20,1,$1+$1,$6,$7,$8,$9,0*
20,1,$1+$1,$8,$9,$2,$3,0*%
G04 Aperture macros list end*
%ADD10RoundRect,0.205000X-0.470000X-0.205000X0.470000X-0.205000X0.470000X0.205000X-0.470000X0.205000X0*%
%ADD11RoundRect,0.250000X-0.412500X-0.650000X0.412500X-0.650000X0.412500X0.650000X-0.412500X0.650000X0*%
%ADD12RoundRect,0.205000X0.470000X0.205000X-0.470000X0.205000X-0.470000X-0.205000X0.470000X-0.205000X0*%
%ADD13RoundRect,0.250000X0.412500X0.650000X-0.412500X0.650000X-0.412500X-0.650000X0.412500X-0.650000X0*%
G04 APERTURE END LIST*
D10*
%TO.C,LED67*%
X111575000Y-128075000D03*
X111575000Y-129575000D03*
X117025000Y-129575000D03*
X117025000Y-128075000D03*
%TD*%
D11*
%TO.C,C31*%
X346100000Y-74675000D03*
X349225000Y-74675000D03*
%TD*%
D12*
%TO.C,LED90*%
X369437500Y-148625000D03*
X369437500Y-147125000D03*
X363987500Y-147125000D03*
X363987500Y-148625000D03*
%TD*%
D11*
%TO.C,C81*%
X38918750Y-150875000D03*
X42043750Y-150875000D03*
%TD*%
D10*
%TO.C,LED5*%
X130625000Y-42350000D03*
X130625000Y-43850000D03*
X136075000Y-43850000D03*
X136075000Y-42350000D03*
%TD*%
D13*
%TO.C,C15*%
X368275000Y-46100000D03*
X365150000Y-46100000D03*
%TD*%
%TO.C,C11*%
X268262500Y-46100000D03*
X265137500Y-46100000D03*
%TD*%
D12*
%TO.C,LED86*%
X257518750Y-148625000D03*
X257518750Y-147125000D03*
X252068750Y-147125000D03*
X252068750Y-148625000D03*
%TD*%
%TO.C,LED52*%
X74162500Y-110525000D03*
X74162500Y-109025000D03*
X68712500Y-109025000D03*
X68712500Y-110525000D03*
%TD*%
D10*
%TO.C,LED4*%
X111575000Y-42350000D03*
X111575000Y-43850000D03*
X117025000Y-43850000D03*
X117025000Y-42350000D03*
%TD*%
%TO.C,LED35*%
X63950000Y-89975000D03*
X63950000Y-91475000D03*
X69400000Y-91475000D03*
X69400000Y-89975000D03*
%TD*%
D13*
%TO.C,C71*%
X192062500Y-131825000D03*
X188937500Y-131825000D03*
%TD*%
D10*
%TO.C,LED36*%
X83000000Y-89975000D03*
X83000000Y-91475000D03*
X88450000Y-91475000D03*
X88450000Y-89975000D03*
%TD*%
%TO.C,LED49*%
X363987500Y-89975000D03*
X363987500Y-91475000D03*
X369437500Y-91475000D03*
X369437500Y-89975000D03*
%TD*%
%TO.C,LED76*%
X283025000Y-128075000D03*
X283025000Y-129575000D03*
X288475000Y-129575000D03*
X288475000Y-128075000D03*
%TD*%
D12*
%TO.C,LED20*%
X97975000Y-72425000D03*
X97975000Y-70925000D03*
X92525000Y-70925000D03*
X92525000Y-72425000D03*
%TD*%
%TO.C,LED29*%
X269425000Y-72425000D03*
X269425000Y-70925000D03*
X263975000Y-70925000D03*
X263975000Y-72425000D03*
%TD*%
D13*
%TO.C,C37*%
X106337500Y-93725000D03*
X103212500Y-93725000D03*
%TD*%
%TO.C,C49*%
X368275000Y-93725000D03*
X365150000Y-93725000D03*
%TD*%
%TO.C,C16*%
X387325000Y-46100000D03*
X384200000Y-46100000D03*
%TD*%
D10*
%TO.C,LED7*%
X178250000Y-42350000D03*
X178250000Y-43850000D03*
X183700000Y-43850000D03*
X183700000Y-42350000D03*
%TD*%
%TO.C,LED12*%
X283025000Y-42350000D03*
X283025000Y-43850000D03*
X288475000Y-43850000D03*
X288475000Y-42350000D03*
%TD*%
D11*
%TO.C,C23*%
X150837500Y-74675000D03*
X153962500Y-74675000D03*
%TD*%
D12*
%TO.C,LED27*%
X231325000Y-72425000D03*
X231325000Y-70925000D03*
X225875000Y-70925000D03*
X225875000Y-72425000D03*
%TD*%
D13*
%TO.C,C6*%
X163487500Y-46100000D03*
X160362500Y-46100000D03*
%TD*%
D10*
%TO.C,LED69*%
X149675000Y-128075000D03*
X149675000Y-129575000D03*
X155125000Y-129575000D03*
X155125000Y-128075000D03*
%TD*%
D11*
%TO.C,C62*%
X260375000Y-112775000D03*
X263500000Y-112775000D03*
%TD*%
D13*
%TO.C,C46*%
X277787500Y-93725000D03*
X274662500Y-93725000D03*
%TD*%
D10*
%TO.C,LED70*%
X168725000Y-128075000D03*
X168725000Y-129575000D03*
X174175000Y-129575000D03*
X174175000Y-128075000D03*
%TD*%
D12*
%TO.C,LED18*%
X59875000Y-72425000D03*
X59875000Y-70925000D03*
X54425000Y-70925000D03*
X54425000Y-72425000D03*
%TD*%
D13*
%TO.C,C75*%
X268262500Y-131825000D03*
X265137500Y-131825000D03*
%TD*%
%TO.C,C48*%
X349225000Y-93725000D03*
X346100000Y-93725000D03*
%TD*%
D11*
%TO.C,C60*%
X222275000Y-112775000D03*
X225400000Y-112775000D03*
%TD*%
%TO.C,C86*%
X253231250Y-150875000D03*
X256356250Y-150875000D03*
%TD*%
D10*
%TO.C,LED6*%
X159200000Y-42350000D03*
X159200000Y-43850000D03*
X164650000Y-43850000D03*
X164650000Y-42350000D03*
%TD*%
D11*
%TO.C,C61*%
X241325000Y-112775000D03*
X244450000Y-112775000D03*
%TD*%
D13*
%TO.C,C38*%
X125387500Y-93725000D03*
X122262500Y-93725000D03*
%TD*%
D11*
%TO.C,C28*%
X246087500Y-74675000D03*
X249212500Y-74675000D03*
%TD*%
D13*
%TO.C,C79*%
X368275000Y-131825000D03*
X365150000Y-131825000D03*
%TD*%
%TO.C,C5*%
X134912500Y-46100000D03*
X131787500Y-46100000D03*
%TD*%
%TO.C,C70*%
X173012500Y-131825000D03*
X169887500Y-131825000D03*
%TD*%
D10*
%TO.C,LED74*%
X244925000Y-128075000D03*
X244925000Y-129575000D03*
X250375000Y-129575000D03*
X250375000Y-128075000D03*
%TD*%
%TO.C,LED44*%
X235400000Y-89975000D03*
X235400000Y-91475000D03*
X240850000Y-91475000D03*
X240850000Y-89975000D03*
%TD*%
D11*
%TO.C,C87*%
X277043750Y-150875000D03*
X280168750Y-150875000D03*
%TD*%
D13*
%TO.C,C1*%
X39662500Y-46100000D03*
X36537500Y-46100000D03*
%TD*%
D12*
%TO.C,LED56*%
X150362500Y-110525000D03*
X150362500Y-109025000D03*
X144912500Y-109025000D03*
X144912500Y-110525000D03*
%TD*%
%TO.C,LED89*%
X350387500Y-148625000D03*
X350387500Y-147125000D03*
X344937500Y-147125000D03*
X344937500Y-148625000D03*
%TD*%
D13*
%TO.C,C64*%
X49187500Y-131825000D03*
X46062500Y-131825000D03*
%TD*%
D11*
%TO.C,C22*%
X131787500Y-74675000D03*
X134912500Y-74675000D03*
%TD*%
D10*
%TO.C,LED11*%
X263975000Y-42350000D03*
X263975000Y-43850000D03*
X269425000Y-43850000D03*
X269425000Y-42350000D03*
%TD*%
%TO.C,LED16*%
X383037500Y-42350000D03*
X383037500Y-43850000D03*
X388487500Y-43850000D03*
X388487500Y-42350000D03*
%TD*%
%TO.C,LED13*%
X302075000Y-42350000D03*
X302075000Y-43850000D03*
X307525000Y-43850000D03*
X307525000Y-42350000D03*
%TD*%
%TO.C,LED41*%
X178250000Y-89975000D03*
X178250000Y-91475000D03*
X183700000Y-91475000D03*
X183700000Y-89975000D03*
%TD*%
%TO.C,LED15*%
X363987500Y-42350000D03*
X363987500Y-43850000D03*
X369437500Y-43850000D03*
X369437500Y-42350000D03*
%TD*%
D12*
%TO.C,LED84*%
X162268750Y-148625000D03*
X162268750Y-147125000D03*
X156818750Y-147125000D03*
X156818750Y-148625000D03*
%TD*%
D10*
%TO.C,LED78*%
X344937500Y-128075000D03*
X344937500Y-129575000D03*
X350387500Y-129575000D03*
X350387500Y-128075000D03*
%TD*%
D12*
%TO.C,LED19*%
X78925000Y-72425000D03*
X78925000Y-70925000D03*
X73475000Y-70925000D03*
X73475000Y-72425000D03*
%TD*%
D10*
%TO.C,LED71*%
X187775000Y-128075000D03*
X187775000Y-129575000D03*
X193225000Y-129575000D03*
X193225000Y-128075000D03*
%TD*%
%TO.C,LED43*%
X216350000Y-89975000D03*
X216350000Y-91475000D03*
X221800000Y-91475000D03*
X221800000Y-89975000D03*
%TD*%
%TO.C,LED38*%
X121100000Y-89975000D03*
X121100000Y-91475000D03*
X126550000Y-91475000D03*
X126550000Y-89975000D03*
%TD*%
D11*
%TO.C,C18*%
X55587500Y-74675000D03*
X58712500Y-74675000D03*
%TD*%
D12*
%TO.C,LED63*%
X295618750Y-110525000D03*
X295618750Y-109025000D03*
X290168750Y-109025000D03*
X290168750Y-110525000D03*
%TD*%
D13*
%TO.C,C69*%
X153962500Y-131825000D03*
X150837500Y-131825000D03*
%TD*%
D10*
%TO.C,LED9*%
X216350000Y-42350000D03*
X216350000Y-43850000D03*
X221800000Y-43850000D03*
X221800000Y-42350000D03*
%TD*%
%TO.C,LED75*%
X263975000Y-128075000D03*
X263975000Y-129575000D03*
X269425000Y-129575000D03*
X269425000Y-128075000D03*
%TD*%
D13*
%TO.C,C35*%
X68237500Y-93725000D03*
X65112500Y-93725000D03*
%TD*%
D10*
%TO.C,LED66*%
X92525000Y-128075000D03*
X92525000Y-129575000D03*
X97975000Y-129575000D03*
X97975000Y-128075000D03*
%TD*%
D11*
%TO.C,C63*%
X291331250Y-112775000D03*
X294456250Y-112775000D03*
%TD*%
D12*
%TO.C,LED62*%
X264662500Y-110525000D03*
X264662500Y-109025000D03*
X259212500Y-109025000D03*
X259212500Y-110525000D03*
%TD*%
D13*
%TO.C,C66*%
X96812500Y-131825000D03*
X93687500Y-131825000D03*
%TD*%
%TO.C,C13*%
X306362500Y-46100000D03*
X303237500Y-46100000D03*
%TD*%
D12*
%TO.C,LED57*%
X169412500Y-110525000D03*
X169412500Y-109025000D03*
X163962500Y-109025000D03*
X163962500Y-110525000D03*
%TD*%
D10*
%TO.C,LED45*%
X254450000Y-89975000D03*
X254450000Y-91475000D03*
X259900000Y-91475000D03*
X259900000Y-89975000D03*
%TD*%
%TO.C,LED50*%
X383037500Y-89975000D03*
X383037500Y-91475000D03*
X388487500Y-91475000D03*
X388487500Y-89975000D03*
%TD*%
%TO.C,LED77*%
X302075000Y-128075000D03*
X302075000Y-129575000D03*
X307525000Y-129575000D03*
X307525000Y-128075000D03*
%TD*%
D11*
%TO.C,C27*%
X227037500Y-74675000D03*
X230162500Y-74675000D03*
%TD*%
D13*
%TO.C,C47*%
X301600000Y-93725000D03*
X298475000Y-93725000D03*
%TD*%
D10*
%TO.C,LED73*%
X225875000Y-128075000D03*
X225875000Y-129575000D03*
X231325000Y-129575000D03*
X231325000Y-128075000D03*
%TD*%
D13*
%TO.C,C78*%
X349225000Y-131825000D03*
X346100000Y-131825000D03*
%TD*%
%TO.C,C74*%
X249212500Y-131825000D03*
X246087500Y-131825000D03*
%TD*%
D11*
%TO.C,C26*%
X207987500Y-74675000D03*
X211112500Y-74675000D03*
%TD*%
%TO.C,C91*%
X384200000Y-150875000D03*
X387325000Y-150875000D03*
%TD*%
D12*
%TO.C,LED53*%
X93212500Y-110525000D03*
X93212500Y-109025000D03*
X87762500Y-109025000D03*
X87762500Y-110525000D03*
%TD*%
%TO.C,LED31*%
X350387500Y-72425000D03*
X350387500Y-70925000D03*
X344937500Y-70925000D03*
X344937500Y-72425000D03*
%TD*%
D13*
%TO.C,C10*%
X249212500Y-46100000D03*
X246087500Y-46100000D03*
%TD*%
D12*
%TO.C,LED81*%
X43206250Y-148625000D03*
X43206250Y-147125000D03*
X37756250Y-147125000D03*
X37756250Y-148625000D03*
%TD*%
D11*
%TO.C,C53*%
X88925000Y-112775000D03*
X92050000Y-112775000D03*
%TD*%
%TO.C,C57*%
X165125000Y-112775000D03*
X168250000Y-112775000D03*
%TD*%
D10*
%TO.C,LED64*%
X44900000Y-128075000D03*
X44900000Y-129575000D03*
X50350000Y-129575000D03*
X50350000Y-128075000D03*
%TD*%
D13*
%TO.C,C77*%
X306362500Y-131825000D03*
X303237500Y-131825000D03*
%TD*%
D10*
%TO.C,LED46*%
X273500000Y-89975000D03*
X273500000Y-91475000D03*
X278950000Y-91475000D03*
X278950000Y-89975000D03*
%TD*%
%TO.C,LED47*%
X297312500Y-89975000D03*
X297312500Y-91475000D03*
X302762500Y-91475000D03*
X302762500Y-89975000D03*
%TD*%
D11*
%TO.C,C24*%
X169887500Y-74675000D03*
X173012500Y-74675000D03*
%TD*%
D10*
%TO.C,LED42*%
X197300000Y-89975000D03*
X197300000Y-91475000D03*
X202750000Y-91475000D03*
X202750000Y-89975000D03*
%TD*%
%TO.C,LED39*%
X140150000Y-89975000D03*
X140150000Y-91475000D03*
X145600000Y-91475000D03*
X145600000Y-89975000D03*
%TD*%
D13*
%TO.C,C9*%
X220637500Y-46100000D03*
X217512500Y-46100000D03*
%TD*%
%TO.C,C2*%
X77762500Y-46100000D03*
X74637500Y-46100000D03*
%TD*%
D12*
%TO.C,LED83*%
X90831250Y-148625000D03*
X90831250Y-147125000D03*
X85381250Y-147125000D03*
X85381250Y-148625000D03*
%TD*%
D13*
%TO.C,C76*%
X287312500Y-131825000D03*
X284187500Y-131825000D03*
%TD*%
D11*
%TO.C,C30*%
X293712500Y-74675000D03*
X296837500Y-74675000D03*
%TD*%
D12*
%TO.C,LED21*%
X117025000Y-72425000D03*
X117025000Y-70925000D03*
X111575000Y-70925000D03*
X111575000Y-72425000D03*
%TD*%
D13*
%TO.C,C12*%
X287312500Y-46100000D03*
X284187500Y-46100000D03*
%TD*%
D10*
%TO.C,LED80*%
X383037500Y-128075000D03*
X383037500Y-129575000D03*
X388487500Y-129575000D03*
X388487500Y-128075000D03*
%TD*%
D13*
%TO.C,C44*%
X239687500Y-93725000D03*
X236562500Y-93725000D03*
%TD*%
D12*
%TO.C,LED85*%
X233706250Y-148625000D03*
X233706250Y-147125000D03*
X228256250Y-147125000D03*
X228256250Y-148625000D03*
%TD*%
D13*
%TO.C,C68*%
X134912500Y-131825000D03*
X131787500Y-131825000D03*
%TD*%
%TO.C,C40*%
X163487500Y-93725000D03*
X160362500Y-93725000D03*
%TD*%
D12*
%TO.C,LED82*%
X67018750Y-148625000D03*
X67018750Y-147125000D03*
X61568750Y-147125000D03*
X61568750Y-148625000D03*
%TD*%
D13*
%TO.C,C65*%
X77762500Y-131825000D03*
X74637500Y-131825000D03*
%TD*%
%TO.C,C43*%
X220637500Y-93725000D03*
X217512500Y-93725000D03*
%TD*%
%TO.C,C34*%
X44425000Y-93725000D03*
X41300000Y-93725000D03*
%TD*%
D11*
%TO.C,C90*%
X365150000Y-150875000D03*
X368275000Y-150875000D03*
%TD*%
%TO.C,C21*%
X112737500Y-74675000D03*
X115862500Y-74675000D03*
%TD*%
%TO.C,C54*%
X107975000Y-112775000D03*
X111100000Y-112775000D03*
%TD*%
%TO.C,C58*%
X184175000Y-112775000D03*
X187300000Y-112775000D03*
%TD*%
D10*
%TO.C,LED8*%
X197300000Y-42350000D03*
X197300000Y-43850000D03*
X202750000Y-43850000D03*
X202750000Y-42350000D03*
%TD*%
D12*
%TO.C,LED88*%
X305143750Y-148625000D03*
X305143750Y-147125000D03*
X299693750Y-147125000D03*
X299693750Y-148625000D03*
%TD*%
%TO.C,LED33*%
X388487500Y-72425000D03*
X388487500Y-70925000D03*
X383037500Y-70925000D03*
X383037500Y-72425000D03*
%TD*%
D13*
%TO.C,C72*%
X211112500Y-131825000D03*
X207987500Y-131825000D03*
%TD*%
D11*
%TO.C,C83*%
X86543750Y-150875000D03*
X89668750Y-150875000D03*
%TD*%
D12*
%TO.C,LED28*%
X250375000Y-72425000D03*
X250375000Y-70925000D03*
X244925000Y-70925000D03*
X244925000Y-72425000D03*
%TD*%
D11*
%TO.C,C20*%
X93687500Y-74675000D03*
X96812500Y-74675000D03*
%TD*%
D10*
%TO.C,LED72*%
X206825000Y-128075000D03*
X206825000Y-129575000D03*
X212275000Y-129575000D03*
X212275000Y-128075000D03*
%TD*%
D11*
%TO.C,C29*%
X265137500Y-74675000D03*
X268262500Y-74675000D03*
%TD*%
%TO.C,C88*%
X300856250Y-150875000D03*
X303981250Y-150875000D03*
%TD*%
D13*
%TO.C,C8*%
X201587500Y-46100000D03*
X198462500Y-46100000D03*
%TD*%
%TO.C,C67*%
X115862500Y-131825000D03*
X112737500Y-131825000D03*
%TD*%
D10*
%TO.C,LED3*%
X92525000Y-42350000D03*
X92525000Y-43850000D03*
X97975000Y-43850000D03*
X97975000Y-42350000D03*
%TD*%
D13*
%TO.C,C4*%
X115862500Y-46100000D03*
X112737500Y-46100000D03*
%TD*%
D11*
%TO.C,C51*%
X43681250Y-112775000D03*
X46806250Y-112775000D03*
%TD*%
D10*
%TO.C,LED34*%
X40137500Y-89975000D03*
X40137500Y-91475000D03*
X45587500Y-91475000D03*
X45587500Y-89975000D03*
%TD*%
D11*
%TO.C,C17*%
X36693618Y-74836718D03*
X39818618Y-74836718D03*
%TD*%
D13*
%TO.C,C7*%
X182537500Y-46100000D03*
X179412500Y-46100000D03*
%TD*%
D12*
%TO.C,LED22*%
X136075000Y-72425000D03*
X136075000Y-70925000D03*
X130625000Y-70925000D03*
X130625000Y-72425000D03*
%TD*%
D11*
%TO.C,C59*%
X203225000Y-112775000D03*
X206350000Y-112775000D03*
%TD*%
D13*
%TO.C,C3*%
X96812500Y-46100000D03*
X93687500Y-46100000D03*
%TD*%
%TO.C,C39*%
X144437500Y-93725000D03*
X141312500Y-93725000D03*
%TD*%
D10*
%TO.C,LED48*%
X344937500Y-89975000D03*
X344937500Y-91475000D03*
X350387500Y-91475000D03*
X350387500Y-89975000D03*
%TD*%
%TO.C,LED65*%
X73475000Y-128075000D03*
X73475000Y-129575000D03*
X78925000Y-129575000D03*
X78925000Y-128075000D03*
%TD*%
D13*
%TO.C,C42*%
X201587500Y-93725000D03*
X198462500Y-93725000D03*
%TD*%
D12*
%TO.C,LED58*%
X188462500Y-110525000D03*
X188462500Y-109025000D03*
X183012500Y-109025000D03*
X183012500Y-110525000D03*
%TD*%
D10*
%TO.C,LED1*%
X35375000Y-42350000D03*
X35375000Y-43850000D03*
X40825000Y-43850000D03*
X40825000Y-42350000D03*
%TD*%
D12*
%TO.C,LED51*%
X47968750Y-110525000D03*
X47968750Y-109025000D03*
X42518750Y-109025000D03*
X42518750Y-110525000D03*
%TD*%
D13*
%TO.C,C73*%
X230162500Y-131825000D03*
X227037500Y-131825000D03*
%TD*%
D10*
%TO.C,LED68*%
X130625000Y-128075000D03*
X130625000Y-129575000D03*
X136075000Y-129575000D03*
X136075000Y-128075000D03*
%TD*%
D12*
%TO.C,LED54*%
X112262500Y-110525000D03*
X112262500Y-109025000D03*
X106812500Y-109025000D03*
X106812500Y-110525000D03*
%TD*%
D13*
%TO.C,C36*%
X87287500Y-93725000D03*
X84162500Y-93725000D03*
%TD*%
%TO.C,C14*%
X349225000Y-46100000D03*
X346100000Y-46100000D03*
%TD*%
D10*
%TO.C,LED37*%
X102050000Y-89975000D03*
X102050000Y-91475000D03*
X107500000Y-91475000D03*
X107500000Y-89975000D03*
%TD*%
D11*
%TO.C,C89*%
X346100000Y-150875000D03*
X349225000Y-150875000D03*
%TD*%
D12*
%TO.C,LED91*%
X388487500Y-148625000D03*
X388487500Y-147125000D03*
X383037500Y-147125000D03*
X383037500Y-148625000D03*
%TD*%
D11*
%TO.C,C56*%
X146075000Y-112775000D03*
X149200000Y-112775000D03*
%TD*%
D12*
%TO.C,LED26*%
X212275000Y-72425000D03*
X212275000Y-70925000D03*
X206825000Y-70925000D03*
X206825000Y-72425000D03*
%TD*%
%TO.C,LED30*%
X298000000Y-72425000D03*
X298000000Y-70925000D03*
X292550000Y-70925000D03*
X292550000Y-72425000D03*
%TD*%
D11*
%TO.C,C82*%
X62731250Y-150875000D03*
X65856250Y-150875000D03*
%TD*%
D10*
%TO.C,LED79*%
X363987500Y-128075000D03*
X363987500Y-129575000D03*
X369437500Y-129575000D03*
X369437500Y-128075000D03*
%TD*%
%TO.C,LED14*%
X344937500Y-42350000D03*
X344937500Y-43850000D03*
X350387500Y-43850000D03*
X350387500Y-42350000D03*
%TD*%
D13*
%TO.C,C45*%
X258737500Y-93725000D03*
X255612500Y-93725000D03*
%TD*%
D12*
%TO.C,LED87*%
X281331250Y-148625000D03*
X281331250Y-147125000D03*
X275881250Y-147125000D03*
X275881250Y-148625000D03*
%TD*%
%TO.C,LED24*%
X174175000Y-72425000D03*
X174175000Y-70925000D03*
X168725000Y-70925000D03*
X168725000Y-72425000D03*
%TD*%
D13*
%TO.C,C41*%
X182537500Y-93725000D03*
X179412500Y-93725000D03*
%TD*%
%TO.C,C50*%
X387325000Y-93725000D03*
X384200000Y-93725000D03*
%TD*%
D12*
%TO.C,LED23*%
X155125000Y-72425000D03*
X155125000Y-70925000D03*
X149675000Y-70925000D03*
X149675000Y-72425000D03*
%TD*%
%TO.C,LED17*%
X40825000Y-72425000D03*
X40825000Y-70925000D03*
X35375000Y-70925000D03*
X35375000Y-72425000D03*
%TD*%
D10*
%TO.C,LED2*%
X73475000Y-42350000D03*
X73475000Y-43850000D03*
X78925000Y-43850000D03*
X78925000Y-42350000D03*
%TD*%
D11*
%TO.C,C85*%
X229418750Y-150875000D03*
X232543750Y-150875000D03*
%TD*%
%TO.C,C33*%
X384214062Y-74827634D03*
X387339062Y-74827634D03*
%TD*%
%TO.C,C52*%
X69875000Y-112775000D03*
X73000000Y-112775000D03*
%TD*%
D10*
%TO.C,LED10*%
X244925000Y-42350000D03*
X244925000Y-43850000D03*
X250375000Y-43850000D03*
X250375000Y-42350000D03*
%TD*%
D12*
%TO.C,LED25*%
X193225000Y-72425000D03*
X193225000Y-70925000D03*
X187775000Y-70925000D03*
X187775000Y-72425000D03*
%TD*%
D11*
%TO.C,C84*%
X157981250Y-150875000D03*
X161106250Y-150875000D03*
%TD*%
%TO.C,C32*%
X365150000Y-74675000D03*
X368275000Y-74675000D03*
%TD*%
D12*
%TO.C,LED59*%
X207512500Y-110525000D03*
X207512500Y-109025000D03*
X202062500Y-109025000D03*
X202062500Y-110525000D03*
%TD*%
%TO.C,LED55*%
X131312500Y-110525000D03*
X131312500Y-109025000D03*
X125862500Y-109025000D03*
X125862500Y-110525000D03*
%TD*%
D11*
%TO.C,C55*%
X127025000Y-112775000D03*
X130150000Y-112775000D03*
%TD*%
D12*
%TO.C,LED61*%
X245612500Y-110525000D03*
X245612500Y-109025000D03*
X240162500Y-109025000D03*
X240162500Y-110525000D03*
%TD*%
D10*
%TO.C,LED40*%
X159200000Y-89975000D03*
X159200000Y-91475000D03*
X164650000Y-91475000D03*
X164650000Y-89975000D03*
%TD*%
D11*
%TO.C,C25*%
X188937500Y-74675000D03*
X192062500Y-74675000D03*
%TD*%
%TO.C,C19*%
X74637500Y-74675000D03*
X77762500Y-74675000D03*
%TD*%
D13*
%TO.C,C80*%
X387325000Y-131825000D03*
X384200000Y-131825000D03*
%TD*%
D12*
%TO.C,LED32*%
X369437500Y-72425000D03*
X369437500Y-70925000D03*
X363987500Y-70925000D03*
X363987500Y-72425000D03*
%TD*%
%TO.C,LED60*%
X226562500Y-110525000D03*
X226562500Y-109025000D03*
X221112500Y-109025000D03*
X221112500Y-110525000D03*
%TD*%
M02*
