%TF.GenerationSoftware,KiCad,Pcbnew,10.0.6*%
%TF.CreationDate,2026-09-25T15:23:43-04:00*%
%TF.ProjectId,keyboard-full,6b657962-6f61-4726-942d-66756c6c2e6b,rev?*%
%TF.SameCoordinates,Original*%
%TF.FileFunction,Profile,NP*%
%FSLAX46Y46*%
G04 Gerber Fmt 4.6, Leading zero omitted, Abs format (unit mm)*
G04 Created by KiCad (PCBNEW 10.0.6) date 2026-09-25 15:23:43*
%MOMM*%
%LPD*%
G01*
G04 APERTURE LIST*
%TA.AperFunction,Profile*%
%ADD10C,0.050000*%
%TD*%
%TA.AperFunction,Profile*%
%ADD11C,0.120000*%
%TD*%
G04 APERTURE END LIST*
D10*
X27081250Y-29478736D02*
G75*
G02*
X28081250Y-28478750I999950J36D01*
G01*
X27081250Y-152903736D02*
X27081250Y-29478736D01*
X28081250Y-28478736D02*
X395875000Y-28478736D01*
X28081250Y-153903736D02*
G75*
G02*
X27081164Y-152903736I-150J999936D01*
G01*
X395875000Y-28478736D02*
G75*
G02*
X396874964Y-29478736I0J-999964D01*
G01*
X395875000Y-153903736D02*
X28081250Y-153903736D01*
X396875000Y-29478736D02*
X396875000Y-152903736D01*
X396875000Y-152903736D02*
G75*
G02*
X395875000Y-153903700I-1000000J36D01*
G01*
%TO.C,LED67*%
D11*
X112600000Y-128825000D02*
X112600000Y-128124647D01*
X112600000Y-128825000D02*
X112600000Y-129525353D01*
X114300000Y-127325000D02*
X113399647Y-127325000D01*
X114300000Y-127325000D02*
X115200353Y-127325000D01*
X114300000Y-130325000D02*
X113399647Y-130325000D01*
X114300000Y-130325000D02*
X115200353Y-130325000D01*
X116000000Y-128825000D02*
X116000000Y-128124647D01*
X116000000Y-128825000D02*
X116000000Y-129525353D01*
X112556066Y-127968345D02*
G75*
G02*
X112600000Y-128124647I-256058J-156299D01*
G01*
X112556066Y-127968345D02*
G75*
G02*
X113243345Y-127281066I426776J260503D01*
G01*
X112600000Y-129525353D02*
G75*
G02*
X112556066Y-129681655I-299992J-3D01*
G01*
X113243345Y-130368934D02*
G75*
G02*
X112556066Y-129681655I-260503J426776D01*
G01*
X113243345Y-130368934D02*
G75*
G02*
X113399647Y-130325000I156299J-256058D01*
G01*
X113399647Y-127325000D02*
G75*
G02*
X113243345Y-127281066I-3J299992D01*
G01*
X115200353Y-130325000D02*
G75*
G02*
X115356656Y-130368933I-3J-300020D01*
G01*
X115356655Y-127281066D02*
G75*
G02*
X115200353Y-127324976I-156255J256066D01*
G01*
X115356655Y-127281066D02*
G75*
G02*
X116043934Y-127968345I260505J-426774D01*
G01*
X116000000Y-128124647D02*
G75*
G02*
X116043935Y-127968346I299680J87D01*
G01*
X116043934Y-129681655D02*
G75*
G02*
X115356655Y-130368934I-426774J-260505D01*
G01*
X116043934Y-129681655D02*
G75*
G02*
X116000024Y-129525353I256066J156255D01*
G01*
%TO.C,LED90*%
X365012500Y-147875000D02*
X365012500Y-147174647D01*
X365012500Y-147875000D02*
X365012500Y-148575353D01*
X366712500Y-146375000D02*
X365812147Y-146375000D01*
X366712500Y-146375000D02*
X367612853Y-146375000D01*
X366712500Y-149375000D02*
X365812147Y-149375000D01*
X366712500Y-149375000D02*
X367612853Y-149375000D01*
X368412500Y-147875000D02*
X368412500Y-147174647D01*
X368412500Y-147875000D02*
X368412500Y-148575353D01*
X364968566Y-147018345D02*
G75*
G02*
X365012476Y-147174647I-256066J-156255D01*
G01*
X364968566Y-147018345D02*
G75*
G02*
X365655845Y-146331066I426774J260505D01*
G01*
X365012500Y-148575353D02*
G75*
G02*
X364968565Y-148731654I-299680J-87D01*
G01*
X365655845Y-149418934D02*
G75*
G02*
X364968566Y-148731655I-260505J426774D01*
G01*
X365655845Y-149418934D02*
G75*
G02*
X365812147Y-149375024I156255J-256066D01*
G01*
X365812147Y-146375000D02*
G75*
G02*
X365655844Y-146331067I3J300020D01*
G01*
X367612853Y-149375000D02*
G75*
G02*
X367769155Y-149418934I3J-299992D01*
G01*
X367769155Y-146331066D02*
G75*
G02*
X367612853Y-146375000I-156299J256058D01*
G01*
X367769155Y-146331066D02*
G75*
G02*
X368456434Y-147018345I260503J-426776D01*
G01*
X368412500Y-147174647D02*
G75*
G02*
X368456434Y-147018345I299992J3D01*
G01*
X368456434Y-148731655D02*
G75*
G02*
X367769155Y-149418934I-426776J-260503D01*
G01*
X368456434Y-148731655D02*
G75*
G02*
X368412500Y-148575353I256058J156299D01*
G01*
%TO.C,LED5*%
X131650000Y-43100000D02*
X131650000Y-42399647D01*
X131650000Y-43100000D02*
X131650000Y-43800353D01*
X133350000Y-41600000D02*
X132449647Y-41600000D01*
X133350000Y-41600000D02*
X134250353Y-41600000D01*
X133350000Y-44600000D02*
X132449647Y-44600000D01*
X133350000Y-44600000D02*
X134250353Y-44600000D01*
X135050000Y-43100000D02*
X135050000Y-42399647D01*
X135050000Y-43100000D02*
X135050000Y-43800353D01*
X131606066Y-42243345D02*
G75*
G02*
X131650000Y-42399647I-256058J-156299D01*
G01*
X131606066Y-42243345D02*
G75*
G02*
X132293345Y-41556066I426776J260503D01*
G01*
X131650000Y-43800353D02*
G75*
G02*
X131606066Y-43956655I-299992J-3D01*
G01*
X132293345Y-44643934D02*
G75*
G02*
X131606066Y-43956655I-260503J426776D01*
G01*
X132293345Y-44643934D02*
G75*
G02*
X132449647Y-44600000I156299J-256058D01*
G01*
X132449647Y-41600000D02*
G75*
G02*
X132293345Y-41556066I-3J299992D01*
G01*
X134250353Y-44600000D02*
G75*
G02*
X134406656Y-44643933I-3J-300020D01*
G01*
X134406655Y-41556066D02*
G75*
G02*
X134250353Y-41599976I-156255J256066D01*
G01*
X134406655Y-41556066D02*
G75*
G02*
X135093934Y-42243345I260505J-426774D01*
G01*
X135050000Y-42399647D02*
G75*
G02*
X135093935Y-42243346I299680J87D01*
G01*
X135093934Y-43956655D02*
G75*
G02*
X134406655Y-44643934I-426774J-260505D01*
G01*
X135093934Y-43956655D02*
G75*
G02*
X135050024Y-43800353I256066J156255D01*
G01*
%TO.C,LED86*%
X253093750Y-147875000D02*
X253093750Y-147174647D01*
X253093750Y-147875000D02*
X253093750Y-148575353D01*
X254793750Y-146375000D02*
X253893397Y-146375000D01*
X254793750Y-146375000D02*
X255694103Y-146375000D01*
X254793750Y-149375000D02*
X253893397Y-149375000D01*
X254793750Y-149375000D02*
X255694103Y-149375000D01*
X256493750Y-147875000D02*
X256493750Y-147174647D01*
X256493750Y-147875000D02*
X256493750Y-148575353D01*
X253049816Y-147018345D02*
G75*
G02*
X253093726Y-147174647I-256066J-156255D01*
G01*
X253049816Y-147018345D02*
G75*
G02*
X253737095Y-146331066I426774J260505D01*
G01*
X253093750Y-148575353D02*
G75*
G02*
X253049815Y-148731654I-299680J-87D01*
G01*
X253737095Y-149418934D02*
G75*
G02*
X253049816Y-148731655I-260505J426774D01*
G01*
X253737095Y-149418934D02*
G75*
G02*
X253893397Y-149375024I156255J-256066D01*
G01*
X253893397Y-146375000D02*
G75*
G02*
X253737094Y-146331067I3J300020D01*
G01*
X255694103Y-149375000D02*
G75*
G02*
X255850405Y-149418934I3J-299992D01*
G01*
X255850405Y-146331066D02*
G75*
G02*
X255694103Y-146375000I-156299J256058D01*
G01*
X255850405Y-146331066D02*
G75*
G02*
X256537684Y-147018345I260503J-426776D01*
G01*
X256493750Y-147174647D02*
G75*
G02*
X256537684Y-147018345I299992J3D01*
G01*
X256537684Y-148731655D02*
G75*
G02*
X255850405Y-149418934I-426776J-260503D01*
G01*
X256537684Y-148731655D02*
G75*
G02*
X256493750Y-148575353I256058J156299D01*
G01*
%TO.C,LED52*%
X69737500Y-109775000D02*
X69737500Y-109074647D01*
X69737500Y-109775000D02*
X69737500Y-110475353D01*
X71437500Y-108275000D02*
X70537147Y-108275000D01*
X71437500Y-108275000D02*
X72337853Y-108275000D01*
X71437500Y-111275000D02*
X70537147Y-111275000D01*
X71437500Y-111275000D02*
X72337853Y-111275000D01*
X73137500Y-109775000D02*
X73137500Y-109074647D01*
X73137500Y-109775000D02*
X73137500Y-110475353D01*
X69693566Y-108918345D02*
G75*
G02*
X69737476Y-109074647I-256066J-156255D01*
G01*
X69693566Y-108918345D02*
G75*
G02*
X70380845Y-108231066I426774J260505D01*
G01*
X69737500Y-110475353D02*
G75*
G02*
X69693565Y-110631654I-299680J-87D01*
G01*
X70380845Y-111318934D02*
G75*
G02*
X69693566Y-110631655I-260505J426774D01*
G01*
X70380845Y-111318934D02*
G75*
G02*
X70537147Y-111275024I156255J-256066D01*
G01*
X70537147Y-108275000D02*
G75*
G02*
X70380844Y-108231067I3J300020D01*
G01*
X72337853Y-111275000D02*
G75*
G02*
X72494155Y-111318934I3J-299992D01*
G01*
X72494155Y-108231066D02*
G75*
G02*
X72337853Y-108275000I-156299J256058D01*
G01*
X72494155Y-108231066D02*
G75*
G02*
X73181434Y-108918345I260503J-426776D01*
G01*
X73137500Y-109074647D02*
G75*
G02*
X73181434Y-108918345I299992J3D01*
G01*
X73181434Y-110631655D02*
G75*
G02*
X72494155Y-111318934I-426776J-260503D01*
G01*
X73181434Y-110631655D02*
G75*
G02*
X73137500Y-110475353I256058J156299D01*
G01*
%TO.C,LED4*%
X112600000Y-43100000D02*
X112600000Y-42399647D01*
X112600000Y-43100000D02*
X112600000Y-43800353D01*
X114300000Y-41600000D02*
X113399647Y-41600000D01*
X114300000Y-41600000D02*
X115200353Y-41600000D01*
X114300000Y-44600000D02*
X113399647Y-44600000D01*
X114300000Y-44600000D02*
X115200353Y-44600000D01*
X116000000Y-43100000D02*
X116000000Y-42399647D01*
X116000000Y-43100000D02*
X116000000Y-43800353D01*
X112556066Y-42243345D02*
G75*
G02*
X112600000Y-42399647I-256058J-156299D01*
G01*
X112556066Y-42243345D02*
G75*
G02*
X113243345Y-41556066I426776J260503D01*
G01*
X112600000Y-43800353D02*
G75*
G02*
X112556066Y-43956655I-299992J-3D01*
G01*
X113243345Y-44643934D02*
G75*
G02*
X112556066Y-43956655I-260503J426776D01*
G01*
X113243345Y-44643934D02*
G75*
G02*
X113399647Y-44600000I156299J-256058D01*
G01*
X113399647Y-41600000D02*
G75*
G02*
X113243345Y-41556066I-3J299992D01*
G01*
X115200353Y-44600000D02*
G75*
G02*
X115356656Y-44643933I-3J-300020D01*
G01*
X115356655Y-41556066D02*
G75*
G02*
X115200353Y-41599976I-156255J256066D01*
G01*
X115356655Y-41556066D02*
G75*
G02*
X116043934Y-42243345I260505J-426774D01*
G01*
X116000000Y-42399647D02*
G75*
G02*
X116043935Y-42243346I299680J87D01*
G01*
X116043934Y-43956655D02*
G75*
G02*
X115356655Y-44643934I-426774J-260505D01*
G01*
X116043934Y-43956655D02*
G75*
G02*
X116000024Y-43800353I256066J156255D01*
G01*
%TO.C,LED35*%
X64975000Y-90725000D02*
X64975000Y-90024647D01*
X64975000Y-90725000D02*
X64975000Y-91425353D01*
X66675000Y-89225000D02*
X65774647Y-89225000D01*
X66675000Y-89225000D02*
X67575353Y-89225000D01*
X66675000Y-92225000D02*
X65774647Y-92225000D01*
X66675000Y-92225000D02*
X67575353Y-92225000D01*
X68375000Y-90725000D02*
X68375000Y-90024647D01*
X68375000Y-90725000D02*
X68375000Y-91425353D01*
X64931066Y-89868345D02*
G75*
G02*
X64975000Y-90024647I-256058J-156299D01*
G01*
X64931066Y-89868345D02*
G75*
G02*
X65618345Y-89181066I426776J260503D01*
G01*
X64975000Y-91425353D02*
G75*
G02*
X64931066Y-91581655I-299992J-3D01*
G01*
X65618345Y-92268934D02*
G75*
G02*
X64931066Y-91581655I-260503J426776D01*
G01*
X65618345Y-92268934D02*
G75*
G02*
X65774647Y-92225000I156299J-256058D01*
G01*
X65774647Y-89225000D02*
G75*
G02*
X65618345Y-89181066I-3J299992D01*
G01*
X67575353Y-92225000D02*
G75*
G02*
X67731656Y-92268933I-3J-300020D01*
G01*
X67731655Y-89181066D02*
G75*
G02*
X67575353Y-89224976I-156255J256066D01*
G01*
X67731655Y-89181066D02*
G75*
G02*
X68418934Y-89868345I260505J-426774D01*
G01*
X68375000Y-90024647D02*
G75*
G02*
X68418935Y-89868346I299680J87D01*
G01*
X68418934Y-91581655D02*
G75*
G02*
X67731655Y-92268934I-426774J-260505D01*
G01*
X68418934Y-91581655D02*
G75*
G02*
X68375024Y-91425353I256066J156255D01*
G01*
%TO.C,LED36*%
X84025000Y-90725000D02*
X84025000Y-90024647D01*
X84025000Y-90725000D02*
X84025000Y-91425353D01*
X85725000Y-89225000D02*
X84824647Y-89225000D01*
X85725000Y-89225000D02*
X86625353Y-89225000D01*
X85725000Y-92225000D02*
X84824647Y-92225000D01*
X85725000Y-92225000D02*
X86625353Y-92225000D01*
X87425000Y-90725000D02*
X87425000Y-90024647D01*
X87425000Y-90725000D02*
X87425000Y-91425353D01*
X83981066Y-89868345D02*
G75*
G02*
X84025000Y-90024647I-256058J-156299D01*
G01*
X83981066Y-89868345D02*
G75*
G02*
X84668345Y-89181066I426776J260503D01*
G01*
X84025000Y-91425353D02*
G75*
G02*
X83981066Y-91581655I-299992J-3D01*
G01*
X84668345Y-92268934D02*
G75*
G02*
X83981066Y-91581655I-260503J426776D01*
G01*
X84668345Y-92268934D02*
G75*
G02*
X84824647Y-92225000I156299J-256058D01*
G01*
X84824647Y-89225000D02*
G75*
G02*
X84668345Y-89181066I-3J299992D01*
G01*
X86625353Y-92225000D02*
G75*
G02*
X86781656Y-92268933I-3J-300020D01*
G01*
X86781655Y-89181066D02*
G75*
G02*
X86625353Y-89224976I-156255J256066D01*
G01*
X86781655Y-89181066D02*
G75*
G02*
X87468934Y-89868345I260505J-426774D01*
G01*
X87425000Y-90024647D02*
G75*
G02*
X87468935Y-89868346I299680J87D01*
G01*
X87468934Y-91581655D02*
G75*
G02*
X86781655Y-92268934I-426774J-260505D01*
G01*
X87468934Y-91581655D02*
G75*
G02*
X87425024Y-91425353I256066J156255D01*
G01*
%TO.C,LED49*%
X365012500Y-90725000D02*
X365012500Y-90024647D01*
X365012500Y-90725000D02*
X365012500Y-91425353D01*
X366712500Y-89225000D02*
X365812147Y-89225000D01*
X366712500Y-89225000D02*
X367612853Y-89225000D01*
X366712500Y-92225000D02*
X365812147Y-92225000D01*
X366712500Y-92225000D02*
X367612853Y-92225000D01*
X368412500Y-90725000D02*
X368412500Y-90024647D01*
X368412500Y-90725000D02*
X368412500Y-91425353D01*
X364968566Y-89868345D02*
G75*
G02*
X365012500Y-90024647I-256058J-156299D01*
G01*
X364968566Y-89868345D02*
G75*
G02*
X365655845Y-89181066I426776J260503D01*
G01*
X365012500Y-91425353D02*
G75*
G02*
X364968566Y-91581655I-299992J-3D01*
G01*
X365655845Y-92268934D02*
G75*
G02*
X364968566Y-91581655I-260503J426776D01*
G01*
X365655845Y-92268934D02*
G75*
G02*
X365812147Y-92225000I156299J-256058D01*
G01*
X365812147Y-89225000D02*
G75*
G02*
X365655845Y-89181066I-3J299992D01*
G01*
X367612853Y-92225000D02*
G75*
G02*
X367769156Y-92268933I-3J-300020D01*
G01*
X367769155Y-89181066D02*
G75*
G02*
X367612853Y-89224976I-156255J256066D01*
G01*
X367769155Y-89181066D02*
G75*
G02*
X368456434Y-89868345I260505J-426774D01*
G01*
X368412500Y-90024647D02*
G75*
G02*
X368456435Y-89868346I299680J87D01*
G01*
X368456434Y-91581655D02*
G75*
G02*
X367769155Y-92268934I-426774J-260505D01*
G01*
X368456434Y-91581655D02*
G75*
G02*
X368412524Y-91425353I256066J156255D01*
G01*
%TO.C,LED76*%
X284050000Y-128825000D02*
X284050000Y-128124647D01*
X284050000Y-128825000D02*
X284050000Y-129525353D01*
X285750000Y-127325000D02*
X284849647Y-127325000D01*
X285750000Y-127325000D02*
X286650353Y-127325000D01*
X285750000Y-130325000D02*
X284849647Y-130325000D01*
X285750000Y-130325000D02*
X286650353Y-130325000D01*
X287450000Y-128825000D02*
X287450000Y-128124647D01*
X287450000Y-128825000D02*
X287450000Y-129525353D01*
X284006066Y-127968345D02*
G75*
G02*
X284050000Y-128124647I-256058J-156299D01*
G01*
X284006066Y-127968345D02*
G75*
G02*
X284693345Y-127281066I426776J260503D01*
G01*
X284050000Y-129525353D02*
G75*
G02*
X284006066Y-129681655I-299992J-3D01*
G01*
X284693345Y-130368934D02*
G75*
G02*
X284006066Y-129681655I-260503J426776D01*
G01*
X284693345Y-130368934D02*
G75*
G02*
X284849647Y-130325000I156299J-256058D01*
G01*
X284849647Y-127325000D02*
G75*
G02*
X284693345Y-127281066I-3J299992D01*
G01*
X286650353Y-130325000D02*
G75*
G02*
X286806656Y-130368933I-3J-300020D01*
G01*
X286806655Y-127281066D02*
G75*
G02*
X286650353Y-127324976I-156255J256066D01*
G01*
X286806655Y-127281066D02*
G75*
G02*
X287493934Y-127968345I260505J-426774D01*
G01*
X287450000Y-128124647D02*
G75*
G02*
X287493935Y-127968346I299680J87D01*
G01*
X287493934Y-129681655D02*
G75*
G02*
X286806655Y-130368934I-426774J-260505D01*
G01*
X287493934Y-129681655D02*
G75*
G02*
X287450024Y-129525353I256066J156255D01*
G01*
%TO.C,LED20*%
X93550000Y-71675000D02*
X93550000Y-70974647D01*
X93550000Y-71675000D02*
X93550000Y-72375353D01*
X95250000Y-70175000D02*
X94349647Y-70175000D01*
X95250000Y-70175000D02*
X96150353Y-70175000D01*
X95250000Y-73175000D02*
X94349647Y-73175000D01*
X95250000Y-73175000D02*
X96150353Y-73175000D01*
X96950000Y-71675000D02*
X96950000Y-70974647D01*
X96950000Y-71675000D02*
X96950000Y-72375353D01*
X93506066Y-70818345D02*
G75*
G02*
X93549976Y-70974647I-256066J-156255D01*
G01*
X93506066Y-70818345D02*
G75*
G02*
X94193345Y-70131066I426774J260505D01*
G01*
X93550000Y-72375353D02*
G75*
G02*
X93506065Y-72531654I-299680J-87D01*
G01*
X94193345Y-73218934D02*
G75*
G02*
X93506066Y-72531655I-260505J426774D01*
G01*
X94193345Y-73218934D02*
G75*
G02*
X94349647Y-73175024I156255J-256066D01*
G01*
X94349647Y-70175000D02*
G75*
G02*
X94193344Y-70131067I3J300020D01*
G01*
X96150353Y-73175000D02*
G75*
G02*
X96306655Y-73218934I3J-299992D01*
G01*
X96306655Y-70131066D02*
G75*
G02*
X96150353Y-70175000I-156299J256058D01*
G01*
X96306655Y-70131066D02*
G75*
G02*
X96993934Y-70818345I260503J-426776D01*
G01*
X96950000Y-70974647D02*
G75*
G02*
X96993934Y-70818345I299992J3D01*
G01*
X96993934Y-72531655D02*
G75*
G02*
X96306655Y-73218934I-426776J-260503D01*
G01*
X96993934Y-72531655D02*
G75*
G02*
X96950000Y-72375353I256058J156299D01*
G01*
%TO.C,LED29*%
X265000000Y-71675000D02*
X265000000Y-70974647D01*
X265000000Y-71675000D02*
X265000000Y-72375353D01*
X266700000Y-70175000D02*
X265799647Y-70175000D01*
X266700000Y-70175000D02*
X267600353Y-70175000D01*
X266700000Y-73175000D02*
X265799647Y-73175000D01*
X266700000Y-73175000D02*
X267600353Y-73175000D01*
X268400000Y-71675000D02*
X268400000Y-70974647D01*
X268400000Y-71675000D02*
X268400000Y-72375353D01*
X264956066Y-70818345D02*
G75*
G02*
X264999976Y-70974647I-256066J-156255D01*
G01*
X264956066Y-70818345D02*
G75*
G02*
X265643345Y-70131066I426774J260505D01*
G01*
X265000000Y-72375353D02*
G75*
G02*
X264956065Y-72531654I-299680J-87D01*
G01*
X265643345Y-73218934D02*
G75*
G02*
X264956066Y-72531655I-260505J426774D01*
G01*
X265643345Y-73218934D02*
G75*
G02*
X265799647Y-73175024I156255J-256066D01*
G01*
X265799647Y-70175000D02*
G75*
G02*
X265643344Y-70131067I3J300020D01*
G01*
X267600353Y-73175000D02*
G75*
G02*
X267756655Y-73218934I3J-299992D01*
G01*
X267756655Y-70131066D02*
G75*
G02*
X267600353Y-70175000I-156299J256058D01*
G01*
X267756655Y-70131066D02*
G75*
G02*
X268443934Y-70818345I260503J-426776D01*
G01*
X268400000Y-70974647D02*
G75*
G02*
X268443934Y-70818345I299992J3D01*
G01*
X268443934Y-72531655D02*
G75*
G02*
X267756655Y-73218934I-426776J-260503D01*
G01*
X268443934Y-72531655D02*
G75*
G02*
X268400000Y-72375353I256058J156299D01*
G01*
%TO.C,LED7*%
X179275000Y-43100000D02*
X179275000Y-42399647D01*
X179275000Y-43100000D02*
X179275000Y-43800353D01*
X180975000Y-41600000D02*
X180074647Y-41600000D01*
X180975000Y-41600000D02*
X181875353Y-41600000D01*
X180975000Y-44600000D02*
X180074647Y-44600000D01*
X180975000Y-44600000D02*
X181875353Y-44600000D01*
X182675000Y-43100000D02*
X182675000Y-42399647D01*
X182675000Y-43100000D02*
X182675000Y-43800353D01*
X179231066Y-42243345D02*
G75*
G02*
X179275000Y-42399647I-256058J-156299D01*
G01*
X179231066Y-42243345D02*
G75*
G02*
X179918345Y-41556066I426776J260503D01*
G01*
X179275000Y-43800353D02*
G75*
G02*
X179231066Y-43956655I-299992J-3D01*
G01*
X179918345Y-44643934D02*
G75*
G02*
X179231066Y-43956655I-260503J426776D01*
G01*
X179918345Y-44643934D02*
G75*
G02*
X180074647Y-44600000I156299J-256058D01*
G01*
X180074647Y-41600000D02*
G75*
G02*
X179918345Y-41556066I-3J299992D01*
G01*
X181875353Y-44600000D02*
G75*
G02*
X182031656Y-44643933I-3J-300020D01*
G01*
X182031655Y-41556066D02*
G75*
G02*
X181875353Y-41599976I-156255J256066D01*
G01*
X182031655Y-41556066D02*
G75*
G02*
X182718934Y-42243345I260505J-426774D01*
G01*
X182675000Y-42399647D02*
G75*
G02*
X182718935Y-42243346I299680J87D01*
G01*
X182718934Y-43956655D02*
G75*
G02*
X182031655Y-44643934I-426774J-260505D01*
G01*
X182718934Y-43956655D02*
G75*
G02*
X182675024Y-43800353I256066J156255D01*
G01*
%TO.C,LED12*%
X284050000Y-43100000D02*
X284050000Y-42399647D01*
X284050000Y-43100000D02*
X284050000Y-43800353D01*
X285750000Y-41600000D02*
X284849647Y-41600000D01*
X285750000Y-41600000D02*
X286650353Y-41600000D01*
X285750000Y-44600000D02*
X284849647Y-44600000D01*
X285750000Y-44600000D02*
X286650353Y-44600000D01*
X287450000Y-43100000D02*
X287450000Y-42399647D01*
X287450000Y-43100000D02*
X287450000Y-43800353D01*
X284006066Y-42243345D02*
G75*
G02*
X284050000Y-42399647I-256058J-156299D01*
G01*
X284006066Y-42243345D02*
G75*
G02*
X284693345Y-41556066I426776J260503D01*
G01*
X284050000Y-43800353D02*
G75*
G02*
X284006066Y-43956655I-299992J-3D01*
G01*
X284693345Y-44643934D02*
G75*
G02*
X284006066Y-43956655I-260503J426776D01*
G01*
X284693345Y-44643934D02*
G75*
G02*
X284849647Y-44600000I156299J-256058D01*
G01*
X284849647Y-41600000D02*
G75*
G02*
X284693345Y-41556066I-3J299992D01*
G01*
X286650353Y-44600000D02*
G75*
G02*
X286806656Y-44643933I-3J-300020D01*
G01*
X286806655Y-41556066D02*
G75*
G02*
X286650353Y-41599976I-156255J256066D01*
G01*
X286806655Y-41556066D02*
G75*
G02*
X287493934Y-42243345I260505J-426774D01*
G01*
X287450000Y-42399647D02*
G75*
G02*
X287493935Y-42243346I299680J87D01*
G01*
X287493934Y-43956655D02*
G75*
G02*
X286806655Y-44643934I-426774J-260505D01*
G01*
X287493934Y-43956655D02*
G75*
G02*
X287450024Y-43800353I256066J156255D01*
G01*
%TO.C,LED27*%
X226900000Y-71675000D02*
X226900000Y-70974647D01*
X226900000Y-71675000D02*
X226900000Y-72375353D01*
X228600000Y-70175000D02*
X227699647Y-70175000D01*
X228600000Y-70175000D02*
X229500353Y-70175000D01*
X228600000Y-73175000D02*
X227699647Y-73175000D01*
X228600000Y-73175000D02*
X229500353Y-73175000D01*
X230300000Y-71675000D02*
X230300000Y-70974647D01*
X230300000Y-71675000D02*
X230300000Y-72375353D01*
X226856066Y-70818345D02*
G75*
G02*
X226899976Y-70974647I-256066J-156255D01*
G01*
X226856066Y-70818345D02*
G75*
G02*
X227543345Y-70131066I426774J260505D01*
G01*
X226900000Y-72375353D02*
G75*
G02*
X226856065Y-72531654I-299680J-87D01*
G01*
X227543345Y-73218934D02*
G75*
G02*
X226856066Y-72531655I-260505J426774D01*
G01*
X227543345Y-73218934D02*
G75*
G02*
X227699647Y-73175024I156255J-256066D01*
G01*
X227699647Y-70175000D02*
G75*
G02*
X227543344Y-70131067I3J300020D01*
G01*
X229500353Y-73175000D02*
G75*
G02*
X229656655Y-73218934I3J-299992D01*
G01*
X229656655Y-70131066D02*
G75*
G02*
X229500353Y-70175000I-156299J256058D01*
G01*
X229656655Y-70131066D02*
G75*
G02*
X230343934Y-70818345I260503J-426776D01*
G01*
X230300000Y-70974647D02*
G75*
G02*
X230343934Y-70818345I299992J3D01*
G01*
X230343934Y-72531655D02*
G75*
G02*
X229656655Y-73218934I-426776J-260503D01*
G01*
X230343934Y-72531655D02*
G75*
G02*
X230300000Y-72375353I256058J156299D01*
G01*
%TO.C,LED69*%
X150700000Y-128825000D02*
X150700000Y-128124647D01*
X150700000Y-128825000D02*
X150700000Y-129525353D01*
X152400000Y-127325000D02*
X151499647Y-127325000D01*
X152400000Y-127325000D02*
X153300353Y-127325000D01*
X152400000Y-130325000D02*
X151499647Y-130325000D01*
X152400000Y-130325000D02*
X153300353Y-130325000D01*
X154100000Y-128825000D02*
X154100000Y-128124647D01*
X154100000Y-128825000D02*
X154100000Y-129525353D01*
X150656066Y-127968345D02*
G75*
G02*
X150700000Y-128124647I-256058J-156299D01*
G01*
X150656066Y-127968345D02*
G75*
G02*
X151343345Y-127281066I426776J260503D01*
G01*
X150700000Y-129525353D02*
G75*
G02*
X150656066Y-129681655I-299992J-3D01*
G01*
X151343345Y-130368934D02*
G75*
G02*
X150656066Y-129681655I-260503J426776D01*
G01*
X151343345Y-130368934D02*
G75*
G02*
X151499647Y-130325000I156299J-256058D01*
G01*
X151499647Y-127325000D02*
G75*
G02*
X151343345Y-127281066I-3J299992D01*
G01*
X153300353Y-130325000D02*
G75*
G02*
X153456656Y-130368933I-3J-300020D01*
G01*
X153456655Y-127281066D02*
G75*
G02*
X153300353Y-127324976I-156255J256066D01*
G01*
X153456655Y-127281066D02*
G75*
G02*
X154143934Y-127968345I260505J-426774D01*
G01*
X154100000Y-128124647D02*
G75*
G02*
X154143935Y-127968346I299680J87D01*
G01*
X154143934Y-129681655D02*
G75*
G02*
X153456655Y-130368934I-426774J-260505D01*
G01*
X154143934Y-129681655D02*
G75*
G02*
X154100024Y-129525353I256066J156255D01*
G01*
%TO.C,LED70*%
X169750000Y-128825000D02*
X169750000Y-128124647D01*
X169750000Y-128825000D02*
X169750000Y-129525353D01*
X171450000Y-127325000D02*
X170549647Y-127325000D01*
X171450000Y-127325000D02*
X172350353Y-127325000D01*
X171450000Y-130325000D02*
X170549647Y-130325000D01*
X171450000Y-130325000D02*
X172350353Y-130325000D01*
X173150000Y-128825000D02*
X173150000Y-128124647D01*
X173150000Y-128825000D02*
X173150000Y-129525353D01*
X169706066Y-127968345D02*
G75*
G02*
X169750000Y-128124647I-256058J-156299D01*
G01*
X169706066Y-127968345D02*
G75*
G02*
X170393345Y-127281066I426776J260503D01*
G01*
X169750000Y-129525353D02*
G75*
G02*
X169706066Y-129681655I-299992J-3D01*
G01*
X170393345Y-130368934D02*
G75*
G02*
X169706066Y-129681655I-260503J426776D01*
G01*
X170393345Y-130368934D02*
G75*
G02*
X170549647Y-130325000I156299J-256058D01*
G01*
X170549647Y-127325000D02*
G75*
G02*
X170393345Y-127281066I-3J299992D01*
G01*
X172350353Y-130325000D02*
G75*
G02*
X172506656Y-130368933I-3J-300020D01*
G01*
X172506655Y-127281066D02*
G75*
G02*
X172350353Y-127324976I-156255J256066D01*
G01*
X172506655Y-127281066D02*
G75*
G02*
X173193934Y-127968345I260505J-426774D01*
G01*
X173150000Y-128124647D02*
G75*
G02*
X173193935Y-127968346I299680J87D01*
G01*
X173193934Y-129681655D02*
G75*
G02*
X172506655Y-130368934I-426774J-260505D01*
G01*
X173193934Y-129681655D02*
G75*
G02*
X173150024Y-129525353I256066J156255D01*
G01*
%TO.C,LED18*%
X55450000Y-71675000D02*
X55450000Y-70974647D01*
X55450000Y-71675000D02*
X55450000Y-72375353D01*
X57150000Y-70175000D02*
X56249647Y-70175000D01*
X57150000Y-70175000D02*
X58050353Y-70175000D01*
X57150000Y-73175000D02*
X56249647Y-73175000D01*
X57150000Y-73175000D02*
X58050353Y-73175000D01*
X58850000Y-71675000D02*
X58850000Y-70974647D01*
X58850000Y-71675000D02*
X58850000Y-72375353D01*
X55406066Y-70818345D02*
G75*
G02*
X55449976Y-70974647I-256066J-156255D01*
G01*
X55406066Y-70818345D02*
G75*
G02*
X56093345Y-70131066I426774J260505D01*
G01*
X55450000Y-72375353D02*
G75*
G02*
X55406065Y-72531654I-299680J-87D01*
G01*
X56093345Y-73218934D02*
G75*
G02*
X55406066Y-72531655I-260505J426774D01*
G01*
X56093345Y-73218934D02*
G75*
G02*
X56249647Y-73175024I156255J-256066D01*
G01*
X56249647Y-70175000D02*
G75*
G02*
X56093344Y-70131067I3J300020D01*
G01*
X58050353Y-73175000D02*
G75*
G02*
X58206655Y-73218934I3J-299992D01*
G01*
X58206655Y-70131066D02*
G75*
G02*
X58050353Y-70175000I-156299J256058D01*
G01*
X58206655Y-70131066D02*
G75*
G02*
X58893934Y-70818345I260503J-426776D01*
G01*
X58850000Y-70974647D02*
G75*
G02*
X58893934Y-70818345I299992J3D01*
G01*
X58893934Y-72531655D02*
G75*
G02*
X58206655Y-73218934I-426776J-260503D01*
G01*
X58893934Y-72531655D02*
G75*
G02*
X58850000Y-72375353I256058J156299D01*
G01*
%TO.C,LED6*%
X160225000Y-43100000D02*
X160225000Y-42399647D01*
X160225000Y-43100000D02*
X160225000Y-43800353D01*
X161925000Y-41600000D02*
X161024647Y-41600000D01*
X161925000Y-41600000D02*
X162825353Y-41600000D01*
X161925000Y-44600000D02*
X161024647Y-44600000D01*
X161925000Y-44600000D02*
X162825353Y-44600000D01*
X163625000Y-43100000D02*
X163625000Y-42399647D01*
X163625000Y-43100000D02*
X163625000Y-43800353D01*
X160181066Y-42243345D02*
G75*
G02*
X160225000Y-42399647I-256058J-156299D01*
G01*
X160181066Y-42243345D02*
G75*
G02*
X160868345Y-41556066I426776J260503D01*
G01*
X160225000Y-43800353D02*
G75*
G02*
X160181066Y-43956655I-299992J-3D01*
G01*
X160868345Y-44643934D02*
G75*
G02*
X160181066Y-43956655I-260503J426776D01*
G01*
X160868345Y-44643934D02*
G75*
G02*
X161024647Y-44600000I156299J-256058D01*
G01*
X161024647Y-41600000D02*
G75*
G02*
X160868345Y-41556066I-3J299992D01*
G01*
X162825353Y-44600000D02*
G75*
G02*
X162981656Y-44643933I-3J-300020D01*
G01*
X162981655Y-41556066D02*
G75*
G02*
X162825353Y-41599976I-156255J256066D01*
G01*
X162981655Y-41556066D02*
G75*
G02*
X163668934Y-42243345I260505J-426774D01*
G01*
X163625000Y-42399647D02*
G75*
G02*
X163668935Y-42243346I299680J87D01*
G01*
X163668934Y-43956655D02*
G75*
G02*
X162981655Y-44643934I-426774J-260505D01*
G01*
X163668934Y-43956655D02*
G75*
G02*
X163625024Y-43800353I256066J156255D01*
G01*
%TO.C,LED74*%
X245950000Y-128825000D02*
X245950000Y-128124647D01*
X245950000Y-128825000D02*
X245950000Y-129525353D01*
X247650000Y-127325000D02*
X246749647Y-127325000D01*
X247650000Y-127325000D02*
X248550353Y-127325000D01*
X247650000Y-130325000D02*
X246749647Y-130325000D01*
X247650000Y-130325000D02*
X248550353Y-130325000D01*
X249350000Y-128825000D02*
X249350000Y-128124647D01*
X249350000Y-128825000D02*
X249350000Y-129525353D01*
X245906066Y-127968345D02*
G75*
G02*
X245950000Y-128124647I-256058J-156299D01*
G01*
X245906066Y-127968345D02*
G75*
G02*
X246593345Y-127281066I426776J260503D01*
G01*
X245950000Y-129525353D02*
G75*
G02*
X245906066Y-129681655I-299992J-3D01*
G01*
X246593345Y-130368934D02*
G75*
G02*
X245906066Y-129681655I-260503J426776D01*
G01*
X246593345Y-130368934D02*
G75*
G02*
X246749647Y-130325000I156299J-256058D01*
G01*
X246749647Y-127325000D02*
G75*
G02*
X246593345Y-127281066I-3J299992D01*
G01*
X248550353Y-130325000D02*
G75*
G02*
X248706656Y-130368933I-3J-300020D01*
G01*
X248706655Y-127281066D02*
G75*
G02*
X248550353Y-127324976I-156255J256066D01*
G01*
X248706655Y-127281066D02*
G75*
G02*
X249393934Y-127968345I260505J-426774D01*
G01*
X249350000Y-128124647D02*
G75*
G02*
X249393935Y-127968346I299680J87D01*
G01*
X249393934Y-129681655D02*
G75*
G02*
X248706655Y-130368934I-426774J-260505D01*
G01*
X249393934Y-129681655D02*
G75*
G02*
X249350024Y-129525353I256066J156255D01*
G01*
%TO.C,LED44*%
X236425000Y-90725000D02*
X236425000Y-90024647D01*
X236425000Y-90725000D02*
X236425000Y-91425353D01*
X238125000Y-89225000D02*
X237224647Y-89225000D01*
X238125000Y-89225000D02*
X239025353Y-89225000D01*
X238125000Y-92225000D02*
X237224647Y-92225000D01*
X238125000Y-92225000D02*
X239025353Y-92225000D01*
X239825000Y-90725000D02*
X239825000Y-90024647D01*
X239825000Y-90725000D02*
X239825000Y-91425353D01*
X236381066Y-89868345D02*
G75*
G02*
X236425000Y-90024647I-256058J-156299D01*
G01*
X236381066Y-89868345D02*
G75*
G02*
X237068345Y-89181066I426776J260503D01*
G01*
X236425000Y-91425353D02*
G75*
G02*
X236381066Y-91581655I-299992J-3D01*
G01*
X237068345Y-92268934D02*
G75*
G02*
X236381066Y-91581655I-260503J426776D01*
G01*
X237068345Y-92268934D02*
G75*
G02*
X237224647Y-92225000I156299J-256058D01*
G01*
X237224647Y-89225000D02*
G75*
G02*
X237068345Y-89181066I-3J299992D01*
G01*
X239025353Y-92225000D02*
G75*
G02*
X239181656Y-92268933I-3J-300020D01*
G01*
X239181655Y-89181066D02*
G75*
G02*
X239025353Y-89224976I-156255J256066D01*
G01*
X239181655Y-89181066D02*
G75*
G02*
X239868934Y-89868345I260505J-426774D01*
G01*
X239825000Y-90024647D02*
G75*
G02*
X239868935Y-89868346I299680J87D01*
G01*
X239868934Y-91581655D02*
G75*
G02*
X239181655Y-92268934I-426774J-260505D01*
G01*
X239868934Y-91581655D02*
G75*
G02*
X239825024Y-91425353I256066J156255D01*
G01*
%TO.C,LED56*%
X145937500Y-109775000D02*
X145937500Y-109074647D01*
X145937500Y-109775000D02*
X145937500Y-110475353D01*
X147637500Y-108275000D02*
X146737147Y-108275000D01*
X147637500Y-108275000D02*
X148537853Y-108275000D01*
X147637500Y-111275000D02*
X146737147Y-111275000D01*
X147637500Y-111275000D02*
X148537853Y-111275000D01*
X149337500Y-109775000D02*
X149337500Y-109074647D01*
X149337500Y-109775000D02*
X149337500Y-110475353D01*
X145893566Y-108918345D02*
G75*
G02*
X145937476Y-109074647I-256066J-156255D01*
G01*
X145893566Y-108918345D02*
G75*
G02*
X146580845Y-108231066I426774J260505D01*
G01*
X145937500Y-110475353D02*
G75*
G02*
X145893565Y-110631654I-299680J-87D01*
G01*
X146580845Y-111318934D02*
G75*
G02*
X145893566Y-110631655I-260505J426774D01*
G01*
X146580845Y-111318934D02*
G75*
G02*
X146737147Y-111275024I156255J-256066D01*
G01*
X146737147Y-108275000D02*
G75*
G02*
X146580844Y-108231067I3J300020D01*
G01*
X148537853Y-111275000D02*
G75*
G02*
X148694155Y-111318934I3J-299992D01*
G01*
X148694155Y-108231066D02*
G75*
G02*
X148537853Y-108275000I-156299J256058D01*
G01*
X148694155Y-108231066D02*
G75*
G02*
X149381434Y-108918345I260503J-426776D01*
G01*
X149337500Y-109074647D02*
G75*
G02*
X149381434Y-108918345I299992J3D01*
G01*
X149381434Y-110631655D02*
G75*
G02*
X148694155Y-111318934I-426776J-260503D01*
G01*
X149381434Y-110631655D02*
G75*
G02*
X149337500Y-110475353I256058J156299D01*
G01*
%TO.C,LED89*%
X345962500Y-147875000D02*
X345962500Y-147174647D01*
X345962500Y-147875000D02*
X345962500Y-148575353D01*
X347662500Y-146375000D02*
X346762147Y-146375000D01*
X347662500Y-146375000D02*
X348562853Y-146375000D01*
X347662500Y-149375000D02*
X346762147Y-149375000D01*
X347662500Y-149375000D02*
X348562853Y-149375000D01*
X349362500Y-147875000D02*
X349362500Y-147174647D01*
X349362500Y-147875000D02*
X349362500Y-148575353D01*
X345918566Y-147018345D02*
G75*
G02*
X345962476Y-147174647I-256066J-156255D01*
G01*
X345918566Y-147018345D02*
G75*
G02*
X346605845Y-146331066I426774J260505D01*
G01*
X345962500Y-148575353D02*
G75*
G02*
X345918565Y-148731654I-299680J-87D01*
G01*
X346605845Y-149418934D02*
G75*
G02*
X345918566Y-148731655I-260505J426774D01*
G01*
X346605845Y-149418934D02*
G75*
G02*
X346762147Y-149375024I156255J-256066D01*
G01*
X346762147Y-146375000D02*
G75*
G02*
X346605844Y-146331067I3J300020D01*
G01*
X348562853Y-149375000D02*
G75*
G02*
X348719155Y-149418934I3J-299992D01*
G01*
X348719155Y-146331066D02*
G75*
G02*
X348562853Y-146375000I-156299J256058D01*
G01*
X348719155Y-146331066D02*
G75*
G02*
X349406434Y-147018345I260503J-426776D01*
G01*
X349362500Y-147174647D02*
G75*
G02*
X349406434Y-147018345I299992J3D01*
G01*
X349406434Y-148731655D02*
G75*
G02*
X348719155Y-149418934I-426776J-260503D01*
G01*
X349406434Y-148731655D02*
G75*
G02*
X349362500Y-148575353I256058J156299D01*
G01*
%TO.C,LED11*%
X265000000Y-43100000D02*
X265000000Y-42399647D01*
X265000000Y-43100000D02*
X265000000Y-43800353D01*
X266700000Y-41600000D02*
X265799647Y-41600000D01*
X266700000Y-41600000D02*
X267600353Y-41600000D01*
X266700000Y-44600000D02*
X265799647Y-44600000D01*
X266700000Y-44600000D02*
X267600353Y-44600000D01*
X268400000Y-43100000D02*
X268400000Y-42399647D01*
X268400000Y-43100000D02*
X268400000Y-43800353D01*
X264956066Y-42243345D02*
G75*
G02*
X265000000Y-42399647I-256058J-156299D01*
G01*
X264956066Y-42243345D02*
G75*
G02*
X265643345Y-41556066I426776J260503D01*
G01*
X265000000Y-43800353D02*
G75*
G02*
X264956066Y-43956655I-299992J-3D01*
G01*
X265643345Y-44643934D02*
G75*
G02*
X264956066Y-43956655I-260503J426776D01*
G01*
X265643345Y-44643934D02*
G75*
G02*
X265799647Y-44600000I156299J-256058D01*
G01*
X265799647Y-41600000D02*
G75*
G02*
X265643345Y-41556066I-3J299992D01*
G01*
X267600353Y-44600000D02*
G75*
G02*
X267756656Y-44643933I-3J-300020D01*
G01*
X267756655Y-41556066D02*
G75*
G02*
X267600353Y-41599976I-156255J256066D01*
G01*
X267756655Y-41556066D02*
G75*
G02*
X268443934Y-42243345I260505J-426774D01*
G01*
X268400000Y-42399647D02*
G75*
G02*
X268443935Y-42243346I299680J87D01*
G01*
X268443934Y-43956655D02*
G75*
G02*
X267756655Y-44643934I-426774J-260505D01*
G01*
X268443934Y-43956655D02*
G75*
G02*
X268400024Y-43800353I256066J156255D01*
G01*
%TO.C,LED16*%
X384062500Y-43100000D02*
X384062500Y-42399647D01*
X384062500Y-43100000D02*
X384062500Y-43800353D01*
X385762500Y-41600000D02*
X384862147Y-41600000D01*
X385762500Y-41600000D02*
X386662853Y-41600000D01*
X385762500Y-44600000D02*
X384862147Y-44600000D01*
X385762500Y-44600000D02*
X386662853Y-44600000D01*
X387462500Y-43100000D02*
X387462500Y-42399647D01*
X387462500Y-43100000D02*
X387462500Y-43800353D01*
X384018566Y-42243345D02*
G75*
G02*
X384062500Y-42399647I-256058J-156299D01*
G01*
X384018566Y-42243345D02*
G75*
G02*
X384705845Y-41556066I426776J260503D01*
G01*
X384062500Y-43800353D02*
G75*
G02*
X384018566Y-43956655I-299992J-3D01*
G01*
X384705845Y-44643934D02*
G75*
G02*
X384018566Y-43956655I-260503J426776D01*
G01*
X384705845Y-44643934D02*
G75*
G02*
X384862147Y-44600000I156299J-256058D01*
G01*
X384862147Y-41600000D02*
G75*
G02*
X384705845Y-41556066I-3J299992D01*
G01*
X386662853Y-44600000D02*
G75*
G02*
X386819156Y-44643933I-3J-300020D01*
G01*
X386819155Y-41556066D02*
G75*
G02*
X386662853Y-41599976I-156255J256066D01*
G01*
X386819155Y-41556066D02*
G75*
G02*
X387506434Y-42243345I260505J-426774D01*
G01*
X387462500Y-42399647D02*
G75*
G02*
X387506435Y-42243346I299680J87D01*
G01*
X387506434Y-43956655D02*
G75*
G02*
X386819155Y-44643934I-426774J-260505D01*
G01*
X387506434Y-43956655D02*
G75*
G02*
X387462524Y-43800353I256066J156255D01*
G01*
%TO.C,LED13*%
X303100000Y-43100000D02*
X303100000Y-42399647D01*
X303100000Y-43100000D02*
X303100000Y-43800353D01*
X304800000Y-41600000D02*
X303899647Y-41600000D01*
X304800000Y-41600000D02*
X305700353Y-41600000D01*
X304800000Y-44600000D02*
X303899647Y-44600000D01*
X304800000Y-44600000D02*
X305700353Y-44600000D01*
X306500000Y-43100000D02*
X306500000Y-42399647D01*
X306500000Y-43100000D02*
X306500000Y-43800353D01*
X303056066Y-42243345D02*
G75*
G02*
X303100000Y-42399647I-256058J-156299D01*
G01*
X303056066Y-42243345D02*
G75*
G02*
X303743345Y-41556066I426776J260503D01*
G01*
X303100000Y-43800353D02*
G75*
G02*
X303056066Y-43956655I-299992J-3D01*
G01*
X303743345Y-44643934D02*
G75*
G02*
X303056066Y-43956655I-260503J426776D01*
G01*
X303743345Y-44643934D02*
G75*
G02*
X303899647Y-44600000I156299J-256058D01*
G01*
X303899647Y-41600000D02*
G75*
G02*
X303743345Y-41556066I-3J299992D01*
G01*
X305700353Y-44600000D02*
G75*
G02*
X305856656Y-44643933I-3J-300020D01*
G01*
X305856655Y-41556066D02*
G75*
G02*
X305700353Y-41599976I-156255J256066D01*
G01*
X305856655Y-41556066D02*
G75*
G02*
X306543934Y-42243345I260505J-426774D01*
G01*
X306500000Y-42399647D02*
G75*
G02*
X306543935Y-42243346I299680J87D01*
G01*
X306543934Y-43956655D02*
G75*
G02*
X305856655Y-44643934I-426774J-260505D01*
G01*
X306543934Y-43956655D02*
G75*
G02*
X306500024Y-43800353I256066J156255D01*
G01*
%TO.C,LED41*%
X179275000Y-90725000D02*
X179275000Y-90024647D01*
X179275000Y-90725000D02*
X179275000Y-91425353D01*
X180975000Y-89225000D02*
X180074647Y-89225000D01*
X180975000Y-89225000D02*
X181875353Y-89225000D01*
X180975000Y-92225000D02*
X180074647Y-92225000D01*
X180975000Y-92225000D02*
X181875353Y-92225000D01*
X182675000Y-90725000D02*
X182675000Y-90024647D01*
X182675000Y-90725000D02*
X182675000Y-91425353D01*
X179231066Y-89868345D02*
G75*
G02*
X179275000Y-90024647I-256058J-156299D01*
G01*
X179231066Y-89868345D02*
G75*
G02*
X179918345Y-89181066I426776J260503D01*
G01*
X179275000Y-91425353D02*
G75*
G02*
X179231066Y-91581655I-299992J-3D01*
G01*
X179918345Y-92268934D02*
G75*
G02*
X179231066Y-91581655I-260503J426776D01*
G01*
X179918345Y-92268934D02*
G75*
G02*
X180074647Y-92225000I156299J-256058D01*
G01*
X180074647Y-89225000D02*
G75*
G02*
X179918345Y-89181066I-3J299992D01*
G01*
X181875353Y-92225000D02*
G75*
G02*
X182031656Y-92268933I-3J-300020D01*
G01*
X182031655Y-89181066D02*
G75*
G02*
X181875353Y-89224976I-156255J256066D01*
G01*
X182031655Y-89181066D02*
G75*
G02*
X182718934Y-89868345I260505J-426774D01*
G01*
X182675000Y-90024647D02*
G75*
G02*
X182718935Y-89868346I299680J87D01*
G01*
X182718934Y-91581655D02*
G75*
G02*
X182031655Y-92268934I-426774J-260505D01*
G01*
X182718934Y-91581655D02*
G75*
G02*
X182675024Y-91425353I256066J156255D01*
G01*
%TO.C,LED15*%
X365012500Y-43100000D02*
X365012500Y-42399647D01*
X365012500Y-43100000D02*
X365012500Y-43800353D01*
X366712500Y-41600000D02*
X365812147Y-41600000D01*
X366712500Y-41600000D02*
X367612853Y-41600000D01*
X366712500Y-44600000D02*
X365812147Y-44600000D01*
X366712500Y-44600000D02*
X367612853Y-44600000D01*
X368412500Y-43100000D02*
X368412500Y-42399647D01*
X368412500Y-43100000D02*
X368412500Y-43800353D01*
X364968566Y-42243345D02*
G75*
G02*
X365012500Y-42399647I-256058J-156299D01*
G01*
X364968566Y-42243345D02*
G75*
G02*
X365655845Y-41556066I426776J260503D01*
G01*
X365012500Y-43800353D02*
G75*
G02*
X364968566Y-43956655I-299992J-3D01*
G01*
X365655845Y-44643934D02*
G75*
G02*
X364968566Y-43956655I-260503J426776D01*
G01*
X365655845Y-44643934D02*
G75*
G02*
X365812147Y-44600000I156299J-256058D01*
G01*
X365812147Y-41600000D02*
G75*
G02*
X365655845Y-41556066I-3J299992D01*
G01*
X367612853Y-44600000D02*
G75*
G02*
X367769156Y-44643933I-3J-300020D01*
G01*
X367769155Y-41556066D02*
G75*
G02*
X367612853Y-41599976I-156255J256066D01*
G01*
X367769155Y-41556066D02*
G75*
G02*
X368456434Y-42243345I260505J-426774D01*
G01*
X368412500Y-42399647D02*
G75*
G02*
X368456435Y-42243346I299680J87D01*
G01*
X368456434Y-43956655D02*
G75*
G02*
X367769155Y-44643934I-426774J-260505D01*
G01*
X368456434Y-43956655D02*
G75*
G02*
X368412524Y-43800353I256066J156255D01*
G01*
%TO.C,LED84*%
X157843750Y-147875000D02*
X157843750Y-147174647D01*
X157843750Y-147875000D02*
X157843750Y-148575353D01*
X159543750Y-146375000D02*
X158643397Y-146375000D01*
X159543750Y-146375000D02*
X160444103Y-146375000D01*
X159543750Y-149375000D02*
X158643397Y-149375000D01*
X159543750Y-149375000D02*
X160444103Y-149375000D01*
X161243750Y-147875000D02*
X161243750Y-147174647D01*
X161243750Y-147875000D02*
X161243750Y-148575353D01*
X157799816Y-147018345D02*
G75*
G02*
X157843726Y-147174647I-256066J-156255D01*
G01*
X157799816Y-147018345D02*
G75*
G02*
X158487095Y-146331066I426774J260505D01*
G01*
X157843750Y-148575353D02*
G75*
G02*
X157799815Y-148731654I-299680J-87D01*
G01*
X158487095Y-149418934D02*
G75*
G02*
X157799816Y-148731655I-260505J426774D01*
G01*
X158487095Y-149418934D02*
G75*
G02*
X158643397Y-149375024I156255J-256066D01*
G01*
X158643397Y-146375000D02*
G75*
G02*
X158487094Y-146331067I3J300020D01*
G01*
X160444103Y-149375000D02*
G75*
G02*
X160600405Y-149418934I3J-299992D01*
G01*
X160600405Y-146331066D02*
G75*
G02*
X160444103Y-146375000I-156299J256058D01*
G01*
X160600405Y-146331066D02*
G75*
G02*
X161287684Y-147018345I260503J-426776D01*
G01*
X161243750Y-147174647D02*
G75*
G02*
X161287684Y-147018345I299992J3D01*
G01*
X161287684Y-148731655D02*
G75*
G02*
X160600405Y-149418934I-426776J-260503D01*
G01*
X161287684Y-148731655D02*
G75*
G02*
X161243750Y-148575353I256058J156299D01*
G01*
%TO.C,LED78*%
X345962500Y-128825000D02*
X345962500Y-128124647D01*
X345962500Y-128825000D02*
X345962500Y-129525353D01*
X347662500Y-127325000D02*
X346762147Y-127325000D01*
X347662500Y-127325000D02*
X348562853Y-127325000D01*
X347662500Y-130325000D02*
X346762147Y-130325000D01*
X347662500Y-130325000D02*
X348562853Y-130325000D01*
X349362500Y-128825000D02*
X349362500Y-128124647D01*
X349362500Y-128825000D02*
X349362500Y-129525353D01*
X345918566Y-127968345D02*
G75*
G02*
X345962500Y-128124647I-256058J-156299D01*
G01*
X345918566Y-127968345D02*
G75*
G02*
X346605845Y-127281066I426776J260503D01*
G01*
X345962500Y-129525353D02*
G75*
G02*
X345918566Y-129681655I-299992J-3D01*
G01*
X346605845Y-130368934D02*
G75*
G02*
X345918566Y-129681655I-260503J426776D01*
G01*
X346605845Y-130368934D02*
G75*
G02*
X346762147Y-130325000I156299J-256058D01*
G01*
X346762147Y-127325000D02*
G75*
G02*
X346605845Y-127281066I-3J299992D01*
G01*
X348562853Y-130325000D02*
G75*
G02*
X348719156Y-130368933I-3J-300020D01*
G01*
X348719155Y-127281066D02*
G75*
G02*
X348562853Y-127324976I-156255J256066D01*
G01*
X348719155Y-127281066D02*
G75*
G02*
X349406434Y-127968345I260505J-426774D01*
G01*
X349362500Y-128124647D02*
G75*
G02*
X349406435Y-127968346I299680J87D01*
G01*
X349406434Y-129681655D02*
G75*
G02*
X348719155Y-130368934I-426774J-260505D01*
G01*
X349406434Y-129681655D02*
G75*
G02*
X349362524Y-129525353I256066J156255D01*
G01*
%TO.C,LED19*%
X74500000Y-71675000D02*
X74500000Y-70974647D01*
X74500000Y-71675000D02*
X74500000Y-72375353D01*
X76200000Y-70175000D02*
X75299647Y-70175000D01*
X76200000Y-70175000D02*
X77100353Y-70175000D01*
X76200000Y-73175000D02*
X75299647Y-73175000D01*
X76200000Y-73175000D02*
X77100353Y-73175000D01*
X77900000Y-71675000D02*
X77900000Y-70974647D01*
X77900000Y-71675000D02*
X77900000Y-72375353D01*
X74456066Y-70818345D02*
G75*
G02*
X74499976Y-70974647I-256066J-156255D01*
G01*
X74456066Y-70818345D02*
G75*
G02*
X75143345Y-70131066I426774J260505D01*
G01*
X74500000Y-72375353D02*
G75*
G02*
X74456065Y-72531654I-299680J-87D01*
G01*
X75143345Y-73218934D02*
G75*
G02*
X74456066Y-72531655I-260505J426774D01*
G01*
X75143345Y-73218934D02*
G75*
G02*
X75299647Y-73175024I156255J-256066D01*
G01*
X75299647Y-70175000D02*
G75*
G02*
X75143344Y-70131067I3J300020D01*
G01*
X77100353Y-73175000D02*
G75*
G02*
X77256655Y-73218934I3J-299992D01*
G01*
X77256655Y-70131066D02*
G75*
G02*
X77100353Y-70175000I-156299J256058D01*
G01*
X77256655Y-70131066D02*
G75*
G02*
X77943934Y-70818345I260503J-426776D01*
G01*
X77900000Y-70974647D02*
G75*
G02*
X77943934Y-70818345I299992J3D01*
G01*
X77943934Y-72531655D02*
G75*
G02*
X77256655Y-73218934I-426776J-260503D01*
G01*
X77943934Y-72531655D02*
G75*
G02*
X77900000Y-72375353I256058J156299D01*
G01*
%TO.C,LED71*%
X188800000Y-128825000D02*
X188800000Y-128124647D01*
X188800000Y-128825000D02*
X188800000Y-129525353D01*
X190500000Y-127325000D02*
X189599647Y-127325000D01*
X190500000Y-127325000D02*
X191400353Y-127325000D01*
X190500000Y-130325000D02*
X189599647Y-130325000D01*
X190500000Y-130325000D02*
X191400353Y-130325000D01*
X192200000Y-128825000D02*
X192200000Y-128124647D01*
X192200000Y-128825000D02*
X192200000Y-129525353D01*
X188756066Y-127968345D02*
G75*
G02*
X188800000Y-128124647I-256058J-156299D01*
G01*
X188756066Y-127968345D02*
G75*
G02*
X189443345Y-127281066I426776J260503D01*
G01*
X188800000Y-129525353D02*
G75*
G02*
X188756066Y-129681655I-299992J-3D01*
G01*
X189443345Y-130368934D02*
G75*
G02*
X188756066Y-129681655I-260503J426776D01*
G01*
X189443345Y-130368934D02*
G75*
G02*
X189599647Y-130325000I156299J-256058D01*
G01*
X189599647Y-127325000D02*
G75*
G02*
X189443345Y-127281066I-3J299992D01*
G01*
X191400353Y-130325000D02*
G75*
G02*
X191556656Y-130368933I-3J-300020D01*
G01*
X191556655Y-127281066D02*
G75*
G02*
X191400353Y-127324976I-156255J256066D01*
G01*
X191556655Y-127281066D02*
G75*
G02*
X192243934Y-127968345I260505J-426774D01*
G01*
X192200000Y-128124647D02*
G75*
G02*
X192243935Y-127968346I299680J87D01*
G01*
X192243934Y-129681655D02*
G75*
G02*
X191556655Y-130368934I-426774J-260505D01*
G01*
X192243934Y-129681655D02*
G75*
G02*
X192200024Y-129525353I256066J156255D01*
G01*
%TO.C,LED43*%
X217375000Y-90725000D02*
X217375000Y-90024647D01*
X217375000Y-90725000D02*
X217375000Y-91425353D01*
X219075000Y-89225000D02*
X218174647Y-89225000D01*
X219075000Y-89225000D02*
X219975353Y-89225000D01*
X219075000Y-92225000D02*
X218174647Y-92225000D01*
X219075000Y-92225000D02*
X219975353Y-92225000D01*
X220775000Y-90725000D02*
X220775000Y-90024647D01*
X220775000Y-90725000D02*
X220775000Y-91425353D01*
X217331066Y-89868345D02*
G75*
G02*
X217375000Y-90024647I-256058J-156299D01*
G01*
X217331066Y-89868345D02*
G75*
G02*
X218018345Y-89181066I426776J260503D01*
G01*
X217375000Y-91425353D02*
G75*
G02*
X217331066Y-91581655I-299992J-3D01*
G01*
X218018345Y-92268934D02*
G75*
G02*
X217331066Y-91581655I-260503J426776D01*
G01*
X218018345Y-92268934D02*
G75*
G02*
X218174647Y-92225000I156299J-256058D01*
G01*
X218174647Y-89225000D02*
G75*
G02*
X218018345Y-89181066I-3J299992D01*
G01*
X219975353Y-92225000D02*
G75*
G02*
X220131656Y-92268933I-3J-300020D01*
G01*
X220131655Y-89181066D02*
G75*
G02*
X219975353Y-89224976I-156255J256066D01*
G01*
X220131655Y-89181066D02*
G75*
G02*
X220818934Y-89868345I260505J-426774D01*
G01*
X220775000Y-90024647D02*
G75*
G02*
X220818935Y-89868346I299680J87D01*
G01*
X220818934Y-91581655D02*
G75*
G02*
X220131655Y-92268934I-426774J-260505D01*
G01*
X220818934Y-91581655D02*
G75*
G02*
X220775024Y-91425353I256066J156255D01*
G01*
%TO.C,LED38*%
X122125000Y-90725000D02*
X122125000Y-90024647D01*
X122125000Y-90725000D02*
X122125000Y-91425353D01*
X123825000Y-89225000D02*
X122924647Y-89225000D01*
X123825000Y-89225000D02*
X124725353Y-89225000D01*
X123825000Y-92225000D02*
X122924647Y-92225000D01*
X123825000Y-92225000D02*
X124725353Y-92225000D01*
X125525000Y-90725000D02*
X125525000Y-90024647D01*
X125525000Y-90725000D02*
X125525000Y-91425353D01*
X122081066Y-89868345D02*
G75*
G02*
X122125000Y-90024647I-256058J-156299D01*
G01*
X122081066Y-89868345D02*
G75*
G02*
X122768345Y-89181066I426776J260503D01*
G01*
X122125000Y-91425353D02*
G75*
G02*
X122081066Y-91581655I-299992J-3D01*
G01*
X122768345Y-92268934D02*
G75*
G02*
X122081066Y-91581655I-260503J426776D01*
G01*
X122768345Y-92268934D02*
G75*
G02*
X122924647Y-92225000I156299J-256058D01*
G01*
X122924647Y-89225000D02*
G75*
G02*
X122768345Y-89181066I-3J299992D01*
G01*
X124725353Y-92225000D02*
G75*
G02*
X124881656Y-92268933I-3J-300020D01*
G01*
X124881655Y-89181066D02*
G75*
G02*
X124725353Y-89224976I-156255J256066D01*
G01*
X124881655Y-89181066D02*
G75*
G02*
X125568934Y-89868345I260505J-426774D01*
G01*
X125525000Y-90024647D02*
G75*
G02*
X125568935Y-89868346I299680J87D01*
G01*
X125568934Y-91581655D02*
G75*
G02*
X124881655Y-92268934I-426774J-260505D01*
G01*
X125568934Y-91581655D02*
G75*
G02*
X125525024Y-91425353I256066J156255D01*
G01*
%TO.C,LED63*%
X291193750Y-109775000D02*
X291193750Y-109074647D01*
X291193750Y-109775000D02*
X291193750Y-110475353D01*
X292893750Y-108275000D02*
X291993397Y-108275000D01*
X292893750Y-108275000D02*
X293794103Y-108275000D01*
X292893750Y-111275000D02*
X291993397Y-111275000D01*
X292893750Y-111275000D02*
X293794103Y-111275000D01*
X294593750Y-109775000D02*
X294593750Y-109074647D01*
X294593750Y-109775000D02*
X294593750Y-110475353D01*
X291149816Y-108918345D02*
G75*
G02*
X291193726Y-109074647I-256066J-156255D01*
G01*
X291149816Y-108918345D02*
G75*
G02*
X291837095Y-108231066I426774J260505D01*
G01*
X291193750Y-110475353D02*
G75*
G02*
X291149815Y-110631654I-299680J-87D01*
G01*
X291837095Y-111318934D02*
G75*
G02*
X291149816Y-110631655I-260505J426774D01*
G01*
X291837095Y-111318934D02*
G75*
G02*
X291993397Y-111275024I156255J-256066D01*
G01*
X291993397Y-108275000D02*
G75*
G02*
X291837094Y-108231067I3J300020D01*
G01*
X293794103Y-111275000D02*
G75*
G02*
X293950405Y-111318934I3J-299992D01*
G01*
X293950405Y-108231066D02*
G75*
G02*
X293794103Y-108275000I-156299J256058D01*
G01*
X293950405Y-108231066D02*
G75*
G02*
X294637684Y-108918345I260503J-426776D01*
G01*
X294593750Y-109074647D02*
G75*
G02*
X294637684Y-108918345I299992J3D01*
G01*
X294637684Y-110631655D02*
G75*
G02*
X293950405Y-111318934I-426776J-260503D01*
G01*
X294637684Y-110631655D02*
G75*
G02*
X294593750Y-110475353I256058J156299D01*
G01*
%TO.C,LED9*%
X217375000Y-43100000D02*
X217375000Y-42399647D01*
X217375000Y-43100000D02*
X217375000Y-43800353D01*
X219075000Y-41600000D02*
X218174647Y-41600000D01*
X219075000Y-41600000D02*
X219975353Y-41600000D01*
X219075000Y-44600000D02*
X218174647Y-44600000D01*
X219075000Y-44600000D02*
X219975353Y-44600000D01*
X220775000Y-43100000D02*
X220775000Y-42399647D01*
X220775000Y-43100000D02*
X220775000Y-43800353D01*
X217331066Y-42243345D02*
G75*
G02*
X217375000Y-42399647I-256058J-156299D01*
G01*
X217331066Y-42243345D02*
G75*
G02*
X218018345Y-41556066I426776J260503D01*
G01*
X217375000Y-43800353D02*
G75*
G02*
X217331066Y-43956655I-299992J-3D01*
G01*
X218018345Y-44643934D02*
G75*
G02*
X217331066Y-43956655I-260503J426776D01*
G01*
X218018345Y-44643934D02*
G75*
G02*
X218174647Y-44600000I156299J-256058D01*
G01*
X218174647Y-41600000D02*
G75*
G02*
X218018345Y-41556066I-3J299992D01*
G01*
X219975353Y-44600000D02*
G75*
G02*
X220131656Y-44643933I-3J-300020D01*
G01*
X220131655Y-41556066D02*
G75*
G02*
X219975353Y-41599976I-156255J256066D01*
G01*
X220131655Y-41556066D02*
G75*
G02*
X220818934Y-42243345I260505J-426774D01*
G01*
X220775000Y-42399647D02*
G75*
G02*
X220818935Y-42243346I299680J87D01*
G01*
X220818934Y-43956655D02*
G75*
G02*
X220131655Y-44643934I-426774J-260505D01*
G01*
X220818934Y-43956655D02*
G75*
G02*
X220775024Y-43800353I256066J156255D01*
G01*
%TO.C,LED75*%
X265000000Y-128825000D02*
X265000000Y-128124647D01*
X265000000Y-128825000D02*
X265000000Y-129525353D01*
X266700000Y-127325000D02*
X265799647Y-127325000D01*
X266700000Y-127325000D02*
X267600353Y-127325000D01*
X266700000Y-130325000D02*
X265799647Y-130325000D01*
X266700000Y-130325000D02*
X267600353Y-130325000D01*
X268400000Y-128825000D02*
X268400000Y-128124647D01*
X268400000Y-128825000D02*
X268400000Y-129525353D01*
X264956066Y-127968345D02*
G75*
G02*
X265000000Y-128124647I-256058J-156299D01*
G01*
X264956066Y-127968345D02*
G75*
G02*
X265643345Y-127281066I426776J260503D01*
G01*
X265000000Y-129525353D02*
G75*
G02*
X264956066Y-129681655I-299992J-3D01*
G01*
X265643345Y-130368934D02*
G75*
G02*
X264956066Y-129681655I-260503J426776D01*
G01*
X265643345Y-130368934D02*
G75*
G02*
X265799647Y-130325000I156299J-256058D01*
G01*
X265799647Y-127325000D02*
G75*
G02*
X265643345Y-127281066I-3J299992D01*
G01*
X267600353Y-130325000D02*
G75*
G02*
X267756656Y-130368933I-3J-300020D01*
G01*
X267756655Y-127281066D02*
G75*
G02*
X267600353Y-127324976I-156255J256066D01*
G01*
X267756655Y-127281066D02*
G75*
G02*
X268443934Y-127968345I260505J-426774D01*
G01*
X268400000Y-128124647D02*
G75*
G02*
X268443935Y-127968346I299680J87D01*
G01*
X268443934Y-129681655D02*
G75*
G02*
X267756655Y-130368934I-426774J-260505D01*
G01*
X268443934Y-129681655D02*
G75*
G02*
X268400024Y-129525353I256066J156255D01*
G01*
%TO.C,LED66*%
X93550000Y-128825000D02*
X93550000Y-128124647D01*
X93550000Y-128825000D02*
X93550000Y-129525353D01*
X95250000Y-127325000D02*
X94349647Y-127325000D01*
X95250000Y-127325000D02*
X96150353Y-127325000D01*
X95250000Y-130325000D02*
X94349647Y-130325000D01*
X95250000Y-130325000D02*
X96150353Y-130325000D01*
X96950000Y-128825000D02*
X96950000Y-128124647D01*
X96950000Y-128825000D02*
X96950000Y-129525353D01*
X93506066Y-127968345D02*
G75*
G02*
X93550000Y-128124647I-256058J-156299D01*
G01*
X93506066Y-127968345D02*
G75*
G02*
X94193345Y-127281066I426776J260503D01*
G01*
X93550000Y-129525353D02*
G75*
G02*
X93506066Y-129681655I-299992J-3D01*
G01*
X94193345Y-130368934D02*
G75*
G02*
X93506066Y-129681655I-260503J426776D01*
G01*
X94193345Y-130368934D02*
G75*
G02*
X94349647Y-130325000I156299J-256058D01*
G01*
X94349647Y-127325000D02*
G75*
G02*
X94193345Y-127281066I-3J299992D01*
G01*
X96150353Y-130325000D02*
G75*
G02*
X96306656Y-130368933I-3J-300020D01*
G01*
X96306655Y-127281066D02*
G75*
G02*
X96150353Y-127324976I-156255J256066D01*
G01*
X96306655Y-127281066D02*
G75*
G02*
X96993934Y-127968345I260505J-426774D01*
G01*
X96950000Y-128124647D02*
G75*
G02*
X96993935Y-127968346I299680J87D01*
G01*
X96993934Y-129681655D02*
G75*
G02*
X96306655Y-130368934I-426774J-260505D01*
G01*
X96993934Y-129681655D02*
G75*
G02*
X96950024Y-129525353I256066J156255D01*
G01*
%TO.C,LED62*%
X260237500Y-109775000D02*
X260237500Y-109074647D01*
X260237500Y-109775000D02*
X260237500Y-110475353D01*
X261937500Y-108275000D02*
X261037147Y-108275000D01*
X261937500Y-108275000D02*
X262837853Y-108275000D01*
X261937500Y-111275000D02*
X261037147Y-111275000D01*
X261937500Y-111275000D02*
X262837853Y-111275000D01*
X263637500Y-109775000D02*
X263637500Y-109074647D01*
X263637500Y-109775000D02*
X263637500Y-110475353D01*
X260193566Y-108918345D02*
G75*
G02*
X260237476Y-109074647I-256066J-156255D01*
G01*
X260193566Y-108918345D02*
G75*
G02*
X260880845Y-108231066I426774J260505D01*
G01*
X260237500Y-110475353D02*
G75*
G02*
X260193565Y-110631654I-299680J-87D01*
G01*
X260880845Y-111318934D02*
G75*
G02*
X260193566Y-110631655I-260505J426774D01*
G01*
X260880845Y-111318934D02*
G75*
G02*
X261037147Y-111275024I156255J-256066D01*
G01*
X261037147Y-108275000D02*
G75*
G02*
X260880844Y-108231067I3J300020D01*
G01*
X262837853Y-111275000D02*
G75*
G02*
X262994155Y-111318934I3J-299992D01*
G01*
X262994155Y-108231066D02*
G75*
G02*
X262837853Y-108275000I-156299J256058D01*
G01*
X262994155Y-108231066D02*
G75*
G02*
X263681434Y-108918345I260503J-426776D01*
G01*
X263637500Y-109074647D02*
G75*
G02*
X263681434Y-108918345I299992J3D01*
G01*
X263681434Y-110631655D02*
G75*
G02*
X262994155Y-111318934I-426776J-260503D01*
G01*
X263681434Y-110631655D02*
G75*
G02*
X263637500Y-110475353I256058J156299D01*
G01*
%TO.C,LED57*%
X164987500Y-109775000D02*
X164987500Y-109074647D01*
X164987500Y-109775000D02*
X164987500Y-110475353D01*
X166687500Y-108275000D02*
X165787147Y-108275000D01*
X166687500Y-108275000D02*
X167587853Y-108275000D01*
X166687500Y-111275000D02*
X165787147Y-111275000D01*
X166687500Y-111275000D02*
X167587853Y-111275000D01*
X168387500Y-109775000D02*
X168387500Y-109074647D01*
X168387500Y-109775000D02*
X168387500Y-110475353D01*
X164943566Y-108918345D02*
G75*
G02*
X164987476Y-109074647I-256066J-156255D01*
G01*
X164943566Y-108918345D02*
G75*
G02*
X165630845Y-108231066I426774J260505D01*
G01*
X164987500Y-110475353D02*
G75*
G02*
X164943565Y-110631654I-299680J-87D01*
G01*
X165630845Y-111318934D02*
G75*
G02*
X164943566Y-110631655I-260505J426774D01*
G01*
X165630845Y-111318934D02*
G75*
G02*
X165787147Y-111275024I156255J-256066D01*
G01*
X165787147Y-108275000D02*
G75*
G02*
X165630844Y-108231067I3J300020D01*
G01*
X167587853Y-111275000D02*
G75*
G02*
X167744155Y-111318934I3J-299992D01*
G01*
X167744155Y-108231066D02*
G75*
G02*
X167587853Y-108275000I-156299J256058D01*
G01*
X167744155Y-108231066D02*
G75*
G02*
X168431434Y-108918345I260503J-426776D01*
G01*
X168387500Y-109074647D02*
G75*
G02*
X168431434Y-108918345I299992J3D01*
G01*
X168431434Y-110631655D02*
G75*
G02*
X167744155Y-111318934I-426776J-260503D01*
G01*
X168431434Y-110631655D02*
G75*
G02*
X168387500Y-110475353I256058J156299D01*
G01*
%TO.C,LED45*%
X255475000Y-90725000D02*
X255475000Y-90024647D01*
X255475000Y-90725000D02*
X255475000Y-91425353D01*
X257175000Y-89225000D02*
X256274647Y-89225000D01*
X257175000Y-89225000D02*
X258075353Y-89225000D01*
X257175000Y-92225000D02*
X256274647Y-92225000D01*
X257175000Y-92225000D02*
X258075353Y-92225000D01*
X258875000Y-90725000D02*
X258875000Y-90024647D01*
X258875000Y-90725000D02*
X258875000Y-91425353D01*
X255431066Y-89868345D02*
G75*
G02*
X255475000Y-90024647I-256058J-156299D01*
G01*
X255431066Y-89868345D02*
G75*
G02*
X256118345Y-89181066I426776J260503D01*
G01*
X255475000Y-91425353D02*
G75*
G02*
X255431066Y-91581655I-299992J-3D01*
G01*
X256118345Y-92268934D02*
G75*
G02*
X255431066Y-91581655I-260503J426776D01*
G01*
X256118345Y-92268934D02*
G75*
G02*
X256274647Y-92225000I156299J-256058D01*
G01*
X256274647Y-89225000D02*
G75*
G02*
X256118345Y-89181066I-3J299992D01*
G01*
X258075353Y-92225000D02*
G75*
G02*
X258231656Y-92268933I-3J-300020D01*
G01*
X258231655Y-89181066D02*
G75*
G02*
X258075353Y-89224976I-156255J256066D01*
G01*
X258231655Y-89181066D02*
G75*
G02*
X258918934Y-89868345I260505J-426774D01*
G01*
X258875000Y-90024647D02*
G75*
G02*
X258918935Y-89868346I299680J87D01*
G01*
X258918934Y-91581655D02*
G75*
G02*
X258231655Y-92268934I-426774J-260505D01*
G01*
X258918934Y-91581655D02*
G75*
G02*
X258875024Y-91425353I256066J156255D01*
G01*
%TO.C,LED50*%
X384062500Y-90725000D02*
X384062500Y-90024647D01*
X384062500Y-90725000D02*
X384062500Y-91425353D01*
X385762500Y-89225000D02*
X384862147Y-89225000D01*
X385762500Y-89225000D02*
X386662853Y-89225000D01*
X385762500Y-92225000D02*
X384862147Y-92225000D01*
X385762500Y-92225000D02*
X386662853Y-92225000D01*
X387462500Y-90725000D02*
X387462500Y-90024647D01*
X387462500Y-90725000D02*
X387462500Y-91425353D01*
X384018566Y-89868345D02*
G75*
G02*
X384062500Y-90024647I-256058J-156299D01*
G01*
X384018566Y-89868345D02*
G75*
G02*
X384705845Y-89181066I426776J260503D01*
G01*
X384062500Y-91425353D02*
G75*
G02*
X384018566Y-91581655I-299992J-3D01*
G01*
X384705845Y-92268934D02*
G75*
G02*
X384018566Y-91581655I-260503J426776D01*
G01*
X384705845Y-92268934D02*
G75*
G02*
X384862147Y-92225000I156299J-256058D01*
G01*
X384862147Y-89225000D02*
G75*
G02*
X384705845Y-89181066I-3J299992D01*
G01*
X386662853Y-92225000D02*
G75*
G02*
X386819156Y-92268933I-3J-300020D01*
G01*
X386819155Y-89181066D02*
G75*
G02*
X386662853Y-89224976I-156255J256066D01*
G01*
X386819155Y-89181066D02*
G75*
G02*
X387506434Y-89868345I260505J-426774D01*
G01*
X387462500Y-90024647D02*
G75*
G02*
X387506435Y-89868346I299680J87D01*
G01*
X387506434Y-91581655D02*
G75*
G02*
X386819155Y-92268934I-426774J-260505D01*
G01*
X387506434Y-91581655D02*
G75*
G02*
X387462524Y-91425353I256066J156255D01*
G01*
%TO.C,LED77*%
X303100000Y-128825000D02*
X303100000Y-128124647D01*
X303100000Y-128825000D02*
X303100000Y-129525353D01*
X304800000Y-127325000D02*
X303899647Y-127325000D01*
X304800000Y-127325000D02*
X305700353Y-127325000D01*
X304800000Y-130325000D02*
X303899647Y-130325000D01*
X304800000Y-130325000D02*
X305700353Y-130325000D01*
X306500000Y-128825000D02*
X306500000Y-128124647D01*
X306500000Y-128825000D02*
X306500000Y-129525353D01*
X303056066Y-127968345D02*
G75*
G02*
X303100000Y-128124647I-256058J-156299D01*
G01*
X303056066Y-127968345D02*
G75*
G02*
X303743345Y-127281066I426776J260503D01*
G01*
X303100000Y-129525353D02*
G75*
G02*
X303056066Y-129681655I-299992J-3D01*
G01*
X303743345Y-130368934D02*
G75*
G02*
X303056066Y-129681655I-260503J426776D01*
G01*
X303743345Y-130368934D02*
G75*
G02*
X303899647Y-130325000I156299J-256058D01*
G01*
X303899647Y-127325000D02*
G75*
G02*
X303743345Y-127281066I-3J299992D01*
G01*
X305700353Y-130325000D02*
G75*
G02*
X305856656Y-130368933I-3J-300020D01*
G01*
X305856655Y-127281066D02*
G75*
G02*
X305700353Y-127324976I-156255J256066D01*
G01*
X305856655Y-127281066D02*
G75*
G02*
X306543934Y-127968345I260505J-426774D01*
G01*
X306500000Y-128124647D02*
G75*
G02*
X306543935Y-127968346I299680J87D01*
G01*
X306543934Y-129681655D02*
G75*
G02*
X305856655Y-130368934I-426774J-260505D01*
G01*
X306543934Y-129681655D02*
G75*
G02*
X306500024Y-129525353I256066J156255D01*
G01*
%TO.C,LED73*%
X226900000Y-128825000D02*
X226900000Y-128124647D01*
X226900000Y-128825000D02*
X226900000Y-129525353D01*
X228600000Y-127325000D02*
X227699647Y-127325000D01*
X228600000Y-127325000D02*
X229500353Y-127325000D01*
X228600000Y-130325000D02*
X227699647Y-130325000D01*
X228600000Y-130325000D02*
X229500353Y-130325000D01*
X230300000Y-128825000D02*
X230300000Y-128124647D01*
X230300000Y-128825000D02*
X230300000Y-129525353D01*
X226856066Y-127968345D02*
G75*
G02*
X226900000Y-128124647I-256058J-156299D01*
G01*
X226856066Y-127968345D02*
G75*
G02*
X227543345Y-127281066I426776J260503D01*
G01*
X226900000Y-129525353D02*
G75*
G02*
X226856066Y-129681655I-299992J-3D01*
G01*
X227543345Y-130368934D02*
G75*
G02*
X226856066Y-129681655I-260503J426776D01*
G01*
X227543345Y-130368934D02*
G75*
G02*
X227699647Y-130325000I156299J-256058D01*
G01*
X227699647Y-127325000D02*
G75*
G02*
X227543345Y-127281066I-3J299992D01*
G01*
X229500353Y-130325000D02*
G75*
G02*
X229656656Y-130368933I-3J-300020D01*
G01*
X229656655Y-127281066D02*
G75*
G02*
X229500353Y-127324976I-156255J256066D01*
G01*
X229656655Y-127281066D02*
G75*
G02*
X230343934Y-127968345I260505J-426774D01*
G01*
X230300000Y-128124647D02*
G75*
G02*
X230343935Y-127968346I299680J87D01*
G01*
X230343934Y-129681655D02*
G75*
G02*
X229656655Y-130368934I-426774J-260505D01*
G01*
X230343934Y-129681655D02*
G75*
G02*
X230300024Y-129525353I256066J156255D01*
G01*
%TO.C,LED53*%
X88787500Y-109775000D02*
X88787500Y-109074647D01*
X88787500Y-109775000D02*
X88787500Y-110475353D01*
X90487500Y-108275000D02*
X89587147Y-108275000D01*
X90487500Y-108275000D02*
X91387853Y-108275000D01*
X90487500Y-111275000D02*
X89587147Y-111275000D01*
X90487500Y-111275000D02*
X91387853Y-111275000D01*
X92187500Y-109775000D02*
X92187500Y-109074647D01*
X92187500Y-109775000D02*
X92187500Y-110475353D01*
X88743566Y-108918345D02*
G75*
G02*
X88787476Y-109074647I-256066J-156255D01*
G01*
X88743566Y-108918345D02*
G75*
G02*
X89430845Y-108231066I426774J260505D01*
G01*
X88787500Y-110475353D02*
G75*
G02*
X88743565Y-110631654I-299680J-87D01*
G01*
X89430845Y-111318934D02*
G75*
G02*
X88743566Y-110631655I-260505J426774D01*
G01*
X89430845Y-111318934D02*
G75*
G02*
X89587147Y-111275024I156255J-256066D01*
G01*
X89587147Y-108275000D02*
G75*
G02*
X89430844Y-108231067I3J300020D01*
G01*
X91387853Y-111275000D02*
G75*
G02*
X91544155Y-111318934I3J-299992D01*
G01*
X91544155Y-108231066D02*
G75*
G02*
X91387853Y-108275000I-156299J256058D01*
G01*
X91544155Y-108231066D02*
G75*
G02*
X92231434Y-108918345I260503J-426776D01*
G01*
X92187500Y-109074647D02*
G75*
G02*
X92231434Y-108918345I299992J3D01*
G01*
X92231434Y-110631655D02*
G75*
G02*
X91544155Y-111318934I-426776J-260503D01*
G01*
X92231434Y-110631655D02*
G75*
G02*
X92187500Y-110475353I256058J156299D01*
G01*
%TO.C,LED31*%
X345962500Y-71675000D02*
X345962500Y-70974647D01*
X345962500Y-71675000D02*
X345962500Y-72375353D01*
X347662500Y-70175000D02*
X346762147Y-70175000D01*
X347662500Y-70175000D02*
X348562853Y-70175000D01*
X347662500Y-73175000D02*
X346762147Y-73175000D01*
X347662500Y-73175000D02*
X348562853Y-73175000D01*
X349362500Y-71675000D02*
X349362500Y-70974647D01*
X349362500Y-71675000D02*
X349362500Y-72375353D01*
X345918566Y-70818345D02*
G75*
G02*
X345962476Y-70974647I-256066J-156255D01*
G01*
X345918566Y-70818345D02*
G75*
G02*
X346605845Y-70131066I426774J260505D01*
G01*
X345962500Y-72375353D02*
G75*
G02*
X345918565Y-72531654I-299680J-87D01*
G01*
X346605845Y-73218934D02*
G75*
G02*
X345918566Y-72531655I-260505J426774D01*
G01*
X346605845Y-73218934D02*
G75*
G02*
X346762147Y-73175024I156255J-256066D01*
G01*
X346762147Y-70175000D02*
G75*
G02*
X346605844Y-70131067I3J300020D01*
G01*
X348562853Y-73175000D02*
G75*
G02*
X348719155Y-73218934I3J-299992D01*
G01*
X348719155Y-70131066D02*
G75*
G02*
X348562853Y-70175000I-156299J256058D01*
G01*
X348719155Y-70131066D02*
G75*
G02*
X349406434Y-70818345I260503J-426776D01*
G01*
X349362500Y-70974647D02*
G75*
G02*
X349406434Y-70818345I299992J3D01*
G01*
X349406434Y-72531655D02*
G75*
G02*
X348719155Y-73218934I-426776J-260503D01*
G01*
X349406434Y-72531655D02*
G75*
G02*
X349362500Y-72375353I256058J156299D01*
G01*
%TO.C,LED81*%
X38781250Y-147875000D02*
X38781250Y-147174647D01*
X38781250Y-147875000D02*
X38781250Y-148575353D01*
X40481250Y-146375000D02*
X39580897Y-146375000D01*
X40481250Y-146375000D02*
X41381603Y-146375000D01*
X40481250Y-149375000D02*
X39580897Y-149375000D01*
X40481250Y-149375000D02*
X41381603Y-149375000D01*
X42181250Y-147875000D02*
X42181250Y-147174647D01*
X42181250Y-147875000D02*
X42181250Y-148575353D01*
X38737316Y-147018345D02*
G75*
G02*
X38781226Y-147174647I-256066J-156255D01*
G01*
X38737316Y-147018345D02*
G75*
G02*
X39424595Y-146331066I426774J260505D01*
G01*
X38781250Y-148575353D02*
G75*
G02*
X38737315Y-148731654I-299680J-87D01*
G01*
X39424595Y-149418934D02*
G75*
G02*
X38737316Y-148731655I-260505J426774D01*
G01*
X39424595Y-149418934D02*
G75*
G02*
X39580897Y-149375024I156255J-256066D01*
G01*
X39580897Y-146375000D02*
G75*
G02*
X39424594Y-146331067I3J300020D01*
G01*
X41381603Y-149375000D02*
G75*
G02*
X41537905Y-149418934I3J-299992D01*
G01*
X41537905Y-146331066D02*
G75*
G02*
X41381603Y-146375000I-156299J256058D01*
G01*
X41537905Y-146331066D02*
G75*
G02*
X42225184Y-147018345I260503J-426776D01*
G01*
X42181250Y-147174647D02*
G75*
G02*
X42225184Y-147018345I299992J3D01*
G01*
X42225184Y-148731655D02*
G75*
G02*
X41537905Y-149418934I-426776J-260503D01*
G01*
X42225184Y-148731655D02*
G75*
G02*
X42181250Y-148575353I256058J156299D01*
G01*
%TO.C,LED64*%
X45925000Y-128825000D02*
X45925000Y-128124647D01*
X45925000Y-128825000D02*
X45925000Y-129525353D01*
X47625000Y-127325000D02*
X46724647Y-127325000D01*
X47625000Y-127325000D02*
X48525353Y-127325000D01*
X47625000Y-130325000D02*
X46724647Y-130325000D01*
X47625000Y-130325000D02*
X48525353Y-130325000D01*
X49325000Y-128825000D02*
X49325000Y-128124647D01*
X49325000Y-128825000D02*
X49325000Y-129525353D01*
X45881066Y-127968345D02*
G75*
G02*
X45925000Y-128124647I-256058J-156299D01*
G01*
X45881066Y-127968345D02*
G75*
G02*
X46568345Y-127281066I426776J260503D01*
G01*
X45925000Y-129525353D02*
G75*
G02*
X45881066Y-129681655I-299992J-3D01*
G01*
X46568345Y-130368934D02*
G75*
G02*
X45881066Y-129681655I-260503J426776D01*
G01*
X46568345Y-130368934D02*
G75*
G02*
X46724647Y-130325000I156299J-256058D01*
G01*
X46724647Y-127325000D02*
G75*
G02*
X46568345Y-127281066I-3J299992D01*
G01*
X48525353Y-130325000D02*
G75*
G02*
X48681656Y-130368933I-3J-300020D01*
G01*
X48681655Y-127281066D02*
G75*
G02*
X48525353Y-127324976I-156255J256066D01*
G01*
X48681655Y-127281066D02*
G75*
G02*
X49368934Y-127968345I260505J-426774D01*
G01*
X49325000Y-128124647D02*
G75*
G02*
X49368935Y-127968346I299680J87D01*
G01*
X49368934Y-129681655D02*
G75*
G02*
X48681655Y-130368934I-426774J-260505D01*
G01*
X49368934Y-129681655D02*
G75*
G02*
X49325024Y-129525353I256066J156255D01*
G01*
%TO.C,LED46*%
X274525000Y-90725000D02*
X274525000Y-90024647D01*
X274525000Y-90725000D02*
X274525000Y-91425353D01*
X276225000Y-89225000D02*
X275324647Y-89225000D01*
X276225000Y-89225000D02*
X277125353Y-89225000D01*
X276225000Y-92225000D02*
X275324647Y-92225000D01*
X276225000Y-92225000D02*
X277125353Y-92225000D01*
X277925000Y-90725000D02*
X277925000Y-90024647D01*
X277925000Y-90725000D02*
X277925000Y-91425353D01*
X274481066Y-89868345D02*
G75*
G02*
X274525000Y-90024647I-256058J-156299D01*
G01*
X274481066Y-89868345D02*
G75*
G02*
X275168345Y-89181066I426776J260503D01*
G01*
X274525000Y-91425353D02*
G75*
G02*
X274481066Y-91581655I-299992J-3D01*
G01*
X275168345Y-92268934D02*
G75*
G02*
X274481066Y-91581655I-260503J426776D01*
G01*
X275168345Y-92268934D02*
G75*
G02*
X275324647Y-92225000I156299J-256058D01*
G01*
X275324647Y-89225000D02*
G75*
G02*
X275168345Y-89181066I-3J299992D01*
G01*
X277125353Y-92225000D02*
G75*
G02*
X277281656Y-92268933I-3J-300020D01*
G01*
X277281655Y-89181066D02*
G75*
G02*
X277125353Y-89224976I-156255J256066D01*
G01*
X277281655Y-89181066D02*
G75*
G02*
X277968934Y-89868345I260505J-426774D01*
G01*
X277925000Y-90024647D02*
G75*
G02*
X277968935Y-89868346I299680J87D01*
G01*
X277968934Y-91581655D02*
G75*
G02*
X277281655Y-92268934I-426774J-260505D01*
G01*
X277968934Y-91581655D02*
G75*
G02*
X277925024Y-91425353I256066J156255D01*
G01*
%TO.C,LED47*%
X298337500Y-90725000D02*
X298337500Y-90024647D01*
X298337500Y-90725000D02*
X298337500Y-91425353D01*
X300037500Y-89225000D02*
X299137147Y-89225000D01*
X300037500Y-89225000D02*
X300937853Y-89225000D01*
X300037500Y-92225000D02*
X299137147Y-92225000D01*
X300037500Y-92225000D02*
X300937853Y-92225000D01*
X301737500Y-90725000D02*
X301737500Y-90024647D01*
X301737500Y-90725000D02*
X301737500Y-91425353D01*
X298293566Y-89868345D02*
G75*
G02*
X298337500Y-90024647I-256058J-156299D01*
G01*
X298293566Y-89868345D02*
G75*
G02*
X298980845Y-89181066I426776J260503D01*
G01*
X298337500Y-91425353D02*
G75*
G02*
X298293566Y-91581655I-299992J-3D01*
G01*
X298980845Y-92268934D02*
G75*
G02*
X298293566Y-91581655I-260503J426776D01*
G01*
X298980845Y-92268934D02*
G75*
G02*
X299137147Y-92225000I156299J-256058D01*
G01*
X299137147Y-89225000D02*
G75*
G02*
X298980845Y-89181066I-3J299992D01*
G01*
X300937853Y-92225000D02*
G75*
G02*
X301094156Y-92268933I-3J-300020D01*
G01*
X301094155Y-89181066D02*
G75*
G02*
X300937853Y-89224976I-156255J256066D01*
G01*
X301094155Y-89181066D02*
G75*
G02*
X301781434Y-89868345I260505J-426774D01*
G01*
X301737500Y-90024647D02*
G75*
G02*
X301781435Y-89868346I299680J87D01*
G01*
X301781434Y-91581655D02*
G75*
G02*
X301094155Y-92268934I-426774J-260505D01*
G01*
X301781434Y-91581655D02*
G75*
G02*
X301737524Y-91425353I256066J156255D01*
G01*
%TO.C,LED42*%
X198325000Y-90725000D02*
X198325000Y-90024647D01*
X198325000Y-90725000D02*
X198325000Y-91425353D01*
X200025000Y-89225000D02*
X199124647Y-89225000D01*
X200025000Y-89225000D02*
X200925353Y-89225000D01*
X200025000Y-92225000D02*
X199124647Y-92225000D01*
X200025000Y-92225000D02*
X200925353Y-92225000D01*
X201725000Y-90725000D02*
X201725000Y-90024647D01*
X201725000Y-90725000D02*
X201725000Y-91425353D01*
X198281066Y-89868345D02*
G75*
G02*
X198325000Y-90024647I-256058J-156299D01*
G01*
X198281066Y-89868345D02*
G75*
G02*
X198968345Y-89181066I426776J260503D01*
G01*
X198325000Y-91425353D02*
G75*
G02*
X198281066Y-91581655I-299992J-3D01*
G01*
X198968345Y-92268934D02*
G75*
G02*
X198281066Y-91581655I-260503J426776D01*
G01*
X198968345Y-92268934D02*
G75*
G02*
X199124647Y-92225000I156299J-256058D01*
G01*
X199124647Y-89225000D02*
G75*
G02*
X198968345Y-89181066I-3J299992D01*
G01*
X200925353Y-92225000D02*
G75*
G02*
X201081656Y-92268933I-3J-300020D01*
G01*
X201081655Y-89181066D02*
G75*
G02*
X200925353Y-89224976I-156255J256066D01*
G01*
X201081655Y-89181066D02*
G75*
G02*
X201768934Y-89868345I260505J-426774D01*
G01*
X201725000Y-90024647D02*
G75*
G02*
X201768935Y-89868346I299680J87D01*
G01*
X201768934Y-91581655D02*
G75*
G02*
X201081655Y-92268934I-426774J-260505D01*
G01*
X201768934Y-91581655D02*
G75*
G02*
X201725024Y-91425353I256066J156255D01*
G01*
%TO.C,LED39*%
X141175000Y-90725000D02*
X141175000Y-90024647D01*
X141175000Y-90725000D02*
X141175000Y-91425353D01*
X142875000Y-89225000D02*
X141974647Y-89225000D01*
X142875000Y-89225000D02*
X143775353Y-89225000D01*
X142875000Y-92225000D02*
X141974647Y-92225000D01*
X142875000Y-92225000D02*
X143775353Y-92225000D01*
X144575000Y-90725000D02*
X144575000Y-90024647D01*
X144575000Y-90725000D02*
X144575000Y-91425353D01*
X141131066Y-89868345D02*
G75*
G02*
X141175000Y-90024647I-256058J-156299D01*
G01*
X141131066Y-89868345D02*
G75*
G02*
X141818345Y-89181066I426776J260503D01*
G01*
X141175000Y-91425353D02*
G75*
G02*
X141131066Y-91581655I-299992J-3D01*
G01*
X141818345Y-92268934D02*
G75*
G02*
X141131066Y-91581655I-260503J426776D01*
G01*
X141818345Y-92268934D02*
G75*
G02*
X141974647Y-92225000I156299J-256058D01*
G01*
X141974647Y-89225000D02*
G75*
G02*
X141818345Y-89181066I-3J299992D01*
G01*
X143775353Y-92225000D02*
G75*
G02*
X143931656Y-92268933I-3J-300020D01*
G01*
X143931655Y-89181066D02*
G75*
G02*
X143775353Y-89224976I-156255J256066D01*
G01*
X143931655Y-89181066D02*
G75*
G02*
X144618934Y-89868345I260505J-426774D01*
G01*
X144575000Y-90024647D02*
G75*
G02*
X144618935Y-89868346I299680J87D01*
G01*
X144618934Y-91581655D02*
G75*
G02*
X143931655Y-92268934I-426774J-260505D01*
G01*
X144618934Y-91581655D02*
G75*
G02*
X144575024Y-91425353I256066J156255D01*
G01*
%TO.C,LED83*%
X86406250Y-147875000D02*
X86406250Y-147174647D01*
X86406250Y-147875000D02*
X86406250Y-148575353D01*
X88106250Y-146375000D02*
X87205897Y-146375000D01*
X88106250Y-146375000D02*
X89006603Y-146375000D01*
X88106250Y-149375000D02*
X87205897Y-149375000D01*
X88106250Y-149375000D02*
X89006603Y-149375000D01*
X89806250Y-147875000D02*
X89806250Y-147174647D01*
X89806250Y-147875000D02*
X89806250Y-148575353D01*
X86362316Y-147018345D02*
G75*
G02*
X86406226Y-147174647I-256066J-156255D01*
G01*
X86362316Y-147018345D02*
G75*
G02*
X87049595Y-146331066I426774J260505D01*
G01*
X86406250Y-148575353D02*
G75*
G02*
X86362315Y-148731654I-299680J-87D01*
G01*
X87049595Y-149418934D02*
G75*
G02*
X86362316Y-148731655I-260505J426774D01*
G01*
X87049595Y-149418934D02*
G75*
G02*
X87205897Y-149375024I156255J-256066D01*
G01*
X87205897Y-146375000D02*
G75*
G02*
X87049594Y-146331067I3J300020D01*
G01*
X89006603Y-149375000D02*
G75*
G02*
X89162905Y-149418934I3J-299992D01*
G01*
X89162905Y-146331066D02*
G75*
G02*
X89006603Y-146375000I-156299J256058D01*
G01*
X89162905Y-146331066D02*
G75*
G02*
X89850184Y-147018345I260503J-426776D01*
G01*
X89806250Y-147174647D02*
G75*
G02*
X89850184Y-147018345I299992J3D01*
G01*
X89850184Y-148731655D02*
G75*
G02*
X89162905Y-149418934I-426776J-260503D01*
G01*
X89850184Y-148731655D02*
G75*
G02*
X89806250Y-148575353I256058J156299D01*
G01*
%TO.C,LED21*%
X112600000Y-71675000D02*
X112600000Y-70974647D01*
X112600000Y-71675000D02*
X112600000Y-72375353D01*
X114300000Y-70175000D02*
X113399647Y-70175000D01*
X114300000Y-70175000D02*
X115200353Y-70175000D01*
X114300000Y-73175000D02*
X113399647Y-73175000D01*
X114300000Y-73175000D02*
X115200353Y-73175000D01*
X116000000Y-71675000D02*
X116000000Y-70974647D01*
X116000000Y-71675000D02*
X116000000Y-72375353D01*
X112556066Y-70818345D02*
G75*
G02*
X112599976Y-70974647I-256066J-156255D01*
G01*
X112556066Y-70818345D02*
G75*
G02*
X113243345Y-70131066I426774J260505D01*
G01*
X112600000Y-72375353D02*
G75*
G02*
X112556065Y-72531654I-299680J-87D01*
G01*
X113243345Y-73218934D02*
G75*
G02*
X112556066Y-72531655I-260505J426774D01*
G01*
X113243345Y-73218934D02*
G75*
G02*
X113399647Y-73175024I156255J-256066D01*
G01*
X113399647Y-70175000D02*
G75*
G02*
X113243344Y-70131067I3J300020D01*
G01*
X115200353Y-73175000D02*
G75*
G02*
X115356655Y-73218934I3J-299992D01*
G01*
X115356655Y-70131066D02*
G75*
G02*
X115200353Y-70175000I-156299J256058D01*
G01*
X115356655Y-70131066D02*
G75*
G02*
X116043934Y-70818345I260503J-426776D01*
G01*
X116000000Y-70974647D02*
G75*
G02*
X116043934Y-70818345I299992J3D01*
G01*
X116043934Y-72531655D02*
G75*
G02*
X115356655Y-73218934I-426776J-260503D01*
G01*
X116043934Y-72531655D02*
G75*
G02*
X116000000Y-72375353I256058J156299D01*
G01*
%TO.C,LED80*%
X384062500Y-128825000D02*
X384062500Y-128124647D01*
X384062500Y-128825000D02*
X384062500Y-129525353D01*
X385762500Y-127325000D02*
X384862147Y-127325000D01*
X385762500Y-127325000D02*
X386662853Y-127325000D01*
X385762500Y-130325000D02*
X384862147Y-130325000D01*
X385762500Y-130325000D02*
X386662853Y-130325000D01*
X387462500Y-128825000D02*
X387462500Y-128124647D01*
X387462500Y-128825000D02*
X387462500Y-129525353D01*
X384018566Y-127968345D02*
G75*
G02*
X384062500Y-128124647I-256058J-156299D01*
G01*
X384018566Y-127968345D02*
G75*
G02*
X384705845Y-127281066I426776J260503D01*
G01*
X384062500Y-129525353D02*
G75*
G02*
X384018566Y-129681655I-299992J-3D01*
G01*
X384705845Y-130368934D02*
G75*
G02*
X384018566Y-129681655I-260503J426776D01*
G01*
X384705845Y-130368934D02*
G75*
G02*
X384862147Y-130325000I156299J-256058D01*
G01*
X384862147Y-127325000D02*
G75*
G02*
X384705845Y-127281066I-3J299992D01*
G01*
X386662853Y-130325000D02*
G75*
G02*
X386819156Y-130368933I-3J-300020D01*
G01*
X386819155Y-127281066D02*
G75*
G02*
X386662853Y-127324976I-156255J256066D01*
G01*
X386819155Y-127281066D02*
G75*
G02*
X387506434Y-127968345I260505J-426774D01*
G01*
X387462500Y-128124647D02*
G75*
G02*
X387506435Y-127968346I299680J87D01*
G01*
X387506434Y-129681655D02*
G75*
G02*
X386819155Y-130368934I-426774J-260505D01*
G01*
X387506434Y-129681655D02*
G75*
G02*
X387462524Y-129525353I256066J156255D01*
G01*
%TO.C,LED85*%
X229281250Y-147875000D02*
X229281250Y-147174647D01*
X229281250Y-147875000D02*
X229281250Y-148575353D01*
X230981250Y-146375000D02*
X230080897Y-146375000D01*
X230981250Y-146375000D02*
X231881603Y-146375000D01*
X230981250Y-149375000D02*
X230080897Y-149375000D01*
X230981250Y-149375000D02*
X231881603Y-149375000D01*
X232681250Y-147875000D02*
X232681250Y-147174647D01*
X232681250Y-147875000D02*
X232681250Y-148575353D01*
X229237316Y-147018345D02*
G75*
G02*
X229281226Y-147174647I-256066J-156255D01*
G01*
X229237316Y-147018345D02*
G75*
G02*
X229924595Y-146331066I426774J260505D01*
G01*
X229281250Y-148575353D02*
G75*
G02*
X229237315Y-148731654I-299680J-87D01*
G01*
X229924595Y-149418934D02*
G75*
G02*
X229237316Y-148731655I-260505J426774D01*
G01*
X229924595Y-149418934D02*
G75*
G02*
X230080897Y-149375024I156255J-256066D01*
G01*
X230080897Y-146375000D02*
G75*
G02*
X229924594Y-146331067I3J300020D01*
G01*
X231881603Y-149375000D02*
G75*
G02*
X232037905Y-149418934I3J-299992D01*
G01*
X232037905Y-146331066D02*
G75*
G02*
X231881603Y-146375000I-156299J256058D01*
G01*
X232037905Y-146331066D02*
G75*
G02*
X232725184Y-147018345I260503J-426776D01*
G01*
X232681250Y-147174647D02*
G75*
G02*
X232725184Y-147018345I299992J3D01*
G01*
X232725184Y-148731655D02*
G75*
G02*
X232037905Y-149418934I-426776J-260503D01*
G01*
X232725184Y-148731655D02*
G75*
G02*
X232681250Y-148575353I256058J156299D01*
G01*
%TO.C,LED82*%
X62593750Y-147875000D02*
X62593750Y-147174647D01*
X62593750Y-147875000D02*
X62593750Y-148575353D01*
X64293750Y-146375000D02*
X63393397Y-146375000D01*
X64293750Y-146375000D02*
X65194103Y-146375000D01*
X64293750Y-149375000D02*
X63393397Y-149375000D01*
X64293750Y-149375000D02*
X65194103Y-149375000D01*
X65993750Y-147875000D02*
X65993750Y-147174647D01*
X65993750Y-147875000D02*
X65993750Y-148575353D01*
X62549816Y-147018345D02*
G75*
G02*
X62593726Y-147174647I-256066J-156255D01*
G01*
X62549816Y-147018345D02*
G75*
G02*
X63237095Y-146331066I426774J260505D01*
G01*
X62593750Y-148575353D02*
G75*
G02*
X62549815Y-148731654I-299680J-87D01*
G01*
X63237095Y-149418934D02*
G75*
G02*
X62549816Y-148731655I-260505J426774D01*
G01*
X63237095Y-149418934D02*
G75*
G02*
X63393397Y-149375024I156255J-256066D01*
G01*
X63393397Y-146375000D02*
G75*
G02*
X63237094Y-146331067I3J300020D01*
G01*
X65194103Y-149375000D02*
G75*
G02*
X65350405Y-149418934I3J-299992D01*
G01*
X65350405Y-146331066D02*
G75*
G02*
X65194103Y-146375000I-156299J256058D01*
G01*
X65350405Y-146331066D02*
G75*
G02*
X66037684Y-147018345I260503J-426776D01*
G01*
X65993750Y-147174647D02*
G75*
G02*
X66037684Y-147018345I299992J3D01*
G01*
X66037684Y-148731655D02*
G75*
G02*
X65350405Y-149418934I-426776J-260503D01*
G01*
X66037684Y-148731655D02*
G75*
G02*
X65993750Y-148575353I256058J156299D01*
G01*
%TO.C,LED8*%
X198325000Y-43100000D02*
X198325000Y-42399647D01*
X198325000Y-43100000D02*
X198325000Y-43800353D01*
X200025000Y-41600000D02*
X199124647Y-41600000D01*
X200025000Y-41600000D02*
X200925353Y-41600000D01*
X200025000Y-44600000D02*
X199124647Y-44600000D01*
X200025000Y-44600000D02*
X200925353Y-44600000D01*
X201725000Y-43100000D02*
X201725000Y-42399647D01*
X201725000Y-43100000D02*
X201725000Y-43800353D01*
X198281066Y-42243345D02*
G75*
G02*
X198325000Y-42399647I-256058J-156299D01*
G01*
X198281066Y-42243345D02*
G75*
G02*
X198968345Y-41556066I426776J260503D01*
G01*
X198325000Y-43800353D02*
G75*
G02*
X198281066Y-43956655I-299992J-3D01*
G01*
X198968345Y-44643934D02*
G75*
G02*
X198281066Y-43956655I-260503J426776D01*
G01*
X198968345Y-44643934D02*
G75*
G02*
X199124647Y-44600000I156299J-256058D01*
G01*
X199124647Y-41600000D02*
G75*
G02*
X198968345Y-41556066I-3J299992D01*
G01*
X200925353Y-44600000D02*
G75*
G02*
X201081656Y-44643933I-3J-300020D01*
G01*
X201081655Y-41556066D02*
G75*
G02*
X200925353Y-41599976I-156255J256066D01*
G01*
X201081655Y-41556066D02*
G75*
G02*
X201768934Y-42243345I260505J-426774D01*
G01*
X201725000Y-42399647D02*
G75*
G02*
X201768935Y-42243346I299680J87D01*
G01*
X201768934Y-43956655D02*
G75*
G02*
X201081655Y-44643934I-426774J-260505D01*
G01*
X201768934Y-43956655D02*
G75*
G02*
X201725024Y-43800353I256066J156255D01*
G01*
%TO.C,LED88*%
X300718750Y-147875000D02*
X300718750Y-147174647D01*
X300718750Y-147875000D02*
X300718750Y-148575353D01*
X302418750Y-146375000D02*
X301518397Y-146375000D01*
X302418750Y-146375000D02*
X303319103Y-146375000D01*
X302418750Y-149375000D02*
X301518397Y-149375000D01*
X302418750Y-149375000D02*
X303319103Y-149375000D01*
X304118750Y-147875000D02*
X304118750Y-147174647D01*
X304118750Y-147875000D02*
X304118750Y-148575353D01*
X300674816Y-147018345D02*
G75*
G02*
X300718726Y-147174647I-256066J-156255D01*
G01*
X300674816Y-147018345D02*
G75*
G02*
X301362095Y-146331066I426774J260505D01*
G01*
X300718750Y-148575353D02*
G75*
G02*
X300674815Y-148731654I-299680J-87D01*
G01*
X301362095Y-149418934D02*
G75*
G02*
X300674816Y-148731655I-260505J426774D01*
G01*
X301362095Y-149418934D02*
G75*
G02*
X301518397Y-149375024I156255J-256066D01*
G01*
X301518397Y-146375000D02*
G75*
G02*
X301362094Y-146331067I3J300020D01*
G01*
X303319103Y-149375000D02*
G75*
G02*
X303475405Y-149418934I3J-299992D01*
G01*
X303475405Y-146331066D02*
G75*
G02*
X303319103Y-146375000I-156299J256058D01*
G01*
X303475405Y-146331066D02*
G75*
G02*
X304162684Y-147018345I260503J-426776D01*
G01*
X304118750Y-147174647D02*
G75*
G02*
X304162684Y-147018345I299992J3D01*
G01*
X304162684Y-148731655D02*
G75*
G02*
X303475405Y-149418934I-426776J-260503D01*
G01*
X304162684Y-148731655D02*
G75*
G02*
X304118750Y-148575353I256058J156299D01*
G01*
%TO.C,LED33*%
X384062500Y-71675000D02*
X384062500Y-70974647D01*
X384062500Y-71675000D02*
X384062500Y-72375353D01*
X385762500Y-70175000D02*
X384862147Y-70175000D01*
X385762500Y-70175000D02*
X386662853Y-70175000D01*
X385762500Y-73175000D02*
X384862147Y-73175000D01*
X385762500Y-73175000D02*
X386662853Y-73175000D01*
X387462500Y-71675000D02*
X387462500Y-70974647D01*
X387462500Y-71675000D02*
X387462500Y-72375353D01*
X384018566Y-70818345D02*
G75*
G02*
X384062476Y-70974647I-256066J-156255D01*
G01*
X384018566Y-70818345D02*
G75*
G02*
X384705845Y-70131066I426774J260505D01*
G01*
X384062500Y-72375353D02*
G75*
G02*
X384018565Y-72531654I-299680J-87D01*
G01*
X384705845Y-73218934D02*
G75*
G02*
X384018566Y-72531655I-260505J426774D01*
G01*
X384705845Y-73218934D02*
G75*
G02*
X384862147Y-73175024I156255J-256066D01*
G01*
X384862147Y-70175000D02*
G75*
G02*
X384705844Y-70131067I3J300020D01*
G01*
X386662853Y-73175000D02*
G75*
G02*
X386819155Y-73218934I3J-299992D01*
G01*
X386819155Y-70131066D02*
G75*
G02*
X386662853Y-70175000I-156299J256058D01*
G01*
X386819155Y-70131066D02*
G75*
G02*
X387506434Y-70818345I260503J-426776D01*
G01*
X387462500Y-70974647D02*
G75*
G02*
X387506434Y-70818345I299992J3D01*
G01*
X387506434Y-72531655D02*
G75*
G02*
X386819155Y-73218934I-426776J-260503D01*
G01*
X387506434Y-72531655D02*
G75*
G02*
X387462500Y-72375353I256058J156299D01*
G01*
%TO.C,LED28*%
X245950000Y-71675000D02*
X245950000Y-70974647D01*
X245950000Y-71675000D02*
X245950000Y-72375353D01*
X247650000Y-70175000D02*
X246749647Y-70175000D01*
X247650000Y-70175000D02*
X248550353Y-70175000D01*
X247650000Y-73175000D02*
X246749647Y-73175000D01*
X247650000Y-73175000D02*
X248550353Y-73175000D01*
X249350000Y-71675000D02*
X249350000Y-70974647D01*
X249350000Y-71675000D02*
X249350000Y-72375353D01*
X245906066Y-70818345D02*
G75*
G02*
X245949976Y-70974647I-256066J-156255D01*
G01*
X245906066Y-70818345D02*
G75*
G02*
X246593345Y-70131066I426774J260505D01*
G01*
X245950000Y-72375353D02*
G75*
G02*
X245906065Y-72531654I-299680J-87D01*
G01*
X246593345Y-73218934D02*
G75*
G02*
X245906066Y-72531655I-260505J426774D01*
G01*
X246593345Y-73218934D02*
G75*
G02*
X246749647Y-73175024I156255J-256066D01*
G01*
X246749647Y-70175000D02*
G75*
G02*
X246593344Y-70131067I3J300020D01*
G01*
X248550353Y-73175000D02*
G75*
G02*
X248706655Y-73218934I3J-299992D01*
G01*
X248706655Y-70131066D02*
G75*
G02*
X248550353Y-70175000I-156299J256058D01*
G01*
X248706655Y-70131066D02*
G75*
G02*
X249393934Y-70818345I260503J-426776D01*
G01*
X249350000Y-70974647D02*
G75*
G02*
X249393934Y-70818345I299992J3D01*
G01*
X249393934Y-72531655D02*
G75*
G02*
X248706655Y-73218934I-426776J-260503D01*
G01*
X249393934Y-72531655D02*
G75*
G02*
X249350000Y-72375353I256058J156299D01*
G01*
%TO.C,LED72*%
X207850000Y-128825000D02*
X207850000Y-128124647D01*
X207850000Y-128825000D02*
X207850000Y-129525353D01*
X209550000Y-127325000D02*
X208649647Y-127325000D01*
X209550000Y-127325000D02*
X210450353Y-127325000D01*
X209550000Y-130325000D02*
X208649647Y-130325000D01*
X209550000Y-130325000D02*
X210450353Y-130325000D01*
X211250000Y-128825000D02*
X211250000Y-128124647D01*
X211250000Y-128825000D02*
X211250000Y-129525353D01*
X207806066Y-127968345D02*
G75*
G02*
X207850000Y-128124647I-256058J-156299D01*
G01*
X207806066Y-127968345D02*
G75*
G02*
X208493345Y-127281066I426776J260503D01*
G01*
X207850000Y-129525353D02*
G75*
G02*
X207806066Y-129681655I-299992J-3D01*
G01*
X208493345Y-130368934D02*
G75*
G02*
X207806066Y-129681655I-260503J426776D01*
G01*
X208493345Y-130368934D02*
G75*
G02*
X208649647Y-130325000I156299J-256058D01*
G01*
X208649647Y-127325000D02*
G75*
G02*
X208493345Y-127281066I-3J299992D01*
G01*
X210450353Y-130325000D02*
G75*
G02*
X210606656Y-130368933I-3J-300020D01*
G01*
X210606655Y-127281066D02*
G75*
G02*
X210450353Y-127324976I-156255J256066D01*
G01*
X210606655Y-127281066D02*
G75*
G02*
X211293934Y-127968345I260505J-426774D01*
G01*
X211250000Y-128124647D02*
G75*
G02*
X211293935Y-127968346I299680J87D01*
G01*
X211293934Y-129681655D02*
G75*
G02*
X210606655Y-130368934I-426774J-260505D01*
G01*
X211293934Y-129681655D02*
G75*
G02*
X211250024Y-129525353I256066J156255D01*
G01*
%TO.C,LED3*%
X93550000Y-43100000D02*
X93550000Y-42399647D01*
X93550000Y-43100000D02*
X93550000Y-43800353D01*
X95250000Y-41600000D02*
X94349647Y-41600000D01*
X95250000Y-41600000D02*
X96150353Y-41600000D01*
X95250000Y-44600000D02*
X94349647Y-44600000D01*
X95250000Y-44600000D02*
X96150353Y-44600000D01*
X96950000Y-43100000D02*
X96950000Y-42399647D01*
X96950000Y-43100000D02*
X96950000Y-43800353D01*
X93506066Y-42243345D02*
G75*
G02*
X93550000Y-42399647I-256058J-156299D01*
G01*
X93506066Y-42243345D02*
G75*
G02*
X94193345Y-41556066I426776J260503D01*
G01*
X93550000Y-43800353D02*
G75*
G02*
X93506066Y-43956655I-299992J-3D01*
G01*
X94193345Y-44643934D02*
G75*
G02*
X93506066Y-43956655I-260503J426776D01*
G01*
X94193345Y-44643934D02*
G75*
G02*
X94349647Y-44600000I156299J-256058D01*
G01*
X94349647Y-41600000D02*
G75*
G02*
X94193345Y-41556066I-3J299992D01*
G01*
X96150353Y-44600000D02*
G75*
G02*
X96306656Y-44643933I-3J-300020D01*
G01*
X96306655Y-41556066D02*
G75*
G02*
X96150353Y-41599976I-156255J256066D01*
G01*
X96306655Y-41556066D02*
G75*
G02*
X96993934Y-42243345I260505J-426774D01*
G01*
X96950000Y-42399647D02*
G75*
G02*
X96993935Y-42243346I299680J87D01*
G01*
X96993934Y-43956655D02*
G75*
G02*
X96306655Y-44643934I-426774J-260505D01*
G01*
X96993934Y-43956655D02*
G75*
G02*
X96950024Y-43800353I256066J156255D01*
G01*
%TO.C,LED34*%
X41162500Y-90725000D02*
X41162500Y-90024647D01*
X41162500Y-90725000D02*
X41162500Y-91425353D01*
X42862500Y-89225000D02*
X41962147Y-89225000D01*
X42862500Y-89225000D02*
X43762853Y-89225000D01*
X42862500Y-92225000D02*
X41962147Y-92225000D01*
X42862500Y-92225000D02*
X43762853Y-92225000D01*
X44562500Y-90725000D02*
X44562500Y-90024647D01*
X44562500Y-90725000D02*
X44562500Y-91425353D01*
X41118566Y-89868345D02*
G75*
G02*
X41162500Y-90024647I-256058J-156299D01*
G01*
X41118566Y-89868345D02*
G75*
G02*
X41805845Y-89181066I426776J260503D01*
G01*
X41162500Y-91425353D02*
G75*
G02*
X41118566Y-91581655I-299992J-3D01*
G01*
X41805845Y-92268934D02*
G75*
G02*
X41118566Y-91581655I-260503J426776D01*
G01*
X41805845Y-92268934D02*
G75*
G02*
X41962147Y-92225000I156299J-256058D01*
G01*
X41962147Y-89225000D02*
G75*
G02*
X41805845Y-89181066I-3J299992D01*
G01*
X43762853Y-92225000D02*
G75*
G02*
X43919156Y-92268933I-3J-300020D01*
G01*
X43919155Y-89181066D02*
G75*
G02*
X43762853Y-89224976I-156255J256066D01*
G01*
X43919155Y-89181066D02*
G75*
G02*
X44606434Y-89868345I260505J-426774D01*
G01*
X44562500Y-90024647D02*
G75*
G02*
X44606435Y-89868346I299680J87D01*
G01*
X44606434Y-91581655D02*
G75*
G02*
X43919155Y-92268934I-426774J-260505D01*
G01*
X44606434Y-91581655D02*
G75*
G02*
X44562524Y-91425353I256066J156255D01*
G01*
%TO.C,LED22*%
X131650000Y-71675000D02*
X131650000Y-70974647D01*
X131650000Y-71675000D02*
X131650000Y-72375353D01*
X133350000Y-70175000D02*
X132449647Y-70175000D01*
X133350000Y-70175000D02*
X134250353Y-70175000D01*
X133350000Y-73175000D02*
X132449647Y-73175000D01*
X133350000Y-73175000D02*
X134250353Y-73175000D01*
X135050000Y-71675000D02*
X135050000Y-70974647D01*
X135050000Y-71675000D02*
X135050000Y-72375353D01*
X131606066Y-70818345D02*
G75*
G02*
X131649976Y-70974647I-256066J-156255D01*
G01*
X131606066Y-70818345D02*
G75*
G02*
X132293345Y-70131066I426774J260505D01*
G01*
X131650000Y-72375353D02*
G75*
G02*
X131606065Y-72531654I-299680J-87D01*
G01*
X132293345Y-73218934D02*
G75*
G02*
X131606066Y-72531655I-260505J426774D01*
G01*
X132293345Y-73218934D02*
G75*
G02*
X132449647Y-73175024I156255J-256066D01*
G01*
X132449647Y-70175000D02*
G75*
G02*
X132293344Y-70131067I3J300020D01*
G01*
X134250353Y-73175000D02*
G75*
G02*
X134406655Y-73218934I3J-299992D01*
G01*
X134406655Y-70131066D02*
G75*
G02*
X134250353Y-70175000I-156299J256058D01*
G01*
X134406655Y-70131066D02*
G75*
G02*
X135093934Y-70818345I260503J-426776D01*
G01*
X135050000Y-70974647D02*
G75*
G02*
X135093934Y-70818345I299992J3D01*
G01*
X135093934Y-72531655D02*
G75*
G02*
X134406655Y-73218934I-426776J-260503D01*
G01*
X135093934Y-72531655D02*
G75*
G02*
X135050000Y-72375353I256058J156299D01*
G01*
%TO.C,LED48*%
X345962500Y-90725000D02*
X345962500Y-90024647D01*
X345962500Y-90725000D02*
X345962500Y-91425353D01*
X347662500Y-89225000D02*
X346762147Y-89225000D01*
X347662500Y-89225000D02*
X348562853Y-89225000D01*
X347662500Y-92225000D02*
X346762147Y-92225000D01*
X347662500Y-92225000D02*
X348562853Y-92225000D01*
X349362500Y-90725000D02*
X349362500Y-90024647D01*
X349362500Y-90725000D02*
X349362500Y-91425353D01*
X345918566Y-89868345D02*
G75*
G02*
X345962500Y-90024647I-256058J-156299D01*
G01*
X345918566Y-89868345D02*
G75*
G02*
X346605845Y-89181066I426776J260503D01*
G01*
X345962500Y-91425353D02*
G75*
G02*
X345918566Y-91581655I-299992J-3D01*
G01*
X346605845Y-92268934D02*
G75*
G02*
X345918566Y-91581655I-260503J426776D01*
G01*
X346605845Y-92268934D02*
G75*
G02*
X346762147Y-92225000I156299J-256058D01*
G01*
X346762147Y-89225000D02*
G75*
G02*
X346605845Y-89181066I-3J299992D01*
G01*
X348562853Y-92225000D02*
G75*
G02*
X348719156Y-92268933I-3J-300020D01*
G01*
X348719155Y-89181066D02*
G75*
G02*
X348562853Y-89224976I-156255J256066D01*
G01*
X348719155Y-89181066D02*
G75*
G02*
X349406434Y-89868345I260505J-426774D01*
G01*
X349362500Y-90024647D02*
G75*
G02*
X349406435Y-89868346I299680J87D01*
G01*
X349406434Y-91581655D02*
G75*
G02*
X348719155Y-92268934I-426774J-260505D01*
G01*
X349406434Y-91581655D02*
G75*
G02*
X349362524Y-91425353I256066J156255D01*
G01*
%TO.C,LED65*%
X74500000Y-128825000D02*
X74500000Y-128124647D01*
X74500000Y-128825000D02*
X74500000Y-129525353D01*
X76200000Y-127325000D02*
X75299647Y-127325000D01*
X76200000Y-127325000D02*
X77100353Y-127325000D01*
X76200000Y-130325000D02*
X75299647Y-130325000D01*
X76200000Y-130325000D02*
X77100353Y-130325000D01*
X77900000Y-128825000D02*
X77900000Y-128124647D01*
X77900000Y-128825000D02*
X77900000Y-129525353D01*
X74456066Y-127968345D02*
G75*
G02*
X74500000Y-128124647I-256058J-156299D01*
G01*
X74456066Y-127968345D02*
G75*
G02*
X75143345Y-127281066I426776J260503D01*
G01*
X74500000Y-129525353D02*
G75*
G02*
X74456066Y-129681655I-299992J-3D01*
G01*
X75143345Y-130368934D02*
G75*
G02*
X74456066Y-129681655I-260503J426776D01*
G01*
X75143345Y-130368934D02*
G75*
G02*
X75299647Y-130325000I156299J-256058D01*
G01*
X75299647Y-127325000D02*
G75*
G02*
X75143345Y-127281066I-3J299992D01*
G01*
X77100353Y-130325000D02*
G75*
G02*
X77256656Y-130368933I-3J-300020D01*
G01*
X77256655Y-127281066D02*
G75*
G02*
X77100353Y-127324976I-156255J256066D01*
G01*
X77256655Y-127281066D02*
G75*
G02*
X77943934Y-127968345I260505J-426774D01*
G01*
X77900000Y-128124647D02*
G75*
G02*
X77943935Y-127968346I299680J87D01*
G01*
X77943934Y-129681655D02*
G75*
G02*
X77256655Y-130368934I-426774J-260505D01*
G01*
X77943934Y-129681655D02*
G75*
G02*
X77900024Y-129525353I256066J156255D01*
G01*
%TO.C,LED58*%
X184037500Y-109775000D02*
X184037500Y-109074647D01*
X184037500Y-109775000D02*
X184037500Y-110475353D01*
X185737500Y-108275000D02*
X184837147Y-108275000D01*
X185737500Y-108275000D02*
X186637853Y-108275000D01*
X185737500Y-111275000D02*
X184837147Y-111275000D01*
X185737500Y-111275000D02*
X186637853Y-111275000D01*
X187437500Y-109775000D02*
X187437500Y-109074647D01*
X187437500Y-109775000D02*
X187437500Y-110475353D01*
X183993566Y-108918345D02*
G75*
G02*
X184037476Y-109074647I-256066J-156255D01*
G01*
X183993566Y-108918345D02*
G75*
G02*
X184680845Y-108231066I426774J260505D01*
G01*
X184037500Y-110475353D02*
G75*
G02*
X183993565Y-110631654I-299680J-87D01*
G01*
X184680845Y-111318934D02*
G75*
G02*
X183993566Y-110631655I-260505J426774D01*
G01*
X184680845Y-111318934D02*
G75*
G02*
X184837147Y-111275024I156255J-256066D01*
G01*
X184837147Y-108275000D02*
G75*
G02*
X184680844Y-108231067I3J300020D01*
G01*
X186637853Y-111275000D02*
G75*
G02*
X186794155Y-111318934I3J-299992D01*
G01*
X186794155Y-108231066D02*
G75*
G02*
X186637853Y-108275000I-156299J256058D01*
G01*
X186794155Y-108231066D02*
G75*
G02*
X187481434Y-108918345I260503J-426776D01*
G01*
X187437500Y-109074647D02*
G75*
G02*
X187481434Y-108918345I299992J3D01*
G01*
X187481434Y-110631655D02*
G75*
G02*
X186794155Y-111318934I-426776J-260503D01*
G01*
X187481434Y-110631655D02*
G75*
G02*
X187437500Y-110475353I256058J156299D01*
G01*
%TO.C,LED1*%
X36400000Y-43100000D02*
X36400000Y-42399647D01*
X36400000Y-43100000D02*
X36400000Y-43800353D01*
X38100000Y-41600000D02*
X37199647Y-41600000D01*
X38100000Y-41600000D02*
X39000353Y-41600000D01*
X38100000Y-44600000D02*
X37199647Y-44600000D01*
X38100000Y-44600000D02*
X39000353Y-44600000D01*
X39800000Y-43100000D02*
X39800000Y-42399647D01*
X39800000Y-43100000D02*
X39800000Y-43800353D01*
X36356066Y-42243345D02*
G75*
G02*
X36400000Y-42399647I-256058J-156299D01*
G01*
X36356066Y-42243345D02*
G75*
G02*
X37043345Y-41556066I426776J260503D01*
G01*
X36400000Y-43800353D02*
G75*
G02*
X36356066Y-43956655I-299992J-3D01*
G01*
X37043345Y-44643934D02*
G75*
G02*
X36356066Y-43956655I-260503J426776D01*
G01*
X37043345Y-44643934D02*
G75*
G02*
X37199647Y-44600000I156299J-256058D01*
G01*
X37199647Y-41600000D02*
G75*
G02*
X37043345Y-41556066I-3J299992D01*
G01*
X39000353Y-44600000D02*
G75*
G02*
X39156656Y-44643933I-3J-300020D01*
G01*
X39156655Y-41556066D02*
G75*
G02*
X39000353Y-41599976I-156255J256066D01*
G01*
X39156655Y-41556066D02*
G75*
G02*
X39843934Y-42243345I260505J-426774D01*
G01*
X39800000Y-42399647D02*
G75*
G02*
X39843935Y-42243346I299680J87D01*
G01*
X39843934Y-43956655D02*
G75*
G02*
X39156655Y-44643934I-426774J-260505D01*
G01*
X39843934Y-43956655D02*
G75*
G02*
X39800024Y-43800353I256066J156255D01*
G01*
%TO.C,LED51*%
X43543750Y-109775000D02*
X43543750Y-109074647D01*
X43543750Y-109775000D02*
X43543750Y-110475353D01*
X45243750Y-108275000D02*
X44343397Y-108275000D01*
X45243750Y-108275000D02*
X46144103Y-108275000D01*
X45243750Y-111275000D02*
X44343397Y-111275000D01*
X45243750Y-111275000D02*
X46144103Y-111275000D01*
X46943750Y-109775000D02*
X46943750Y-109074647D01*
X46943750Y-109775000D02*
X46943750Y-110475353D01*
X43499816Y-108918345D02*
G75*
G02*
X43543726Y-109074647I-256066J-156255D01*
G01*
X43499816Y-108918345D02*
G75*
G02*
X44187095Y-108231066I426774J260505D01*
G01*
X43543750Y-110475353D02*
G75*
G02*
X43499815Y-110631654I-299680J-87D01*
G01*
X44187095Y-111318934D02*
G75*
G02*
X43499816Y-110631655I-260505J426774D01*
G01*
X44187095Y-111318934D02*
G75*
G02*
X44343397Y-111275024I156255J-256066D01*
G01*
X44343397Y-108275000D02*
G75*
G02*
X44187094Y-108231067I3J300020D01*
G01*
X46144103Y-111275000D02*
G75*
G02*
X46300405Y-111318934I3J-299992D01*
G01*
X46300405Y-108231066D02*
G75*
G02*
X46144103Y-108275000I-156299J256058D01*
G01*
X46300405Y-108231066D02*
G75*
G02*
X46987684Y-108918345I260503J-426776D01*
G01*
X46943750Y-109074647D02*
G75*
G02*
X46987684Y-108918345I299992J3D01*
G01*
X46987684Y-110631655D02*
G75*
G02*
X46300405Y-111318934I-426776J-260503D01*
G01*
X46987684Y-110631655D02*
G75*
G02*
X46943750Y-110475353I256058J156299D01*
G01*
%TO.C,LED68*%
X131650000Y-128825000D02*
X131650000Y-128124647D01*
X131650000Y-128825000D02*
X131650000Y-129525353D01*
X133350000Y-127325000D02*
X132449647Y-127325000D01*
X133350000Y-127325000D02*
X134250353Y-127325000D01*
X133350000Y-130325000D02*
X132449647Y-130325000D01*
X133350000Y-130325000D02*
X134250353Y-130325000D01*
X135050000Y-128825000D02*
X135050000Y-128124647D01*
X135050000Y-128825000D02*
X135050000Y-129525353D01*
X131606066Y-127968345D02*
G75*
G02*
X131650000Y-128124647I-256058J-156299D01*
G01*
X131606066Y-127968345D02*
G75*
G02*
X132293345Y-127281066I426776J260503D01*
G01*
X131650000Y-129525353D02*
G75*
G02*
X131606066Y-129681655I-299992J-3D01*
G01*
X132293345Y-130368934D02*
G75*
G02*
X131606066Y-129681655I-260503J426776D01*
G01*
X132293345Y-130368934D02*
G75*
G02*
X132449647Y-130325000I156299J-256058D01*
G01*
X132449647Y-127325000D02*
G75*
G02*
X132293345Y-127281066I-3J299992D01*
G01*
X134250353Y-130325000D02*
G75*
G02*
X134406656Y-130368933I-3J-300020D01*
G01*
X134406655Y-127281066D02*
G75*
G02*
X134250353Y-127324976I-156255J256066D01*
G01*
X134406655Y-127281066D02*
G75*
G02*
X135093934Y-127968345I260505J-426774D01*
G01*
X135050000Y-128124647D02*
G75*
G02*
X135093935Y-127968346I299680J87D01*
G01*
X135093934Y-129681655D02*
G75*
G02*
X134406655Y-130368934I-426774J-260505D01*
G01*
X135093934Y-129681655D02*
G75*
G02*
X135050024Y-129525353I256066J156255D01*
G01*
%TO.C,LED54*%
X107837500Y-109775000D02*
X107837500Y-109074647D01*
X107837500Y-109775000D02*
X107837500Y-110475353D01*
X109537500Y-108275000D02*
X108637147Y-108275000D01*
X109537500Y-108275000D02*
X110437853Y-108275000D01*
X109537500Y-111275000D02*
X108637147Y-111275000D01*
X109537500Y-111275000D02*
X110437853Y-111275000D01*
X111237500Y-109775000D02*
X111237500Y-109074647D01*
X111237500Y-109775000D02*
X111237500Y-110475353D01*
X107793566Y-108918345D02*
G75*
G02*
X107837476Y-109074647I-256066J-156255D01*
G01*
X107793566Y-108918345D02*
G75*
G02*
X108480845Y-108231066I426774J260505D01*
G01*
X107837500Y-110475353D02*
G75*
G02*
X107793565Y-110631654I-299680J-87D01*
G01*
X108480845Y-111318934D02*
G75*
G02*
X107793566Y-110631655I-260505J426774D01*
G01*
X108480845Y-111318934D02*
G75*
G02*
X108637147Y-111275024I156255J-256066D01*
G01*
X108637147Y-108275000D02*
G75*
G02*
X108480844Y-108231067I3J300020D01*
G01*
X110437853Y-111275000D02*
G75*
G02*
X110594155Y-111318934I3J-299992D01*
G01*
X110594155Y-108231066D02*
G75*
G02*
X110437853Y-108275000I-156299J256058D01*
G01*
X110594155Y-108231066D02*
G75*
G02*
X111281434Y-108918345I260503J-426776D01*
G01*
X111237500Y-109074647D02*
G75*
G02*
X111281434Y-108918345I299992J3D01*
G01*
X111281434Y-110631655D02*
G75*
G02*
X110594155Y-111318934I-426776J-260503D01*
G01*
X111281434Y-110631655D02*
G75*
G02*
X111237500Y-110475353I256058J156299D01*
G01*
%TO.C,LED37*%
X103075000Y-90725000D02*
X103075000Y-90024647D01*
X103075000Y-90725000D02*
X103075000Y-91425353D01*
X104775000Y-89225000D02*
X103874647Y-89225000D01*
X104775000Y-89225000D02*
X105675353Y-89225000D01*
X104775000Y-92225000D02*
X103874647Y-92225000D01*
X104775000Y-92225000D02*
X105675353Y-92225000D01*
X106475000Y-90725000D02*
X106475000Y-90024647D01*
X106475000Y-90725000D02*
X106475000Y-91425353D01*
X103031066Y-89868345D02*
G75*
G02*
X103075000Y-90024647I-256058J-156299D01*
G01*
X103031066Y-89868345D02*
G75*
G02*
X103718345Y-89181066I426776J260503D01*
G01*
X103075000Y-91425353D02*
G75*
G02*
X103031066Y-91581655I-299992J-3D01*
G01*
X103718345Y-92268934D02*
G75*
G02*
X103031066Y-91581655I-260503J426776D01*
G01*
X103718345Y-92268934D02*
G75*
G02*
X103874647Y-92225000I156299J-256058D01*
G01*
X103874647Y-89225000D02*
G75*
G02*
X103718345Y-89181066I-3J299992D01*
G01*
X105675353Y-92225000D02*
G75*
G02*
X105831656Y-92268933I-3J-300020D01*
G01*
X105831655Y-89181066D02*
G75*
G02*
X105675353Y-89224976I-156255J256066D01*
G01*
X105831655Y-89181066D02*
G75*
G02*
X106518934Y-89868345I260505J-426774D01*
G01*
X106475000Y-90024647D02*
G75*
G02*
X106518935Y-89868346I299680J87D01*
G01*
X106518934Y-91581655D02*
G75*
G02*
X105831655Y-92268934I-426774J-260505D01*
G01*
X106518934Y-91581655D02*
G75*
G02*
X106475024Y-91425353I256066J156255D01*
G01*
%TO.C,LED91*%
X384062500Y-147875000D02*
X384062500Y-147174647D01*
X384062500Y-147875000D02*
X384062500Y-148575353D01*
X385762500Y-146375000D02*
X384862147Y-146375000D01*
X385762500Y-146375000D02*
X386662853Y-146375000D01*
X385762500Y-149375000D02*
X384862147Y-149375000D01*
X385762500Y-149375000D02*
X386662853Y-149375000D01*
X387462500Y-147875000D02*
X387462500Y-147174647D01*
X387462500Y-147875000D02*
X387462500Y-148575353D01*
X384018566Y-147018345D02*
G75*
G02*
X384062476Y-147174647I-256066J-156255D01*
G01*
X384018566Y-147018345D02*
G75*
G02*
X384705845Y-146331066I426774J260505D01*
G01*
X384062500Y-148575353D02*
G75*
G02*
X384018565Y-148731654I-299680J-87D01*
G01*
X384705845Y-149418934D02*
G75*
G02*
X384018566Y-148731655I-260505J426774D01*
G01*
X384705845Y-149418934D02*
G75*
G02*
X384862147Y-149375024I156255J-256066D01*
G01*
X384862147Y-146375000D02*
G75*
G02*
X384705844Y-146331067I3J300020D01*
G01*
X386662853Y-149375000D02*
G75*
G02*
X386819155Y-149418934I3J-299992D01*
G01*
X386819155Y-146331066D02*
G75*
G02*
X386662853Y-146375000I-156299J256058D01*
G01*
X386819155Y-146331066D02*
G75*
G02*
X387506434Y-147018345I260503J-426776D01*
G01*
X387462500Y-147174647D02*
G75*
G02*
X387506434Y-147018345I299992J3D01*
G01*
X387506434Y-148731655D02*
G75*
G02*
X386819155Y-149418934I-426776J-260503D01*
G01*
X387506434Y-148731655D02*
G75*
G02*
X387462500Y-148575353I256058J156299D01*
G01*
%TO.C,LED26*%
X207850000Y-71675000D02*
X207850000Y-70974647D01*
X207850000Y-71675000D02*
X207850000Y-72375353D01*
X209550000Y-70175000D02*
X208649647Y-70175000D01*
X209550000Y-70175000D02*
X210450353Y-70175000D01*
X209550000Y-73175000D02*
X208649647Y-73175000D01*
X209550000Y-73175000D02*
X210450353Y-73175000D01*
X211250000Y-71675000D02*
X211250000Y-70974647D01*
X211250000Y-71675000D02*
X211250000Y-72375353D01*
X207806066Y-70818345D02*
G75*
G02*
X207849976Y-70974647I-256066J-156255D01*
G01*
X207806066Y-70818345D02*
G75*
G02*
X208493345Y-70131066I426774J260505D01*
G01*
X207850000Y-72375353D02*
G75*
G02*
X207806065Y-72531654I-299680J-87D01*
G01*
X208493345Y-73218934D02*
G75*
G02*
X207806066Y-72531655I-260505J426774D01*
G01*
X208493345Y-73218934D02*
G75*
G02*
X208649647Y-73175024I156255J-256066D01*
G01*
X208649647Y-70175000D02*
G75*
G02*
X208493344Y-70131067I3J300020D01*
G01*
X210450353Y-73175000D02*
G75*
G02*
X210606655Y-73218934I3J-299992D01*
G01*
X210606655Y-70131066D02*
G75*
G02*
X210450353Y-70175000I-156299J256058D01*
G01*
X210606655Y-70131066D02*
G75*
G02*
X211293934Y-70818345I260503J-426776D01*
G01*
X211250000Y-70974647D02*
G75*
G02*
X211293934Y-70818345I299992J3D01*
G01*
X211293934Y-72531655D02*
G75*
G02*
X210606655Y-73218934I-426776J-260503D01*
G01*
X211293934Y-72531655D02*
G75*
G02*
X211250000Y-72375353I256058J156299D01*
G01*
%TO.C,LED30*%
X293575000Y-71675000D02*
X293575000Y-70974647D01*
X293575000Y-71675000D02*
X293575000Y-72375353D01*
X295275000Y-70175000D02*
X294374647Y-70175000D01*
X295275000Y-70175000D02*
X296175353Y-70175000D01*
X295275000Y-73175000D02*
X294374647Y-73175000D01*
X295275000Y-73175000D02*
X296175353Y-73175000D01*
X296975000Y-71675000D02*
X296975000Y-70974647D01*
X296975000Y-71675000D02*
X296975000Y-72375353D01*
X293531066Y-70818345D02*
G75*
G02*
X293574976Y-70974647I-256066J-156255D01*
G01*
X293531066Y-70818345D02*
G75*
G02*
X294218345Y-70131066I426774J260505D01*
G01*
X293575000Y-72375353D02*
G75*
G02*
X293531065Y-72531654I-299680J-87D01*
G01*
X294218345Y-73218934D02*
G75*
G02*
X293531066Y-72531655I-260505J426774D01*
G01*
X294218345Y-73218934D02*
G75*
G02*
X294374647Y-73175024I156255J-256066D01*
G01*
X294374647Y-70175000D02*
G75*
G02*
X294218344Y-70131067I3J300020D01*
G01*
X296175353Y-73175000D02*
G75*
G02*
X296331655Y-73218934I3J-299992D01*
G01*
X296331655Y-70131066D02*
G75*
G02*
X296175353Y-70175000I-156299J256058D01*
G01*
X296331655Y-70131066D02*
G75*
G02*
X297018934Y-70818345I260503J-426776D01*
G01*
X296975000Y-70974647D02*
G75*
G02*
X297018934Y-70818345I299992J3D01*
G01*
X297018934Y-72531655D02*
G75*
G02*
X296331655Y-73218934I-426776J-260503D01*
G01*
X297018934Y-72531655D02*
G75*
G02*
X296975000Y-72375353I256058J156299D01*
G01*
%TO.C,LED79*%
X365012500Y-128825000D02*
X365012500Y-128124647D01*
X365012500Y-128825000D02*
X365012500Y-129525353D01*
X366712500Y-127325000D02*
X365812147Y-127325000D01*
X366712500Y-127325000D02*
X367612853Y-127325000D01*
X366712500Y-130325000D02*
X365812147Y-130325000D01*
X366712500Y-130325000D02*
X367612853Y-130325000D01*
X368412500Y-128825000D02*
X368412500Y-128124647D01*
X368412500Y-128825000D02*
X368412500Y-129525353D01*
X364968566Y-127968345D02*
G75*
G02*
X365012500Y-128124647I-256058J-156299D01*
G01*
X364968566Y-127968345D02*
G75*
G02*
X365655845Y-127281066I426776J260503D01*
G01*
X365012500Y-129525353D02*
G75*
G02*
X364968566Y-129681655I-299992J-3D01*
G01*
X365655845Y-130368934D02*
G75*
G02*
X364968566Y-129681655I-260503J426776D01*
G01*
X365655845Y-130368934D02*
G75*
G02*
X365812147Y-130325000I156299J-256058D01*
G01*
X365812147Y-127325000D02*
G75*
G02*
X365655845Y-127281066I-3J299992D01*
G01*
X367612853Y-130325000D02*
G75*
G02*
X367769156Y-130368933I-3J-300020D01*
G01*
X367769155Y-127281066D02*
G75*
G02*
X367612853Y-127324976I-156255J256066D01*
G01*
X367769155Y-127281066D02*
G75*
G02*
X368456434Y-127968345I260505J-426774D01*
G01*
X368412500Y-128124647D02*
G75*
G02*
X368456435Y-127968346I299680J87D01*
G01*
X368456434Y-129681655D02*
G75*
G02*
X367769155Y-130368934I-426774J-260505D01*
G01*
X368456434Y-129681655D02*
G75*
G02*
X368412524Y-129525353I256066J156255D01*
G01*
%TO.C,LED14*%
X345962500Y-43100000D02*
X345962500Y-42399647D01*
X345962500Y-43100000D02*
X345962500Y-43800353D01*
X347662500Y-41600000D02*
X346762147Y-41600000D01*
X347662500Y-41600000D02*
X348562853Y-41600000D01*
X347662500Y-44600000D02*
X346762147Y-44600000D01*
X347662500Y-44600000D02*
X348562853Y-44600000D01*
X349362500Y-43100000D02*
X349362500Y-42399647D01*
X349362500Y-43100000D02*
X349362500Y-43800353D01*
X345918566Y-42243345D02*
G75*
G02*
X345962500Y-42399647I-256058J-156299D01*
G01*
X345918566Y-42243345D02*
G75*
G02*
X346605845Y-41556066I426776J260503D01*
G01*
X345962500Y-43800353D02*
G75*
G02*
X345918566Y-43956655I-299992J-3D01*
G01*
X346605845Y-44643934D02*
G75*
G02*
X345918566Y-43956655I-260503J426776D01*
G01*
X346605845Y-44643934D02*
G75*
G02*
X346762147Y-44600000I156299J-256058D01*
G01*
X346762147Y-41600000D02*
G75*
G02*
X346605845Y-41556066I-3J299992D01*
G01*
X348562853Y-44600000D02*
G75*
G02*
X348719156Y-44643933I-3J-300020D01*
G01*
X348719155Y-41556066D02*
G75*
G02*
X348562853Y-41599976I-156255J256066D01*
G01*
X348719155Y-41556066D02*
G75*
G02*
X349406434Y-42243345I260505J-426774D01*
G01*
X349362500Y-42399647D02*
G75*
G02*
X349406435Y-42243346I299680J87D01*
G01*
X349406434Y-43956655D02*
G75*
G02*
X348719155Y-44643934I-426774J-260505D01*
G01*
X349406434Y-43956655D02*
G75*
G02*
X349362524Y-43800353I256066J156255D01*
G01*
%TO.C,LED87*%
X276906250Y-147875000D02*
X276906250Y-147174647D01*
X276906250Y-147875000D02*
X276906250Y-148575353D01*
X278606250Y-146375000D02*
X277705897Y-146375000D01*
X278606250Y-146375000D02*
X279506603Y-146375000D01*
X278606250Y-149375000D02*
X277705897Y-149375000D01*
X278606250Y-149375000D02*
X279506603Y-149375000D01*
X280306250Y-147875000D02*
X280306250Y-147174647D01*
X280306250Y-147875000D02*
X280306250Y-148575353D01*
X276862316Y-147018345D02*
G75*
G02*
X276906226Y-147174647I-256066J-156255D01*
G01*
X276862316Y-147018345D02*
G75*
G02*
X277549595Y-146331066I426774J260505D01*
G01*
X276906250Y-148575353D02*
G75*
G02*
X276862315Y-148731654I-299680J-87D01*
G01*
X277549595Y-149418934D02*
G75*
G02*
X276862316Y-148731655I-260505J426774D01*
G01*
X277549595Y-149418934D02*
G75*
G02*
X277705897Y-149375024I156255J-256066D01*
G01*
X277705897Y-146375000D02*
G75*
G02*
X277549594Y-146331067I3J300020D01*
G01*
X279506603Y-149375000D02*
G75*
G02*
X279662905Y-149418934I3J-299992D01*
G01*
X279662905Y-146331066D02*
G75*
G02*
X279506603Y-146375000I-156299J256058D01*
G01*
X279662905Y-146331066D02*
G75*
G02*
X280350184Y-147018345I260503J-426776D01*
G01*
X280306250Y-147174647D02*
G75*
G02*
X280350184Y-147018345I299992J3D01*
G01*
X280350184Y-148731655D02*
G75*
G02*
X279662905Y-149418934I-426776J-260503D01*
G01*
X280350184Y-148731655D02*
G75*
G02*
X280306250Y-148575353I256058J156299D01*
G01*
%TO.C,LED24*%
X169750000Y-71675000D02*
X169750000Y-70974647D01*
X169750000Y-71675000D02*
X169750000Y-72375353D01*
X171450000Y-70175000D02*
X170549647Y-70175000D01*
X171450000Y-70175000D02*
X172350353Y-70175000D01*
X171450000Y-73175000D02*
X170549647Y-73175000D01*
X171450000Y-73175000D02*
X172350353Y-73175000D01*
X173150000Y-71675000D02*
X173150000Y-70974647D01*
X173150000Y-71675000D02*
X173150000Y-72375353D01*
X169706066Y-70818345D02*
G75*
G02*
X169749976Y-70974647I-256066J-156255D01*
G01*
X169706066Y-70818345D02*
G75*
G02*
X170393345Y-70131066I426774J260505D01*
G01*
X169750000Y-72375353D02*
G75*
G02*
X169706065Y-72531654I-299680J-87D01*
G01*
X170393345Y-73218934D02*
G75*
G02*
X169706066Y-72531655I-260505J426774D01*
G01*
X170393345Y-73218934D02*
G75*
G02*
X170549647Y-73175024I156255J-256066D01*
G01*
X170549647Y-70175000D02*
G75*
G02*
X170393344Y-70131067I3J300020D01*
G01*
X172350353Y-73175000D02*
G75*
G02*
X172506655Y-73218934I3J-299992D01*
G01*
X172506655Y-70131066D02*
G75*
G02*
X172350353Y-70175000I-156299J256058D01*
G01*
X172506655Y-70131066D02*
G75*
G02*
X173193934Y-70818345I260503J-426776D01*
G01*
X173150000Y-70974647D02*
G75*
G02*
X173193934Y-70818345I299992J3D01*
G01*
X173193934Y-72531655D02*
G75*
G02*
X172506655Y-73218934I-426776J-260503D01*
G01*
X173193934Y-72531655D02*
G75*
G02*
X173150000Y-72375353I256058J156299D01*
G01*
%TO.C,LED23*%
X150700000Y-71675000D02*
X150700000Y-70974647D01*
X150700000Y-71675000D02*
X150700000Y-72375353D01*
X152400000Y-70175000D02*
X151499647Y-70175000D01*
X152400000Y-70175000D02*
X153300353Y-70175000D01*
X152400000Y-73175000D02*
X151499647Y-73175000D01*
X152400000Y-73175000D02*
X153300353Y-73175000D01*
X154100000Y-71675000D02*
X154100000Y-70974647D01*
X154100000Y-71675000D02*
X154100000Y-72375353D01*
X150656066Y-70818345D02*
G75*
G02*
X150699976Y-70974647I-256066J-156255D01*
G01*
X150656066Y-70818345D02*
G75*
G02*
X151343345Y-70131066I426774J260505D01*
G01*
X150700000Y-72375353D02*
G75*
G02*
X150656065Y-72531654I-299680J-87D01*
G01*
X151343345Y-73218934D02*
G75*
G02*
X150656066Y-72531655I-260505J426774D01*
G01*
X151343345Y-73218934D02*
G75*
G02*
X151499647Y-73175024I156255J-256066D01*
G01*
X151499647Y-70175000D02*
G75*
G02*
X151343344Y-70131067I3J300020D01*
G01*
X153300353Y-73175000D02*
G75*
G02*
X153456655Y-73218934I3J-299992D01*
G01*
X153456655Y-70131066D02*
G75*
G02*
X153300353Y-70175000I-156299J256058D01*
G01*
X153456655Y-70131066D02*
G75*
G02*
X154143934Y-70818345I260503J-426776D01*
G01*
X154100000Y-70974647D02*
G75*
G02*
X154143934Y-70818345I299992J3D01*
G01*
X154143934Y-72531655D02*
G75*
G02*
X153456655Y-73218934I-426776J-260503D01*
G01*
X154143934Y-72531655D02*
G75*
G02*
X154100000Y-72375353I256058J156299D01*
G01*
%TO.C,LED17*%
X36400000Y-71675000D02*
X36400000Y-70974647D01*
X36400000Y-71675000D02*
X36400000Y-72375353D01*
X38100000Y-70175000D02*
X37199647Y-70175000D01*
X38100000Y-70175000D02*
X39000353Y-70175000D01*
X38100000Y-73175000D02*
X37199647Y-73175000D01*
X38100000Y-73175000D02*
X39000353Y-73175000D01*
X39800000Y-71675000D02*
X39800000Y-70974647D01*
X39800000Y-71675000D02*
X39800000Y-72375353D01*
X36356066Y-70818345D02*
G75*
G02*
X36399976Y-70974647I-256066J-156255D01*
G01*
X36356066Y-70818345D02*
G75*
G02*
X37043345Y-70131066I426774J260505D01*
G01*
X36400000Y-72375353D02*
G75*
G02*
X36356065Y-72531654I-299680J-87D01*
G01*
X37043345Y-73218934D02*
G75*
G02*
X36356066Y-72531655I-260505J426774D01*
G01*
X37043345Y-73218934D02*
G75*
G02*
X37199647Y-73175024I156255J-256066D01*
G01*
X37199647Y-70175000D02*
G75*
G02*
X37043344Y-70131067I3J300020D01*
G01*
X39000353Y-73175000D02*
G75*
G02*
X39156655Y-73218934I3J-299992D01*
G01*
X39156655Y-70131066D02*
G75*
G02*
X39000353Y-70175000I-156299J256058D01*
G01*
X39156655Y-70131066D02*
G75*
G02*
X39843934Y-70818345I260503J-426776D01*
G01*
X39800000Y-70974647D02*
G75*
G02*
X39843934Y-70818345I299992J3D01*
G01*
X39843934Y-72531655D02*
G75*
G02*
X39156655Y-73218934I-426776J-260503D01*
G01*
X39843934Y-72531655D02*
G75*
G02*
X39800000Y-72375353I256058J156299D01*
G01*
%TO.C,LED2*%
X74500000Y-43100000D02*
X74500000Y-42399647D01*
X74500000Y-43100000D02*
X74500000Y-43800353D01*
X76200000Y-41600000D02*
X75299647Y-41600000D01*
X76200000Y-41600000D02*
X77100353Y-41600000D01*
X76200000Y-44600000D02*
X75299647Y-44600000D01*
X76200000Y-44600000D02*
X77100353Y-44600000D01*
X77900000Y-43100000D02*
X77900000Y-42399647D01*
X77900000Y-43100000D02*
X77900000Y-43800353D01*
X74456066Y-42243345D02*
G75*
G02*
X74500000Y-42399647I-256058J-156299D01*
G01*
X74456066Y-42243345D02*
G75*
G02*
X75143345Y-41556066I426776J260503D01*
G01*
X74500000Y-43800353D02*
G75*
G02*
X74456066Y-43956655I-299992J-3D01*
G01*
X75143345Y-44643934D02*
G75*
G02*
X74456066Y-43956655I-260503J426776D01*
G01*
X75143345Y-44643934D02*
G75*
G02*
X75299647Y-44600000I156299J-256058D01*
G01*
X75299647Y-41600000D02*
G75*
G02*
X75143345Y-41556066I-3J299992D01*
G01*
X77100353Y-44600000D02*
G75*
G02*
X77256656Y-44643933I-3J-300020D01*
G01*
X77256655Y-41556066D02*
G75*
G02*
X77100353Y-41599976I-156255J256066D01*
G01*
X77256655Y-41556066D02*
G75*
G02*
X77943934Y-42243345I260505J-426774D01*
G01*
X77900000Y-42399647D02*
G75*
G02*
X77943935Y-42243346I299680J87D01*
G01*
X77943934Y-43956655D02*
G75*
G02*
X77256655Y-44643934I-426774J-260505D01*
G01*
X77943934Y-43956655D02*
G75*
G02*
X77900024Y-43800353I256066J156255D01*
G01*
%TO.C,LED10*%
X245950000Y-43100000D02*
X245950000Y-42399647D01*
X245950000Y-43100000D02*
X245950000Y-43800353D01*
X247650000Y-41600000D02*
X246749647Y-41600000D01*
X247650000Y-41600000D02*
X248550353Y-41600000D01*
X247650000Y-44600000D02*
X246749647Y-44600000D01*
X247650000Y-44600000D02*
X248550353Y-44600000D01*
X249350000Y-43100000D02*
X249350000Y-42399647D01*
X249350000Y-43100000D02*
X249350000Y-43800353D01*
X245906066Y-42243345D02*
G75*
G02*
X245950000Y-42399647I-256058J-156299D01*
G01*
X245906066Y-42243345D02*
G75*
G02*
X246593345Y-41556066I426776J260503D01*
G01*
X245950000Y-43800353D02*
G75*
G02*
X245906066Y-43956655I-299992J-3D01*
G01*
X246593345Y-44643934D02*
G75*
G02*
X245906066Y-43956655I-260503J426776D01*
G01*
X246593345Y-44643934D02*
G75*
G02*
X246749647Y-44600000I156299J-256058D01*
G01*
X246749647Y-41600000D02*
G75*
G02*
X246593345Y-41556066I-3J299992D01*
G01*
X248550353Y-44600000D02*
G75*
G02*
X248706656Y-44643933I-3J-300020D01*
G01*
X248706655Y-41556066D02*
G75*
G02*
X248550353Y-41599976I-156255J256066D01*
G01*
X248706655Y-41556066D02*
G75*
G02*
X249393934Y-42243345I260505J-426774D01*
G01*
X249350000Y-42399647D02*
G75*
G02*
X249393935Y-42243346I299680J87D01*
G01*
X249393934Y-43956655D02*
G75*
G02*
X248706655Y-44643934I-426774J-260505D01*
G01*
X249393934Y-43956655D02*
G75*
G02*
X249350024Y-43800353I256066J156255D01*
G01*
%TO.C,LED25*%
X188800000Y-71675000D02*
X188800000Y-70974647D01*
X188800000Y-71675000D02*
X188800000Y-72375353D01*
X190500000Y-70175000D02*
X189599647Y-70175000D01*
X190500000Y-70175000D02*
X191400353Y-70175000D01*
X190500000Y-73175000D02*
X189599647Y-73175000D01*
X190500000Y-73175000D02*
X191400353Y-73175000D01*
X192200000Y-71675000D02*
X192200000Y-70974647D01*
X192200000Y-71675000D02*
X192200000Y-72375353D01*
X188756066Y-70818345D02*
G75*
G02*
X188799976Y-70974647I-256066J-156255D01*
G01*
X188756066Y-70818345D02*
G75*
G02*
X189443345Y-70131066I426774J260505D01*
G01*
X188800000Y-72375353D02*
G75*
G02*
X188756065Y-72531654I-299680J-87D01*
G01*
X189443345Y-73218934D02*
G75*
G02*
X188756066Y-72531655I-260505J426774D01*
G01*
X189443345Y-73218934D02*
G75*
G02*
X189599647Y-73175024I156255J-256066D01*
G01*
X189599647Y-70175000D02*
G75*
G02*
X189443344Y-70131067I3J300020D01*
G01*
X191400353Y-73175000D02*
G75*
G02*
X191556655Y-73218934I3J-299992D01*
G01*
X191556655Y-70131066D02*
G75*
G02*
X191400353Y-70175000I-156299J256058D01*
G01*
X191556655Y-70131066D02*
G75*
G02*
X192243934Y-70818345I260503J-426776D01*
G01*
X192200000Y-70974647D02*
G75*
G02*
X192243934Y-70818345I299992J3D01*
G01*
X192243934Y-72531655D02*
G75*
G02*
X191556655Y-73218934I-426776J-260503D01*
G01*
X192243934Y-72531655D02*
G75*
G02*
X192200000Y-72375353I256058J156299D01*
G01*
%TO.C,LED59*%
X203087500Y-109775000D02*
X203087500Y-109074647D01*
X203087500Y-109775000D02*
X203087500Y-110475353D01*
X204787500Y-108275000D02*
X203887147Y-108275000D01*
X204787500Y-108275000D02*
X205687853Y-108275000D01*
X204787500Y-111275000D02*
X203887147Y-111275000D01*
X204787500Y-111275000D02*
X205687853Y-111275000D01*
X206487500Y-109775000D02*
X206487500Y-109074647D01*
X206487500Y-109775000D02*
X206487500Y-110475353D01*
X203043566Y-108918345D02*
G75*
G02*
X203087476Y-109074647I-256066J-156255D01*
G01*
X203043566Y-108918345D02*
G75*
G02*
X203730845Y-108231066I426774J260505D01*
G01*
X203087500Y-110475353D02*
G75*
G02*
X203043565Y-110631654I-299680J-87D01*
G01*
X203730845Y-111318934D02*
G75*
G02*
X203043566Y-110631655I-260505J426774D01*
G01*
X203730845Y-111318934D02*
G75*
G02*
X203887147Y-111275024I156255J-256066D01*
G01*
X203887147Y-108275000D02*
G75*
G02*
X203730844Y-108231067I3J300020D01*
G01*
X205687853Y-111275000D02*
G75*
G02*
X205844155Y-111318934I3J-299992D01*
G01*
X205844155Y-108231066D02*
G75*
G02*
X205687853Y-108275000I-156299J256058D01*
G01*
X205844155Y-108231066D02*
G75*
G02*
X206531434Y-108918345I260503J-426776D01*
G01*
X206487500Y-109074647D02*
G75*
G02*
X206531434Y-108918345I299992J3D01*
G01*
X206531434Y-110631655D02*
G75*
G02*
X205844155Y-111318934I-426776J-260503D01*
G01*
X206531434Y-110631655D02*
G75*
G02*
X206487500Y-110475353I256058J156299D01*
G01*
%TO.C,LED55*%
X126887500Y-109775000D02*
X126887500Y-109074647D01*
X126887500Y-109775000D02*
X126887500Y-110475353D01*
X128587500Y-108275000D02*
X127687147Y-108275000D01*
X128587500Y-108275000D02*
X129487853Y-108275000D01*
X128587500Y-111275000D02*
X127687147Y-111275000D01*
X128587500Y-111275000D02*
X129487853Y-111275000D01*
X130287500Y-109775000D02*
X130287500Y-109074647D01*
X130287500Y-109775000D02*
X130287500Y-110475353D01*
X126843566Y-108918345D02*
G75*
G02*
X126887476Y-109074647I-256066J-156255D01*
G01*
X126843566Y-108918345D02*
G75*
G02*
X127530845Y-108231066I426774J260505D01*
G01*
X126887500Y-110475353D02*
G75*
G02*
X126843565Y-110631654I-299680J-87D01*
G01*
X127530845Y-111318934D02*
G75*
G02*
X126843566Y-110631655I-260505J426774D01*
G01*
X127530845Y-111318934D02*
G75*
G02*
X127687147Y-111275024I156255J-256066D01*
G01*
X127687147Y-108275000D02*
G75*
G02*
X127530844Y-108231067I3J300020D01*
G01*
X129487853Y-111275000D02*
G75*
G02*
X129644155Y-111318934I3J-299992D01*
G01*
X129644155Y-108231066D02*
G75*
G02*
X129487853Y-108275000I-156299J256058D01*
G01*
X129644155Y-108231066D02*
G75*
G02*
X130331434Y-108918345I260503J-426776D01*
G01*
X130287500Y-109074647D02*
G75*
G02*
X130331434Y-108918345I299992J3D01*
G01*
X130331434Y-110631655D02*
G75*
G02*
X129644155Y-111318934I-426776J-260503D01*
G01*
X130331434Y-110631655D02*
G75*
G02*
X130287500Y-110475353I256058J156299D01*
G01*
%TO.C,LED61*%
X241187500Y-109775000D02*
X241187500Y-109074647D01*
X241187500Y-109775000D02*
X241187500Y-110475353D01*
X242887500Y-108275000D02*
X241987147Y-108275000D01*
X242887500Y-108275000D02*
X243787853Y-108275000D01*
X242887500Y-111275000D02*
X241987147Y-111275000D01*
X242887500Y-111275000D02*
X243787853Y-111275000D01*
X244587500Y-109775000D02*
X244587500Y-109074647D01*
X244587500Y-109775000D02*
X244587500Y-110475353D01*
X241143566Y-108918345D02*
G75*
G02*
X241187476Y-109074647I-256066J-156255D01*
G01*
X241143566Y-108918345D02*
G75*
G02*
X241830845Y-108231066I426774J260505D01*
G01*
X241187500Y-110475353D02*
G75*
G02*
X241143565Y-110631654I-299680J-87D01*
G01*
X241830845Y-111318934D02*
G75*
G02*
X241143566Y-110631655I-260505J426774D01*
G01*
X241830845Y-111318934D02*
G75*
G02*
X241987147Y-111275024I156255J-256066D01*
G01*
X241987147Y-108275000D02*
G75*
G02*
X241830844Y-108231067I3J300020D01*
G01*
X243787853Y-111275000D02*
G75*
G02*
X243944155Y-111318934I3J-299992D01*
G01*
X243944155Y-108231066D02*
G75*
G02*
X243787853Y-108275000I-156299J256058D01*
G01*
X243944155Y-108231066D02*
G75*
G02*
X244631434Y-108918345I260503J-426776D01*
G01*
X244587500Y-109074647D02*
G75*
G02*
X244631434Y-108918345I299992J3D01*
G01*
X244631434Y-110631655D02*
G75*
G02*
X243944155Y-111318934I-426776J-260503D01*
G01*
X244631434Y-110631655D02*
G75*
G02*
X244587500Y-110475353I256058J156299D01*
G01*
%TO.C,LED40*%
X160225000Y-90725000D02*
X160225000Y-90024647D01*
X160225000Y-90725000D02*
X160225000Y-91425353D01*
X161925000Y-89225000D02*
X161024647Y-89225000D01*
X161925000Y-89225000D02*
X162825353Y-89225000D01*
X161925000Y-92225000D02*
X161024647Y-92225000D01*
X161925000Y-92225000D02*
X162825353Y-92225000D01*
X163625000Y-90725000D02*
X163625000Y-90024647D01*
X163625000Y-90725000D02*
X163625000Y-91425353D01*
X160181066Y-89868345D02*
G75*
G02*
X160225000Y-90024647I-256058J-156299D01*
G01*
X160181066Y-89868345D02*
G75*
G02*
X160868345Y-89181066I426776J260503D01*
G01*
X160225000Y-91425353D02*
G75*
G02*
X160181066Y-91581655I-299992J-3D01*
G01*
X160868345Y-92268934D02*
G75*
G02*
X160181066Y-91581655I-260503J426776D01*
G01*
X160868345Y-92268934D02*
G75*
G02*
X161024647Y-92225000I156299J-256058D01*
G01*
X161024647Y-89225000D02*
G75*
G02*
X160868345Y-89181066I-3J299992D01*
G01*
X162825353Y-92225000D02*
G75*
G02*
X162981656Y-92268933I-3J-300020D01*
G01*
X162981655Y-89181066D02*
G75*
G02*
X162825353Y-89224976I-156255J256066D01*
G01*
X162981655Y-89181066D02*
G75*
G02*
X163668934Y-89868345I260505J-426774D01*
G01*
X163625000Y-90024647D02*
G75*
G02*
X163668935Y-89868346I299680J87D01*
G01*
X163668934Y-91581655D02*
G75*
G02*
X162981655Y-92268934I-426774J-260505D01*
G01*
X163668934Y-91581655D02*
G75*
G02*
X163625024Y-91425353I256066J156255D01*
G01*
%TO.C,LED32*%
X365012500Y-71675000D02*
X365012500Y-70974647D01*
X365012500Y-71675000D02*
X365012500Y-72375353D01*
X366712500Y-70175000D02*
X365812147Y-70175000D01*
X366712500Y-70175000D02*
X367612853Y-70175000D01*
X366712500Y-73175000D02*
X365812147Y-73175000D01*
X366712500Y-73175000D02*
X367612853Y-73175000D01*
X368412500Y-71675000D02*
X368412500Y-70974647D01*
X368412500Y-71675000D02*
X368412500Y-72375353D01*
X364968566Y-70818345D02*
G75*
G02*
X365012476Y-70974647I-256066J-156255D01*
G01*
X364968566Y-70818345D02*
G75*
G02*
X365655845Y-70131066I426774J260505D01*
G01*
X365012500Y-72375353D02*
G75*
G02*
X364968565Y-72531654I-299680J-87D01*
G01*
X365655845Y-73218934D02*
G75*
G02*
X364968566Y-72531655I-260505J426774D01*
G01*
X365655845Y-73218934D02*
G75*
G02*
X365812147Y-73175024I156255J-256066D01*
G01*
X365812147Y-70175000D02*
G75*
G02*
X365655844Y-70131067I3J300020D01*
G01*
X367612853Y-73175000D02*
G75*
G02*
X367769155Y-73218934I3J-299992D01*
G01*
X367769155Y-70131066D02*
G75*
G02*
X367612853Y-70175000I-156299J256058D01*
G01*
X367769155Y-70131066D02*
G75*
G02*
X368456434Y-70818345I260503J-426776D01*
G01*
X368412500Y-70974647D02*
G75*
G02*
X368456434Y-70818345I299992J3D01*
G01*
X368456434Y-72531655D02*
G75*
G02*
X367769155Y-73218934I-426776J-260503D01*
G01*
X368456434Y-72531655D02*
G75*
G02*
X368412500Y-72375353I256058J156299D01*
G01*
%TO.C,LED60*%
X222137500Y-109775000D02*
X222137500Y-109074647D01*
X222137500Y-109775000D02*
X222137500Y-110475353D01*
X223837500Y-108275000D02*
X222937147Y-108275000D01*
X223837500Y-108275000D02*
X224737853Y-108275000D01*
X223837500Y-111275000D02*
X222937147Y-111275000D01*
X223837500Y-111275000D02*
X224737853Y-111275000D01*
X225537500Y-109775000D02*
X225537500Y-109074647D01*
X225537500Y-109775000D02*
X225537500Y-110475353D01*
X222093566Y-108918345D02*
G75*
G02*
X222137476Y-109074647I-256066J-156255D01*
G01*
X222093566Y-108918345D02*
G75*
G02*
X222780845Y-108231066I426774J260505D01*
G01*
X222137500Y-110475353D02*
G75*
G02*
X222093565Y-110631654I-299680J-87D01*
G01*
X222780845Y-111318934D02*
G75*
G02*
X222093566Y-110631655I-260505J426774D01*
G01*
X222780845Y-111318934D02*
G75*
G02*
X222937147Y-111275024I156255J-256066D01*
G01*
X222937147Y-108275000D02*
G75*
G02*
X222780844Y-108231067I3J300020D01*
G01*
X224737853Y-111275000D02*
G75*
G02*
X224894155Y-111318934I3J-299992D01*
G01*
X224894155Y-108231066D02*
G75*
G02*
X224737853Y-108275000I-156299J256058D01*
G01*
X224894155Y-108231066D02*
G75*
G02*
X225581434Y-108918345I260503J-426776D01*
G01*
X225537500Y-109074647D02*
G75*
G02*
X225581434Y-108918345I299992J3D01*
G01*
X225581434Y-110631655D02*
G75*
G02*
X224894155Y-111318934I-426776J-260503D01*
G01*
X225581434Y-110631655D02*
G75*
G02*
X225537500Y-110475353I256058J156299D01*
G01*
%TD*%
M02*
